<?xml version="1.0" encoding="utf-8"?>
<!-- Generator: Adobe Illustrator 20.0.0, SVG Export Plug-In . SVG Version: 6.00 Build 0)  -->
<svg version="1.1" id="Layer_1" xmlns="http://www.w3.org/2000/svg" xmlns:xlink="http://www.w3.org/1999/xlink" x="0px" y="0px"
	 viewBox="0 0 24 24" style="enable-background:new 0 0 24 24;" xml:space="preserve">
<style type="text/css">
	.st0{display:none;}
	.st1{display:inline;fill:#808080;}
	.st2{display:none;fill:#DEDEDE;}
	.st3{display:none;fill:#CCCCCC;}
	.st4{fill:#E8240A;}
	.st5{fill:#F2582F;}
	.st6{fill:#FF6D40;}
	.st7{fill:#5B2616;}
	.st8{display:none;fill:#286B28;}
	.st9{display:inline;opacity:4.000000e-02;fill:#FFFFFF;enable-background:new    ;}
	.st10{display:inline;opacity:7.000000e-02;fill:#FFFFFF;enable-background:new    ;}
	.st11{fill:#ED3511;}
</style>
<g>
	<g class="st0">
		<path class="st1" d="M6.1,28.5L6.1,28.5L6.1,28.5C6,28.6,6,28.6,6.1,28.5L6.1,28.5L6.1,28.5L6.1,28.5c0-0.1,0.1-0.1,0.1-0.1v-0.1
			v-0.1c0,0,0-0.1-0.1-0.1H6v-0.1h0.1l0.1,0.1v-0.3v-0.1c0,0,0,0,0.1,0h0.1c0,0,0,0,0,0.1v0.6v0.1c0,0,0,0-0.1,0S6.2,28.6,6.1,28.5
			C6.1,28.6,6.1,28.6,6.1,28.5z M6,28.6L6,28.6c-0.1,0-0.1,0-0.1,0l-0.1-0.1l-0.1-0.1c0-0.1,0-0.1,0-0.1c0-0.1,0-0.1,0.1-0.2
			C5.8,28,5.8,28,5.9,28c0,0,0,0,0.1,0v0.1l0,0H5.9l-0.1,0.1v0.1l0,0c0,0.1,0,0.1,0,0.1s0,0.1,0.1,0.1H6l0,0V28.6L6,28.6z"/>
		<path class="st1" d="M6.7,28.4H6.6v-0.1L6.7,28.4c0-0.1,0-0.1-0.1-0.2l-0.1-0.1V28l0,0c0.1,0,0.1,0,0.1,0.1c0.1,0,0.1,0.1,0.1,0.1
			C6.8,28.2,6.8,28.2,6.7,28.4C6.8,28.4,6.8,28.4,6.7,28.4C6.8,28.4,6.8,28.4,6.7,28.4L6.7,28.4z M6.6,28.5L6.6,28.5
			C6.6,28.5,6.6,28.5,6.6,28.5C6.6,28.5,6.6,28.5,6.6,28.5c0.1,0,0.1,0,0.1,0c0,0,0,0,0.1-0.1l0,0c0,0,0,0,0.1,0l0,0c0,0,0,0,0,0.1
			c0,0,0,0-0.1,0.1c0,0-0.1,0-0.1,0.1H6.6l0,0L6.6,28.5L6.6,28.5z M6.6,28.4H6.4v0.1c0,0,0,0.1,0.1,0.1h0.1v0.1
			c-0.1,0-0.1,0-0.2-0.1c-0.1-0.1-0.1-0.1-0.1-0.2c0-0.1,0-0.1,0-0.1c0-0.1,0-0.1,0.1-0.1L6.4,28c0,0,0.1,0,0.1,0v0.1l0,0
			c-0.1,0-0.1,0-0.1,0.1c0,0-0.1,0.1-0.1,0.1l0,0L6.6,28.4L6.6,28.4L6.6,28.4z"/>
		<path class="st1" d="M7.3,28.4C7.3,28.5,7.3,28.5,7.3,28.4l-0.1,0.1c-0.1,0-0.1,0-0.1,0s-0.1,0-0.1,0c-0.1,0-0.1-0.1-0.1-0.1v-0.1
			c0,0,0,0,0-0.1c0,0,0,0,0.1,0l0,0l0,0c0,0,0,0.1,0.1,0.1h0.1h0.1c0,0,0,0,0-0.1v-0.1H7.1c-0.1,0-0.1,0-0.1-0.1c0,0-0.1,0-0.1-0.1
			v-0.1V28L7,27.9c0,0,0.1,0,0.1,0c0.1,0,0.1,0,0.1,0h0.1c0,0,0.1,0,0.1,0.1c0,0,0,0,0,0.1c0,0,0,0,0,0.1c0,0,0,0-0.1,0
			c0,0,0,0-0.1,0c0,0,0,0-0.1-0.1c0,0,0,0-0.1,0H7H6.9c0,0,0,0,0,0.1c0,0,0,0,0,0.1c0,0,0,0,0.1,0H7c0.1,0,0.1,0,0.1,0.1
			c0,0,0.1,0,0.1,0.1C7.3,28.4,7.3,28.4,7.3,28.4z"/>
		<path class="st1" d="M7.4,27.9L7.4,27.9C7.4,27.9,7.4,27.9,7.4,27.9l-0.1-0.1c0,0,0,0,0.1,0h0.1C7.5,27.8,7.5,27.8,7.4,27.9
			C7.5,27.9,7.5,27.9,7.4,27.9C7.5,27.9,7.4,27.9,7.4,27.9L7.4,27.9z M7.5,28.1L7.5,28.1v0.4v0.1c0,0,0,0-0.1,0s-0.1,0-0.1,0v-0.1
			v-0.4V28C7.4,28,7.4,28,7.5,28.1C7.4,28,7.5,28,7.5,28.1L7.5,28.1z"/>
		<path class="st1" d="M8.1,28.2v0.4c0,0.1,0,0.1,0,0.1c0,0,0,0.1-0.1,0.1L8,28.8c0,0-0.1,0-0.1,0v-0.1h0.1c0,0,0.1,0,0.1-0.1v-0.1
			v-0.1l-0.1,0.1H7.8v-0.1h0.1c0,0,0.1,0,0.1-0.1v-0.1c0-0.1,0-0.1-0.1-0.1l-0.1-0.1v-0.1h0.1L8,28.2l0,0v-0.1
			C8,28.1,8,28.1,8.1,28.2L8.1,28.2C8.1,28.1,8.1,28.1,8.1,28.2z M7.8,28.8L7.8,28.8c-0.1,0-0.1,0-0.1,0c-0.1,0-0.1,0-0.1-0.1v-0.1
			c0,0,0,0,0-0.1c0,0,0,0,0.1,0h0.1l0,0l0,0c0,0,0,0,0.1,0s0,0,0.1,0l0,0L7.8,28.8L7.8,28.8z M7.8,28.6L7.8,28.6
			c-0.1,0-0.1,0-0.1-0.1c-0.1,0-0.1-0.1-0.1-0.1c0-0.1,0-0.1,0-0.1c0-0.1,0-0.1,0-0.1c0-0.1,0-0.1,0.1-0.1S7.8,28,7.8,28h0.1
			c0,0,0,0,0.1,0v0.1l0,0c-0.1,0-0.1,0-0.1,0.1c0,0-0.1,0.1-0.1,0.1l0,0c0,0.1,0,0.1,0.1,0.1L7.8,28.6L7.8,28.6
			C7.8,28.5,7.8,28.6,7.8,28.6z"/>
		<path class="st1" d="M8.3,28.1L8.3,28.1L8.3,28.1L8.4,28h0.1l0.1,0.1v0.1v0.1v0.3v0.1c0,0,0,0-0.1,0H8.4v-0.1v-0.2
			c0-0.1,0-0.1,0-0.1L8.3,28.1C8.4,28.2,8.4,28.2,8.3,28.1c0,0.1,0,0.1,0,0.1s0,0.1,0,0.1v0.2v0.1c0,0,0,0-0.1,0H8.2v-0.1v-0.4v-0.1
			C8.2,28.1,8.2,28.1,8.3,28.1C8.3,28.1,8.2,28.1,8.3,28.1C8.2,28,8.2,28,8.3,28.1L8.3,28.1z"/>
		<path class="st1" d="M9.1,28.4H9v-0.1L9.1,28.4c0-0.1,0-0.1-0.1-0.2L9,28.1V28l0,0C9,28,9,28,9.1,28.1c0.1,0,0.1,0.1,0.1,0.1
			C9.2,28.2,9.2,28.2,9.1,28.4C9.2,28.4,9.2,28.4,9.1,28.4C9.2,28.4,9.2,28.4,9.1,28.4L9.1,28.4z M9,28.5L9,28.5
			C9,28.5,9,28.5,9,28.5C9,28.5,9,28.5,9,28.5c0.1,0,0.1,0,0.1,0c0,0,0,0,0.1-0.1l0,0c0,0,0,0,0.1,0l0,0c0,0,0,0,0,0.1
			c0,0,0,0-0.1,0.1c0,0-0.1,0-0.1,0.1H9l0,0L9,28.5L9,28.5z M9,28.4H8.8v0.1c0,0,0,0.1,0.1,0.1H9v0.1c-0.1,0-0.1,0-0.2-0.1
			c-0.1-0.1-0.1-0.1-0.1-0.2c0-0.1,0-0.1,0-0.1c0-0.1,0-0.1,0.1-0.1L8.8,28c0,0,0.1,0,0.1,0v0.1l0,0c-0.1,0-0.1,0-0.1,0.1
			c0,0-0.1,0.1-0.1,0.1l0,0L9,28.4L9,28.4L9,28.4z"/>
		<path class="st1" d="M9.6,28.5L9.6,28.5L9.6,28.5C9.6,28.6,9.6,28.6,9.6,28.5L9.6,28.5L9.6,28.5L9.6,28.5c0-0.1,0.1-0.1,0.1-0.1
			v-0.1v-0.1c0,0,0-0.1-0.1-0.1H9.6v-0.1h0.1l0.1,0.1v-0.3v-0.1c0,0,0,0,0.1,0h0.1c0,0,0,0,0,0.1v0.6v0.1c0,0,0,0-0.1,0
			C9.7,28.6,9.7,28.6,9.6,28.5C9.6,28.6,9.6,28.6,9.6,28.5z M9.5,28.6L9.5,28.6c-0.1,0-0.1,0-0.1,0l-0.1-0.1l-0.1-0.1
			c0-0.1,0-0.1,0-0.1c0-0.1,0-0.1,0.1-0.2C9.4,28,9.4,28,9.4,28c0,0,0,0,0.1,0v0.1l0,0H9.4l-0.1,0.1v0.1l0,0c0,0.1,0,0.1,0,0.1
			s0,0.1,0.1,0.1h0.1l0,0V28.6L9.5,28.6z"/>
		<path class="st1" d="M10.3,28C10.3,28,10.4,28,10.3,28c0.1,0,0.1,0,0.1,0c0.1,0,0.1,0.1,0.1,0.1s0,0.1,0,0.1c0,0.1,0,0.1,0,0.1
			c0,0.1,0,0.1-0.1,0.1l-0.1,0.1h-0.1c0,0,0,0-0.1,0v-0.1l0,0c0.1,0,0.1,0,0.1-0.1c0-0.1,0.1-0.1,0.1-0.1
			C10.4,28.1,10.4,28.1,10.3,28C10.4,28.1,10.4,28,10.3,28L10.3,28L10.3,28L10.3,28L10.3,28z M10.2,27.9v0.2l0.1-0.1h0.1v0.1h-0.1
			l-0.1,0.1v0.1l0,0c0,0.1,0,0.1,0.1,0.1l0.1,0.1v0.1l0,0h-0.1c0,0,0,0-0.1,0c0,0,0,0-0.1-0.1l0,0v0.1c0,0,0,0-0.1,0H10
			c0,0,0,0,0-0.1v-0.6v-0.1c0,0,0,0,0.1,0C10.2,27.8,10.2,27.8,10.2,27.9C10.2,27.8,10.2,27.9,10.2,27.9z"/>
		<path class="st1" d="M10.8,28.6L10.8,28.6l-0.1-0.5V28l0,0l0,0l0,0h0.1c0,0,0,0,0,0.1l0.1,0.3l0.1-0.3V28l0,0c0,0,0,0,0.1,0l0,0
			l0,0l0,0l0,0c0,0,0,0,0,0.1L10.8,28.6C10.8,28.6,10.8,28.6,10.8,28.6l-0.1,0.1h-0.1h-0.1c0,0,0,0,0-0.1c0,0,0,0,0-0.1
			c0,0,0,0,0.1,0l0,0l0,0C10.6,28.6,10.6,28.6,10.8,28.6C10.8,28.6,10.7,28.6,10.8,28.6C10.7,28.6,10.8,28.6,10.8,28.6z"/>
		<path class="st1" d="M12.6,28L12.6,28L12.6,28c0-0.1,0.1-0.1,0.1-0.1s0-0.1,0.1-0.1h0.1c0.1,0,0.1,0,0.1,0.1l0,0l0,0l0,0l0,0h-0.1
			v0.1l0,0H13c0.1,0,0.1,0,0.1,0.1v0.1c0,0,0,0-0.1,0h-0.1v0.3v0.1c0,0,0,0-0.1,0h-0.1v-0.1v-0.3L12.6,28L12.6,28
			C12.6,28.1,12.6,28.1,12.6,28C12.6,28,12.6,28,12.6,28z"/>
		<path class="st1" d="M13.1,28.4v0.1v0.1c0,0,0,0-0.1,0c-0.1,0-0.1,0-0.1,0v-0.1v-0.4C13,28,13,28,13,28h0.1v0.1c0,0,0-0.1,0.1-0.1
			h0.1h0.1l0.1,0.1c0,0,0,0,0,0.1c0,0,0,0-0.1,0c0,0,0,0-0.1,0h-0.1h-0.1c0,0,0,0,0,0.1V28.4L13.1,28.4z"/>
		<path class="st1" d="M13.7,28.4h-0.1v-0.1L13.7,28.4c0-0.1,0-0.1-0.1-0.2l-0.1-0.1V28l0,0c0.1,0,0.1,0,0.1,0.1
			c0.1,0,0.1,0.1,0.1,0.1C13.8,28.2,13.8,28.2,13.7,28.4C13.8,28.4,13.8,28.4,13.7,28.4C13.8,28.4,13.8,28.4,13.7,28.4L13.7,28.4z
			 M13.6,28.5L13.6,28.5C13.6,28.5,13.6,28.5,13.6,28.5C13.6,28.5,13.6,28.5,13.6,28.5c0.1,0,0.1,0,0.1,0c0,0,0,0,0.1-0.1l0,0
			c0,0,0,0,0.1,0l0,0c0,0,0,0,0,0.1c0,0,0,0-0.1,0.1c0,0-0.1,0-0.1,0.1h-0.1l0,0L13.6,28.5L13.6,28.5z M13.6,28.4h-0.1v0.1
			c0,0,0,0.1,0.1,0.1h0.1v0.1c-0.1,0-0.1,0-0.2-0.1c-0.1-0.1-0.1-0.1-0.1-0.2c0-0.1,0-0.1,0-0.1c0-0.1,0-0.1,0.1-0.1l0.1-0.1
			c0,0,0.1,0,0.1,0v0.1l0,0c-0.1,0-0.1,0-0.1,0.1c0,0-0.1,0.1-0.1,0.1l0,0L13.6,28.4L13.6,28.4L13.6,28.4z"/>
		<path class="st1" d="M14.2,28.4h-0.1v-0.1L14.2,28.4c0-0.1,0-0.1-0.1-0.2l-0.1-0.1V28l0,0c0.1,0,0.1,0,0.1,0.1
			c0.1,0,0.1,0.1,0.1,0.1C14.3,28.2,14.3,28.2,14.2,28.4C14.3,28.4,14.3,28.4,14.2,28.4C14.3,28.4,14.3,28.4,14.2,28.4L14.2,28.4z
			 M14.1,28.5L14.1,28.5C14.2,28.5,14.2,28.5,14.1,28.5C14.2,28.5,14.2,28.5,14.1,28.5c0.1,0,0.1,0,0.1,0c0,0,0,0,0.1-0.1l0,0
			c0,0,0,0,0.1,0l0,0c0,0,0,0,0,0.1c0,0,0,0-0.1,0.1c0,0-0.1,0-0.1,0.1h-0.1l0,0L14.1,28.5L14.1,28.5z M14.1,28.4H14v0.1
			c0,0,0,0.1,0.1,0.1h0.1v0.1c-0.1,0-0.1,0-0.2-0.1c-0.1-0.1-0.1-0.1-0.1-0.2c0-0.1,0-0.1,0-0.1c0-0.1,0-0.1,0.1-0.1L14,28
			c0,0,0.1,0,0.1,0v0.1l0,0c-0.1,0-0.1,0-0.1,0.1c0,0-0.1,0.1-0.1,0.1l0,0L14.1,28.4L14.1,28.4L14.1,28.4z"/>
		<path class="st1" d="M14.7,28L14.7,28c0.1,0,0.1,0,0.1,0c0.1,0,0.1,0.1,0.1,0.1c0,0.1,0,0.1,0,0.1c0,0.1,0,0.1,0,0.1
			c0,0.1,0,0.1-0.1,0.1l-0.1,0.1h-0.1c0,0,0,0-0.1,0v-0.1l0,0h0.1c0,0,0.1,0,0.1-0.1v-0.1l0,0c0-0.1,0-0.1,0-0.1S14.8,28.1,14.7,28
			L14.7,28L14.7,28L14.7,28L14.7,28z M14.6,28.1L14.6,28.1L14.6,28.1l0.1-0.1v0.1C14.6,28.1,14.6,28.2,14.6,28.1c0,0.1,0,0.1,0,0.2
			c0,0.1,0,0.1,0.1,0.1l0.1,0.1v0.1h-0.1l-0.1-0.1v0.2c0,0.1,0,0.1-0.1,0.1h-0.1v-0.1v-0.6V28C14.4,28,14.4,28,14.6,28.1
			C14.5,28,14.5,28,14.6,28.1L14.6,28.1z"/>
		<path class="st1" d="M15.1,27.9C15,27.9,15,27.9,15.1,27.9C15,27.9,15,27.9,15.1,27.9L15,27.8c0,0,0,0,0.1,0h0.1
			C15.2,27.8,15.2,27.8,15.1,27.9C15.2,27.9,15.1,27.9,15.1,27.9L15.1,27.9L15.1,27.9z M15.2,28.1L15.2,28.1v0.4v0.1c0,0,0,0-0.1,0
			c-0.1,0-0.1,0-0.1,0v-0.1v-0.4V28C15,28,15,28,15.2,28.1C15.2,28,15.1,28,15.2,28.1C15.1,28.1,15.2,28.1,15.2,28.1z"/>
		<path class="st1" d="M15.6,28.5l-0.1-0.2l-0.1,0.1v0.1v0.1c0,0,0,0-0.1,0h-0.1v-0.1v-0.6v-0.1c0,0,0,0,0.1,0h0.1v0.1v0.3l0.1-0.1
			l0.1-0.1c0,0,0,0,0.1,0c0,0,0,0,0.1,0c0,0,0,0,0,0.1c0,0,0,0.1-0.1,0.1l-0.1,0.1l0.1,0.2c0,0,0,0,0,0.1l0,0v0.1
			C15.7,28.6,15.7,28.6,15.6,28.5C15.6,28.6,15.6,28.6,15.6,28.5C15.6,28.6,15.6,28.6,15.6,28.5z"/>
		<path class="st1" d="M15.8,28.6L15.8,28.6C15.8,28.5,15.8,28.5,15.8,28.6l-0.1-0.1c0,0,0,0,0.1,0h0.1
			C15.9,28.4,15.9,28.4,15.8,28.6C15.9,28.5,15.9,28.6,15.8,28.6C15.9,28.6,15.9,28.6,15.8,28.6z"/>
		<path class="st1" d="M16.5,28.4L16.5,28.4c0,0.1-0.1,0.1-0.1,0.1c0,0-0.1,0-0.1,0.1c0,0-0.1,0-0.1,0c-0.1,0-0.1,0-0.2-0.1
			C16,28.5,16,28.4,16,28.4c0-0.1,0-0.1,0-0.1c0-0.1,0.1-0.1,0.1-0.1c0.1,0,0.1-0.1,0.1-0.1s0.1,0,0.1,0s0.1,0,0.1,0.1l0.1,0.1v0.1
			c0,0,0,0,0,0.1c0,0,0,0-0.1,0l0,0l0,0l-0.1-0.1h-0.1c-0.1,0-0.1,0-0.1,0.1c0,0-0.1,0.1-0.1,0.1v0.1v0.1c0,0,0,0,0.1,0.1h0.1h0.1
			c0,0,0.1,0,0.1-0.1c0,0,0,0,0-0.1c0,0,0,0,0.1,0C16.4,28.5,16.5,28.4,16.5,28.4C16.5,28.4,16.5,28.4,16.5,28.4z"/>
		<path class="st1" d="M17.1,28.3c0,0.1,0,0.1,0,0.1c0,0.1,0,0.1-0.1,0.1L17,28.6c0,0-0.1,0-0.1,0v-0.1c0.1,0,0.1,0,0.1-0.1
			c0-0.1,0.1-0.1,0.1-0.1l0,0c0-0.1,0-0.1-0.1-0.1L16.8,28v-0.1c0.1,0,0.1,0,0.1,0c0.1,0,0.1,0,0.1,0.1l0.1,0.1
			C17.1,28.2,17.1,28.3,17.1,28.3z M16.8,28.6L16.8,28.6c-0.1,0-0.1,0-0.1,0s-0.1,0-0.1-0.1l-0.1-0.1c0-0.1,0-0.1,0-0.1
			c0-0.1,0-0.1,0-0.1c0-0.1,0-0.1,0.1-0.1l0.1-0.1c0,0,0.1,0,0.1,0l0,0v0.1l0,0h-0.1l-0.1,0.1v0.1v0.1c0,0,0,0.1,0.1,0.1h0.1l0,0
			V28.6L16.8,28.6z"/>
		<path class="st1" d="M17.6,28.3v0.2v0.1c0,0,0,0-0.1,0c-0.1,0-0.1,0-0.1,0v-0.1v-0.2c0-0.1,0-0.1,0-0.1v-0.1c0,0,0,0-0.1,0
			s-0.1,0-0.1,0.1c0,0.1,0,0.1,0,0.1v0.2v0.1c0,0,0,0-0.1,0h-0.1v-0.1v-0.4v-0.1c0,0,0,0,0.1,0h0.1c0,0,0,0,0,0.1l0,0l0.1-0.1h0.1
			c0.1,0,0.1,0,0.1,0l0.1,0.1l0.1-0.1h0.1c0.1,0,0.1,0,0.1,0l0.1,0.1c0,0,0,0.1,0,0.1v0.3v0.1c0,0,0,0-0.1,0s-0.1,0-0.1,0v-0.1v-0.2
			v-0.1c0,0,0,0,0-0.1C17.7,28.2,17.7,28.2,17.6,28.3L17.6,28.3C17.6,28.2,17.6,28.2,17.6,28.3C17.6,28.2,17.6,28.2,17.6,28.3z"/>
		<path class="st1" d="M11.4,28.3L11.4,28.3L11.4,28.3z"/>
		<path class="st1" d="M11.4,28.3L11.4,28.3L11.4,28.3L11.4,28.3z"/>
		<path class="st1" d="M11.5,28.4L11.5,28.4L11.5,28.4z"/>
		<path class="st1" d="M11.5,28.4L11.5,28.4L11.5,28.4z"/>
		<path class="st1" d="M11.4,28.4C11.4,28.4,11.4,28.4,11.4,28.4C11.4,28.4,11.4,28.4,11.4,28.4L11.4,28.4z"/>
		<path class="st1" d="M12,27.7L12,27.7L12,27.7C12,27.7,12,27.7,12,27.7L12,27.7c-0.1-0.1,0-0.1,0-0.1c0,0,0-0.1-0.1-0.1
			c0,0-0.1,0-0.1,0.1C11.8,27.6,11.8,27.7,12,27.7L12,27.7c-0.1-0.1-0.2,0-0.2,0v0.1C11.8,27.8,11.8,27.8,12,27.7
			C11.9,27.7,11.9,27.7,12,27.7z"/>
		<path class="st1" d="M11.5,27.9L11.5,27.9L11.5,27.9L11.5,27.9L11.5,27.9c-0.1-0.1-0.1,0-0.1,0.1l0,0c0,0,0,0-0.1,0l0,0l0,0l0,0
			c0,0,0-0.1-0.1-0.1c0,0-0.1,0-0.1,0.1c0,0.1,0,0.1,0.1,0.1l0,0c0,0,0,0,0.1,0l0,0l0,0l0,0c0,0.1,0,0.1,0,0.1h0.1c0,0,0-0.1,0-0.1
			C11.4,28,11.5,27.9,11.5,27.9z"/>
		<path class="st1" d="M12.4,27.8C12.4,27.8,12.4,27.8,12.4,27.8L12.4,27.8C12.4,27.9,12.4,27.9,12.4,27.8L12.4,27.8L12.4,27.8
			c-0.1,0-0.1,0-0.1,0l-0.1,0.1c0,0,0.1,0.1,0.1,0.1c0,0,0.1,0.1,0.1,0.1h0.1c0,0,0-0.1-0.1-0.1l0,0c0,0,0,0,0-0.1
			C12.4,27.9,12.4,27.9,12.4,27.8C12.4,27.9,12.4,27.9,12.4,27.8L12.4,27.8L12.4,27.8z"/>
		<path class="st1" d="M12.3,28.3c-0.1,0.1-0.2,0.1-0.3,0.1c-0.1,0-0.1,0-0.2,0c-0.1,0-0.1,0-0.2,0c-0.1,0-0.1,0-0.1,0v0.1l0,0l0,0
			l0,0l0,0l0.1,0.1c0.1,0.1,0.1,0.1,0.1,0.1l0,0l0,0c0,0,0.1,0,0.2,0c0.1,0,0.2,0,0.3-0.1c0.1-0.1,0.1-0.1,0.1-0.1
			C12.2,28.4,12.3,28.4,12.3,28.3L12.3,28.3C12.4,28.2,12.3,28.2,12.3,28.3z"/>
		<path class="st1" d="M12.1,28.3c0.1,0,0.1-0.1,0.1-0.1s0.1-0.1,0.1-0.1c0-0.1-0.1-0.1-0.1-0.2c-0.1-0.1-0.1-0.1-0.2-0.1v0.1
			c0.1,0,0.1,0.1,0.1,0.1l-0.1,0.1V28.3z M11.7,28.4c0.1,0,0.1,0,0.2,0c0.1,0,0.1,0,0.2-0.1v-0.2l0,0C12,28.1,12,28,12,28
			c0-0.1,0.1-0.1,0.1-0.1l0,0l0,0v-0.1c-0.1,0-0.1-0.1-0.1-0.1h-0.1h-0.1c-0.1,0-0.1,0-0.1,0l0,0v0.1c0.1,0,0.1,0.1,0.1,0.1
			c0,0.1-0.1,0.1-0.1,0.1C11.7,28.2,11.7,28.4,11.7,28.4z M11.5,27.9c0,0-0.1,0.1-0.1,0.1c0,0.1,0,0.1,0,0.1l0,0v0.1l0,0l0,0
			c0,0,0,0,0,0.1c0,0,0.1,0,0.3,0.1v-0.1l0,0c-0.1,0-0.1-0.1-0.1-0.1c0-0.1,0.1-0.1,0.1-0.1l0,0l0,0v-0.1
			C11.6,27.8,11.6,27.9,11.5,27.9L11.5,27.9L11.5,27.9z"/>
	</g>
	<g>
		<path class="st2" d="M11.8,25.4c3.1,0,5.7-0.7,5.7-1.7c0-0.9-2.5-1.7-5.7-1.7s-5.7,0.7-5.7,1.7C6.2,24.7,8.7,25.4,11.8,25.4z"/>
		<path class="st3" d="M11.8,24.7c1.7,0,3.2-0.4,3.2-0.9c0-0.5-1.5-0.9-3.2-0.9s-3.2,0.4-3.2,0.9C8.6,24.3,10.1,24.7,11.8,24.7z"/>
		<path class="st4" d="M11.9,23.7c-0.5,0-1.1,0.4-2.4,0.3c-1.9-0.2-4.5-2.3-5.9-5.1C-0.9,10.5,2.2,5.1,5,3.9s5.1,0.2,7,0.2
			s4.1-1.4,6.9-0.2s5.9,6.5,1.5,15c-1.5,2.9-3.6,4.5-6.3,5C13.2,24.1,12.4,23.6,11.9,23.7z"/>
		<path class="st5" d="M11.4,22.9c-0.4,0-1.1,0.4-2.3,0.3c-1.9-0.2-4.4-2.3-5.7-4.9C-0.8,10.2,2.1,5.1,4.8,3.9S9.8,4,11.5,4
			s3.9-1.3,6.7-0.1s5.7,6.3,1.5,14.4c-1.5,2.7-3.5,4.3-6.1,4.8C12.7,23.3,11.9,22.8,11.4,22.9z"/>
		<path class="st6" d="M11.2,21.5c-0.4,0-0.9,0.3-2.1,0.3c-1.7-0.2-3.9-2-5.2-4.4C0.1,10,2.8,5.3,5.3,4.2s4.5,0.1,6.1,0.1
			s3.6-1.2,6.1-0.1c2.5,1.1,5.1,5.7,1.3,13c-1.3,2.5-3.1,3.9-5.5,4.4C12.4,21.9,11.7,21.5,11.2,21.5z"/>
		<path class="st5" d="M12.1,7c3-0.1,4.9-2.5,0-2.5C7.6,4.4,8.1,7,12.1,7z"/>
		<path class="st4" d="M12.1,6.6c2-0.1,3.3-1.7,0-1.7C9,4.8,9.4,6.6,12.1,6.6z"/>
		<path class="st7" d="M11.6,1.6C11.3,1,10.6-0.6,9.8,0.3c-0.5,0.5,0.6,1,1.1,2.5c0.7,1.9,0.2,3.4,1,3.3C13.2,6.1,12,2.3,11.6,1.6z"
			/>
		<path class="st8" d="M12.2,3c-0.1-1.1-0.9-1.9-1.1-2.3c-0.3-0.5-0.7-3.5-1.9-5.2S5-7.2,1.8-6.6s-3.7,2-6,1.1
			c1.9,1.6,1.5,3.9,5.7,6.1s8.3-0.3,9.2,0.6S12,3,11.8,3.9L12.2,3z"/>
		<g class="st0">
			<ellipse class="st9" cx="11.7" cy="19.2" rx="0.3" ry="0.3"/>
			<ellipse class="st9" cx="15.6" cy="16.5" rx="0.3" ry="0.3"/>
			<ellipse class="st9" cx="7.7" cy="17" rx="0.3" ry="0.3"/>
			<ellipse class="st9" cx="6.3" cy="20.9" rx="0.3" ry="0.3"/>
			<ellipse class="st9" cx="2.8" cy="17.1" rx="0.3" ry="0.3"/>
			<ellipse class="st9" cx="18.7" cy="19" rx="0.3" ry="0.3"/>
			<ellipse class="st9" cx="18.8" cy="21.4" rx="0.3" ry="0.3"/>
			<ellipse class="st9" cx="9.5" cy="23.5" rx="0.3" ry="0.3"/>
			<ellipse class="st9" cx="15.1" cy="20.7" rx="0.3" ry="0.3"/>
			<ellipse class="st9" cx="20.1" cy="15.3" rx="0.3" ry="0.3"/>
			<ellipse class="st9" cx="14" cy="22.5" rx="0.3" ry="0.3"/>
			<ellipse class="st9" cx="9.7" cy="21.4" rx="0.3" ry="0.3"/>
			<ellipse class="st9" cx="5.1" cy="14.2" rx="0.3" ry="0.3"/>
			<ellipse class="st9" cx="2.3" cy="11.8" rx="0.3" ry="0.3"/>
			<ellipse class="st9" cx="19.4" cy="11.1" rx="0.3" ry="0.3"/>
			<ellipse class="st9" cx="14.6" cy="12.6" rx="0.3" ry="0.3"/>
			<ellipse class="st9" cx="14.4" cy="18.6" rx="0.3" ry="0.3"/>
			<ellipse class="st9" cx="16.8" cy="20" rx="0.3" ry="0.3"/>
			<ellipse class="st9" cx="11.6" cy="21.7" rx="0.3" ry="0.3"/>
			<ellipse class="st9" cx="7.1" cy="19.5" rx="0.3" ry="0.3"/>
			<ellipse class="st9" cx="5.2" cy="18.1" rx="0.3" ry="0.3"/>
			<ellipse class="st9" cx="10.7" cy="15" rx="0.3" ry="0.3"/>
			<ellipse class="st9" cx="9.9" cy="8" rx="0.3" ry="0.3"/>
		</g>
		<g class="st0">
			<ellipse class="st10" cx="13.4" cy="19.8" rx="0.3" ry="0.3"/>
			<ellipse class="st10" cx="8" cy="15.5" rx="0.3" ry="0.3"/>
			<ellipse class="st10" cx="16.9" cy="15.5" rx="0.3" ry="0.3"/>
			<ellipse class="st10" cx="17.8" cy="20.9" rx="0.3" ry="0.3"/>
			<ellipse class="st10" cx="19.4" cy="17.4" rx="0.3" ry="0.3"/>
			<ellipse class="st10" cx="5.4" cy="19" rx="0.3" ry="0.3"/>
			<ellipse class="st10" cx="5.3" cy="21.4" rx="0.3" ry="0.3"/>
			<ellipse class="st10" cx="15.1" cy="23" rx="0.3" ry="0.3"/>
			<ellipse class="st10" cx="9" cy="20.7" rx="0.3" ry="0.3"/>
			<ellipse class="st10" cx="3.2" cy="13.8" rx="0.3" ry="0.3"/>
			<ellipse class="st10" cx="10.1" cy="22.5" rx="0.3" ry="0.3"/>
			<ellipse class="st10" cx="16" cy="22" rx="0.3" ry="0.3"/>
			<ellipse class="st10" cx="19" cy="14.2" rx="0.3" ry="0.3"/>
			<ellipse class="st10" cx="21.8" cy="11.8" rx="0.3" ry="0.3"/>
			<ellipse class="st10" cx="8" cy="11.5" rx="0.3" ry="0.3"/>
			<ellipse class="st10" cx="11.9" cy="11.7" rx="0.3" ry="0.3"/>
			<ellipse class="st10" cx="9.7" cy="18.6" rx="0.3" ry="0.3"/>
			<ellipse class="st10" cx="7.7" cy="21.9" rx="0.3" ry="0.3"/>
			<ellipse class="st10" cx="12.5" cy="22.6" rx="0.3" ry="0.3"/>
			<ellipse class="st10" cx="17" cy="18.5" rx="0.3" ry="0.3"/>
			<ellipse class="st10" cx="11.7" cy="17" rx="0.3" ry="0.3"/>
			<ellipse class="st10" cx="13.4" cy="15" rx="0.3" ry="0.3"/>
			<ellipse class="st10" cx="16.8" cy="7.6" rx="0.3" ry="0.3"/>
			<ellipse class="st10" cx="7.6" cy="8.2" rx="0.3" ry="0.3"/>
			<ellipse class="st10" cx="16.4" cy="4.6" rx="0.3" ry="0.3"/>
			<ellipse class="st10" cx="20.8" cy="8" rx="0.3" ry="0.3"/>
		</g>
		<path class="st5" d="M3.6,6.8C5,5.2,6.8,4.6,8.2,5.8C8.8,6.2,6.5,6.2,5,8.3c-1.3,1.9-0.6,4.3-1.3,3.7C2.9,11.2,2.2,8.5,3.6,6.8z"
			/>
		<path class="st11" d="M4,7.2c0.9-1.5,2.9-1.9,3.4-1.4C7.7,6,5.8,6,4.6,7.7s-0.5,3.6-0.9,3.1C3.2,10.2,3.1,8.5,4,7.2z"/>
	</g>
</g>
</svg>
