<?xml version="1.0" encoding="utf-8"?>
<!-- Generator: Adobe Illustrator 20.0.0, SVG Export Plug-In . SVG Version: 6.00 Build 0)  -->
<svg version="1.1" id="Layer_1" xmlns="http://www.w3.org/2000/svg" xmlns:xlink="http://www.w3.org/1999/xlink" x="0px" y="0px"
	 viewBox="0 0 36 36" style="enable-background:new 0 0 36 36;" xml:space="preserve">
<style type="text/css">
	.st0{display:none;}
	.st1{display:inline;fill:#808080;}
	.st2{display:none;fill:#DEDEDE;}
	.st3{display:none;fill:#CCCCCC;}
	.st4{fill:#E8240A;}
	.st5{fill:#F2582F;}
	.st6{fill:#FF6D40;}
	.st7{fill:#5B2616;}
	.st8{display:none;fill:#286B28;}
	.st9{display:inline;opacity:4.000000e-02;fill:#FFFFFF;enable-background:new    ;}
	.st10{display:inline;opacity:7.000000e-02;fill:#FFFFFF;enable-background:new    ;}
	.st11{fill:#ED3511;}
</style>
<g>
	<g class="st0">
		<path class="st1" d="M10,42.9L10,42.9C10,42.9,10,42.9,10,42.9C9.9,43,9.9,43,9.9,43c0,0,0,0,0,0v-0.2c0,0,0.1,0,0.1,0
			c0,0,0.1,0,0.1-0.1c0,0,0-0.1,0-0.1s0-0.1,0-0.1c0,0,0-0.1-0.1-0.1c0,0-0.1,0-0.1,0v-0.1c0,0,0.1,0,0.1,0c0,0,0.1,0.1,0.1,0.1V42
			c0,0,0-0.1,0-0.1c0,0,0,0,0.1,0c0,0,0.1,0,0.1,0c0,0,0,0,0,0.1v0.9c0,0,0,0.1,0,0.1c0,0,0,0-0.1,0C10.1,43,10.1,43,10,42.9
			C10,43,10,43,10,42.9z M9.8,43C9.8,43,9.8,43,9.8,43c-0.1,0-0.2,0-0.2,0c0,0-0.1-0.1-0.1-0.1c0,0-0.1-0.1-0.1-0.1
			c0-0.1,0-0.1,0-0.2c0-0.1,0-0.2,0.1-0.3c0.1-0.1,0.1-0.1,0.2-0.1c0,0,0,0,0.1,0v0.1l0,0c0,0-0.1,0-0.1,0c0,0-0.1,0.1-0.1,0.1
			c0,0,0,0.1,0,0.1l0,0c0,0.1,0,0.1,0,0.1c0,0,0,0.1,0.1,0.1c0,0,0.1,0,0.1,0l0,0L9.8,43L9.8,43z"/>
		<path class="st1" d="M10.9,42.7h-0.2v-0.1h0.2c0-0.1,0-0.1-0.1-0.2c0,0-0.1-0.1-0.1-0.1v-0.1h0c0.1,0,0.1,0,0.2,0.1
			c0.1,0,0.1,0.1,0.1,0.1c0,0.1,0,0.1,0,0.2s0,0.1,0,0.1C11,42.7,11,42.7,10.9,42.7L10.9,42.7z M10.7,42.9L10.7,42.9
			C10.7,42.9,10.8,42.9,10.7,42.9c0.1,0,0.1,0,0.1,0c0,0,0,0,0.1,0c0,0,0,0,0.1-0.1c0,0,0,0,0,0s0,0,0.1,0c0,0,0,0,0,0
			c0,0,0,0,0,0.1c0,0,0,0-0.1,0.1c0,0-0.1,0-0.1,0.1c0,0-0.1,0-0.1,0c0,0,0,0,0,0V42.9z M10.7,42.7h-0.2c0,0,0,0.1,0,0.1
			c0,0,0,0.1,0.1,0.1c0,0,0.1,0,0.1,0V43c-0.1,0-0.2,0-0.3-0.1c-0.1-0.1-0.1-0.2-0.1-0.3c0-0.1,0-0.1,0-0.2c0-0.1,0-0.1,0.1-0.1
			c0,0,0.1-0.1,0.1-0.1c0,0,0.1,0,0.2,0v0.1l0,0c-0.1,0-0.1,0-0.1,0.1c0,0-0.1,0.1-0.1,0.2l0,0h0.2L10.7,42.7L10.7,42.7z"/>
		<path class="st1" d="M11.8,42.8c0,0.1,0,0.1,0,0.1c0,0-0.1,0.1-0.1,0.1c-0.1,0-0.1,0-0.2,0c-0.1,0-0.1,0-0.2,0
			c-0.1,0-0.1-0.1-0.1-0.1c0,0,0-0.1,0-0.1c0,0,0,0,0-0.1c0,0,0,0,0.1,0c0,0,0,0,0,0c0,0,0,0,0,0c0,0,0,0.1,0.1,0.1c0,0,0.1,0,0.1,0
			c0,0,0.1,0,0.1,0c0,0,0,0,0-0.1c0,0,0-0.1,0-0.1c0,0-0.1,0-0.1,0c-0.1,0-0.1,0-0.2-0.1c0,0-0.1,0-0.1-0.1c0,0,0-0.1,0-0.1
			c0,0,0-0.1,0-0.1c0,0,0.1-0.1,0.1-0.1c0,0,0.1,0,0.2,0c0.1,0,0.1,0,0.1,0c0,0,0.1,0,0.1,0c0,0,0.1,0,0.1,0.1c0,0,0,0,0,0.1
			c0,0,0,0,0,0.1c0,0,0,0-0.1,0c0,0,0,0-0.1,0c0,0,0,0-0.1-0.1c0,0,0,0-0.1,0c0,0-0.1,0-0.1,0c0,0-0.1,0-0.1,0c0,0,0,0,0,0.1
			c0,0,0,0,0,0.1c0,0,0,0,0.1,0c0,0,0.1,0,0.1,0c0.1,0,0.1,0,0.1,0.1c0,0,0.1,0,0.1,0.1C11.8,42.7,11.8,42.7,11.8,42.8z"/>
		<path class="st1" d="M12,42.1C12,42.1,12,42.1,12,42.1c-0.1,0-0.1-0.1-0.1-0.1c0,0,0-0.1,0-0.1c0,0,0,0,0.1,0c0,0,0.1,0,0.1,0
			c0,0,0,0,0,0.1S12.1,42.1,12,42.1C12.1,42.1,12,42.1,12,42.1L12,42.1z M12.1,42.3L12.1,42.3v0.6c0,0,0,0.1,0,0.1c0,0,0,0-0.1,0
			s-0.1,0-0.1,0c0,0,0-0.1,0-0.1v-0.6c0,0,0-0.1,0-0.1s0,0,0.1,0C12,42.2,12.1,42.2,12.1,42.3C12.1,42.3,12.1,42.3,12.1,42.3z"/>
		<path class="st1" d="M13,42.4v0.6c0,0.1,0,0.1,0,0.2c0,0,0,0.1-0.1,0.1c0,0-0.1,0.1-0.1,0.1c0,0-0.1,0-0.2,0v-0.1c0,0,0.1,0,0.1,0
			c0,0,0.1,0,0.1-0.1c0,0,0-0.1,0-0.1c0,0,0-0.1,0-0.1c0,0-0.1,0.1-0.1,0.1c0,0-0.1,0-0.1,0v-0.1c0,0,0.1,0,0.1,0c0,0,0.1,0,0.1-0.1
			c0,0,0-0.1,0-0.1c0-0.1,0-0.1-0.1-0.2c0,0-0.1-0.1-0.1-0.1v-0.2c0,0,0.1,0,0.1,0c0,0,0.1,0.1,0.1,0.1v0c0,0,0-0.1,0-0.1
			c0,0,0,0,0.1,0c0,0,0.1,0,0.1,0C13,42.3,13,42.3,13,42.4z M12.6,43.3L12.6,43.3c-0.1,0-0.1,0-0.2,0c-0.1,0-0.1,0-0.1-0.1
			c0,0,0-0.1,0-0.1c0,0,0,0,0-0.1c0,0,0,0,0.1,0c0,0,0.1,0,0.1,0c0,0,0,0,0,0c0,0,0,0,0,0c0,0,0,0,0.1,0s0,0,0.1,0c0,0,0,0,0,0
			L12.6,43.3L12.6,43.3z M12.6,43C12.6,43,12.6,43,12.6,43c-0.1,0-0.2,0-0.2-0.1c-0.1,0-0.1-0.1-0.1-0.1c0-0.1,0-0.1,0-0.2
			c0-0.1,0-0.1,0-0.2c0-0.1,0-0.1,0.1-0.1s0.1-0.1,0.1-0.1c0,0,0.1,0,0.1,0c0,0,0,0,0.1,0v0.1l0,0c-0.1,0-0.1,0-0.1,0.1
			c0,0-0.1,0.1-0.1,0.2l0,0c0,0.1,0,0.1,0.1,0.2c0,0,0.1,0.1,0.1,0.1l0,0C12.6,42.9,12.6,43,12.6,43z"/>
		<path class="st1" d="M13.3,42.3L13.3,42.3c0,0,0.1-0.1,0.1-0.1c0,0,0.1,0,0.1,0s0.1,0,0.1,0c0,0,0.1,0.1,0.1,0.1c0,0,0,0.1,0,0.1
			c0,0,0,0.1,0,0.1v0.4c0,0,0,0.1,0,0.1c0,0,0,0-0.1,0c0,0-0.1,0-0.1,0s0-0.1,0-0.1v-0.3c0-0.1,0-0.1,0-0.2c0,0-0.1-0.1-0.1-0.1
			C13.4,42.4,13.4,42.4,13.3,42.3c0,0.1,0,0.1,0,0.2s0,0.1,0,0.2v0.3c0,0,0,0.1,0,0.1c0,0,0,0-0.1,0c0,0-0.1,0-0.1,0
			c0,0,0-0.1,0-0.1v-0.6c0,0,0-0.1,0-0.1c0,0,0,0,0.1,0s0,0,0,0C13.2,42.2,13.2,42.2,13.3,42.3C13.3,42.3,13.3,42.3,13.3,42.3z"/>
		<path class="st1" d="M14.5,42.7h-0.2v-0.1h0.2c0-0.1,0-0.1-0.1-0.2c0,0-0.1-0.1-0.1-0.1v-0.1h0c0.1,0,0.1,0,0.2,0.1
			c0.1,0,0.1,0.1,0.1,0.1c0,0.1,0,0.1,0,0.2s0,0.1,0,0.1C14.6,42.7,14.6,42.7,14.5,42.7L14.5,42.7z M14.3,42.9L14.3,42.9
			C14.3,42.9,14.4,42.9,14.3,42.9c0.1,0,0.1,0,0.1,0c0,0,0,0,0.1,0c0,0,0,0,0.1-0.1c0,0,0,0,0,0c0,0,0,0,0.1,0c0,0,0,0,0,0
			c0,0,0,0,0,0.1c0,0,0,0-0.1,0.1c0,0-0.1,0-0.1,0.1c0,0-0.1,0-0.1,0c0,0,0,0,0,0V42.9z M14.3,42.7h-0.2c0,0,0,0.1,0,0.1
			c0,0,0,0.1,0.1,0.1c0,0,0.1,0,0.1,0V43c-0.1,0-0.2,0-0.3-0.1c-0.1-0.1-0.1-0.2-0.1-0.3c0-0.1,0-0.1,0-0.2c0-0.1,0-0.1,0.1-0.1
			c0,0,0.1-0.1,0.1-0.1c0,0,0.1,0,0.2,0v0.1l0,0c-0.1,0-0.1,0-0.1,0.1c0,0-0.1,0.1-0.1,0.2l0,0h0.2L14.3,42.7L14.3,42.7z"/>
		<path class="st1" d="M15.3,42.9L15.3,42.9C15.3,42.9,15.3,42.9,15.3,42.9C15.2,43,15.2,43,15.2,43c0,0,0,0,0,0v-0.2
			c0,0,0.1,0,0.1,0c0,0,0.1,0,0.1-0.1c0,0,0-0.1,0-0.1s0-0.1,0-0.1c0,0,0-0.1-0.1-0.1c0,0-0.1,0-0.1,0v-0.1c0,0,0.1,0,0.1,0
			c0,0,0.1,0.1,0.1,0.1V42c0,0,0-0.1,0-0.1c0,0,0,0,0.1,0c0,0,0.1,0,0.1,0c0,0,0,0,0,0.1v0.9c0,0,0,0.1,0,0.1c0,0,0,0-0.1,0
			C15.4,43,15.4,43,15.3,42.9C15.3,43,15.3,43,15.3,42.9z M15.1,43C15.1,43,15.1,43,15.1,43c-0.1,0-0.2,0-0.2,0c0,0-0.1-0.1-0.1-0.1
			c0,0-0.1-0.1-0.1-0.1c0-0.1,0-0.1,0-0.2c0-0.1,0-0.2,0.1-0.3c0.1-0.1,0.1-0.1,0.2-0.1c0,0,0,0,0.1,0v0.1l0,0c0,0-0.1,0-0.1,0
			c0,0-0.1,0.1-0.1,0.1c0,0,0,0.1,0,0.1l0,0c0,0.1,0,0.1,0,0.1c0,0,0,0.1,0.1,0.1c0,0,0.1,0,0.1,0l0,0L15.1,43L15.1,43z"/>
		<path class="st1" d="M16.3,42.2C16.3,42.2,16.4,42.2,16.3,42.2c0.1,0,0.2,0,0.2,0c0.1,0,0.1,0.1,0.1,0.1s0,0.1,0,0.2
			c0,0.1,0,0.1,0,0.2c0,0.1,0,0.1-0.1,0.1c0,0-0.1,0.1-0.1,0.1c0,0-0.1,0-0.1,0c0,0,0,0-0.1,0v-0.2h0c0.1,0,0.1,0,0.1-0.1
			s0.1-0.1,0.1-0.2c0-0.1,0-0.1,0-0.1s0-0.1-0.1-0.1c0,0-0.1,0-0.1,0h0L16.3,42.2L16.3,42.2z M16.1,42v0.3c0,0,0.1-0.1,0.1-0.1
			c0,0,0.1,0,0.1,0v0.1c0,0-0.1,0-0.1,0c0,0-0.1,0.1-0.1,0.1c0,0,0,0.1,0,0.1l0,0c0,0.1,0,0.1,0.1,0.2c0,0,0.1,0.1,0.1,0.1V43
			c0,0,0,0,0,0c0,0-0.1,0-0.1,0c0,0,0,0-0.1,0c0,0,0,0-0.1-0.1v0c0,0,0,0.1,0,0.1c0,0,0,0-0.1,0c0,0-0.1,0-0.1,0c0,0,0,0,0-0.1V42
			c0,0,0-0.1,0-0.1c0,0,0,0,0.1,0C16.1,41.9,16.1,41.9,16.1,42C16.1,41.9,16.1,42,16.1,42z"/>
		<path class="st1" d="M17,43L17,43l-0.2-0.7c0,0,0-0.1,0-0.1c0,0,0,0,0,0c0,0,0,0,0,0s0,0,0,0c0,0,0.1,0,0.1,0c0,0,0,0,0,0.1
			l0.2,0.5l0.2-0.5c0,0,0-0.1,0-0.1c0,0,0,0,0,0c0,0,0,0,0.1,0c0,0,0,0,0,0c0,0,0,0,0,0c0,0,0,0,0,0c0,0,0,0,0,0c0,0,0,0,0,0.1
			l-0.3,0.7c0,0.1,0,0.1-0.1,0.1c0,0-0.1,0.1-0.1,0.1c0,0-0.1,0-0.1,0s-0.1,0-0.1,0c0,0,0,0,0-0.1c0,0,0,0,0-0.1c0,0,0,0,0.1,0
			c0,0,0,0,0,0c0,0,0,0,0,0c0,0,0,0,0.1,0S16.9,43.1,17,43C16.9,43.1,17,43.1,17,43z"/>
		<path class="st1" d="M19.8,42.2L19.8,42.2L19.8,42.2c0-0.1,0.1-0.2,0.1-0.2c0,0,0-0.1,0.1-0.1c0,0,0.1,0,0.1,0
			c0.1,0,0.2,0,0.2,0.1c0,0,0,0,0,0s0,0,0,0c0,0,0,0,0,0c0,0,0,0,0,0c0,0-0.1,0-0.1,0c0,0,0,0.1,0,0.1v0h0.1c0.1,0,0.1,0,0.1,0.1
			c0,0,0,0.1,0,0.1c0,0,0,0-0.1,0h-0.1v0.5c0,0,0,0.1,0,0.1c0,0,0,0-0.1,0c0,0-0.1,0-0.1,0c0,0,0-0.1,0-0.1v-0.5h-0.1
			c0,0-0.1,0-0.1,0c0,0,0,0,0-0.1C19.7,42.2,19.8,42.2,19.8,42.2z"/>
		<path class="st1" d="M20.5,42.7v0.2c0,0,0,0.1,0,0.1c0,0,0,0-0.1,0s-0.1,0-0.1,0s0-0.1,0-0.1v-0.6c0-0.1,0-0.1,0.1-0.1
			c0,0,0.1,0,0.1,0c0,0,0,0.1,0,0.1c0,0,0-0.1,0.1-0.1c0,0,0.1,0,0.1,0c0,0,0.1,0,0.1,0c0,0,0.1,0.1,0.1,0.1c0,0,0,0,0,0.1
			c0,0,0,0-0.1,0c0,0,0,0-0.1,0c0,0-0.1,0-0.1,0c0,0-0.1,0-0.1,0c0,0,0,0,0,0.1c0,0,0,0.1,0,0.1C20.5,42.6,20.5,42.7,20.5,42.7z"/>
		<path class="st1" d="M21.4,42.7h-0.2v-0.1h0.2c0-0.1,0-0.1-0.1-0.2c0,0-0.1-0.1-0.1-0.1v-0.1h0c0.1,0,0.1,0,0.2,0.1
			c0.1,0,0.1,0.1,0.1,0.1c0,0.1,0,0.1,0,0.2s0,0.1,0,0.1C21.5,42.7,21.5,42.7,21.4,42.7L21.4,42.7z M21.2,42.9L21.2,42.9
			C21.2,42.9,21.3,42.9,21.2,42.9c0.1,0,0.1,0,0.1,0c0,0,0,0,0.1,0c0,0,0,0,0.1-0.1c0,0,0,0,0,0c0,0,0,0,0.1,0c0,0,0,0,0,0
			c0,0,0,0,0,0.1c0,0,0,0-0.1,0.1c0,0-0.1,0-0.1,0.1c0,0-0.1,0-0.1,0c0,0,0,0,0,0L21.2,42.9L21.2,42.9z M21.2,42.7H21
			c0,0,0,0.1,0,0.1c0,0,0,0.1,0.1,0.1c0,0,0.1,0,0.1,0V43c-0.1,0-0.2,0-0.3-0.1c-0.1-0.1-0.1-0.2-0.1-0.3c0-0.1,0-0.1,0-0.2
			c0-0.1,0-0.1,0.1-0.1c0,0,0.1-0.1,0.1-0.1c0,0,0.1,0,0.2,0v0.1l0,0c-0.1,0-0.1,0-0.1,0.1c0,0-0.1,0.1-0.1,0.2l0,0h0.2L21.2,42.7
			L21.2,42.7z"/>
		<path class="st1" d="M22.2,42.7H22v-0.1h0.2c0-0.1,0-0.1-0.1-0.2c0,0-0.1-0.1-0.1-0.1v-0.1h0c0.1,0,0.1,0,0.2,0.1
			c0.1,0,0.1,0.1,0.1,0.1c0,0.1,0,0.1,0,0.2s0,0.1,0,0.1C22.3,42.7,22.3,42.7,22.2,42.7L22.2,42.7z M22,42.9L22,42.9
			C22.1,42.9,22.1,42.9,22,42.9c0.1,0,0.1,0,0.1,0c0,0,0,0,0.1,0c0,0,0,0,0.1-0.1c0,0,0,0,0,0s0,0,0.1,0c0,0,0,0,0,0c0,0,0,0,0,0.1
			c0,0,0,0-0.1,0.1c0,0-0.1,0-0.1,0.1c0,0-0.1,0-0.1,0c0,0,0,0,0,0L22,42.9L22,42.9z M22,42.7h-0.2c0,0,0,0.1,0,0.1
			c0,0,0,0.1,0.1,0.1c0,0,0.1,0,0.1,0V43c-0.1,0-0.2,0-0.3-0.1c-0.1-0.1-0.1-0.2-0.1-0.3c0-0.1,0-0.1,0-0.2c0-0.1,0-0.1,0.1-0.1
			c0,0,0.1-0.1,0.1-0.1c0,0,0.1,0,0.2,0v0.1l0,0c-0.1,0-0.1,0-0.1,0.1c0,0-0.1,0.1-0.1,0.2l0,0H22L22,42.7L22,42.7z"/>
		<path class="st1" d="M22.9,42.2C22.9,42.2,22.9,42.2,22.9,42.2c0.1,0,0.2,0,0.2,0c0.1,0,0.1,0.1,0.1,0.1c0,0.1,0,0.1,0,0.2
			c0,0.1,0,0.1,0,0.2c0,0.1,0,0.1-0.1,0.1c0,0-0.1,0.1-0.1,0.1c0,0-0.1,0-0.1,0c0,0,0,0-0.1,0v-0.2l0,0c0,0,0.1,0,0.1,0
			c0,0,0.1,0,0.1-0.1c0,0,0-0.1,0-0.1l0,0c0-0.1,0-0.1,0-0.1c0,0,0-0.1-0.1-0.1c0,0-0.1,0-0.1,0l0,0L22.9,42.2L22.9,42.2z
			 M22.7,42.3L22.7,42.3c0,0,0.1-0.1,0.1-0.1c0,0,0.1,0,0.1,0v0.1C22.8,42.3,22.8,42.4,22.7,42.3c0,0.1,0,0.2,0,0.3
			c0,0.1,0,0.1,0.1,0.2c0,0,0.1,0.1,0.1,0.1V43c0,0-0.1,0-0.1,0c0,0-0.1-0.1-0.1-0.1v0.3c0,0.1,0,0.1-0.1,0.1c0,0-0.1,0-0.1,0
			s0-0.1,0-0.1v-0.9c0,0,0-0.1,0-0.1c0,0,0,0,0.1,0C22.6,42.2,22.6,42.2,22.7,42.3C22.7,42.3,22.7,42.3,22.7,42.3z"/>
		<path class="st1" d="M23.5,42.1C23.4,42.1,23.4,42.1,23.5,42.1c-0.1,0-0.1-0.1-0.1-0.1c0,0,0-0.1,0-0.1c0,0,0,0,0.1,0
			c0,0,0.1,0,0.1,0c0,0,0,0,0,0.1S23.5,42.1,23.5,42.1C23.5,42.1,23.5,42.1,23.5,42.1L23.5,42.1z M23.6,42.3L23.6,42.3v0.6
			c0,0,0,0.1,0,0.1c0,0,0,0-0.1,0s-0.1,0-0.1,0s0-0.1,0-0.1v-0.6c0,0,0-0.1,0-0.1s0,0,0.1,0S23.5,42.2,23.6,42.3
			C23.5,42.3,23.6,42.3,23.6,42.3z"/>
		<path class="st1" d="M24.2,42.9L24,42.6l-0.1,0.1v0.2c0,0,0,0.1,0,0.1c0,0,0,0-0.1,0c0,0-0.1,0-0.1,0s0-0.1,0-0.1V42
			c0,0,0-0.1,0-0.1c0,0,0,0,0.1,0c0,0,0.1,0,0.1,0c0,0,0,0.1,0,0.1v0.5l0.2-0.2c0,0,0.1-0.1,0.1-0.1c0,0,0,0,0.1,0c0,0,0,0,0.1,0
			c0,0,0,0,0,0.1c0,0,0,0.1-0.1,0.1l-0.1,0.1l0.2,0.3c0,0,0,0,0,0.1c0,0,0,0,0,0c0,0,0,0.1,0,0.1c0,0,0,0-0.1,0S24.3,43,24.2,42.9
			C24.2,43,24.2,43,24.2,42.9z"/>
		<path class="st1" d="M24.6,43C24.6,43,24.6,43,24.6,43c-0.1-0.1-0.1-0.1-0.1-0.1c0,0,0-0.1,0-0.1c0,0,0,0,0.1,0c0,0,0.1,0,0.1,0
			s0,0,0,0.1C24.7,42.9,24.7,43,24.6,43C24.7,43,24.7,43,24.6,43z"/>
		<path class="st1" d="M25.6,42.8C25.6,42.8,25.6,42.8,25.6,42.8c0,0.1-0.1,0.1-0.1,0.2c0,0-0.1,0-0.1,0.1c0,0-0.1,0-0.2,0
			c-0.1,0-0.2,0-0.3-0.1c-0.1-0.1-0.1-0.2-0.1-0.3c0-0.1,0-0.2,0-0.2c0-0.1,0.1-0.1,0.1-0.2c0.1,0,0.1-0.1,0.2-0.1
			c0.1,0,0.1,0,0.1,0c0,0,0.1,0,0.1,0.1c0,0,0.1,0.1,0.1,0.1c0,0,0,0.1,0,0.1c0,0,0,0,0,0.1c0,0,0,0-0.1,0c0,0,0,0,0,0c0,0,0,0,0,0
			c0,0-0.1-0.1-0.1-0.1c0,0-0.1,0-0.1,0c-0.1,0-0.1,0-0.1,0.1c0,0-0.1,0.1-0.1,0.2c0,0,0,0.1,0,0.1c0,0,0,0.1,0,0.1c0,0,0,0,0.1,0.1
			c0,0,0.1,0,0.1,0c0,0,0.1,0,0.1,0s0.1,0,0.1-0.1c0,0,0,0,0-0.1c0,0,0,0,0.1,0S25.6,42.7,25.6,42.8C25.6,42.7,25.6,42.8,25.6,42.8z
			"/>
		<path class="st1" d="M26.5,42.6c0,0.1,0,0.1,0,0.2c0,0.1,0,0.1-0.1,0.1c0,0-0.1,0.1-0.1,0.1s-0.1,0-0.2,0v-0.2
			c0.1,0,0.1,0,0.1-0.1s0.1-0.1,0.1-0.2l0,0c0-0.1,0-0.1-0.1-0.2c0,0-0.1-0.1-0.1-0.1v-0.2c0.1,0,0.1,0,0.2,0c0.1,0,0.1,0,0.1,0.1
			c0,0,0.1,0.1,0.1,0.1C26.5,42.5,26.5,42.6,26.5,42.6z M26.1,43L26.1,43c-0.1,0-0.1,0-0.2,0s-0.1,0-0.1-0.1c0,0-0.1-0.1-0.1-0.1
			c0-0.1,0-0.1,0-0.2c0-0.1,0-0.1,0-0.2c0-0.1,0-0.1,0.1-0.1c0,0,0.1-0.1,0.1-0.1s0.1,0,0.2,0l0,0v0.2l0,0c0,0-0.1,0-0.1,0
			s-0.1,0.1-0.1,0.1c0,0,0,0.1,0,0.1s0,0.1,0,0.1c0,0,0,0.1,0.1,0.1c0,0,0.1,0,0.1,0l0,0L26.1,43L26.1,43z"/>
		<path class="st1" d="M27.2,42.6v0.3c0,0,0,0.1,0,0.1s0,0-0.1,0s-0.1,0-0.1,0c0,0,0-0.1,0-0.1v-0.3c0-0.1,0-0.1,0-0.1
			c0,0,0-0.1,0-0.1c0,0,0,0-0.1,0c-0.1,0-0.1,0-0.1,0.1s0,0.1,0,0.2v0.3c0,0,0,0.1,0,0.1c0,0,0,0-0.1,0c0,0-0.1,0-0.1,0
			c0,0,0-0.1,0-0.1v-0.6c0,0,0-0.1,0-0.1c0,0,0,0,0.1,0c0,0,0.1,0,0.1,0c0,0,0,0,0,0.1v0c0,0,0.1-0.1,0.1-0.1c0,0,0.1,0,0.1,0
			c0.1,0,0.1,0,0.1,0c0,0,0.1,0.1,0.1,0.1c0,0,0.1-0.1,0.1-0.1c0,0,0.1,0,0.1,0c0.1,0,0.1,0,0.1,0c0,0,0.1,0.1,0.1,0.1
			c0,0,0,0.1,0,0.2v0.4c0,0,0,0.1,0,0.1s0,0-0.1,0s-0.1,0-0.1,0c0,0,0-0.1,0-0.1v-0.3c0,0,0-0.1,0-0.1c0,0,0,0,0-0.1c0,0,0,0-0.1,0
			c0,0-0.1,0-0.1,0c0,0,0,0-0.1,0.1C27.2,42.5,27.2,42.5,27.2,42.6z"/>
		<path class="st1" d="M18,42.6L18,42.6L18,42.6z"/>
		<path class="st1" d="M18,42.6L18,42.6C18,42.6,18,42.6,18,42.6C18,42.6,18,42.6,18,42.6z"/>
		<path class="st1" d="M18.1,42.8L18.1,42.8L18.1,42.8z"/>
		<path class="st1" d="M18.1,42.8C18.1,42.8,18.1,42.8,18.1,42.8C18.1,42.8,18.1,42.8,18.1,42.8z"/>
		<path class="st1" d="M18,42.7C18,42.7,18,42.8,18,42.7C18,42.8,18,42.7,18,42.7L18,42.7z"/>
		<path class="st1" d="M18.8,41.8C18.8,41.8,18.8,41.8,18.8,41.8l0.1,0C18.9,41.7,18.8,41.7,18.8,41.8l-0.1-0.1c0,0,0.1,0,0.1-0.1
			c0,0,0-0.1-0.1-0.1c0,0-0.1,0-0.1,0.1c0,0,0,0.1,0.1,0.1l0,0c-0.1,0-0.2,0.1-0.2,0.1l0,0.1c0.1,0,0.1,0,0.2,0
			C18.7,41.8,18.7,41.8,18.8,41.8z"/>
		<path class="st1" d="M18.1,42.1L18.1,42.1L18.1,42.1L18.1,42.1L18.1,42.1c-0.1-0.1-0.1,0-0.2,0.1c0,0,0,0,0,0c0,0,0,0-0.1,0l0,0
			c0,0,0,0,0,0c0,0,0,0,0,0c0,0,0-0.1-0.1-0.1c0,0-0.1,0-0.1,0.1s0,0.1,0.1,0.1h0c0,0,0,0,0.1,0c0,0,0,0,0,0c0,0,0,0,0,0l0,0
			c0,0.1,0,0.2,0,0.2h0.1c0,0,0-0.1,0-0.2C18,42.2,18.1,42.1,18.1,42.1z"/>
		<path class="st1" d="M19.5,41.9C19.4,41.9,19.4,41.9,19.5,41.9L19.5,41.9c-0.1,0.1-0.1,0.1-0.1,0.1c0,0,0,0,0,0c0,0,0,0,0,0
			c-0.1-0.1-0.1-0.1-0.1-0.1L19.2,42c0,0,0.1,0.1,0.1,0.2c0,0,0.1,0.1,0.1,0.2l0.1,0c0,0,0-0.1-0.1-0.2c0,0,0,0,0,0c0,0,0,0,0-0.1
			C19.4,42,19.4,42,19.5,41.9c0,0.1,0,0.1,0,0.1C19.5,42,19.5,41.9,19.5,41.9C19.5,41.9,19.5,41.9,19.5,41.9z"/>
		<path class="st1" d="M19.3,42.6c-0.1,0.1-0.3,0.1-0.5,0.2c-0.1,0-0.2,0-0.3,0c-0.1,0-0.2,0-0.3,0c-0.1,0-0.1,0-0.2,0
			c0,0,0,0.1,0,0.1l0,0v0v0l0,0c0,0,0.1,0.1,0.1,0.1c0.1,0.1,0.2,0.1,0.2,0.1l0,0l0,0c0,0,0.1,0,0.3,0c0.1,0,0.3,0,0.4-0.1
			c0.1-0.1,0.2-0.1,0.2-0.2c0-0.1,0.1-0.1,0.1-0.2c0,0,0-0.1,0-0.1C19.4,42.5,19.3,42.5,19.3,42.6z"/>
		<path class="st1" d="M19,42.6c0.1,0,0.1-0.1,0.2-0.1c0.1,0,0.1-0.1,0.2-0.1c0-0.1-0.1-0.2-0.1-0.3C19.2,42,19.1,42,19,41.9v0.2
			c0.1,0,0.1,0.1,0.1,0.1s-0.1,0.1-0.1,0.1V42.6z M18.4,42.7c0.1,0,0.2,0,0.3,0c0.1,0,0.2,0,0.3-0.1v-0.3l0,0
			c-0.1,0-0.1-0.1-0.1-0.1c0-0.1,0.1-0.1,0.1-0.1l0,0l0,0v-0.2c-0.1,0-0.1-0.1-0.2-0.1c0,0-0.1,0-0.1,0c0,0-0.1,0-0.1,0
			c-0.1,0-0.1,0-0.2,0c0,0,0,0,0,0V42c0.1,0,0.2,0.1,0.2,0.2c0,0.1-0.1,0.2-0.2,0.2V42.7z M18.1,42.1c0,0-0.1,0.1-0.1,0.2
			c0,0.1,0,0.2,0,0.2l0,0c0,0,0,0.1,0,0.1l0,0v0c0,0,0,0,0,0.1c0,0,0.2,0,0.4,0.1v-0.2l0,0c-0.1,0-0.2-0.1-0.2-0.2
			c0-0.1,0.1-0.2,0.2-0.2l0,0l0,0v-0.2C18.3,41.9,18.2,42,18.1,42.1L18.1,42.1C18.1,42.1,18.1,42.1,18.1,42.1z"/>
	</g>
	<g>
		<path class="st2" d="M18.6,38.3c4.7,0,8.5-1.1,8.5-2.5c0-1.4-3.8-2.5-8.5-2.5c-4.7,0-8.5,1.1-8.5,2.5
			C10.1,37.2,13.9,38.3,18.6,38.3z"/>
		<path class="st3" d="M18.6,37.2c2.6,0,4.8-0.6,4.8-1.4c0-0.8-2.2-1.4-4.8-1.4s-4.8,0.6-4.8,1.4C13.8,36.6,16,37.2,18.6,37.2z"/>
		<path class="st4" d="M18.7,35.7c-0.7,0-1.7,0.6-3.6,0.4c-2.9-0.3-6.8-3.5-8.9-7.6C-0.5,15.9,4.1,7.9,8.4,6.1
			c4.3-1.8,7.7,0.3,10.5,0.3S25,4.3,29.3,6.1c4.3,1.8,8.9,9.8,2.3,22.4c-2.3,4.3-5.4,6.8-9.5,7.5C20.6,36.3,19.4,35.6,18.7,35.7z"/>
		<path class="st5" d="M18,34.5c-0.6,0-1.6,0.6-3.4,0.4C11.8,34.6,8,31.5,6,27.6C-0.4,15.5,4,7.9,8.1,6.1s7.4,0.2,10,0.2
			s5.9-2,10-0.2s8.5,9.4,2.2,21.5c-2.2,4.1-5.2,6.5-9.1,7.2C19.9,35.1,18.7,34.4,18,34.5z"/>
		<path class="st6" d="M17.7,32.4c-0.6,0-1.4,0.5-3.1,0.4c-2.5-0.3-5.9-3-7.8-6.6C1,15.2,5,8.2,8.8,6.6c3.8-1.6,6.8,0.2,9.1,0.2
			S23.3,5,27,6.6c3.8,1.6,7.7,8.5,2,19.5c-2,3.7-4.7,5.9-8.3,6.6C19.4,33,18.4,32.4,17.7,32.4z"/>
		<path class="st5" d="M19,10.7c4.5-0.1,7.3-3.8,0-3.8C12.2,6.8,13,10.8,19,10.7z"/>
		<path class="st4" d="M19,10.1c3-0.1,4.9-2.5,0-2.6C14.4,7.5,14.9,10.2,19,10.1z"/>
		<path class="st7" d="M18.4,6.1c-0.3,0.9-1.3,3.3,0.6,3.2c1.1-0.1,0.4-1.8,1.4-4c1.3-2.7,3.4-3.9,2.4-4.6
			C21.5-0.5,18.8,4.9,18.4,6.1z"/>
		<path class="st8" d="M19.2,4.8c-0.1-1.6-1.3-2.8-1.6-3.4c-0.4-0.7-1-5.3-2.8-7.8c-1.8-2.5-6.5-4.2-11.3-3.2S-2-6.6-5.5-8
			C-2.7-5.6-3.2-2.2,3,1.1C9.2,4.4,15.4,0.7,16.8,2c1.4,1.3,2,2.8,1.7,4.1L19.2,4.8z"/>
		<g class="st0">
			<ellipse class="st9" cx="18.4" cy="29" rx="0.4" ry="0.4"/>
			<ellipse class="st9" cx="24.2" cy="25" rx="0.4" ry="0.4"/>
			<ellipse class="st9" cx="12.4" cy="25.7" rx="0.4" ry="0.4"/>
			<ellipse class="st9" cx="10.3" cy="31.5" rx="0.4" ry="0.4"/>
			<ellipse class="st9" cx="5" cy="25.8" rx="0.4" ry="0.4"/>
			<ellipse class="st9" cx="28.9" cy="28.7" rx="0.4" ry="0.4"/>
			<ellipse class="st9" cx="29" cy="32.3" rx="0.4" ry="0.4"/>
			<ellipse class="st9" cx="15.1" cy="35.5" rx="0.4" ry="0.4"/>
			<ellipse class="st9" cx="23.5" cy="31.3" rx="0.4" ry="0.4"/>
			<ellipse class="st9" cx="31" cy="23.2" rx="0.4" ry="0.4"/>
			<ellipse class="st9" cx="21.9" cy="34" rx="0.4" ry="0.4"/>
			<ellipse class="st9" cx="15.4" cy="32.3" rx="0.4" ry="0.4"/>
			<ellipse class="st9" cx="8.5" cy="21.5" rx="0.4" ry="0.4"/>
			<ellipse class="st9" cx="4.3" cy="17.9" rx="0.4" ry="0.4"/>
			<ellipse class="st9" cx="29.9" cy="16.8" rx="0.4" ry="0.4"/>
			<ellipse class="st9" cx="22.8" cy="19.1" rx="0.4" ry="0.4"/>
			<ellipse class="st9" cx="22.4" cy="28.1" rx="0.4" ry="0.4"/>
			<ellipse class="st9" cx="26.1" cy="30.2" rx="0.4" ry="0.4"/>
			<ellipse class="st9" cx="18.3" cy="32.7" rx="0.4" ry="0.4"/>
			<ellipse class="st9" cx="11.5" cy="29.5" rx="0.4" ry="0.4"/>
			<ellipse class="st9" cx="8.6" cy="27.3" rx="0.4" ry="0.4"/>
			<ellipse class="st9" cx="16.9" cy="22.7" rx="0.4" ry="0.4"/>
			<ellipse class="st9" cx="15.7" cy="12.2" rx="0.4" ry="0.4"/>
		</g>
		<g class="st0">
			<ellipse class="st10" cx="20.9" cy="29.9" rx="0.4" ry="0.4"/>
			<ellipse class="st10" cx="12.8" cy="23.5" rx="0.4" ry="0.4"/>
			<ellipse class="st10" cx="26.2" cy="23.5" rx="0.4" ry="0.4"/>
			<ellipse class="st10" cx="27.5" cy="31.5" rx="0.4" ry="0.4"/>
			<ellipse class="st10" cx="30" cy="26.3" rx="0.4" ry="0.4"/>
			<ellipse class="st10" cx="8.9" cy="28.7" rx="0.4" ry="0.4"/>
			<ellipse class="st10" cx="8.8" cy="32.3" rx="0.4" ry="0.4"/>
			<ellipse class="st10" cx="23.5" cy="34.7" rx="0.4" ry="0.4"/>
			<ellipse class="st10" cx="14.3" cy="31.3" rx="0.4" ry="0.4"/>
			<ellipse class="st10" cx="5.6" cy="20.9" rx="0.4" ry="0.4"/>
			<ellipse class="st10" cx="16" cy="34" rx="0.4" ry="0.4"/>
			<ellipse class="st10" cx="24.9" cy="33.2" rx="0.4" ry="0.4"/>
			<ellipse class="st10" cx="29.3" cy="21.5" rx="0.4" ry="0.4"/>
			<ellipse class="st10" cx="33.5" cy="17.9" rx="0.4" ry="0.4"/>
			<ellipse class="st10" cx="12.9" cy="17.4" rx="0.4" ry="0.4"/>
			<ellipse class="st10" cx="18.7" cy="17.8" rx="0.4" ry="0.4"/>
			<ellipse class="st10" cx="15.4" cy="28.1" rx="0.4" ry="0.4"/>
			<ellipse class="st10" cx="12.4" cy="33.1" rx="0.4" ry="0.4"/>
			<ellipse class="st10" cx="19.6" cy="34.1" rx="0.4" ry="0.4"/>
			<ellipse class="st10" cx="26.3" cy="28" rx="0.4" ry="0.4"/>
			<ellipse class="st10" cx="18.4" cy="25.7" rx="0.4" ry="0.4"/>
			<ellipse class="st10" cx="20.9" cy="22.7" rx="0.4" ry="0.4"/>
			<ellipse class="st10" cx="26" cy="11.6" rx="0.4" ry="0.4"/>
			<ellipse class="st10" cx="12.3" cy="12.5" rx="0.4" ry="0.4"/>
			<ellipse class="st10" cx="25.5" cy="7.1" rx="0.4" ry="0.4"/>
			<ellipse class="st10" cx="32" cy="12.2" rx="0.4" ry="0.4"/>
		</g>
		<path class="st5" d="M6.3,10.5c2-2.5,4.7-3.4,6.8-1.6c0.9,0.7-2.5,0.6-4.7,3.8c-1.9,2.8-0.9,6.4-1.9,5.6C5.2,17,4.2,13,6.3,10.5z"
			/>
		<path class="st11" d="M6.8,11c1.4-2.2,4.3-2.8,5.1-2.1c0.5,0.4-2.4,0.4-4.2,2.9c-1.8,2.5-0.7,5.4-1.3,4.6C5.7,15.5,5.5,13,6.8,11z
			"/>
	</g>
</g>
</svg>
