<?xml version="1.0" encoding="utf-8"?>
<!-- Generator: Adobe Illustrator 20.1.0, SVG Export Plug-In . SVG Version: 6.00 Build 0)  -->
<svg version="1.1" id="Layer_1" xmlns="http://www.w3.org/2000/svg" xmlns:xlink="http://www.w3.org/1999/xlink" x="0px" y="0px"
	 viewBox="0 0 10 10" style="enable-background:new 0 0 10 10;" xml:space="preserve">
<style type="text/css">
	.st0{display:none;}
	.st1{display:inline;fill:#808080;}
	.st2{display:none;fill:#DEDEDE;}
	.st3{display:none;fill:#CCCCCC;}
	.st4{fill:#E8240A;}
	.st5{fill:#F2582F;}
	.st6{fill:#FF6D40;}
	.st7{fill:#5B2616;}
	.st8{display:none;fill:#286B28;}
	.st9{display:inline;opacity:4.000000e-02;fill:#FFFFFF;enable-background:new    ;}
	.st10{display:inline;opacity:7.000000e-02;fill:#FFFFFF;enable-background:new    ;}
	.st11{fill:#ED3511;}
</style>
<g>
	<g class="st0">
		<path class="st1" d="M2.6,11.7L2.6,11.7L2.6,11.7C2.5,11.7,2.5,11.7,2.6,11.7L2.6,11.7L2.6,11.7L2.6,11.7
			C2.6,11.7,2.6,11.7,2.6,11.7L2.6,11.7l0-0.1c0,0,0,0,0,0h0v0h0l0,0v-0.1v0c0,0,0,0,0,0h0c0,0,0,0,0,0v0.2v0
			C2.7,11.7,2.7,11.7,2.6,11.7C2.6,11.7,2.6,11.7,2.6,11.7C2.6,11.7,2.6,11.7,2.6,11.7z M2.5,11.7L2.5,11.7
			C2.5,11.7,2.5,11.7,2.5,11.7L2.5,11.7l-0.1-0.1c0,0,0,0,0,0c0,0,0,0,0-0.1c0,0,0,0,0,0c0,0,0,0,0,0v0l0,0h0l0,0v0l0,0
			C2.5,11.7,2.5,11.7,2.5,11.7C2.5,11.7,2.5,11.7,2.5,11.7L2.5,11.7L2.5,11.7L2.5,11.7L2.5,11.7z"/>
		<path class="st1" d="M2.8,11.7L2.8,11.7L2.8,11.7L2.8,11.7C2.8,11.6,2.8,11.6,2.8,11.7l-0.1-0.1v0l0,0c0,0,0,0,0,0
			C2.8,11.5,2.8,11.6,2.8,11.7C2.9,11.6,2.9,11.6,2.8,11.7C2.9,11.7,2.9,11.7,2.8,11.7C2.9,11.7,2.9,11.7,2.8,11.7L2.8,11.7z
			 M2.8,11.7L2.8,11.7L2.8,11.7L2.8,11.7C2.8,11.7,2.8,11.7,2.8,11.7C2.8,11.7,2.8,11.7,2.8,11.7L2.8,11.7c0.1,0,0.1,0,0.1,0l0,0
			c0,0,0,0,0,0C2.9,11.7,2.9,11.7,2.8,11.7C2.9,11.7,2.8,11.7,2.8,11.7L2.8,11.7L2.8,11.7L2.8,11.7L2.8,11.7z M2.8,11.7L2.8,11.7
			L2.8,11.7C2.7,11.7,2.7,11.7,2.8,11.7L2.8,11.7v0.1C2.7,11.8,2.7,11.8,2.8,11.7c-0.1,0-0.1,0-0.1,0s0,0,0,0
			C2.7,11.6,2.7,11.6,2.8,11.7l-0.1-0.2h0v0l0,0C2.7,11.5,2.7,11.5,2.8,11.7l-0.1,0l0,0L2.8,11.7L2.8,11.7L2.8,11.7z"/>
		<path class="st1" d="M3.1,11.7C3.1,11.7,3.1,11.7,3.1,11.7L3.1,11.7C3,11.7,3,11.7,3.1,11.7l-0.1,0c0,0,0,0,0,0v0c0,0,0,0,0,0
			c0,0,0,0,0,0l0,0l0,0C3,11.6,3,11.6,3.1,11.7L3.1,11.7L3.1,11.7C3.1,11.6,3.1,11.6,3.1,11.7v-0.1H3c0,0,0,0,0,0c0,0,0,0,0,0v0v0.1
			l0,0h0c0,0,0,0,0,0h0c0,0,0,0,0,0c0,0,0,0,0,0C3.1,11.5,3.1,11.5,3.1,11.7C3.1,11.6,3.1,11.6,3.1,11.7C3.1,11.6,3.1,11.6,3.1,11.7
			c0-0.1,0-0.1-0.1-0.1c0,0,0,0,0,0l0,0h0c0,0,0,0,0,0c0,0,0,0,0,0c0,0,0,0,0,0l0,0C3,11.6,3,11.6,3.1,11.7C3,11.7,3,11.7,3.1,11.7
			C3.1,11.7,3.1,11.7,3.1,11.7z"/>
		<path class="st1" d="M3.1,11.4L3.1,11.4L3.1,11.4L3.1,11.4C3.1,11.4,3.1,11.4,3.1,11.4L3.1,11.4C3.2,11.4,3.2,11.4,3.1,11.4
			C3.2,11.4,3.2,11.4,3.1,11.4C3.2,11.4,3.1,11.4,3.1,11.4L3.1,11.4z M3.2,11.5L3.2,11.5v0.2v0c0,0,0,0,0,0s0,0,0,0v0L3.2,11.5
			L3.2,11.5C3.1,11.5,3.1,11.5,3.2,11.5C3.1,11.5,3.2,11.5,3.2,11.5L3.2,11.5z"/>
		<path class="st1" d="M3.4,11.6v0.2c0,0,0,0,0,0s0,0,0,0v0h0v0h0c0,0,0,0,0,0v0V11.6l0,0.1H3.3v0L3.4,11.6
			C3.3,11.7,3.4,11.7,3.4,11.6L3.4,11.6C3.4,11.5,3.4,11.5,3.4,11.6l-0.1-0.1v0h0L3.4,11.6L3.4,11.6L3.4,11.6
			C3.4,11.5,3.4,11.5,3.4,11.6L3.4,11.6C3.4,11.5,3.4,11.5,3.4,11.6z M3.3,11.8L3.3,11.8C3.2,11.8,3.2,11.8,3.3,11.8
			C3.2,11.8,3.2,11.8,3.3,11.8L3.3,11.8c-0.1-0.1-0.1-0.1-0.1-0.1c0,0,0,0,0,0h0l0,0l0,0c0,0,0,0,0,0s0,0,0,0l0,0L3.3,11.8L3.3,11.8
			z M3.3,11.7L3.3,11.7C3.2,11.7,3.2,11.7,3.3,11.7C3.2,11.7,3.2,11.7,3.3,11.7c-0.1-0.1-0.1-0.1-0.1-0.1c0,0,0,0,0,0c0,0,0,0,0,0
			s0,0,0,0h0c0,0,0,0,0,0v0l0,0c0,0,0,0,0,0l0,0l0,0C3.3,11.7,3.3,11.7,3.3,11.7L3.3,11.7L3.3,11.7C3.3,11.7,3.3,11.7,3.3,11.7z"/>
		<path class="st1" d="M3.5,11.5L3.5,11.5L3.5,11.5L3.5,11.5L3.5,11.5h0.1v0v0v0.1v0c0,0,0,0,0,0h0v0v-0.1
			C3.5,11.6,3.5,11.6,3.5,11.5L3.5,11.5C3.5,11.6,3.5,11.6,3.5,11.5C3.5,11.6,3.5,11.6,3.5,11.5L3.5,11.5v0.2v0c0,0,0,0,0,0l0,0v0
			L3.5,11.5L3.5,11.5C3.4,11.5,3.4,11.5,3.5,11.5C3.5,11.5,3.4,11.5,3.5,11.5C3.4,11.5,3.4,11.5,3.5,11.5L3.5,11.5z"/>
		<path class="st1" d="M3.8,11.7L3.8,11.7L3.8,11.7L3.8,11.7C3.8,11.6,3.8,11.6,3.8,11.7l0-0.1v0l0,0c0,0,0,0,0,0
			C3.8,11.5,3.8,11.6,3.8,11.7C3.8,11.6,3.8,11.6,3.8,11.7C3.8,11.7,3.8,11.7,3.8,11.7C3.8,11.7,3.8,11.7,3.8,11.7L3.8,11.7z
			 M3.8,11.7L3.8,11.7L3.8,11.7L3.8,11.7C3.8,11.7,3.8,11.7,3.8,11.7C3.8,11.7,3.8,11.7,3.8,11.7L3.8,11.7c0.1,0,0.1,0,0.1,0l0,0
			c0,0,0,0,0,0C3.9,11.7,3.9,11.7,3.8,11.7C3.8,11.7,3.8,11.7,3.8,11.7L3.8,11.7L3.8,11.7L3.8,11.7L3.8,11.7z M3.8,11.7L3.8,11.7
			L3.8,11.7C3.7,11.7,3.7,11.7,3.8,11.7L3.8,11.7v0.1C3.7,11.8,3.7,11.8,3.8,11.7c-0.1,0-0.1,0-0.1,0s0,0,0,0
			C3.6,11.6,3.6,11.6,3.8,11.7l-0.1-0.2h0v0l0,0C3.7,11.5,3.7,11.5,3.8,11.7l-0.1,0l0,0L3.8,11.7L3.8,11.7L3.8,11.7z"/>
		<path class="st1" d="M4,11.7L4,11.7L4,11.7C4,11.7,4,11.7,4,11.7L4,11.7L4,11.7L4,11.7C4,11.7,4.1,11.7,4,11.7L4,11.7l0-0.1
			c0,0,0,0,0,0l0,0v0h0l0,0v-0.1v0c0,0,0,0,0,0h0c0,0,0,0,0,0v0.2v0c0,0,0,0,0,0C4.1,11.7,4.1,11.7,4,11.7C4,11.7,4,11.7,4,11.7z
			 M4,11.7L4,11.7C3.9,11.7,3.9,11.7,4,11.7L4,11.7l-0.1-0.1c0,0,0,0,0,0c0,0,0,0,0-0.1c0,0,0,0,0,0s0,0,0,0v0l0,0h0l0,0v0l0,0
			C3.9,11.7,3.9,11.7,4,11.7C3.9,11.7,3.9,11.7,4,11.7L4,11.7L4,11.7L4,11.7L4,11.7z"/>
		<path class="st1" d="M4.3,11.5C4.3,11.5,4.3,11.5,4.3,11.5C4.3,11.5,4.3,11.5,4.3,11.5C4.4,11.5,4.4,11.5,4.3,11.5L4.3,11.5
			c0.1,0.1,0.1,0.1,0.1,0.1c0,0,0,0,0,0l0,0h0c0,0,0,0,0,0v0l0,0c0,0,0,0,0,0S4.3,11.6,4.3,11.5C4.3,11.5,4.3,11.5,4.3,11.5
			C4.3,11.5,4.3,11.5,4.3,11.5L4.3,11.5L4.3,11.5L4.3,11.5L4.3,11.5z M4.3,11.4L4.3,11.4L4.3,11.4L4.3,11.4L4.3,11.4L4.3,11.4v0.1v0
			l0,0c0,0,0,0,0,0l0,0v0l0,0h0c0,0,0,0,0,0c0,0,0,0,0,0l0,0v0c0,0,0,0,0,0h0c0,0,0,0,0,0L4.3,11.4L4.3,11.4
			C4.2,11.4,4.2,11.4,4.3,11.4C4.3,11.4,4.3,11.4,4.3,11.4C4.3,11.4,4.3,11.4,4.3,11.4z"/>
		<path class="st1" d="M4.5,11.7L4.5,11.7l0-0.2v0l0,0l0,0l0,0h0c0,0,0,0,0,0V11.7l0.1-0.2v0l0,0c0,0,0,0,0,0l0,0l0,0l0,0l0,0
			c0,0,0,0,0,0L4.5,11.7L4.5,11.7L4.5,11.7L4.5,11.7l-0.1,0c0,0,0,0,0,0c0,0,0,0,0,0C4.4,11.7,4.4,11.7,4.5,11.7L4.5,11.7L4.5,11.7
			C4.4,11.7,4.4,11.7,4.5,11.7C4.5,11.7,4.5,11.7,4.5,11.7C4.5,11.7,4.5,11.7,4.5,11.7z"/>
		<path class="st1" d="M5.2,11.5L5.2,11.5L5.2,11.5C5.2,11.4,5.3,11.4,5.2,11.5C5.3,11.4,5.3,11.4,5.2,11.5l0.1-0.1c0,0,0,0,0,0l0,0
			l0,0l0,0l0,0h0v0l0,0h0c0,0,0,0,0,0v0c0,0,0,0,0,0h0v0.1v0c0,0,0,0,0,0h0v0L5.2,11.5L5.2,11.5L5.2,11.5
			C5.2,11.5,5.2,11.5,5.2,11.5L5.2,11.5z"/>
		<path class="st1" d="M5.4,11.7L5.4,11.7L5.4,11.7C5.4,11.7,5.4,11.7,5.4,11.7C5.4,11.7,5.4,11.7,5.4,11.7L5.4,11.7l-0.1-0.1
			c0,0,0,0,0,0h0v0c0,0,0,0,0,0h0h0l0,0c0,0,0,0,0,0c0,0,0,0,0,0C5.6,11.6,5.6,11.6,5.4,11.7L5.4,11.7L5.4,11.7
			C5.4,11.6,5.4,11.6,5.4,11.7L5.4,11.7L5.4,11.7z"/>
		<path class="st1" d="M5.7,11.7L5.7,11.7L5.7,11.7L5.7,11.7C5.7,11.6,5.7,11.6,5.7,11.7l-0.1-0.1v0l0,0c0,0,0,0,0,0
			C5.7,11.5,5.7,11.6,5.7,11.7C5.7,11.6,5.7,11.6,5.7,11.7C5.7,11.7,5.7,11.7,5.7,11.7C5.7,11.7,5.7,11.7,5.7,11.7L5.7,11.7z
			 M5.6,11.7L5.6,11.7L5.6,11.7L5.6,11.7C5.7,11.7,5.7,11.7,5.6,11.7C5.7,11.7,5.7,11.7,5.6,11.7L5.6,11.7c0.1,0,0.1,0,0.1,0l0,0
			c0,0,0,0,0,0C5.8,11.7,5.8,11.7,5.6,11.7C5.7,11.7,5.7,11.7,5.6,11.7L5.6,11.7L5.6,11.7L5.6,11.7L5.6,11.7z M5.6,11.7L5.6,11.7
			L5.6,11.7C5.6,11.7,5.6,11.7,5.6,11.7L5.6,11.7l0,0.1C5.6,11.8,5.6,11.8,5.6,11.7C5.6,11.7,5.6,11.7,5.6,11.7
			C5.6,11.6,5.6,11.6,5.6,11.7C5.6,11.6,5.6,11.6,5.6,11.7l0-0.1h0L5.6,11.7L5.6,11.7C5.6,11.6,5.6,11.6,5.6,11.7L5.6,11.7L5.6,11.7
			L5.6,11.7L5.6,11.7L5.6,11.7z"/>
		<path class="st1" d="M5.9,11.7L5.9,11.7L5.9,11.7L5.9,11.7C5.9,11.6,5.9,11.6,5.9,11.7l-0.1-0.1v0l0,0c0,0,0,0,0,0
			C5.9,11.5,5.9,11.6,5.9,11.7C5.9,11.6,5.9,11.6,5.9,11.7C5.9,11.7,5.9,11.7,5.9,11.7C5.9,11.7,5.9,11.7,5.9,11.7L5.9,11.7z
			 M5.8,11.7L5.8,11.7C5.9,11.7,5.9,11.7,5.8,11.7C5.9,11.7,5.9,11.7,5.8,11.7C5.9,11.7,5.9,11.7,5.8,11.7
			C5.9,11.7,5.9,11.7,5.8,11.7L5.8,11.7c0.1,0,0.1,0,0.1,0l0,0c0,0,0,0,0,0C6,11.7,6,11.7,5.8,11.7C5.9,11.7,5.9,11.7,5.8,11.7
			L5.8,11.7L5.8,11.7L5.8,11.7L5.8,11.7z M5.8,11.7L5.8,11.7L5.8,11.7C5.8,11.7,5.8,11.7,5.8,11.7L5.8,11.7l0,0.1
			C5.8,11.8,5.8,11.8,5.8,11.7C5.8,11.7,5.8,11.7,5.8,11.7C5.8,11.6,5.8,11.6,5.8,11.7C5.8,11.6,5.8,11.6,5.8,11.7l0-0.2h0v0l0,0
			C5.8,11.5,5.8,11.5,5.8,11.7L5.8,11.7L5.8,11.7L5.8,11.7L5.8,11.7L5.8,11.7z"/>
		<path class="st1" d="M6.1,11.5L6.1,11.5C6.1,11.5,6.1,11.5,6.1,11.5C6.2,11.5,6.2,11.5,6.1,11.5C6.2,11.6,6.2,11.6,6.1,11.5
			c0.1,0.1,0.1,0.1,0.1,0.1c0,0,0,0,0,0l0,0h0c0,0,0,0,0,0v0l0,0h0c0,0,0,0,0,0V11.5L6.1,11.5C6.1,11.5,6.1,11.5,6.1,11.5
			C6.1,11.5,6.1,11.5,6.1,11.5L6.1,11.5L6.1,11.5L6.1,11.5L6.1,11.5z M6,11.5L6,11.5L6,11.5L6,11.5L6,11.5C6,11.5,6,11.6,6,11.5
			C6,11.6,6,11.6,6,11.5c0,0.1,0,0.1,0,0.1l0,0v0h0l0,0v0.1c0,0,0,0,0,0h0v0L6,11.5L6,11.5C6,11.5,6,11.5,6,11.5
			C6,11.5,6,11.5,6,11.5L6,11.5z"/>
		<path class="st1" d="M6.2,11.4C6.2,11.4,6.2,11.4,6.2,11.4C6.2,11.4,6.2,11.4,6.2,11.4L6.2,11.4C6.2,11.4,6.2,11.4,6.2,11.4
			L6.2,11.4C6.3,11.4,6.3,11.4,6.2,11.4C6.3,11.4,6.2,11.4,6.2,11.4L6.2,11.4L6.2,11.4z M6.3,11.5L6.3,11.5v0.2v0c0,0,0,0,0,0
			c0,0,0,0,0,0v0L6.3,11.5L6.3,11.5C6.2,11.5,6.2,11.5,6.3,11.5C6.3,11.5,6.2,11.5,6.3,11.5C6.2,11.5,6.3,11.5,6.3,11.5z"/>
		<path class="st1" d="M6.4,11.7L6.4,11.7L6.4,11.7L6.4,11.7L6.4,11.7c-0.1,0-0.1,0-0.1,0h0v0v-0.2v0c0,0,0,0,0,0h0v0v0.1l0,0l0,0
			c0,0,0,0,0,0c0,0,0,0,0,0c0,0,0,0,0,0c0,0,0,0,0,0L6.4,11.7L6.4,11.7C6.5,11.7,6.5,11.7,6.4,11.7L6.4,11.7L6.4,11.7
			C6.5,11.7,6.5,11.7,6.4,11.7C6.4,11.7,6.4,11.7,6.4,11.7C6.4,11.7,6.4,11.7,6.4,11.7z"/>
		<path class="st1" d="M6.5,11.7L6.5,11.7C6.5,11.7,6.5,11.7,6.5,11.7L6.5,11.7C6.5,11.7,6.5,11.7,6.5,11.7L6.5,11.7
			C6.6,11.7,6.6,11.7,6.5,11.7C6.6,11.7,6.6,11.7,6.5,11.7C6.6,11.7,6.6,11.7,6.5,11.7z"/>
		<path class="st1" d="M6.8,11.7L6.8,11.7C6.8,11.7,6.8,11.7,6.8,11.7C6.8,11.7,6.7,11.7,6.8,11.7l-0.1,0.1c0,0,0,0-0.1,0
			c0,0,0,0,0,0c0,0,0,0,0,0c0,0,0,0,0,0c0,0,0,0,0,0h0C6.7,11.5,6.8,11.5,6.8,11.7L6.8,11.7L6.8,11.7C6.8,11.7,6.8,11.7,6.8,11.7
			C6.8,11.7,6.8,11.7,6.8,11.7L6.8,11.7L6.8,11.7L6.8,11.7H6.7c0,0,0,0,0,0l0,0v0v0c0,0,0,0,0,0h0h0c0,0,0,0,0,0c0,0,0,0,0,0
			c0,0,0,0,0,0C6.8,11.7,6.8,11.7,6.8,11.7L6.8,11.7z"/>
		<path class="st1" d="M7.1,11.6C7.1,11.7,7.1,11.7,7.1,11.6C7.1,11.7,7.1,11.7,7.1,11.6l0,0.1h0L7.1,11.6C7,11.7,7,11.7,7.1,11.6
			C7,11.6,7.1,11.6,7.1,11.6L7.1,11.6C7.1,11.6,7.1,11.6,7.1,11.6l-0.1-0.1v0c0,0,0,0,0,0c0,0,0,0,0,0L7.1,11.6
			C7.1,11.6,7.1,11.6,7.1,11.6z M6.9,11.7L6.9,11.7C6.9,11.7,6.9,11.7,6.9,11.7C6.9,11.7,6.9,11.7,6.9,11.7l-0.1-0.1c0,0,0,0,0,0
			c0,0,0,0,0,0c0,0,0,0,0,0l0,0h0l0,0v0l0,0h0l0,0v0L6.9,11.7C6.9,11.7,6.9,11.7,6.9,11.7L6.9,11.7L6.9,11.7L6.9,11.7L6.9,11.7z"/>
		<path class="st1" d="M7.3,11.6L7.3,11.6v0.1c0,0,0,0,0,0c0,0,0,0,0,0L7.3,11.6L7.3,11.6C7.2,11.6,7.2,11.6,7.3,11.6L7.3,11.6
			c-0.1-0.1-0.1-0.1-0.1-0.1c0,0,0,0,0,0c0,0,0,0,0,0v0.1v0c0,0,0,0,0,0h0v0v-0.2v0c0,0,0,0,0,0h0c0,0,0,0,0,0l0,0l0,0h0
			c0,0,0,0,0,0L7.3,11.6l0-0.1h0c0,0,0,0,0,0l0,0v0v0.1v0c0,0,0,0,0,0c0,0,0,0,0,0L7.3,11.6L7.3,11.6L7.3,11.6
			C7.3,11.6,7.3,11.6,7.3,11.6C7.3,11.6,7.3,11.6,7.3,11.6L7.3,11.6C7.3,11.6,7.3,11.6,7.3,11.6C7.3,11.6,7.3,11.6,7.3,11.6z"/>
		<path class="st1" d="M4.7,11.6L4.7,11.6L4.7,11.6z"/>
		<path class="st1" d="M4.7,11.6L4.7,11.6L4.7,11.6L4.7,11.6z"/>
		<path class="st1" d="M4.8,11.7L4.8,11.7L4.8,11.7z"/>
		<path class="st1" d="M4.8,11.7L4.8,11.7L4.8,11.7z"/>
		<path class="st1" d="M4.7,11.7L4.7,11.7L4.7,11.7L4.7,11.7z"/>
		<path class="st1" d="M5,11.4L5,11.4L5,11.4L5,11.4L5,11.4C4.9,11.3,5,11.3,5,11.4C5,11.3,5,11.3,5,11.4C4.9,11.3,4.9,11.3,5,11.4
			C4.9,11.3,4.9,11.4,5,11.4L5,11.4C4.9,11.3,4.9,11.4,5,11.4L5,11.4C4.9,11.4,4.9,11.4,5,11.4C4.9,11.4,4.9,11.4,5,11.4z"/>
		<path class="st1" d="M4.8,11.4L4.8,11.4L4.8,11.4L4.8,11.4L4.8,11.4C4.7,11.4,4.7,11.4,4.8,11.4L4.8,11.4
			C4.7,11.5,4.7,11.5,4.8,11.4L4.8,11.4L4.8,11.4L4.8,11.4c-0.1,0-0.1,0-0.1,0c0,0,0,0,0,0s0,0,0,0l0,0C4.7,11.5,4.7,11.5,4.8,11.4
			L4.8,11.4L4.8,11.4L4.8,11.4c-0.1,0.1-0.1,0.1-0.1,0.1h0L4.8,11.4C4.7,11.5,4.8,11.4,4.8,11.4z"/>
		<path class="st1" d="M5.1,11.4L5.1,11.4L5.1,11.4C5.1,11.4,5.1,11.4,5.1,11.4L5.1,11.4L5.1,11.4C5.1,11.4,5.1,11.4,5.1,11.4
			L5.1,11.4L5.1,11.4v0.1h0C5.2,11.5,5.2,11.5,5.1,11.4L5.1,11.4C5.1,11.5,5.1,11.5,5.1,11.4C5.1,11.4,5.1,11.4,5.1,11.4
			C5.1,11.4,5.1,11.4,5.1,11.4L5.1,11.4L5.1,11.4z"/>
		<path class="st1" d="M5.1,11.6c0,0-0.1,0-0.1,0s0,0-0.1,0c0,0,0,0-0.1,0c0,0,0,0,0,0v0l0,0l0,0l0,0l0,0l0,0c0,0,0,0,0,0l0,0l0,0
			c0,0,0,0,0.1,0c0,0,0.1,0,0.1,0C5.1,11.7,5.1,11.7,5.1,11.6C5.1,11.7,5.1,11.7,5.1,11.6L5.1,11.6C5.1,11.6,5.1,11.6,5.1,11.6z"/>
		<path class="st1" d="M5,11.6C5.1,11.6,5.1,11.6,5,11.6L5,11.6c0.1-0.1,0-0.1,0-0.2c0,0,0,0-0.1,0v0c0,0,0,0,0,0L5,11.6L5,11.6
			L5,11.6z M4.9,11.7C4.9,11.7,4.9,11.7,4.9,11.7c0.1,0,0.1,0,0.2,0v-0.1l0,0c0,0,0,0,0,0c0,0,0,0,0,0l0,0l0,0v0c0,0,0,0,0,0h0h0
			c0,0,0,0,0,0l0,0v0c0,0,0,0,0,0c0,0,0,0,0,0C4.9,11.6,4.9,11.7,4.9,11.7z M4.8,11.4L4.8,11.4C4.7,11.5,4.7,11.5,4.8,11.4L4.8,11.4
			l0,0.1l0,0l0,0c0,0,0,0,0,0c0,0,0,0,0.1,0v0l0,0c0,0,0,0,0,0C4.8,11.5,4.9,11.5,4.8,11.4L4.8,11.4L4.8,11.4L4.8,11.4
			C4.8,11.4,4.8,11.4,4.8,11.4L4.8,11.4L4.8,11.4z"/>
	</g>
	<g>
		<path class="st2" d="M4.9,10.4c1.3,0,2.3-0.3,2.3-0.7c0-0.4-1-0.7-2.3-0.7S2.6,9.3,2.6,9.7C2.6,10.1,3.6,10.4,4.9,10.4z"/>
		<path class="st3" d="M4.9,10.1c0.7,0,1.3-0.2,1.3-0.4S5.6,9.4,4.9,9.4S3.6,9.6,3.6,9.8C3.6,10,4.2,10.1,4.9,10.1z"/>
		<path class="st4" d="M4.9,9.7c-0.2,0-0.4,0.2-1,0.1C3.2,9.8,2.1,8.9,1.6,7.8C-0.3,4.4,1,2.2,2.1,1.7S4.2,1.8,5,1.8
			s1.7-0.6,2.8-0.1s2.4,2.6,0.6,6.1C7.8,9,6.9,9.6,5.8,9.8C5.5,9.9,5.1,9.7,4.9,9.7z"/>
		<path class="st5" d="M4.7,9.4c-0.2,0-0.4,0.2-0.9,0.1C3,9.5,2,8.6,1.5,7.5C-0.2,4.2,1,2.2,2.1,1.7s2,0,2.7,0s1.6-0.5,2.7,0
			s2.3,2.6,0.6,5.9c-0.6,1.1-1.4,1.7-2.5,2C5.3,9.6,4.9,9.4,4.7,9.4z"/>
		<path class="st6" d="M4.7,8.8C4.5,8.8,4.3,9,3.8,9C3.1,8.9,2.2,8.2,1.7,7.2c-1.5-3-0.4-4.9,0.6-5.4s1.8,0,2.5,0s1.5-0.5,2.5,0
			s2.1,2.3,0.5,5.3c-0.5,1-1.3,1.6-2.2,1.8C5.1,9,4.9,8.8,4.7,8.8z"/>
		<path class="st5" d="M5,2.9c1.2,0,2-1,0-1C3.2,1.9,3.4,2.9,5,2.9z"/>
		<path class="st4" d="M5,2.8c0.8,0,1.3-0.7,0-0.7C3.8,2.1,3.9,2.8,5,2.8z"/>
		<path class="st7" d="M4.8,0.8C4.7,0.5,4.4-0.1,4.1,0.2c-0.2,0.2,0.2,0.4,0.4,1C4.8,2,4.6,2.6,4.9,2.6C5.5,2.6,5,1,4.8,0.8z"/>
		<path class="st8" d="M5.1,1.3c0-0.4-0.4-0.8-0.4-0.9C4.5,0.2,4.3-1,3.8-1.7s-1.7-1.1-3-0.9s-1.5,0.8-2.4,0.4
			C-0.8-1.5-1-0.5,0.7,0.3s3.4-0.1,3.7,0.2S5,1.3,4.9,1.7L5.1,1.3z"/>
		<g class="st0">
			<ellipse class="st9" cx="4.9" cy="7.9" rx="0.1" ry="0.1"/>
			<ellipse class="st9" cx="6.4" cy="6.8" rx="0.1" ry="0.1"/>
			<ellipse class="st9" cx="3.2" cy="7" rx="0.1" ry="0.1"/>
			<ellipse class="st9" cx="2.7" cy="8.6" rx="0.1" ry="0.1"/>
			<ellipse class="st9" cx="1.2" cy="7.1" rx="0.1" ry="0.1"/>
			<ellipse class="st9" cx="7.7" cy="7.8" rx="0.1" ry="0.1"/>
			<ellipse class="st9" cx="7.8" cy="8.8" rx="0.1" ry="0.1"/>
			<ellipse class="st9" cx="4" cy="9.7" rx="0.1" ry="0.1"/>
			<ellipse class="st9" cx="6.2" cy="8.5" rx="0.1" ry="0.1"/>
			<ellipse class="st9" cx="8.3" cy="6.3" rx="0.1" ry="0.1"/>
			<ellipse class="st9" cx="5.8" cy="9.3" rx="0.1" ry="0.1"/>
			<ellipse class="st9" cx="4.1" cy="8.8" rx="0.1" ry="0.1"/>
			<ellipse class="st9" cx="2.2" cy="5.9" rx="0.1" ry="0.1"/>
			<ellipse class="st9" cx="1" cy="4.9" rx="0.1" ry="0.1"/>
			<ellipse class="st9" cx="8" cy="4.6" rx="0.1" ry="0.1"/>
			<ellipse class="st9" cx="6" cy="5.2" rx="0.1" ry="0.1"/>
			<ellipse class="st9" cx="6" cy="7.7" rx="0.1" ry="0.1"/>
			<ellipse class="st9" cx="6.9" cy="8.2" rx="0.1" ry="0.1"/>
			<ellipse class="st9" cx="4.8" cy="8.9" rx="0.1" ry="0.1"/>
			<ellipse class="st9" cx="3" cy="8" rx="0.1" ry="0.1"/>
			<ellipse class="st9" cx="2.2" cy="7.5" rx="0.1" ry="0.1"/>
			<ellipse class="st9" cx="4.5" cy="6.2" rx="0.1" ry="0.1"/>
			<ellipse class="st9" cx="4.1" cy="3.4" rx="0.1" ry="0.1"/>
		</g>
		<g class="st0">
			<ellipse class="st10" cx="5.6" cy="8.2" rx="0.1" ry="0.1"/>
			<ellipse class="st10" cx="3.4" cy="6.4" rx="0.1" ry="0.1"/>
			<ellipse class="st10" cx="7" cy="6.4" rx="0.1" ry="0.1"/>
			<ellipse class="st10" cx="7.3" cy="8.6" rx="0.1" ry="0.1"/>
			<ellipse class="st10" cx="8" cy="7.2" rx="0.1" ry="0.1"/>
			<ellipse class="st10" cx="2.3" cy="7.8" rx="0.1" ry="0.1"/>
			<ellipse class="st10" cx="2.3" cy="8.8" rx="0.1" ry="0.1"/>
			<ellipse class="st10" cx="6.2" cy="9.5" rx="0.1" ry="0.1"/>
			<ellipse class="st10" cx="3.8" cy="8.5" rx="0.1" ry="0.1"/>
			<ellipse class="st10" cx="1.4" cy="5.7" rx="0.1" ry="0.1"/>
			<ellipse class="st10" cx="4.2" cy="9.3" rx="0.1" ry="0.1"/>
			<ellipse class="st10" cx="6.6" cy="9" rx="0.1" ry="0.1"/>
			<ellipse class="st10" cx="7.8" cy="5.9" rx="0.1" ry="0.1"/>
			<ellipse class="st10" cx="9" cy="4.9" rx="0.1" ry="0.1"/>
			<ellipse class="st10" cx="3.4" cy="4.8" rx="0.1" ry="0.1"/>
			<ellipse class="st10" cx="4.9" cy="4.9" rx="0.1" ry="0.1"/>
			<ellipse class="st10" cx="4.1" cy="7.7" rx="0.1" ry="0.1"/>
			<ellipse class="st10" cx="3.2" cy="9" rx="0.1" ry="0.1"/>
			<ellipse class="st10" cx="5.2" cy="9.3" rx="0.1" ry="0.1"/>
			<ellipse class="st10" cx="7" cy="7.6" rx="0.1" ry="0.1"/>
			<ellipse class="st10" cx="4.9" cy="7" rx="0.1" ry="0.1"/>
			<ellipse class="st10" cx="5.6" cy="6.2" rx="0.1" ry="0.1"/>
			<ellipse class="st10" cx="6.9" cy="3.2" rx="0.1" ry="0.1"/>
			<ellipse class="st10" cx="3.2" cy="3.4" rx="0.1" ry="0.1"/>
			<ellipse class="st10" cx="6.8" cy="2" rx="0.1" ry="0.1"/>
			<ellipse class="st10" cx="8.6" cy="3.4" rx="0.1" ry="0.1"/>
		</g>
		<path class="st5" d="M1.6,2.9C2.1,2.2,2.9,2,3.4,2.5c0.2,0.2-0.7,0.2-1.3,1C1.6,4.2,1.9,5.2,1.6,5C1.3,4.7,1,3.6,1.6,2.9z"/>
		<path class="st11" d="M1.7,3c0.4-0.6,1.2-0.8,1.4-0.6C3.2,2.5,2.5,2.5,2,3.2S1.8,4.7,1.6,4.5C1.4,4.2,1.4,3.6,1.7,3z"/>
	</g>
</g>
</svg>
