<?xml version="1.0" encoding="utf-8"?>
<!-- Generator: Adobe Illustrator 20.1.0, SVG Export Plug-In . SVG Version: 6.00 Build 0)  -->
<svg version="1.1" id="Layer_1" xmlns="http://www.w3.org/2000/svg" xmlns:xlink="http://www.w3.org/1999/xlink" x="0px" y="0px"
	 viewBox="0 0 10 10" style="enable-background:new 0 0 10 10;" xml:space="preserve">
<style type="text/css">
	.st0{display:none;}
	.st1{display:inline;fill:#808080;}
	.st2{display:none;fill:#DEDEDE;}
	.st3{display:none;fill:#CCCCCC;}
	.st4{fill:#E8240A;}
	.st5{fill:#F2582F;}
	.st6{fill:#FF6D40;}
	.st7{fill:#5B2616;}
	.st8{display:none;fill:#286B28;}
	.st9{display:inline;opacity:4.000000e-02;fill:#FFFFFF;enable-background:new    ;}
	.st10{display:inline;opacity:7.000000e-02;fill:#FFFFFF;enable-background:new    ;}
	.st11{fill:#ED3511;}
</style>
<g>
	<g class="st0">
		<path class="st1" d="M2.6,11.8L2.6,11.8L2.6,11.8C2.6,11.8,2.6,11.8,2.6,11.8L2.6,11.8L2.6,11.8L2.6,11.8
			C2.6,11.8,2.7,11.8,2.6,11.8L2.6,11.8l0-0.1c0,0,0,0,0,0h0v0h0l0,0v-0.1v0c0,0,0,0,0,0h0c0,0,0,0,0,0L2.6,11.8L2.6,11.8
			C2.7,11.8,2.7,11.8,2.6,11.8C2.6,11.8,2.6,11.8,2.6,11.8L2.6,11.8z M2.5,11.8L2.5,11.8C2.5,11.8,2.5,11.8,2.5,11.8L2.5,11.8
			l-0.1-0.1c0,0,0,0,0,0c0,0,0,0,0-0.1s0,0,0,0s0,0,0,0v0.1l0,0l0,0h0v0l0,0C2.5,11.7,2.5,11.7,2.5,11.8C2.5,11.7,2.5,11.8,2.5,11.8
			L2.5,11.8L2.5,11.8L2.5,11.8L2.5,11.8z"/>
		<path class="st1" d="M2.9,11.7L2.9,11.7L2.9,11.7L2.9,11.7C2.9,11.7,2.9,11.7,2.9,11.7L2.9,11.7l-0.1-0.1l0,0
			C2.8,11.6,2.8,11.6,2.9,11.7C2.9,11.7,2.9,11.7,2.9,11.7C2.9,11.7,2.9,11.7,2.9,11.7L2.9,11.7L2.9,11.7L2.9,11.7z M2.8,11.8
			L2.8,11.8C2.8,11.8,2.8,11.8,2.8,11.8C2.8,11.8,2.8,11.8,2.8,11.8C2.8,11.8,2.8,11.8,2.8,11.8C2.8,11.8,2.8,11.8,2.8,11.8
			L2.8,11.8c0.1,0,0.1,0,0.1,0l0,0c0,0,0,0,0,0C2.9,11.8,2.9,11.8,2.8,11.8C2.9,11.9,2.8,11.9,2.8,11.8L2.8,11.8L2.8,11.8L2.8,11.8
			L2.8,11.8z M2.8,11.7L2.8,11.7L2.8,11.7C2.7,11.8,2.7,11.8,2.8,11.7L2.8,11.7l0,0.1C2.8,11.9,2.8,11.9,2.8,11.7
			C2.7,11.8,2.7,11.8,2.8,11.7C2.7,11.7,2.7,11.7,2.8,11.7C2.7,11.7,2.7,11.7,2.8,11.7v-0.1h0L2.8,11.7L2.8,11.7
			C2.8,11.7,2.8,11.7,2.8,11.7L2.8,11.7L2.8,11.7L2.8,11.7L2.8,11.7L2.8,11.7z"/>
		<path class="st1" d="M3.1,11.8C3.1,11.8,3.1,11.8,3.1,11.8L3.1,11.8C3,11.8,3,11.8,3.1,11.8c-0.1,0-0.1,0-0.1,0c0,0,0,0,0,0v0
			c0,0,0,0,0,0c0,0,0,0,0,0l0,0l0,0C3,11.7,3,11.7,3.1,11.8L3.1,11.8L3.1,11.8C3.1,11.7,3.1,11.7,3.1,11.8v-0.1H3c0,0,0,0,0,0
			c0,0,0,0,0,0v0.1v0l0,0h0c0,0,0,0,0,0h0c0,0,0,0,0,0c0,0,0,0,0,0C3.1,11.7,3.1,11.7,3.1,11.8C3.1,11.7,3.1,11.7,3.1,11.8
			C3.1,11.7,3.1,11.7,3.1,11.8c0-0.1,0-0.1-0.1-0.1c0,0,0,0,0,0h0l0,0c0,0,0,0,0,0c0,0,0,0,0,0c0,0,0,0,0,0l0,0
			C3,11.7,3,11.7,3.1,11.8C3,11.8,3.1,11.8,3.1,11.8C3.1,11.7,3.1,11.7,3.1,11.8z"/>
		<path class="st1" d="M3.1,11.6L3.1,11.6C3.1,11.6,3.1,11.6,3.1,11.6L3.1,11.6C3.1,11.5,3.1,11.5,3.1,11.6L3.1,11.6
			C3.2,11.5,3.2,11.5,3.1,11.6C3.2,11.6,3.2,11.6,3.1,11.6C3.2,11.6,3.1,11.6,3.1,11.6L3.1,11.6z M3.2,11.7L3.2,11.7v0.2v0
			c0,0,0,0,0,0c0,0,0,0,0,0v0L3.2,11.7L3.2,11.7C3.1,11.6,3.1,11.6,3.2,11.7C3.1,11.6,3.2,11.6,3.2,11.7L3.2,11.7z"/>
		<path class="st1" d="M3.4,11.7v0.2c0,0,0,0,0,0s0,0,0,0l0,0h0v0h0c0,0,0,0,0,0v0v0l0,0h0v0h0C3.4,11.8,3.4,11.8,3.4,11.7L3.4,11.7
			C3.4,11.7,3.4,11.7,3.4,11.7l-0.1,0v0H3.4L3.4,11.7L3.4,11.7L3.4,11.7C3.4,11.7,3.4,11.7,3.4,11.7L3.4,11.7L3.4,11.7z M3.3,11.9
			L3.3,11.9C3.3,11.9,3.3,11.9,3.3,11.9C3.2,11.9,3.2,11.9,3.3,11.9L3.3,11.9c-0.1-0.1-0.1-0.1-0.1-0.1c0,0,0,0,0,0h0l0,0l0,0
			c0,0,0,0,0,0s0,0,0,0l0,0L3.3,11.9L3.3,11.9z M3.3,11.8L3.3,11.8C3.3,11.8,3.3,11.8,3.3,11.8C3.2,11.8,3.2,11.7,3.3,11.8
			c-0.1-0.1-0.1-0.1-0.1-0.1c0,0,0,0,0,0c0,0,0,0,0,0c0,0,0,0,0,0h0c0,0,0,0,0,0v0.1l0,0c0,0,0,0,0,0L3.3,11.8L3.3,11.8
			C3.3,11.8,3.3,11.8,3.3,11.8L3.3,11.8L3.3,11.8L3.3,11.8z"/>
		<path class="st1" d="M3.5,11.7L3.5,11.7L3.5,11.7L3.5,11.7L3.5,11.7L3.5,11.7L3.5,11.7L3.5,11.7l0.1,0.2v0c0,0,0,0,0,0l0,0v0
			L3.5,11.7C3.6,11.7,3.6,11.7,3.5,11.7L3.5,11.7L3.5,11.7C3.5,11.7,3.5,11.7,3.5,11.7L3.5,11.7v0.2v0c0,0,0,0,0,0h0v0L3.5,11.7
			L3.5,11.7C3.4,11.7,3.4,11.7,3.5,11.7C3.5,11.7,3.5,11.7,3.5,11.7C3.5,11.6,3.5,11.6,3.5,11.7L3.5,11.7z"/>
		<path class="st1" d="M3.9,11.7L3.9,11.7L3.9,11.7L3.9,11.7C3.9,11.7,3.9,11.7,3.9,11.7L3.9,11.7l-0.1-0.1l0,0
			C3.8,11.6,3.8,11.6,3.9,11.7C3.9,11.7,3.9,11.7,3.9,11.7C3.9,11.7,3.9,11.7,3.9,11.7L3.9,11.7L3.9,11.7L3.9,11.7z M3.8,11.8
			L3.8,11.8C3.8,11.8,3.8,11.8,3.8,11.8C3.8,11.8,3.8,11.8,3.8,11.8C3.8,11.8,3.8,11.8,3.8,11.8C3.8,11.8,3.8,11.8,3.8,11.8
			L3.8,11.8c0.1,0,0.1,0,0.1,0l0,0c0,0,0,0,0,0C3.9,11.8,3.9,11.8,3.8,11.8C3.9,11.9,3.8,11.9,3.8,11.8L3.8,11.8L3.8,11.8L3.8,11.8
			L3.8,11.8z M3.8,11.7L3.8,11.7L3.8,11.7C3.7,11.8,3.7,11.8,3.8,11.7L3.8,11.7l0,0.1C3.8,11.9,3.8,11.9,3.8,11.7
			C3.7,11.8,3.7,11.8,3.8,11.7C3.7,11.7,3.7,11.7,3.8,11.7C3.7,11.7,3.7,11.7,3.8,11.7l0-0.1h0L3.8,11.7L3.8,11.7
			C3.8,11.7,3.8,11.7,3.8,11.7L3.8,11.7L3.8,11.7L3.8,11.7L3.8,11.7L3.8,11.7z"/>
		<path class="st1" d="M4.1,11.8L4.1,11.8L4.1,11.8C4,11.8,4,11.8,4.1,11.8L4.1,11.8L4.1,11.8L4.1,11.8C4.1,11.8,4.1,11.8,4.1,11.8
			L4.1,11.8l0-0.1c0,0,0,0,0,0h0v0h0h0v-0.1v0c0,0,0,0,0,0h0c0,0,0,0,0,0v0.2v0C4.2,11.8,4.2,11.8,4.1,11.8
			C4.1,11.8,4.1,11.8,4.1,11.8L4.1,11.8z M4,11.8L4,11.8C4,11.8,4,11.8,4,11.8L4,11.8l-0.1-0.1c0,0,0,0,0,0c0,0,0,0,0-0.1s0,0,0,0
			s0,0,0,0v0.1l0,0h0h0v0l0,0C3.9,11.7,3.9,11.7,4,11.8C3.9,11.7,3.9,11.8,4,11.8L4,11.8L4,11.8L4,11.8L4,11.8z"/>
		<path class="st1" d="M4.3,11.6L4.3,11.6C4.4,11.6,4.4,11.6,4.3,11.6C4.4,11.6,4.4,11.7,4.3,11.6L4.3,11.6c0.1,0.1,0.1,0.1,0.1,0.1
			c0,0,0,0,0,0l0,0h0c0,0,0,0,0,0v0l0,0c0,0,0,0,0,0C4.3,11.7,4.3,11.7,4.3,11.6C4.3,11.7,4.3,11.7,4.3,11.6
			C4.3,11.7,4.3,11.6,4.3,11.6L4.3,11.6L4.3,11.6L4.3,11.6L4.3,11.6z M4.3,11.6L4.3,11.6L4.3,11.6L4.3,11.6L4.3,11.6L4.3,11.6
			L4.3,11.6v0.1l0,0c0,0,0,0,0,0l0,0v0l0,0h0c0,0,0,0,0,0c0,0,0,0,0,0l0,0v0c0,0,0,0,0,0l0,0c0,0,0,0,0,0L4.3,11.6L4.3,11.6
			C4.2,11.5,4.2,11.5,4.3,11.6C4.3,11.5,4.3,11.5,4.3,11.6C4.3,11.5,4.3,11.6,4.3,11.6z"/>
		<path class="st1" d="M4.5,11.8L4.5,11.8l0-0.2v0l0,0l0,0l0,0h0c0,0,0,0,0,0L4.5,11.8l0.1-0.2v0l0,0c0,0,0,0,0,0l0,0l0,0l0,0l0,0
			c0,0,0,0,0,0L4.5,11.8C4.6,11.9,4.6,11.9,4.5,11.8L4.5,11.8L4.5,11.8l-0.1,0c0,0,0,0,0,0c0,0,0,0,0,0C4.4,11.8,4.4,11.8,4.5,11.8
			L4.5,11.8L4.5,11.8C4.5,11.8,4.5,11.8,4.5,11.8C4.5,11.8,4.5,11.9,4.5,11.8C4.5,11.9,4.5,11.9,4.5,11.8z"/>
		<path class="st1" d="M5.3,11.6L5.3,11.6L5.3,11.6C5.3,11.6,5.3,11.6,5.3,11.6C5.3,11.6,5.3,11.5,5.3,11.6l0.1-0.1c0,0,0,0,0,0l0,0
			l0,0l0,0l0,0h0v0l0,0h0c0,0,0,0,0,0l0,0c0,0,0,0,0,0h0v0.1v0c0,0,0,0,0,0h0v0L5.3,11.6L5.3,11.6L5.3,11.6
			C5.3,11.7,5.3,11.7,5.3,11.6C5.3,11.6,5.3,11.6,5.3,11.6z"/>
		<path class="st1" d="M5.5,11.7L5.5,11.7L5.5,11.7C5.5,11.8,5.5,11.8,5.5,11.7C5.4,11.8,5.4,11.8,5.5,11.7L5.5,11.7L5.5,11.7
			c-0.1-0.1-0.1-0.1,0-0.1h0V11.7c0-0.1,0-0.1,0-0.1h0h0l0,0c0,0,0,0,0,0c0,0,0,0,0,0C5.6,11.7,5.6,11.7,5.5,11.7L5.5,11.7L5.5,11.7
			C5.5,11.7,5.5,11.7,5.5,11.7L5.5,11.7L5.5,11.7z"/>
		<path class="st1" d="M5.8,11.7L5.8,11.7L5.8,11.7L5.8,11.7C5.8,11.7,5.8,11.7,5.8,11.7L5.8,11.7l0-0.1l0,0
			C5.8,11.6,5.8,11.6,5.8,11.7C5.8,11.7,5.8,11.7,5.8,11.7C5.8,11.7,5.8,11.7,5.8,11.7C5.8,11.7,5.8,11.7,5.8,11.7
			C5.8,11.7,5.8,11.7,5.8,11.7L5.8,11.7z M5.7,11.8L5.7,11.8L5.7,11.8L5.7,11.8C5.8,11.8,5.8,11.8,5.7,11.8
			C5.8,11.8,5.8,11.8,5.7,11.8L5.7,11.8c0.1,0,0.1,0,0.1,0l0,0c0,0,0,0,0,0C5.8,11.8,5.8,11.8,5.7,11.8C5.8,11.9,5.8,11.9,5.7,11.8
			L5.7,11.8L5.7,11.8L5.7,11.8L5.7,11.8z M5.7,11.7L5.7,11.7L5.7,11.7C5.7,11.8,5.7,11.8,5.7,11.7L5.7,11.7l0,0.1
			C5.7,11.9,5.7,11.9,5.7,11.7C5.6,11.8,5.6,11.8,5.7,11.7C5.6,11.7,5.6,11.7,5.7,11.7C5.6,11.7,5.6,11.7,5.7,11.7l0-0.1h0L5.7,11.7
			L5.7,11.7C5.7,11.7,5.7,11.7,5.7,11.7L5.7,11.7L5.7,11.7L5.7,11.7L5.7,11.7L5.7,11.7z"/>
		<path class="st1" d="M6,11.7L6,11.7L6,11.7L6,11.7C6,11.7,6,11.7,6,11.7L6,11.7l0-0.1l0,0C6,11.6,6,11.6,6,11.7
			C6,11.7,6,11.7,6,11.7C6,11.7,6,11.7,6,11.7C6,11.7,6,11.7,6,11.7C6,11.7,6,11.7,6,11.7L6,11.7z M5.9,11.8L5.9,11.8
			C6,11.8,6,11.8,5.9,11.8C6,11.8,6,11.8,5.9,11.8C6,11.8,6,11.8,5.9,11.8C6,11.8,6,11.8,5.9,11.8L5.9,11.8c0.1,0,0.1,0,0.1,0l0,0
			c0,0,0,0,0,0C6,11.8,6,11.8,5.9,11.8C6,11.9,6,11.9,5.9,11.8L5.9,11.8L5.9,11.8L5.9,11.8L5.9,11.8z M5.9,11.7L5.9,11.7L5.9,11.7
			C5.9,11.8,5.9,11.8,5.9,11.7L5.9,11.7l0,0.1C5.9,11.9,5.9,11.9,5.9,11.7C5.8,11.8,5.8,11.8,5.9,11.7C5.8,11.7,5.8,11.7,5.9,11.7
			C5.8,11.7,5.8,11.7,5.9,11.7l0-0.1h0L5.9,11.7L5.9,11.7C5.9,11.7,5.9,11.7,5.9,11.7L5.9,11.7L5.9,11.7L5.9,11.7L5.9,11.7L5.9,11.7
			z"/>
		<path class="st1" d="M6.2,11.6L6.2,11.6C6.2,11.6,6.2,11.6,6.2,11.6C6.2,11.6,6.2,11.7,6.2,11.6C6.2,11.7,6.2,11.7,6.2,11.6
			c0.1,0.1,0.1,0.1,0.1,0.1c0,0,0,0,0,0l0,0h0c0,0,0,0,0,0v0l0,0h0c0,0,0,0,0,0V11.6L6.2,11.6C6.2,11.7,6.2,11.7,6.2,11.6
			C6.2,11.7,6.2,11.7,6.2,11.6L6.2,11.6L6.2,11.6L6.2,11.6L6.2,11.6z M6.1,11.7L6.1,11.7L6.1,11.7L6.1,11.7L6.1,11.7
			C6.1,11.7,6.1,11.7,6.1,11.7C6.1,11.7,6.1,11.7,6.1,11.7c0,0.1,0,0.1,0,0.1l0,0v0h0l0,0v0.1c0,0,0,0,0,0h0v0L6.1,11.7L6.1,11.7
			C6,11.6,6,11.6,6.1,11.7C6.1,11.6,6.1,11.6,6.1,11.7L6.1,11.7z"/>
		<path class="st1" d="M6.3,11.6C6.3,11.6,6.3,11.6,6.3,11.6C6.3,11.6,6.3,11.6,6.3,11.6L6.3,11.6C6.3,11.5,6.3,11.5,6.3,11.6
			L6.3,11.6C6.4,11.5,6.4,11.5,6.3,11.6C6.4,11.6,6.3,11.6,6.3,11.6L6.3,11.6L6.3,11.6z M6.4,11.7L6.4,11.7v0.2v0c0,0,0,0,0,0
			c0,0,0,0,0,0v0L6.4,11.7L6.4,11.7C6.3,11.6,6.3,11.6,6.4,11.7C6.4,11.6,6.3,11.6,6.4,11.7C6.3,11.7,6.4,11.7,6.4,11.7z"/>
		<path class="st1" d="M6.5,11.8L6.5,11.8L6.5,11.8L6.5,11.8L6.5,11.8c-0.1,0-0.1,0-0.1,0h0v0v-0.2v0c0,0,0,0,0,0h0v0v0.1l0,0l0,0
			c0,0,0,0,0,0c0,0,0,0,0,0c0,0,0,0,0,0c0,0,0,0,0,0L6.5,11.8L6.5,11.8C6.6,11.8,6.6,11.8,6.5,11.8L6.5,11.8L6.5,11.8
			C6.6,11.8,6.6,11.8,6.5,11.8L6.5,11.8L6.5,11.8z"/>
		<path class="st1" d="M6.6,11.8L6.6,11.8L6.6,11.8L6.6,11.8C6.6,11.8,6.6,11.8,6.6,11.8L6.6,11.8C6.7,11.8,6.7,11.8,6.6,11.8
			C6.7,11.8,6.7,11.8,6.6,11.8C6.7,11.8,6.7,11.8,6.6,11.8z"/>
		<path class="st1" d="M6.9,11.8L6.9,11.8C6.9,11.8,6.9,11.8,6.9,11.8C6.9,11.8,6.8,11.8,6.9,11.8l-0.1,0.1c0,0,0,0-0.1,0
			c0,0,0,0,0-0.1c0,0,0,0,0,0c0,0,0,0,0,0c0,0,0,0,0,0h0c0,0,0,0,0,0L6.9,11.8L6.9,11.8C6.9,11.7,6.9,11.7,6.9,11.8
			C6.9,11.8,6.9,11.8,6.9,11.8L6.9,11.8L6.9,11.8l-0.1,0h0c0,0,0,0,0,0l0,0v0v0c0,0,0,0,0,0h0h0c0,0,0,0,0,0
			C6.8,11.9,6.8,11.9,6.9,11.8C6.8,11.9,6.8,11.9,6.9,11.8C6.9,11.8,6.9,11.7,6.9,11.8C6.9,11.7,6.9,11.8,6.9,11.8z"/>
		<path class="st1" d="M7.2,11.7C7.2,11.8,7.2,11.8,7.2,11.7C7.2,11.8,7.2,11.8,7.2,11.7L7.2,11.7L7.2,11.7L7.2,11.7
			C7.1,11.8,7.1,11.8,7.2,11.7C7.1,11.7,7.2,11.7,7.2,11.7L7.2,11.7C7.2,11.7,7.2,11.7,7.2,11.7l-0.1-0.1v0c0,0,0,0,0,0c0,0,0,0,0,0
			V11.7C7.2,11.7,7.2,11.7,7.2,11.7z M7,11.8L7,11.8C7,11.8,7,11.8,7,11.8C6.9,11.8,6.9,11.8,7,11.8l-0.1-0.1c0,0,0,0,0,0
			c0,0,0,0,0,0c0,0,0,0,0,0l0,0h0l0,0v0.1l0,0h0l0,0L7,11.8L7,11.8C6.9,11.8,6.9,11.8,7,11.8L7,11.8L7,11.8L7,11.8L7,11.8z"/>
		<path class="st1" d="M7.4,11.7L7.4,11.7v0.1c0,0,0,0,0,0c0,0,0,0,0,0L7.4,11.7L7.4,11.7C7.3,11.7,7.3,11.7,7.4,11.7L7.4,11.7
			c-0.1-0.1-0.1-0.1-0.1-0.1c0,0,0,0,0,0c0,0,0,0,0,0v0.1v0c0,0,0,0,0,0h0v0v-0.2l0,0c0,0,0,0,0,0h0c0,0,0,0,0,0l0,0l0,0L7.4,11.7
			C7.3,11.7,7.3,11.7,7.4,11.7L7.4,11.7L7.4,11.7L7.4,11.7c0.1-0.1,0.1-0.1,0.1-0.1l0,0v0v0.1v0c0,0,0,0,0,0c0,0,0,0,0,0v0L7.4,11.7
			L7.4,11.7C7.4,11.7,7.4,11.7,7.4,11.7C7.4,11.7,7.4,11.7,7.4,11.7L7.4,11.7C7.4,11.7,7.4,11.7,7.4,11.7
			C7.4,11.7,7.4,11.7,7.4,11.7z"/>
		<path class="st1" d="M4.8,11.7L4.8,11.7L4.8,11.7z"/>
		<path class="st1" d="M4.8,11.7L4.8,11.7L4.8,11.7L4.8,11.7z"/>
		<path class="st1" d="M4.8,11.8L4.8,11.8L4.8,11.8z"/>
		<path class="st1" d="M4.8,11.8L4.8,11.8L4.8,11.8z"/>
		<path class="st1" d="M4.8,11.7C4.8,11.7,4.8,11.8,4.8,11.7C4.8,11.8,4.8,11.7,4.8,11.7L4.8,11.7z"/>
		<path class="st1" d="M5,11.5L5,11.5L5,11.5C5,11.5,5,11.5,5,11.5L5,11.5C5,11.4,5,11.4,5,11.5C5,11.4,5,11.4,5,11.5
			C5,11.4,4.9,11.4,5,11.5C5,11.4,5,11.5,5,11.5L5,11.5C5,11.4,4.9,11.5,5,11.5L5,11.5C5,11.5,5,11.5,5,11.5L5,11.5z"/>
		<path class="st1" d="M4.8,11.6L4.8,11.6L4.8,11.6L4.8,11.6L4.8,11.6C4.8,11.5,4.8,11.6,4.8,11.6L4.8,11.6
			C4.8,11.6,4.8,11.6,4.8,11.6L4.8,11.6L4.8,11.6L4.8,11.6c-0.1,0-0.1,0-0.1,0c0,0,0,0,0,0c0,0,0,0,0,0l0,0
			C4.7,11.7,4.7,11.7,4.8,11.6L4.8,11.6L4.8,11.6L4.8,11.6c-0.1,0.1-0.1,0.1-0.1,0.1h0L4.8,11.6C4.8,11.6,4.8,11.6,4.8,11.6z"/>
		<path class="st1" d="M5.2,11.5C5.2,11.5,5.2,11.5,5.2,11.5L5.2,11.5C5.2,11.6,5.2,11.6,5.2,11.5L5.2,11.5L5.2,11.5
			C5.2,11.5,5.2,11.5,5.2,11.5L5.2,11.5L5.2,11.5v0.1h0C5.3,11.7,5.3,11.6,5.2,11.5L5.2,11.5C5.2,11.6,5.2,11.6,5.2,11.5
			C5.2,11.6,5.2,11.6,5.2,11.5C5.2,11.6,5.2,11.6,5.2,11.5L5.2,11.5L5.2,11.5z"/>
		<path class="st1" d="M5.2,11.7c0,0-0.1,0-0.1,0c0,0,0,0-0.1,0s0,0-0.1,0c0,0,0,0,0,0v0l0,0l0,0l0,0l0,0l0,0c0,0,0,0,0,0l0,0l0,0
			c0,0,0,0,0.1,0s0.1,0,0.1,0C5.2,11.8,5.2,11.8,5.2,11.7C5.1,11.7,5.2,11.7,5.2,11.7L5.2,11.7C5.2,11.7,5.2,11.7,5.2,11.7z"/>
		<path class="st1" d="M5.1,11.7C5.1,11.7,5.1,11.7,5.1,11.7L5.1,11.7c0.1-0.1,0-0.1,0-0.2c0,0,0,0-0.1,0v0c0,0,0,0,0,0L5.1,11.7
			L5.1,11.7z M4.9,11.7C5,11.7,5,11.7,4.9,11.7c0.1,0,0.1,0,0.2,0v0l0,0c0,0,0,0,0,0c0,0,0,0,0,0l0,0l0,0v0c0,0,0,0,0,0h0h0
			c0,0,0,0,0,0l0,0v0c0,0,0,0,0,0c0,0,0,0,0,0C4.9,11.7,4.9,11.7,4.9,11.7z M4.8,11.6L4.8,11.6C4.8,11.7,4.8,11.7,4.8,11.6L4.8,11.6
			l0,0.1l0,0l0,0c0,0,0,0,0,0c0,0,0,0,0.1,0v0l0,0c0,0,0,0,0,0C4.9,11.7,4.9,11.7,4.8,11.6L4.8,11.6L4.8,11.6L4.8,11.6
			C4.9,11.5,4.8,11.6,4.8,11.6L4.8,11.6L4.8,11.6z"/>
	</g>
	<g>
		<path class="st2" d="M5,10.5c1.3,0,2.4-0.3,2.4-0.7c0-0.4-1-0.7-2.4-0.7S2.6,9.5,2.6,9.9S3.7,10.5,5,10.5z"/>
		<path class="st3" d="M5,10.2c0.7,0,1.3-0.2,1.3-0.4c0-0.2-0.6-0.4-1.3-0.4S3.6,9.7,3.6,9.9C3.6,10.1,4.3,10.2,5,10.2z"/>
		<path class="st4" d="M5,9.8C4.8,9.8,4.6,10,4,10C3.2,9.9,2.2,9,1.6,7.8C-0.3,4.3,1,2.1,2.2,1.7S4.3,1.7,5,1.7s1.7-0.6,2.9-0.1
			s2.4,2.7,0.6,6.2C7.9,9,7,9.7,5.9,9.9C5.5,10,5.2,9.8,5,9.8z"/>
		<path class="st5" d="M4.8,9.5c-0.2,0-0.5,0.2-1,0.1c-0.8-0.1-1.8-1-2.4-2C-0.3,4.3,1,2.1,2.1,1.7s2,0,2.8,0s1.6-0.5,2.8,0
			S10,4.3,8.2,7.6c-0.6,1.1-1.4,1.8-2.5,2C5.3,9.7,5,9.5,4.8,9.5z"/>
		<path class="st6" d="M4.7,8.9C4.6,8.9,4.3,9,3.9,9C3.1,9,2.2,8.2,1.7,7.2c-1.6-3.1-0.5-5,0.6-5.5s1.9,0,2.5,0s1.5-0.5,2.5,0
			s2.1,2.4,0.5,5.4C7.3,8.2,6.6,8.8,5.6,9C5.2,9.1,4.9,8.9,4.7,8.9z"/>
		<path class="st5" d="M5.1,2.9c1.2,0,2-1,0-1C3.2,1.9,3.4,2.9,5.1,2.9z"/>
		<path class="st4" d="M5.1,2.8c0.8,0,1.4-0.7,0-0.7C3.8,2,3.9,2.8,5.1,2.8z"/>
		<path class="st7" d="M4.9,1.7C4.8,1.9,4.6,2.6,5.1,2.5c0.3,0,0.1-0.5,0.4-1.1c0.4-0.7,1-1.1,0.7-1.3C5.8-0.2,5,1.3,4.9,1.7z"/>
		<path class="st8" d="M5.1,1.3c0-0.5-0.4-0.8-0.5-1C4.6,0.1,4.4-1.1,3.9-1.8S2.1-3,0.8-2.7s-1.5,0.8-2.5,0.5
			c0.8,0.7,0.6,1.6,2.4,2.5s3.4-0.1,3.8,0.2S5,1.3,4.9,1.7L5.1,1.3z"/>
		<g class="st0">
			<ellipse class="st9" cx="4.9" cy="8" rx="0.1" ry="0.1"/>
			<ellipse class="st9" cx="6.5" cy="6.9" rx="0.1" ry="0.1"/>
			<ellipse class="st9" cx="3.3" cy="7.1" rx="0.1" ry="0.1"/>
			<ellipse class="st9" cx="2.7" cy="8.7" rx="0.1" ry="0.1"/>
			<ellipse class="st9" cx="1.2" cy="7.1" rx="0.1" ry="0.1"/>
			<ellipse class="st9" cx="7.8" cy="7.9" rx="0.1" ry="0.1"/>
			<ellipse class="st9" cx="7.9" cy="8.9" rx="0.1" ry="0.1"/>
			<ellipse class="st9" cx="4" cy="9.7" rx="0.1" ry="0.1"/>
			<ellipse class="st9" cx="6.3" cy="8.6" rx="0.1" ry="0.1"/>
			<ellipse class="st9" cx="8.4" cy="6.4" rx="0.1" ry="0.1"/>
			<ellipse class="st9" cx="5.9" cy="9.3" rx="0.1" ry="0.1"/>
			<ellipse class="st9" cx="4.1" cy="8.9" rx="0.1" ry="0.1"/>
			<ellipse class="st9" cx="2.2" cy="5.9" rx="0.1" ry="0.1"/>
			<ellipse class="st9" cx="1" cy="4.9" rx="0.1" ry="0.1"/>
			<ellipse class="st9" cx="8.1" cy="4.6" rx="0.1" ry="0.1"/>
			<ellipse class="st9" cx="6.1" cy="5.2" rx="0.1" ry="0.1"/>
			<ellipse class="st9" cx="6" cy="7.7" rx="0.1" ry="0.1"/>
			<ellipse class="st9" cx="7" cy="8.3" rx="0.1" ry="0.1"/>
			<ellipse class="st9" cx="4.9" cy="9" rx="0.1" ry="0.1"/>
			<ellipse class="st9" cx="3" cy="8.1" rx="0.1" ry="0.1"/>
			<ellipse class="st9" cx="2.2" cy="7.5" rx="0.1" ry="0.1"/>
			<ellipse class="st9" cx="4.5" cy="6.2" rx="0.1" ry="0.1"/>
			<ellipse class="st9" cx="4.2" cy="3.3" rx="0.1" ry="0.1"/>
		</g>
		<g class="st0">
			<ellipse class="st10" cx="5.6" cy="8.2" rx="0.1" ry="0.1"/>
			<ellipse class="st10" cx="3.4" cy="6.4" rx="0.1" ry="0.1"/>
			<ellipse class="st10" cx="7.1" cy="6.4" rx="0.1" ry="0.1"/>
			<ellipse class="st10" cx="7.4" cy="8.7" rx="0.1" ry="0.1"/>
			<ellipse class="st10" cx="8.1" cy="7.2" rx="0.1" ry="0.1"/>
			<ellipse class="st10" cx="2.3" cy="7.9" rx="0.1" ry="0.1"/>
			<ellipse class="st10" cx="2.3" cy="8.9" rx="0.1" ry="0.1"/>
			<ellipse class="st10" cx="6.3" cy="9.5" rx="0.1" ry="0.1"/>
			<ellipse class="st10" cx="3.8" cy="8.6" rx="0.1" ry="0.1"/>
			<ellipse class="st10" cx="1.4" cy="5.7" rx="0.1" ry="0.1"/>
			<ellipse class="st10" cx="4.3" cy="9.3" rx="0.1" ry="0.1"/>
			<ellipse class="st10" cx="6.7" cy="9.1" rx="0.1" ry="0.1"/>
			<ellipse class="st10" cx="7.9" cy="5.9" rx="0.1" ry="0.1"/>
			<ellipse class="st10" cx="9.1" cy="4.9" rx="0.1" ry="0.1"/>
			<ellipse class="st10" cx="3.4" cy="4.8" rx="0.1" ry="0.1"/>
			<ellipse class="st10" cx="5" cy="4.9" rx="0.1" ry="0.1"/>
			<ellipse class="st10" cx="4.1" cy="7.7" rx="0.1" ry="0.1"/>
			<ellipse class="st10" cx="3.3" cy="9.1" rx="0.1" ry="0.1"/>
			<ellipse class="st10" cx="5.3" cy="9.4" rx="0.1" ry="0.1"/>
			<ellipse class="st10" cx="7.1" cy="7.7" rx="0.1" ry="0.1"/>
			<ellipse class="st10" cx="4.9" cy="7.1" rx="0.1" ry="0.1"/>
			<ellipse class="st10" cx="5.6" cy="6.2" rx="0.1" ry="0.1"/>
			<ellipse class="st10" cx="7" cy="3.2" rx="0.1" ry="0.1"/>
			<ellipse class="st10" cx="3.2" cy="3.4" rx="0.1" ry="0.1"/>
			<ellipse class="st10" cx="6.9" cy="1.9" rx="0.1" ry="0.1"/>
			<ellipse class="st10" cx="8.7" cy="3.3" rx="0.1" ry="0.1"/>
		</g>
		<path class="st5" d="M1.6,2.9c0.5-0.7,1.3-1,1.9-0.5c0.2,0.2-0.7,0.2-1.3,1.1C1.6,4.3,1.9,5.2,1.6,5C1.3,4.7,1,3.6,1.6,2.9z"/>
		<path class="st11" d="M1.7,3c0.4-0.6,1.2-0.8,1.4-0.6C3.2,2.6,2.4,2.6,2,3.2S1.7,4.7,1.6,4.5C1.4,4.3,1.4,3.6,1.7,3z"/>
	</g>
</g>
</svg>
