<?xml version="1.0" encoding="utf-8"?>
<!-- Generator: Adobe Illustrator 20.0.0, SVG Export Plug-In . SVG Version: 6.00 Build 0)  -->
<svg version="1.1" id="Capa_1" xmlns="http://www.w3.org/2000/svg" xmlns:xlink="http://www.w3.org/1999/xlink" x="0px" y="0px"
	 viewBox="0 0 1582.4 1582.4" style="enable-background:new 0 0 1582.4 1582.4;" xml:space="preserve">
<style type="text/css">
	.st0{fill:#FBF9F6;stroke:#000000;stroke-miterlimit:10;}
	.st1{fill:#FFD40C;}
</style>
<circle class="st0" cx="791.2" cy="791.2" r="791.2"/>
<g>
	<g>
		<path class="st1" d="M1340.6,867.1c-4.4-19.6-20.2-31.9-43.5-36.9c-19.3-4.3-53.2-4.1-105.2,20.5c-3.6,1.6-244,104.2-288.8,123.3
			c-6.9,3-9.3,12.7-9.3,12.7c-59.6,163.9-229.8,95.9-229.7,93.7c88,3.8,150.9-44.4,170-82.1c44.4-88.1-55.5-76.6-109.9-77.2
			c-203.9-2.3-200.9,47.7-310.3,84.2L248,1069.1c-4.3,1.7-6.2,5.6-7.1,9.6s0,8.3,2.3,11.8l10.9,15.5c27.1,38.7,59.2,98.3,87.5,137.2
			c1.8,2.5,4.4,4.4,7.4,5.3c0.6,0.3,1.6,0.5,2.6,0.6c3.8,0.8,7.9,0.9,11,0.1l121.3-30.6c6.3-1.6,313.4,93,431.3,10.9l362.8-275.1
			c14.4-11.4,29.2-23.1,43.9-34.6C1338,907.6,1344.8,885.8,1340.6,867.1z"/>
		<g>
			<path class="st1" d="M914.2,321.2c-81.5,0-150.8,52.5-175.9,125.5C815.5,469.3,872,540.6,872,625.2c0,21.2-3.6,41.6-10.1,60.5
				c16.6,4.9,34.2,7.5,52.3,7.5c102.7,0,186-83.3,186-186S1017,321.2,914.2,321.2z M951.6,607.9c0,7.6-6.2,13.7-13.7,13.7h-25.4
				c-7.6,0-13.7-6.2-13.7-13.7V453.3l-15.7,8.4c-3.8,2.1-8.2,2.2-12,0.5c-3.9-1.7-6.7-5.1-7.8-9.2l-5.1-19.8
				c-1.6-6.1,1.3-12.6,6.9-15.5l43.8-23.5c1.9-1,4.3-1.7,6.5-1.7H938c7.6,0,13.7,6.2,13.7,13.7L951.6,607.9L951.6,607.9z"/>
		</g>
		<path class="st1" d="M659.1,459.4c-100.2,0-181.4,81.2-181.4,181.4S559,822.2,659.1,822.2s181.4-81.2,181.4-181.4
			S759.4,459.4,659.1,459.4z M695.5,738.9c0,7.4-6,13.5-13.5,13.5h-24.6c-7.4,0-13.5-6-13.5-13.5V588.2l-15.3,8.3
			c-3.6,1.9-8,2.2-11.8,0.5c-3.8-1.7-6.6-4.9-7.6-8.9l-4.9-19.3c-1.6-6,1.3-12.2,6.7-15.2l42.6-22.8c1.9-1,4.1-1.6,6.3-1.6h22.2
			c7.4,0,13.5,6,13.5,13.5v196.2H695.5z"/>
	</g>
</g>
</svg>
