<?xml version="1.0" encoding="utf-8"?>
<!-- Generator: Adobe Illustrator 20.0.0, SVG Export Plug-In . SVG Version: 6.00 Build 0)  -->
<svg version="1.1" id="Capa_1" xmlns="http://www.w3.org/2000/svg" xmlns:xlink="http://www.w3.org/1999/xlink" x="0px" y="0px"
	 viewBox="0 0 86 86" style="enable-background:new 0 0 86 86;" xml:space="preserve">
<style type="text/css">
	.st0{fill:#FFD40C;}
	.st1{fill:#FBF9F6;}
</style>
<g>
	<circle class="st0" cx="43" cy="43" r="43"/>
	<g>
		<path class="st1" d="M58.2,38l0.1-0.4l-0.2-0.1c-0.1-0.1-0.2-0.1-0.4-0.1c0.1-0.6,0.2-1.2,0.2-1.9c0-5.4-3.7-8.4-8.9-10.3l0.1-0.4
			L49,24.7c-3.4-1.4-7.3-1.5-10.8-0.1L38,24.7l0.3,0.5c-5.3,1.9-9,4.9-9,10.4c0,0.1,0,0.2,0,0.2c-0.7,0.2-1.4,0.4-2.1,0.6L27,36.5
			l0.3,0.5c-5.3,1.9-9,6.6-9,12c0,6.8,5.8,11.3,14.4,11.3c3.8,0,7-0.9,9.4-2.4c2.5,2.2,6.3,3.5,10.8,3.5c8.6,0,14.4-4.5,14.4-11.3
			C67.1,44.6,63.4,39.9,58.2,38z M30.5,35.5c0-5,3.5-7.6,8.4-9.3l0.2,0.4l0.2-0.1c3-1.1,6.2-1,9.1,0.2l0.2,0.1l0.2-0.6
			c4.7,1.8,8.1,4.3,8.1,9.2c0,0.5,0,1-0.1,1.5c-3-0.9-6.2-0.8-9.3,0.4l-0.2,0.1l0.3,0.5c-1.5,0.6-2.9,1.4-4.2,2.4
			C41.8,38.9,40,37.7,38,37l0.1-0.4l-0.2-0.1C35.6,35.5,33,35.2,30.5,35.5C30.5,35.5,30.5,35.5,30.5,35.5z M45.7,48.9
			c0,3.2-1.4,5.6-3.6,7.3c-1.5-1.6-2.4-3.6-2.4-6.3c0-1.7,0.4-3.4,1.2-4.9c0.9,0.1,1.8,0.1,2.8,0.1c0.5,0,0.9,0,1.4,0
			C45.4,46.3,45.7,47.6,45.7,48.9z M43.6,44c-0.7,0-1.4,0-2-0.1c0.5-0.7,1-1.3,1.6-1.9c0.5,0.6,0.9,1.2,1.3,1.9
			C44.2,44,43.9,44,43.6,44z M40.2,43.8c-4.5-0.5-8.4-2-9.4-6c2.2-0.3,4.4,0,6.5,0.9l0.2,0.1l0.2-0.6c1.8,0.7,3.4,1.7,4.7,3
			C41.5,41.9,40.8,42.8,40.2,43.8z M44.1,41.3c1.2-0.9,2.5-1.7,3.9-2.2l0.2,0.4l0.2-0.1c2.5-0.9,5.1-1,7.6-0.3
			c-1.7,3.3-5.8,4.5-10.2,4.8C45.3,43,44.7,42.1,44.1,41.3z M19.4,48.9c0-5,3.5-9.2,8.4-10.9l0.2,0.4l0.2-0.1
			c0.5-0.2,0.9-0.3,1.4-0.4c1,4.1,4.7,6.3,10,6.9c-0.7,1.5-1.2,3.2-1.2,5c0,2.7,1,5.1,2.6,6.9c-2.4,1.4-5.4,2.1-8.5,2.1
			C26,59,19.4,55.9,19.4,48.9z M52.8,60c-3.6,0-7.2-1-9.8-3c2.5-2,3.9-4.8,3.9-8.1c0-1.3-0.2-2.6-0.7-3.8c5.3-0.4,9.2-2.2,10.9-5.6
			c0.1,0,0.2,0.1,0.3,0.1l0.2,0.1l0.2-0.6c4.7,1.8,8.1,5.9,8.1,10.8C65.9,56.9,59.3,60,52.8,60z"/>
	</g>
</g>
</svg>
