<?xml version="1.0" encoding="utf-8"?>
<!-- Generator: Adobe Illustrator 20.0.0, SVG Export Plug-In . SVG Version: 6.00 Build 0)  -->
<svg version="1.1" id="Capa_1" xmlns="http://www.w3.org/2000/svg" xmlns:xlink="http://www.w3.org/1999/xlink" x="0px" y="0px"
	 viewBox="0 0 129 129" style="enable-background:new 0 0 129 129;" xml:space="preserve">
<style type="text/css">
	.st0{fill:#FBF9F6;}
	.st1{fill:#FFD40C;}
</style>
<circle class="st0" cx="64.5" cy="64.5" r="64.5"/>
<g>
	<path class="st1" d="M64.5,21.5L22.1,53.2v50.3h84.8V53.2L64.5,21.5z M52.8,44.1c1.2-2.3,3-4,5.1-5.1c2.2-1.1,4.6-1.7,7.4-1.7
		c2.4,0,4.5,0.5,6.3,1.4c1.8,0.9,3.2,2.2,4.2,3.9c1,1.7,1.5,3.6,1.5,5.6c0,2.4-0.7,4.6-2.2,6.5c-1.9,2.4-4.2,3.7-7.1,3.7
		c-0.8,0-1.4-0.1-1.8-0.4c-0.4-0.3-0.7-0.7-0.8-1.2c-1.1,1.1-2.4,1.6-3.8,1.6c-1.6,0-2.9-0.5-3.9-1.6c-1-1.1-1.5-2.5-1.5-4.3
		c0-2.2,0.6-4.2,1.9-6c1.5-2.2,3.4-3.3,5.8-3.3c1.7,0,2.9,0.6,3.7,1.9l0.4-1.6h3.7l-2.1,10.1c-0.1,0.6-0.2,1.1-0.2,1.2
		c0,0.2,0.1,0.4,0.2,0.5c0.1,0.1,0.2,0.2,0.4,0.2c0.5,0,1-0.3,1.8-0.8c1-0.7,1.7-1.7,2.3-2.9c0.6-1.2,0.9-2.5,0.9-3.7
		c0-2.3-0.8-4.2-2.5-5.8c-1.7-1.5-4-2.3-7-2.3c-2.6,0-4.7,0.5-6.5,1.6c-1.8,1-3.1,2.5-4,4.4c-0.9,1.9-1.3,3.8-1.3,5.9
		c0,2,0.5,3.8,1.5,5.4c1,1.6,2.4,2.8,4.2,3.6c1.8,0.7,3.9,1.1,6.2,1.1c2.2,0,4.2-0.3,5.8-0.9c1.6-0.6,2.9-1.6,3.9-2.8h3
		c-0.9,1.9-2.4,3.4-4.3,4.5c-2.2,1.2-4.9,1.9-8.1,1.9c-3.1,0-5.8-0.5-8-1.6c-2.3-1.1-3.9-2.6-5-4.6c-1.1-2-1.6-4.3-1.6-6.7
		C50.9,48.8,51.5,46.4,52.8,44.1z M25.1,54.2l31.3,21L25.1,99.4V54.2z M27.5,101l37-28.7l37,28.7H27.5z M103.9,99.4L72.6,75.1
		l31.3-21L103.9,99.4L103.9,99.4z M66,46.4c0.5,0.6,0.7,1.4,0.7,2.4c0,0.9-0.2,2-0.5,3.1c-0.4,1.1-0.8,1.9-1.3,2.5
		c-0.3,0.4-0.7,0.7-1.1,0.9c-0.5,0.3-1,0.4-1.5,0.4c-0.7,0-1.3-0.3-1.8-0.8c-0.5-0.6-0.7-1.4-0.7-2.6c0-0.9,0.2-1.9,0.5-3.1
		c0.4-1.2,0.9-2,1.5-2.7c0.7-0.6,1.4-0.9,2.2-0.9C64.9,45.5,65.5,45.8,66,46.4z"/>
</g>
</svg>
