<?xml version="1.0" encoding="utf-8"?>
<!-- Generator: Adobe Illustrator 20.0.0, SVG Export Plug-In . SVG Version: 6.00 Build 0)  -->
<svg version="1.1" id="Capa_1" xmlns="http://www.w3.org/2000/svg" xmlns:xlink="http://www.w3.org/1999/xlink" x="0px" y="0px"
	 viewBox="0 0 86 86" style="enable-background:new 0 0 86 86;" xml:space="preserve">
<style type="text/css">
	.st0{fill:#FFD40C;}
	.st1{fill:#FBF9F6;}
</style>
<g>
	<circle class="st0" cx="43.2" cy="42.3" r="42.5"/>
	<g>
		<g>
			<path class="st1" d="M68.2,40c-0.8-0.5-1.8-0.4-2.5,0.1l-13.4,8.9v-6.9c0-0.9-0.5-1.8-1.3-2.2c-0.8-0.5-1.8-0.4-2.6,0.1
				l-13.7,9.1V30.2c0-0.5-0.4-1-0.9-1h-16c-0.5,0-0.9,0.5-0.9,1v38.7c0,0.5,0.4,0.9,0.9,0.9h50.8c0.5,0,0.9-0.4,0.9-0.9V42.2
				C69.5,41.3,69,40.4,68.2,40z M46.6,58.3c0,0.3-0.3,0.7-0.7,0.7h-4.5c-0.3,0-0.7-0.3-0.7-0.7v-4.5c0-0.3,0.3-0.7,0.7-0.7h4.5
				c0.3,0,0.7,0.3,0.7,0.7V58.3z M63.4,58.3c0,0.3-0.3,0.7-0.7,0.7h-4.5c-0.3,0-0.7-0.3-0.7-0.7v-4.5c0-0.3,0.3-0.7,0.7-0.7h4.5
				c0.3,0,0.7,0.3,0.7,0.7V58.3z"/>
			<path class="st1" d="M17.8,25.6h16c0.5,0,0.9-0.3,0.9-0.9v-7.3c0-1.4-1.1-2.5-2.4-2.5H19.4c-1.4,0-2.5,1.1-2.5,2.5v7.3
				C16.9,25.3,17.4,25.6,17.8,25.6z"/>
		</g>
	</g>
</g>
</svg>
