<?xml version="1.0" encoding="utf-8"?>
<!-- Generator: Adobe Illustrator 20.0.0, SVG Export Plug-In . SVG Version: 6.00 Build 0)  -->
<svg version="1.1" id="Capa_1" xmlns="http://www.w3.org/2000/svg" xmlns:xlink="http://www.w3.org/1999/xlink" x="0px" y="0px"
	 viewBox="0 0 86 86" style="enable-background:new 0 0 86 86;" xml:space="preserve">
<style type="text/css">
	.st0{fill:#FFD40C;}
	.st1{fill:#FBF9F6;}
</style>
<g>
	<circle class="st0" cx="43" cy="43" r="43"/>
	<path class="st1" d="M46.8,56.2c-4-1.1-9.2-4.1-13.6-9.5c7.3,5.5,11.5,8.2,20.8,8.9c-4.4-0.9-10-3.4-12.6-9.7
		C39,40.3,38,35.7,36.9,32.3c-0.3,1.6-1.3,3.1-3.2,4.2c0,0,0.9-0.8,1.5-2.5c0.9-2.4,0.5-5.1-1.1-7.1s-4.2-3-6.7-2.6h0
		c-8.7,1.3-12.6,17.6,0.1,29.8c7.8,7.2,17.7,6.8,24.5,5.1c8.1,0.9,16.1-1.9,21.6-9.5C71.7,51.4,62.3,60.3,46.8,56.2z"/>
</g>
</svg>
