<?xml version="1.0" encoding="utf-8"?>
<!-- Generator: Adobe Illustrator 20.0.0, SVG Export Plug-In . SVG Version: 6.00 Build 0)  -->
<svg version="1.1" id="Capa_1" xmlns="http://www.w3.org/2000/svg" xmlns:xlink="http://www.w3.org/1999/xlink" x="0px" y="0px"
	 viewBox="0 0 76 76" style="enable-background:new 0 0 76 76;" xml:space="preserve">
<style type="text/css">
	.st0{fill:#DC4E41;}
	.st1{fill:#FFFFFF;}
</style>
<g>
	<g>
		<circle id="XMLID_30_" class="st0" cx="38" cy="38" r="38"/>
	</g>
	<g>
		<path class="st0" d="M13.2,39.7c-0.1,6.5,4.4,12.8,10.6,14.8c5.8,2,13,0.5,16.9-4.5c2.8-3.5,3.5-8.2,3.2-12.5c-5,0-10,0-15,0
			c0,1.8,0,3.6,0,5.3c3,0.1,6,0,9,0.1c-0.8,2.6-2.5,5-5.1,5.9c-5,2.2-11.5-0.7-13.1-6c-1.9-5.1,1.2-11.2,6.4-12.7
			c3.2-1.1,6.5,0.1,9.3,1.8c1.4-1.3,2.7-2.7,4-4.1c-3.1-2.6-7.1-4.2-11.3-3.9C20,24.2,12.9,31.6,13.2,39.7z"/>
		<path class="st0" d="M53.6,33c0,1.5,0,3,0,4.5c-1.5,0-3,0-4.5,0c0,1.5,0,3,0,4.5c1.5,0,3,0,4.5,0c0,1.5,0,3,0,4.5c1.5,0,3,0,4.5,0
			c0-1.5,0-3,0-4.5c1.5,0,3,0,4.5,0c0-1.5,0-3,0-4.5c-1.5,0-3,0-4.5,0c0-1.5,0-3,0-4.5C56.5,33,55.1,33,53.6,33z"/>
		<g>
			<path class="st1" d="M13.2,39.7c-0.3-8.1,6.8-15.5,14.9-15.6c4.1-0.4,8.1,1.2,11.3,3.9c-1.3,1.4-2.6,2.8-4,4.1
				c-2.7-1.7-6.1-2.9-9.3-1.8c-5.2,1.5-8.3,7.6-6.4,12.7c1.6,5.3,8,8.2,13.1,6c2.6-0.9,4.3-3.3,5.1-5.9c-3-0.1-6,0-9-0.1
				c0-1.8,0-3.6,0-5.3c5,0,10,0,15,0c0.3,4.4-0.3,9-3.2,12.5c-3.9,5-11.1,6.5-16.9,4.5C17.6,52.5,13.1,46.2,13.2,39.7z"/>
			<path class="st1" d="M53.6,33c1.5,0,3,0,4.5,0c0,1.5,0,3,0,4.5c1.5,0,3,0,4.5,0c0,1.5,0,3,0,4.5c-1.5,0-3,0-4.5,0
				c0,1.5,0,3,0,4.5c-1.5,0-3,0-4.5,0c0-1.5,0-3,0-4.5c-1.5,0-3,0-4.5,0c0-1.5,0-3,0-4.5c1.5,0,3,0,4.5,0C53.6,36,53.6,34.5,53.6,33
				z"/>
		</g>
	</g>
</g>
</svg>
