<?xml version="1.0" encoding="utf-8"?>
<!-- Generator: Adobe Illustrator 20.0.0, SVG Export Plug-In . SVG Version: 6.00 Build 0)  -->
<svg version="1.1" id="Capa_1" xmlns="http://www.w3.org/2000/svg" xmlns:xlink="http://www.w3.org/1999/xlink" x="0px" y="0px"
	 viewBox="0 0 86 86" style="enable-background:new 0 0 86 86;" xml:space="preserve">
<style type="text/css">
	.st0{fill:#FFD40C;}
	.st1{fill:#FBF9F6;}
</style>
<g>
	<circle class="st0" cx="43" cy="43" r="43"/>
	<g>
		<path class="st1" d="M77,29.3v19.8c0,0-4.2,0.9-5.1,0.9c-0.9,0.1-3.6,1-5.6-0.9c-3-2.9-13.9-13.7-13.9-13.7s-1.9-1.9-4.9-0.3
			c-2.7,1.5-6.9,3.6-8.5,4.4c-3.2,1.7-5.9-1-5.9-3.1c0-1.6,1-2.7,2.5-3.5c3.9-2.3,12.1-6.9,15.5-8.8c2.1-1.1,3.6-1.2,6.4,1.2
			c3.5,2.9,6.7,5.7,6.7,5.7s1,0.9,2.7,0.5C70.7,30.7,77,29.3,77,29.3z M33.8,62.7c0.5-1.3,0.3-2.9-0.7-3.9c-0.9-0.9-2.2-1.2-3.5-0.9
			c0.3-1.3,0.1-2.6-0.7-3.5c-0.9-0.9-2.2-1.2-3.5-0.9c0.3-1.3,0.1-2.6-0.7-3.5c-1.4-1.5-3.9-1.4-5.5,0.1c-1.6,1.5-2.7,4.3-1.2,6
			c1.5,1.7,3.1,0.7,4.3,0.3c-0.3,1.3-1.4,2.4-0.1,4.1c1.3,1.7,3.1,0.7,4.3,0.3c-0.3,1.3-1.3,2.5-0.1,4.1c1.3,1.5,3.3,0.7,4.7,0.3
			c-0.5,1.3-1.7,2.8-0.2,4.4c1.5,1.7,4.7,0.9,6.4-0.7c1.6-1.5,1.8-4,0.3-5.5C36.7,62.5,35.2,62.3,33.8,62.7z M63.4,52.5
			c-11.7-11.7-6.2-6.2-12.5-12.5c0,0-1.9-1.9-4.4-0.8c-1.7,0.8-4,1.8-5.7,2.6c-1.9,1-3.2,1.3-3.9,1.3c-3.6,0-6.5-2.9-6.5-6.5
			c0-2.3,1.3-4.4,3.1-5.5c2.6-1.8,8.6-5,8.6-5s-1.8-2.3-5.8-2.3s-12.3,5.5-12.3,5.5s-2.3,1.6-5.7,0.3l-6.5-2.3v22.6
			c0,0,1.9,0.5,3.5,1.2c0.4-1.1,1-2.1,1.8-2.9c2.8-2.7,7.3-2.7,9.9-0.1c0.7,0.8,1.3,1.7,1.5,2.8c1,0.3,1.9,0.9,2.7,1.6
			c0.7,0.8,1.3,1.7,1.5,2.7c1,0.3,1.9,0.9,2.7,1.7c0.9,0.9,1.4,1.9,1.7,3c1.1,0.3,2,0.9,2.8,1.7c1.5,1.5,2.1,3.7,1.7,5.7l0,0
			c0,0,0.9,1.1,1.5,1.6c1.1,1.1,2.9,1.1,4.1,0s1.1-2.9,0-4.1c-0.1-0.1-4-4.2-3.7-4.5c0.3-0.3,5.4,5,5.5,5.1c1.1,1.1,2.9,1.1,4.1,0
			s1.1-2.9,0-4.1c-0.1-0.1-0.3-0.3-0.4-0.3c0,0-5.1-4.5-4.7-4.9c0.4-0.4,6.7,5.5,6.7,5.5c1.1,1,2.9,1,3.9-0.1s1.1-2.7,0.1-3.9
			c0-0.1-4.8-5-4.4-5.4c0.4-0.4,5.1,4.5,5.1,4.5c1.1,1.1,2.9,1.1,4.1,0C64.5,55.5,64.5,53.6,63.4,52.5
			C63.5,52.5,63.4,52.5,63.4,52.5z"/>
	</g>
</g>
</svg>
