<?xml version="1.0" encoding="utf-8"?>
<!-- Generator: Adobe Illustrator 20.0.0, SVG Export Plug-In . SVG Version: 6.00 Build 0)  -->
<svg version="1.1" id="Capa_1" xmlns="http://www.w3.org/2000/svg" xmlns:xlink="http://www.w3.org/1999/xlink" x="0px" y="0px"
	 viewBox="0 0 76 76.6" style="enable-background:new 0 0 76 76.6;" xml:space="preserve">
<style type="text/css">
	.st0{fill:#6A453B;}
	.st1{fill:#FFFFFF;}
</style>
<g>
	<circle id="XMLID_115_" class="st0" cx="38" cy="38.6" r="38"/>
	<path class="st1" d="M53.6,15.8H22.4c-3.9,0-7.2,3.2-7.2,7.2v31.2c0,3.9,3.2,7.2,7.2,7.2h31.2c3.9,0,7.2-3.2,7.2-7.2V23
		C60.8,19,57.5,15.8,53.6,15.8z M48.8,21.1l5.7,0h0c0.5,0,1,0.4,1,1v5.7c0,0.5-0.4,1-1,1l-5.7,0c-0.5,0-1-0.4-1-1l0-5.7
		C47.8,21.5,48.2,21.1,48.8,21.1z M31,34.7c0.1-0.3,0.3-0.5,0.5-0.8c1.5-2,3.8-3.3,6.5-3.3c2.7,0,5,1.3,6.5,3.3
		c0.2,0.2,0.3,0.5,0.5,0.8c0.7,1.2,1,2.5,1,3.9c0,4.4-3.6,8-8,8s-8-3.6-8-8C30,37.2,30.4,35.8,31,34.7z M56.3,52.6
		c0,2.4-2,4.4-4.4,4.4H24c-2.4,0-4.4-2-4.4-4.4V33.9h6.8c-0.2,0.4-0.3,0.8-0.4,1.3c-0.3,1.1-0.5,2.2-0.5,3.4
		C25.6,45.5,31.1,51,38,51c6.9,0,12.4-5.6,12.4-12.4c0-1.2-0.2-2.3-0.5-3.4c-0.1-0.4-0.3-0.9-0.4-1.3h6.8V52.6z"/>
</g>
</svg>
