<?xml version="1.0" encoding="utf-8"?>
<!-- Generator: Adobe Illustrator 20.0.0, SVG Export Plug-In . SVG Version: 6.00 Build 0)  -->
<svg version="1.1" id="Capa_1" xmlns="http://www.w3.org/2000/svg" xmlns:xlink="http://www.w3.org/1999/xlink" x="0px" y="0px"
	 viewBox="0 0 86 86" style="enable-background:new 0 0 86 86;" xml:space="preserve">
<style type="text/css">
	.st0{fill:#FFD40C;}
	.st1{fill:#FBF9F6;}
</style>
<g>
	<circle class="st0" cx="43" cy="43" r="43"/>
	<g>
		<circle class="st1" cx="29.2" cy="27.9" r="1"/>
		<circle class="st1" cx="32.4" cy="27.9" r="1"/>
		<circle class="st1" cx="50.4" cy="27.9" r="1"/>
		<circle class="st1" cx="53.6" cy="27.9" r="1"/>
		<circle class="st1" cx="56.8" cy="27.9" r="1"/>
		<path class="st1" d="M43,54.9c4.8,0,8.8-3.9,8.8-8.8s-3.9-8.8-8.8-8.8s-8.8,3.9-8.8,8.8C34.2,51,38.2,54.9,43,54.9z M43,39.2
			c3.8,0,7,3.1,7,7c0,0,0,0.1,0,0.1c-0.3,0.3-0.7,0.5-1.3,0.5c-0.7,0-1.1-0.3-1.5-0.6c-0.4-0.3-0.7-0.6-1.4-0.6
			c-0.7,0-1,0.3-1.4,0.6s-0.7,0.6-1.5,0.6c-0.7,0-1.1-0.3-1.5-0.6c-0.4-0.3-0.7-0.6-1.4-0.6c-0.7,0-1,0.3-1.4,0.6s-0.7,0.6-1.5,0.6
			c-0.7,0-1-0.3-1.4-0.6c0,0,0-0.1,0-0.1C36,42.3,39.2,39.2,43,39.2z"/>
		<path class="st1" d="M26,62.4h34V29.9H26V62.4z M43,35.4c5.9,0,10.8,4.8,10.8,10.8S48.9,56.9,43,56.9s-10.8-4.8-10.8-10.8
			C32.2,40.2,37.1,35.4,43,35.4z"/>
		<rect x="26" y="22" class="st1" width="34" height="3.5"/>
	</g>
</g>
</svg>
