<?xml version="1.0" encoding="utf-8"?>
<!-- Generator: Adobe Illustrator 20.0.0, SVG Export Plug-In . SVG Version: 6.00 Build 0)  -->
<svg version="1.1" id="Capa_1" xmlns="http://www.w3.org/2000/svg" xmlns:xlink="http://www.w3.org/1999/xlink" x="0px" y="0px"
	 viewBox="0 0 86 86" style="enable-background:new 0 0 86 86;" xml:space="preserve">
<style type="text/css">
	.st0{fill:#FFD40C;}
	.st1{fill:#FBF9F6;}
</style>
<g>
	<circle class="st0" cx="43" cy="43" r="43"/>
	<g>
		<g>
			<path class="st1" d="M60.5,60.6v-1.9c0-1.9-1.5-3.4-3.4-3.4H57V44c-2.3-0.2-4.6-1.1-6.3-2.7c-3-2.9-3-5.9-2.8-7.4
				c0.1-0.8,0.4-1.6,0.7-2.3c0.2-0.4,0.2-0.9-0.1-1.3c-0.3-0.4-0.7-0.7-1.2-0.7h-8.8c-0.5,0-0.9,0.2-1.2,0.7
				c-0.3,0.4-0.3,0.9-0.1,1.3c0.3,0.7,0.6,1.4,0.7,2.3c0.2,1.5,0.1,4.5-2.9,7.4c-1.7,1.6-3.8,2.5-6.2,2.7v11.3h-0.2
				c-1.7,0-3.1,1.4-3.1,3.1v2.3v0.1h-1c-2,0-3.7,1.7-3.7,3.7v3.1h44.3v-3.8c0-1.7-1.4-3-3-3L60.5,60.6L60.5,60.6L60.5,60.6z
				 M48.6,45.1c0-1.3,1.1-2.4,2.5-2.4c1.3,0,2.5,1.1,2.5,2.4v10.1h-4.8h-0.1V45.1L48.6,45.1z M40.6,45.1c0-1.3,1.1-2.4,2.5-2.4
				s2.5,1.1,2.5,2.4v10.1h0h-4.9h0L40.6,45.1L40.6,45.1z M32.5,45.1c0-1.3,1-2.4,2.4-2.4s2.4,1.1,2.4,2.4v10.1h-4.7L32.5,45.1
				L32.5,45.1L32.5,45.1z"/>
			<path class="st1" d="M64.7,25.4c-2.3-2.5-6.1-3.8-11.2-3.8h-5h-5.6h-5.3h-5c-5.1,0-8.9,1.3-11.2,3.8c-1.8,1.9-2.7,4.5-2.5,7.5
				c0.3,3.7,2.7,6.9,6.3,8.1c1,0.4,2.1,0.5,3.1,0.5c2.1,0,4-0.8,5.4-2.2c1.6-1.7,1.8-3.5,1.7-4.6c-0.3-3.1-3-5.2-3.3-5.4
				c-1.1-0.8-2.6-0.6-3.4,0.5c-0.8,1.1-0.6,2.6,0.5,3.4c0.5,0.4,1.3,1.3,1.4,2c0,0.1,0,0.4-0.4,0.9c-0.8,0.9-2.2,0.8-3.2,0.4
				c-1.3-0.5-3-1.8-3.1-3.9c-0.1-1.6,0.3-2.9,1.2-3.9c1.3-1.4,4-2.2,7.7-2.2h5h5.3h5.6h5c3.7,0,6.3,0.8,7.7,2.2
				c0.9,0.9,1.3,2.2,1.2,3.9c-0.2,2.1-1.8,3.4-3.2,3.9c-1,0.3-2.4,0.4-3.1-0.4c-0.5-0.5-0.5-0.8-0.4-0.9c0.1-0.7,0.8-1.5,1.3-1.9
				c1.1-0.8,1.3-2.3,0.5-3.4c-0.8-1.1-2.3-1.3-3.4-0.5c-0.3,0.2-3,2.3-3.3,5.3c-0.1,1.2,0.1,3,1.7,4.7c1.3,1.5,3.3,2.3,5.4,2.3
				c1,0,2-0.2,3-0.5c3.7-1.3,6.2-4.5,6.4-8.2C67.3,29.9,66.5,27.3,64.7,25.4z"/>
		</g>
	</g>
</g>
</svg>
