<?xml version="1.0" encoding="utf-8"?>
<!-- Generator: Adobe Illustrator 20.0.0, SVG Export Plug-In . SVG Version: 6.00 Build 0)  -->
<svg version="1.1" id="Objects" xmlns="http://www.w3.org/2000/svg" xmlns:xlink="http://www.w3.org/1999/xlink" x="0px" y="0px"
	 viewBox="0 0 122.8 110.7" style="enable-background:new 0 0 122.8 110.7;" xml:space="preserve">
<style type="text/css">
	.st0{fill:#FF6D40;}
	.st1{fill:#FBF9F6;}
</style>
<g>
	<path class="st0" d="M113.9,59.4c5.7-5.6,3.9-17.1-5.9-17.1H82.1c1-5.5,2.4-14.5,2.4-15.4C84,18.8,78.8,9,78.6,8.6
		c-0.9-1.8-5.7-4.1-10.5-3.1c-6.2,1.3-6.8,5.3-6.8,6.4c0,0,0.3,10.8,0.3,13.7c-3,6.5-13.2,23.6-16.3,24.9c-0.8-0.4-1.6-0.7-2.5-0.7
		H10.2c-2.8,0-5,2.2-5,5v45.1c0.2,2.4,2.3,4.3,4.7,4.3h29.3c2.6,0,4.7-2.1,4.7-4.7V98c0,0,1.1-0.1,1.6,0.2c1.9,1.2,4.2,2.7,7.3,2.7
		h43.8c16.4,0,14.6-14.5,13.1-16.5c2.8-3,4.5-8.3,2.1-12.5C113.6,70,116.8,64.8,113.9,59.4L113.9,59.4z"/>
	<rect x="9.9" y="54.5" class="st0" width="28.3" height="45"/>
	<path class="st1" d="M106.3,59l-0.3,1.1c7.5,2.1,3.5,10.8-1.9,11.4l-0.3,1.1c7.2,1.8,3.8,10.8-1.9,11.4l-0.3,1.1
		c5.9,1,4.5,11-4.5,11H52.6c-3.1,0-6-3.6-8.3-3.6h-2V58c2.5-1.6,5.6-3.6,7.3-5c3.4-2.8,16.7-24.3,16.7-27S66,11.7,66,11.7
		s2.6-3.4,8.4-0.9c0,0,4.9,9.2,5.4,16.5c0,0-2.2,15-3.4,19.8h30.8C114.8,47.1,113.4,57.9,106.3,59L106.3,59z"/>
	<path d="M106.3,59"/>
	<circle class="st1" cx="24.1" cy="94.1" r="3.9"/>
</g>
</svg>
