<?xml version="1.0" encoding="utf-8"?>
<!-- Generator: Adobe Illustrator 20.0.0, SVG Export Plug-In . SVG Version: 6.00 Build 0)  -->
<svg version="1.1" id="Capa_1" xmlns="http://www.w3.org/2000/svg" xmlns:xlink="http://www.w3.org/1999/xlink" x="0px" y="0px"
	 viewBox="0 0 76 76" style="enable-background:new 0 0 76 76;" xml:space="preserve">
<style type="text/css">
	.st0{fill:#007AB9;}
	.st1{fill:#F1F2F2;}
</style>
<g>
	<circle class="st0" cx="38" cy="38" r="38"/>
	<g>
		<path class="st1" d="M60.7,41.1v15.7h-9.1V42.1c0-3.7-1.3-6.2-4.6-6.2c-2.5,0-4,1.7-4.7,3.3c-0.2,0.6-0.3,1.4-0.3,2.2v15.3H33
			c0,0,0.1-24.8,0-27.3h9.1v3.9c0,0,0,0.1-0.1,0.1h0.1v-0.1c1.2-1.9,3.4-4.5,8.2-4.5C56.2,28.8,60.7,32.7,60.7,41.1L60.7,41.1z
			 M23.5,16.2c-3.1,0-5.1,2-5.1,4.7c0,2.6,2,4.7,5,4.7h0.1c3.2,0,5.1-2.1,5.1-4.7C28.5,18.3,26.6,16.2,23.5,16.2L23.5,16.2z
			 M18.9,56.7H28V29.4h-9.1V56.7z"/>
	</g>
</g>
</svg>
