<?xml version="1.0" encoding="utf-8"?>
<!-- Generator: Adobe Illustrator 20.0.0, SVG Export Plug-In . SVG Version: 6.00 Build 0)  -->
<svg version="1.1" id="Capa_1" xmlns="http://www.w3.org/2000/svg" xmlns:xlink="http://www.w3.org/1999/xlink" x="0px" y="0px"
	 viewBox="0 0 129 129" style="enable-background:new 0 0 129 129;" xml:space="preserve">
<style type="text/css">
	.st0{fill:#FBF9F6;}
	.st1{fill:#FFD40C;}
</style>
<circle class="st0" cx="64.5" cy="64.5" r="64.5"/>
<g>
	<path class="st1" d="M64.5,19.6c-16.4,0-29.7,13.3-29.7,29.7c0,6.6,4.2,17.3,12.9,32.9c6.1,11,12.1,20.1,12.4,20.5l4.4,6.7l4.4-6.7
		c0.3-0.4,6.3-9.5,12.4-20.5C90,66.7,94.2,55.9,94.2,49.3C94.2,33,80.9,19.6,64.5,19.6z M64.5,64.5c-8.5,0-15.4-6.9-15.4-15.4
		S56,33.7,64.5,33.7s15.4,6.9,15.4,15.4S73,64.5,64.5,64.5z"/>
</g>
</svg>
