<?xml version="1.0" encoding="utf-8"?>
<!-- Generator: Adobe Illustrator 20.0.0, SVG Export Plug-In . SVG Version: 6.00 Build 0)  -->
<svg version="1.1" id="Capa_1" xmlns="http://www.w3.org/2000/svg" xmlns:xlink="http://www.w3.org/1999/xlink" x="0px" y="0px"
	 viewBox="0 0 129 129" style="enable-background:new 0 0 129 129;" xml:space="preserve">
<style type="text/css">
	.st0{fill:#FFD40C;}
	.st1{fill:#FBF9F6;}
</style>
<circle class="st0" cx="64.5" cy="64.5" r="64.5"/>
<g>
	<path class="st1" d="M103.1,72.2c0-2.5-2-4.4-4.4-4.4c-0.7,0-1.3,0.1-1.9,0.4c-1-1.2-2-2.4-3.2-3.7c3.7-3.9,6.5-7.9,7.9-11.4
		c1.7-4,1.8-7.5,0.2-10.2c-1.5-2.7-4.6-4.4-8.9-4.9C89,37.6,84.2,38,79,39.3c-0.9-3.2-2-6-3.3-8.4c0.9-0.9,1.4-2,1.4-3.3
		c0-2.5-2-4.4-4.4-4.4c-0.9,0-1.6,0.2-2.3,0.7c-1.9-1.6-3.9-2.4-6-2.4c-3,0-6.1,1.8-8.7,5.3c-2.3,3-4.3,7.4-5.8,12.5
		C44.6,38,39.8,37.6,36,38c-4.3,0.5-7.4,2.3-8.9,4.9c-1.5,2.7-1.5,6.2,0.2,10.2c1.5,3.5,4.2,7.4,7.9,11.4c-3.7,3.9-6.5,7.9-7.9,11.4
		c-1.7,4-1.8,7.5-0.2,10.2c1.3,2.4,3.8,3.9,7.3,4.6c0.2,2.3,2.1,4,4.4,4c2.3,0,4.1-1.6,4.4-3.8c2.1-0.2,4.3-0.6,6.6-1.2
		c1.5,5.2,3.5,9.5,5.8,12.5c2.6,3.5,5.7,5.3,8.7,5.3c3,0,6.1-1.8,8.7-5.3c2.3-3,4.3-7.4,5.8-12.5c3.8,0.9,7.4,1.4,10.5,1.4
		c1.2,0,2.3-0.1,3.3-0.2c4.3-0.5,7.4-2.3,8.9-4.9c1.6-2.7,1.5-6.3-0.3-10.4C102.4,74.9,103.1,73.6,103.1,72.2z M101.2,72.2
		c0,1.5-1.2,2.6-2.6,2.6c-1.5,0-2.6-1.2-2.6-2.6c0-1.5,1.2-2.6,2.6-2.6C100.1,69.6,101.2,70.8,101.2,72.2z M100.1,43.9
		c2.5,4.3-0.4,11.5-7.9,19.3c-3-3-6.5-6-10.5-8.8c-0.5-4.8-1.3-9.3-2.4-13.4C90,38.6,97.6,39.6,100.1,43.9z M77.7,87.6
		c-3.6-1-7.3-2.3-11.1-4c2.3-1.1,4.6-2.3,6.8-3.6c2.3-1.3,4.4-2.7,6.5-4.1C79.4,80.1,78.6,84,77.7,87.6z M51.1,87.6
		c-1-3.6-1.7-7.5-2.2-11.6c2.1,1.4,4.3,2.8,6.5,4.1c2.2,1.3,4.5,2.5,6.8,3.6C58.4,85.3,54.7,86.7,51.1,87.6z M51.1,41.5
		c3.6,1,7.3,2.3,11.1,3.9c-2.3,1.1-4.6,2.3-6.8,3.6c-2.3,1.3-4.4,2.7-6.5,4.1C49.4,49,50.1,45.1,51.1,41.5z M56.3,78.5
		c-2.7-1.5-5.2-3.2-7.7-4.9c-0.2-3-0.4-6-0.4-9.1c0-3,0.1-6.1,0.4-9.1c2.4-1.7,5-3.3,7.7-4.9c2.6-1.5,5.4-2.9,8.1-4.2
		c2.7,1.3,5.4,2.7,8,4.2c2.7,1.5,5.2,3.2,7.7,4.9c0.2,3,0.4,6,0.4,9.1c0,3-0.1,6.1-0.4,9.1c-2.4,1.7-5,3.3-7.7,4.9
		c-2.6,1.5-5.4,2.9-8,4.2C61.7,81.4,58.9,80,56.3,78.5z M46.7,72.2c-3.3-2.5-6.3-5.1-8.9-7.7c2.6-2.6,5.6-5.2,8.9-7.7
		c-0.2,2.5-0.3,5.1-0.3,7.7C46.5,67.1,46.5,69.7,46.7,72.2z M77.7,41.5c1,3.6,1.7,7.5,2.2,11.6c-2.1-1.4-4.3-2.8-6.5-4.1
		c-2.2-1.3-4.5-2.5-6.8-3.6C70.4,43.7,74.1,42.5,77.7,41.5z M82.1,56.9c3.3,2.5,6.3,5.1,8.9,7.7c-2.6,2.6-5.6,5.2-8.9,7.7
		c0.2-2.5,0.3-5.1,0.3-7.7C82.3,61.9,82.2,59.4,82.1,56.9z M75.2,27.6c0,1.5-1.2,2.6-2.6,2.6S70,29,70,27.6s1.2-2.6,2.6-2.6
		S75.2,26.2,75.2,27.6z M64.3,23.2c1.6,0,3.1,0.6,4.6,1.8c-0.5,0.7-0.9,1.6-0.9,2.6c0,2.5,2,4.4,4.4,4.4c0.5,0,1-0.1,1.5-0.2
		c1.2,2.3,2.2,4.9,3.1,7.9c-4.1,1.1-8.5,2.7-12.8,4.6c-4.4-2-8.7-3.5-12.8-4.6C54.7,29.4,59.4,23.2,64.3,23.2z M28.6,43.9
		c2.5-4.3,10.2-5.4,20.6-2.9c-1.1,4.1-1.9,8.6-2.4,13.4c-3.9,2.8-7.4,5.7-10.5,8.8C29,55.4,26.1,48.2,28.6,43.9z M38.8,92.9
		c-1.5,0-2.6-1.2-2.6-2.6c0-1.5,1.2-2.6,2.6-2.6c1.4,0,2.6,1.2,2.6,2.6C41.4,91.8,40.2,92.9,38.8,92.9z M38.8,85.9
		c-2,0-3.7,1.3-4.3,3.1c-2.9-0.6-4.9-1.9-5.9-3.7C26.1,80.9,29,73.8,36.5,66c3,3,6.5,6,10.5,8.8c0.5,4.8,1.3,9.3,2.4,13.4
		c-2.2,0.5-4.3,0.9-6.1,1.1C42.6,87.3,40.9,85.9,38.8,85.9z M64.3,105.8c-5,0-9.7-6.1-12.8-16.4c4.1-1.1,8.5-2.7,12.8-4.7
		c4.4,2,8.7,3.5,12.8,4.7C74.1,99.7,69.3,105.8,64.3,105.8z M100.1,85.2c-2.5,4.3-10.2,5.4-20.6,2.9c1.1-4.1,1.9-8.6,2.4-13.4
		c3.9-2.8,7.4-5.7,10.5-8.8c1.1,1.2,2.1,2.3,3,3.4c-0.7,0.8-1.2,1.8-1.2,3c0,2.5,2,4.4,4.4,4.4c0.4,0,0.8-0.1,1.2-0.2
		C101.2,80,101.4,83,100.1,85.2z"/>
	<circle class="st0" cx="38.8" cy="90.3" r="2.6"/>
	<circle class="st0" cx="98.5" cy="72.2" r="2.6"/>
	<circle class="st0" cx="72.6" cy="27.6" r="2.6"/>
</g>
</svg>
