<?xml version="1.0" encoding="utf-8"?>
<!-- Generator: Adobe Illustrator 20.0.0, SVG Export Plug-In . SVG Version: 6.00 Build 0)  -->
<svg version="1.1" id="Layer_1" xmlns="http://www.w3.org/2000/svg" xmlns:xlink="http://www.w3.org/1999/xlink" x="0px" y="0px"
	 viewBox="0 0 86 86" style="enable-background:new 0 0 86 86;" xml:space="preserve">
<style type="text/css">
	.st0{fill:#FFD40C;}
	.st1{fill:#FBF9F6;}
</style>
<g>
	<circle class="st0" cx="43" cy="43" r="43"/>
	<g>
		<path class="st1" d="M51,55.3c2.4,0,4.3-1.9,4.3-4.3s-1.9-4.3-4.3-4.3s-4.3,1.9-4.3,4.3S48.7,55.3,51,55.3z"/>
		<path class="st1" d="M62.4,26.9H22.6c-1.6,0-2.8,1.3-2.8,2.8v25.6c0,1.6,1.3,2.8,2.8,2.8h21.3v11.4c0,0.5,0.3,1,0.8,1.3
			c0.5,0.2,1.1,0.2,1.5-0.1L51,67l4.8,3.6c0.2,0.2,0.6,0.3,0.9,0.3c0.2,0,0.4-0.1,0.6-0.2c0.5-0.2,0.8-0.7,0.8-1.3V58.1h4.3
			c1.6,0,2.8-1.3,2.8-2.8V29.7C65.2,28.1,64,26.9,62.4,26.9L62.4,26.9z M46.5,56.5c-0.1-0.4-0.5-0.8-0.9-0.9L44.1,55l0.3-1.6
			c0.1-0.4,0-0.9-0.3-1.3L43,51l1.1-1.2c0.3-0.3,0.4-0.8,0.3-1.3L44.1,47l1.5-0.5c0.4-0.1,0.8-0.5,0.9-0.9l0.5-1.5l1.6,0.3
			c0.4,0.1,0.9,0,1.3-0.3L51,43l1.2,1.1c0.3,0.3,0.8,0.4,1.3,0.3l1.6-0.3l0.5,1.5c0.1,0.4,0.5,0.8,0.9,0.9L58,47l-0.3,1.6
			c-0.1,0.4,0,0.9,0.3,1.3l1.1,1.2L58,52.2c-0.3,0.3-0.4,0.8-0.3,1.3L58,55l-1.5,0.5c-0.4,0.1-0.8,0.5-0.9,0.9L55,58l-1.6-0.3
			c-0.4-0.1-0.9,0-1.3,0.3L51,59.1L49.8,58c-0.3-0.2-0.6-0.4-1-0.4c-0.1,0-0.2,0-0.3,0L47,58L46.5,56.5L46.5,56.5z M26.9,32.6
			L26.9,32.6h28.4l0,0c0.8,0,1.4,0.6,1.4,1.4s-0.6,1.4-1.4,1.4l0,0H26.9l0,0c-0.8,0-1.4-0.6-1.4-1.4C25.4,33.2,26.1,32.6,26.9,32.6
			L26.9,32.6z M26.9,39.7h14.2c0.8,0,1.4,0.6,1.4,1.4c0,0.8-0.6,1.4-1.4,1.4H26.9c-0.8,0-1.4-0.6-1.4-1.4
			C25.4,40.3,26.1,39.7,26.9,39.7z M35.4,49.6h-8.5c-0.8,0-1.4-0.6-1.4-1.4c0-0.8,0.6-1.4,1.4-1.4h8.5c0.8,0,1.4,0.6,1.4,1.4
			C36.8,49,36.2,49.6,35.4,49.6z"/>
	</g>
</g>
</svg>
