<?xml version="1.0" encoding="utf-8"?>
<!-- Generator: Adobe Illustrator 20.0.0, SVG Export Plug-In . SVG Version: 6.00 Build 0)  -->
<svg version="1.1" id="Capa_1" xmlns="http://www.w3.org/2000/svg" xmlns:xlink="http://www.w3.org/1999/xlink" x="0px" y="0px"
	 viewBox="0 0 1592.7 1583.3" style="enable-background:new 0 0 1592.7 1583.3;" xml:space="preserve">
<style type="text/css">
	.st0{fill:#FBF9F6;}
	.st1{fill:#FFD40C;}
</style>
<circle class="st0" cx="791.6" cy="791.6" r="791.6"/>
<g>
	<path class="st1" d="M1233.3,638.7c-34,0-61.5,27.6-61.5,61.4s27.6,61.4,61.5,61.4c33.8,0,61.4-27.6,61.4-61.4
		S1267.2,638.7,1233.3,638.7z M350.1,638.7c-34,0-61.5,27.6-61.5,61.4s27.6,61.4,61.5,61.4c33.8,0,61.4-27.6,61.4-61.4
		S384,638.7,350.1,638.7z M1050.5,527c-50.4,0-91.4,41-91.4,91.5c0,50.4,40.9,91.3,91.4,91.3c50.4,0,91.5-41,91.5-91.3
		C1142,568.1,1100.9,527,1050.5,527z M1334.2,1083H1230V891.4c0-32.9-9.7-63.6-25.3-90.1c9.2-2.7,18.5-4.6,28.5-4.6
		c55.5,0,100.9,45.3,100.9,101V1083H1334.2z M532.8,527c-50.4,0-91.5,41-91.5,91.5c0,50.4,41,91.3,91.5,91.3
		c50.3,0,91.3-41,91.3-91.3C624.1,568.1,583.1,527,532.8,527z M350.1,796.5c10,0,19.1,1.9,28.3,4.6c-15.7,26.7-25.3,57.2-25.3,90.1
		V1083H249V897.6C249,841.8,294.5,796.5,350.1,796.5z M791.6,344.3c-74.4,0-135.2,60.6-135.2,135.2S717,614.7,791.6,614.7
		s135.2-60.8,135.2-135.2C926.9,405,866,344.3,791.6,344.3z M1196.6,1154.4H1037V862.6c0-40.1-10.6-77.5-27.7-110.9
		c13-3.8,26.8-6.6,41.1-6.6c80.6,0,146.1,65.5,146.1,146.2v263.1H1196.6z M546.1,862.6v291.7H386.8v-263
		c0-80.6,65.5-146.2,146.2-146.2c14.4,0,28,2.7,41,6.6C556.8,785.3,546.1,822.6,546.1,862.6z M579.5,1238.9h424V862.6
		c0-116.9-95.1-211.9-212.1-211.9s-211.9,95.1-211.9,211.9V1238.9z"/>
</g>
</svg>
