<?xml version="1.0" encoding="utf-8"?>
<!-- Generator: Adobe Illustrator 20.0.0, SVG Export Plug-In . SVG Version: 6.00 Build 0)  -->
<svg version="1.1" id="Capa_1" xmlns="http://www.w3.org/2000/svg" xmlns:xlink="http://www.w3.org/1999/xlink" x="0px" y="0px"
	 viewBox="0 0 129 129" style="enable-background:new 0 0 129 129;" xml:space="preserve">
<style type="text/css">
	.st0{fill:#FBF9F6;}
	.st1{fill:#FFD40C;}
</style>
<circle class="st0" cx="64.5" cy="64.5" r="64.5"/>
<g>
	<g>
		<path class="st1" d="M65,42.1c14.5,0.1,23.5-0.8,24.7,15.3h17.6c0-24.8-21.7-28.2-42.8-28.2c-21.2,0-42.8,3.3-42.8,28.2h17.5
			C40.5,41,50.6,41.9,65,42.1z"/>
		<path class="st1" d="M30.4,65.3c4.3,0,7.9,0.3,8.7-4c0.1-0.6,0.2-1.2,0.2-2h-0.2H21.6C21.6,65.7,25.5,65.3,30.4,65.3z"/>
		<path class="st1" d="M89.8,59.4h-0.2c0,0.8,0.1,1.4,0.2,2c0.8,3.9,4.4,3.7,8.7,3.7c4.9,0,8.9,0.3,8.9-5.6L89.8,59.4L89.8,59.4z"/>
		<path class="st1" d="M81.2,55.1v-2.5c0-1.1-1.3-1.2-2.9-1.2h-2.6c-1.6,0-2.9,0.1-2.9,1.2v2.2v1.7H54.5v-1.7v-2.2
			c0-1.1-1.3-1.2-2.9-1.2H49c-1.6,0-2.9,0.1-2.9,1.2v2.5v2.2C42,61.6,28.3,80.1,27.8,82.4l0,14.9c0,1.4,1.1,2.5,2.5,2.5h66.8
			c1.4,0,2.5-1.1,2.5-2.5v-15c-0.5-2.2-14.2-20.7-18.4-25V55.1z M53.6,84.4c-1.3,0-2.4-1.1-2.4-2.4c0-1.3,1.1-2.4,2.4-2.4
			S56,80.6,56,82C56,83.3,54.9,84.4,53.6,84.4z M53.6,76c-1.3,0-2.4-1.1-2.4-2.4s1.1-2.4,2.4-2.4s2.4,1.1,2.4,2.4S54.9,76,53.6,76z
			 M53.6,67.7c-1.3,0-2.4-1.1-2.4-2.4c0-1.3,1.1-2.4,2.4-2.4s2.4,1.1,2.4,2.4C56,66.6,54.9,67.7,53.6,67.7z M63.6,84.4
			c-1.3,0-2.4-1.1-2.4-2.4c0-1.3,1.1-2.4,2.4-2.4c1.3,0,2.4,1.1,2.4,2.4C66,83.3,65,84.4,63.6,84.4z M63.6,76
			c-1.3,0-2.4-1.1-2.4-2.4s1.1-2.4,2.4-2.4c1.3,0,2.4,1.1,2.4,2.4S65,76,63.6,76z M63.6,67.7c-1.3,0-2.4-1.1-2.4-2.4
			c0-1.3,1.1-2.4,2.4-2.4c1.3,0,2.4,1.1,2.4,2.4C66,66.6,65,67.7,63.6,67.7z M73.6,84.4c-1.3,0-2.4-1.1-2.4-2.4
			c0-1.3,1.1-2.4,2.4-2.4c1.3,0,2.4,1.1,2.4,2.4C76.1,83.3,75,84.4,73.6,84.4z M73.6,76c-1.3,0-2.4-1.1-2.4-2.4s1.1-2.4,2.4-2.4
			c1.3,0,2.4,1.1,2.4,2.4S75,76,73.6,76z M73.6,67.7c-1.3,0-2.4-1.1-2.4-2.4c0-1.3,1.1-2.4,2.4-2.4c1.3,0,2.4,1.1,2.4,2.4
			C76.1,66.6,75,67.7,73.6,67.7z"/>
	</g>
</g>
</svg>
