<?xml version="1.0" encoding="utf-8"?>
<!-- Generator: Adobe Illustrator 20.0.0, SVG Export Plug-In . SVG Version: 6.00 Build 0)  -->
<svg version="1.1" id="Capa_1" xmlns="http://www.w3.org/2000/svg" xmlns:xlink="http://www.w3.org/1999/xlink" x="0px" y="0px"
	 viewBox="0 0 86 86" style="enable-background:new 0 0 86 86;" xml:space="preserve">
<style type="text/css">
	.st0{fill:#FFD40C;}
	.st1{fill:#FBF9F6;}
</style>
<g>
	<circle class="st0" cx="43" cy="43" r="43"/>
	<g>
		<g>
			<path class="st1" d="M64.1,55c-2.4-3.4-5.7-5.8-9.1-8c-2.7-1.8-5.9-1.4-8.8-0.2c-0.2,0.1-0.3,0.1-0.6,0.2c-0.1-0.5-0.2-1-0.3-1.5
				c-0.2-1-0.6-1.9-0.9-2.8c-0.4-1-0.8-1.9-1.3-2.8c-0.2-0.5-0.5-0.9-0.8-1.4c-0.3-0.5-0.6-0.9-0.9-1.3c-0.3-0.4-0.6-0.8-0.9-1.2
				c-0.3-0.4-0.7-0.7-1-1.1c-0.3-0.3-0.7-0.7-1-1s-0.7-0.6-1.1-0.9c-0.7-0.5-1.4-1-2.1-1.4c-0.3-0.2-0.7-0.3-1-0.5
				c-0.3-0.2-0.6-0.3-0.9-0.4c-0.6-0.3-1.1-0.5-1.5-0.6c-0.9-0.3-1.4-0.5-1.4-0.5s0.5,0.2,1.3,0.5c0.4,0.2,0.9,0.4,1.5,0.7
				c0.3,0.2,0.6,0.3,0.9,0.5c0.3,0.2,0.6,0.4,0.9,0.6c0.6,0.4,1.3,0.9,2,1.5c0.3,0.3,0.6,0.6,1,0.9s0.6,0.7,1,1
				c0.3,0.3,0.6,0.7,0.9,1.1c0.3,0.4,0.6,0.8,0.9,1.2c0.3,0.4,0.5,0.9,0.8,1.3c0.2,0.5,0.5,0.9,0.7,1.4c0.5,0.9,0.8,1.9,1.1,2.8
				c0.3,1,0.6,1.9,0.7,2.8c0.1,0.5,0.2,1,0.3,1.5c-1.3,0.2-2.4,0.2-3.6-0.2c-2.3-0.7-4.6-0.8-6.9-0.8c-1,0-1.8,0.3-2.4,1.1
				c-0.3,0.5,2.4,2.3,4.7,2.3c-0.5,0.9-8-1-9.1-0.9l-5.8-0.7c-2.1-0.2-2.1-0.9-4,0.2c-0.1,0.1-0.2,0.1-0.2,0.1
				c-1.1-0.1-1.8,0.3-2.4,1c-0.3,0.4-0.3,1-0.1,1.4c0.2,0.5,0.7,0.4,1.1,0.6c2.6,1,3.4,1.5,6.9,2.4c2.4,0.6,4.9,1.4,7.3,1.9
				c1,0.2,2.1,0.4,3,0.9c1.9,1.1,4,1.4,6.3,1.3c2.6-0.1,5.1,0,7.6,0c4.4,0,7.9,1.8,10.1,5.7l14.4-0.1C68.3,59.8,67,58.9,64.1,55z"/>
			<path class="st1" d="M44.1,40.2c0.1,0.2,0.1,0.3,0.1,0.4c0.1,0.1,0.1,0.1,0.1,0.1s0.1-0.1,0.1-0.1c0.1-0.1,0.2-0.2,0.3-0.3
				c0.2-0.2,0.6-0.6,0.9-1s0.6-0.9,0.9-1.5c0.3-0.6,0.5-1.1,0.7-1.8c0.3-1.3,0.4-2.6,0.3-3.6c-0.1-0.5-0.2-1-0.3-1.3
				C47.1,31,47,30.9,47,30.8C47,30.6,47,30.6,47,30.6s-0.1,0.1-0.1,0.1s-0.2,0.1-0.3,0.3c-0.2,0.2-0.6,0.6-0.9,1
				c-0.6,0.9-1.3,2-1.6,3.2c-0.2,0.6-0.3,1.3-0.3,1.9s0,1.2,0.1,1.7C43.9,39.4,44,39.8,44.1,40.2z"/>
			<path class="st1" d="M38.4,31.9c0.1,0.2,0.1,0.3,0.1,0.4c0.1,0.1,0.1,0.1,0.1,0.1s0.1-0.1,0.1-0.1c0.1-0.1,0.2-0.2,0.3-0.3
				c0.2-0.2,0.6-0.6,0.9-1s0.6-0.9,0.9-1.5c0.3-0.6,0.5-1.1,0.7-1.8c0.3-1.3,0.4-2.6,0.3-3.6c-0.1-0.5-0.2-1-0.3-1.3
				c-0.1-0.2-0.1-0.3-0.1-0.4c-0.1-0.1-0.1-0.1-0.1-0.1s-0.1,0.1-0.2,0.1c-0.1,0.1-0.2,0.2-0.3,0.3c-0.2,0.2-0.6,0.6-0.9,1
				c-0.6,0.9-1.3,2-1.6,3.2c-0.2,0.6-0.3,1.3-0.3,1.9c-0.1,0.6,0,1.2,0.1,1.7C38.2,31.1,38.3,31.6,38.4,31.9z"/>
			<path class="st1" d="M32.3,41.1c-0.1,0.1-0.2,0.2-0.3,0.2c-0.1,0.1-0.1,0.1-0.1,0.1s0.1,0.1,0.1,0.1c0.1,0.1,0.2,0.2,0.3,0.2
				c0.3,0.2,0.7,0.4,1.2,0.6c1,0.4,2.3,0.7,3.5,0.7c0.6,0,1.3-0.1,1.9-0.2c0.6-0.1,1.1-0.3,1.7-0.5c0.5-0.2,0.9-0.4,1.1-0.6
				c0.1-0.1,0.2-0.2,0.3-0.2c0.1-0.1,0.1-0.1,0.1-0.1s-0.1-0.1-0.1-0.1c-0.1-0.1-0.2-0.2-0.3-0.2c-0.3-0.2-0.7-0.4-1.2-0.6
				c-0.5-0.2-1-0.3-1.7-0.5c-0.6-0.1-1.3-0.2-1.9-0.2c-1.3,0-2.6,0.3-3.5,0.7C33,40.7,32.6,40.9,32.3,41.1z"/>
			<path class="st1" d="M26.9,35c0.3,0.2,0.7,0.3,1.2,0.5c1,0.3,2.3,0.5,3.6,0.3c0.6-0.1,1.3-0.2,1.9-0.3c0.6-0.2,1.1-0.4,1.6-0.6
				c0.5-0.2,0.9-0.5,1.1-0.7c0.1-0.1,0.2-0.2,0.3-0.2c0.1-0.1,0.1-0.1,0.1-0.1s-0.1,0-0.1-0.1s-0.2-0.1-0.3-0.2
				c-0.3-0.2-0.7-0.3-1.2-0.5c-0.5-0.2-1.1-0.3-1.7-0.3c-0.6-0.1-1.3-0.1-1.9,0c-1.3,0.1-2.6,0.5-3.5,1c-0.5,0.2-0.9,0.5-1.1,0.7
				c-0.1,0.1-0.2,0.2-0.3,0.2c-0.1,0.1-0.1,0.1-0.1,0.1s0.1,0,0.1,0.1C26.7,34.9,26.8,34.9,26.9,35z"/>
		</g>
	</g>
</g>
</svg>
