<?xml version="1.0" encoding="utf-8"?>
<!-- Generator: Adobe Illustrator 20.0.0, SVG Export Plug-In . SVG Version: 6.00 Build 0)  -->
<svg version="1.1" id="Objects" xmlns="http://www.w3.org/2000/svg" xmlns:xlink="http://www.w3.org/1999/xlink" x="0px" y="0px"
	 viewBox="0 0 280 420" style="enable-background:new 0 0 280 420;" xml:space="preserve">
<style type="text/css">
	.st0{fill:url(#SVGID_1_);}
	.st1{fill:url(#SVGID_2_);}
	.st2{opacity:0.18;enable-background:new    ;}
	.st3{fill:url(#SVGID_3_);}
	.st4{fill:url(#SVGID_4_);}
	.st5{fill:url(#SVGID_5_);}
	.st6{fill:url(#SVGID_6_);}
	.st7{fill:url(#SVGID_7_);}
	.st8{fill:url(#SVGID_8_);}
	.st9{fill:url(#SVGID_9_);}
	.st10{fill:url(#SVGID_10_);}
	.st11{fill:url(#SVGID_11_);}
	.st12{fill:url(#SVGID_12_);}
	.st13{fill:url(#SVGID_13_);}
	.st14{fill:url(#SVGID_14_);}
	.st15{fill:url(#SVGID_15_);}
	.st16{fill:url(#SVGID_16_);}
	.st17{fill:url(#SVGID_17_);}
	.st18{fill:url(#SVGID_18_);}
	.st19{fill:url(#SVGID_19_);}
	.st20{fill:url(#SVGID_20_);}
	.st21{fill:url(#SVGID_21_);}
	.st22{fill:url(#SVGID_22_);}
	.st23{fill:url(#SVGID_23_);}
	.st24{fill:url(#SVGID_24_);}
	.st25{fill:url(#SVGID_25_);}
	.st26{fill:url(#SVGID_26_);}
	.st27{fill:url(#SVGID_27_);}
	.st28{fill:url(#SVGID_28_);}
	.st29{fill:url(#SVGID_29_);}
	.st30{fill:url(#SVGID_30_);}
	.st31{fill:url(#SVGID_31_);}
	.st32{fill:url(#SVGID_32_);}
	.st33{fill:url(#SVGID_33_);}
	.st34{fill:url(#SVGID_34_);}
	.st35{fill:url(#SVGID_35_);}
	.st36{fill:url(#SVGID_36_);}
	.st37{fill:url(#SVGID_37_);}
	.st38{fill:url(#SVGID_38_);}
	.st39{fill:url(#SVGID_39_);}
	.st40{fill:url(#SVGID_40_);}
	.st41{fill:url(#SVGID_41_);}
	.st42{fill:url(#SVGID_42_);}
	.st43{fill:url(#SVGID_43_);}
	.st44{fill:url(#SVGID_44_);}
	.st45{fill:url(#SVGID_45_);}
	.st46{fill:url(#SVGID_46_);}
	.st47{fill:url(#SVGID_47_);}
	.st48{fill:url(#SVGID_48_);}
	.st49{fill:url(#SVGID_49_);}
	.st50{fill:none;}
	.st51{fill:#D96704;}
	.st52{fill:#F29D35;}
	.st53{fill:#FF4105;}
	.st54{fill:#FF4005;}
	.st55{fill:#FF3F05;}
	.st56{fill:#FF3E05;}
	.st57{fill:#FF3D05;}
	.st58{fill:#FF3C05;}
	.st59{fill:#FF3B05;}
	.st60{fill:#FF3A04;}
	.st61{fill:#FF3904;}
	.st62{fill:#FF3804;}
	.st63{fill:#FF3704;}
	.st64{fill:#FF3604;}
	.st65{fill:#FF3504;}
	.st66{fill:#FF3404;}
	.st67{fill:#FF3304;}
	.st68{fill:#FF3204;}
	.st69{fill:#FF3104;}
	.st70{fill:#FF3004;}
	.st71{fill:#FF2F04;}
	.st72{fill:#FF2E04;}
	.st73{fill:#FF2D03;}
	.st74{fill:#FF2C03;}
	.st75{fill:#FF2B03;}
	.st76{fill:#FF2A03;}
	.st77{fill:#FF2903;}
	.st78{fill:#FF2803;}
	.st79{fill:#FF2703;}
	.st80{fill:#FF2603;}
	.st81{fill:#FF2503;}
	.st82{fill:#FF2403;}
	.st83{fill:#FF2303;}
	.st84{fill:#FF2203;}
	.st85{fill:#FF2103;}
	.st86{fill:#FF2002;}
	.st87{fill:#FF1F02;}
	.st88{fill:#FF1E02;}
	.st89{fill:#FF1D02;}
	.st90{fill:#FF1C02;}
	.st91{fill:#FF1B02;}
	.st92{fill:#FF1A02;}
	.st93{fill:#FF1902;}
	.st94{fill:#FF1802;}
	.st95{fill:#FF1702;}
	.st96{fill:#FF1602;}
	.st97{fill:#FF1502;}
	.st98{fill:#FF1402;}
	.st99{fill:#FF1301;}
	.st100{fill:#FF1201;}
	.st101{fill:#FF1101;}
	.st102{fill:#FF1001;}
	.st103{fill:#FF0F01;}
	.st104{fill:#FF0E01;}
	.st105{fill:#FF0D01;}
	.st106{fill:#FF0C01;}
	.st107{fill:#FF0B01;}
	.st108{fill:#FF0A01;}
	.st109{fill:#FF0901;}
	.st110{fill:#FF0801;}
	.st111{fill:#FF0701;}
	.st112{fill:#FF0600;}
	.st113{fill:#FF0500;}
	.st114{fill:#FF0400;}
	.st115{fill:#FF0300;}
	.st116{fill:#FF0200;}
	.st117{fill:#FF0100;}
	.st118{fill:#FF0000;}
	.st119{opacity:0.13;fill:#FFFFFF;enable-background:new    ;}
	.st120{fill:#FF6D40;}
	.st121{fill:#FF6C3F;}
	.st122{fill:#FF6B3F;}
	.st123{fill:#FF6A3E;}
	.st124{fill:#FF693E;}
	.st125{fill:#FF683D;}
	.st126{fill:#FF673D;}
	.st127{fill:#FF663C;}
	.st128{fill:#FF653B;}
	.st129{fill:#FF643B;}
	.st130{fill:#FF633A;}
	.st131{fill:#FF623A;}
	.st132{fill:#FF6139;}
	.st133{fill:#FF6038;}
	.st134{fill:#FF5F38;}
	.st135{fill:#FF5E37;}
	.st136{fill:#FF5D37;}
	.st137{fill:#FF5C36;}
	.st138{fill:#FF5B36;}
	.st139{fill:#FF5A35;}
	.st140{fill:#FF5934;}
	.st141{fill:#FF5834;}
	.st142{fill:#FF5733;}
	.st143{fill:#FF5633;}
	.st144{fill:#FF5532;}
	.st145{fill:#FF5431;}
	.st146{fill:#FF5331;}
	.st147{fill:#FF5230;}
	.st148{fill:#FF5130;}
	.st149{fill:#FF502F;}
	.st150{fill:#FF4F2F;}
	.st151{fill:#FF4E2E;}
	.st152{fill:#FF4D2D;}
	.st153{fill:#FF4C2D;}
	.st154{fill:#FF4B2C;}
	.st155{fill:#FF4A2C;}
	.st156{fill:#FF492B;}
	.st157{fill:#FF482A;}
	.st158{fill:#FF472A;}
	.st159{fill:#FF4629;}
	.st160{fill:#FF4529;}
	.st161{fill:#FF4428;}
	.st162{fill:#FF4328;}
	.st163{fill:#FF4227;}
	.st164{fill:#FF4126;}
	.st165{fill:#FF4026;}
	.st166{fill:#FF3F25;}
	.st167{fill:#FF3E25;}
	.st168{fill:#FF3D24;}
	.st169{fill:#FF3C23;}
	.st170{fill:#FF3B23;}
	.st171{fill:#FF3A22;}
	.st172{fill:#FF3922;}
	.st173{fill:#FF3821;}
	.st174{fill:#FF3721;}
	.st175{fill:#FF3620;}
	.st176{fill:#FF361F;}
	.st177{fill:#FF351F;}
	.st178{fill:#FF341E;}
	.st179{fill:#FF331E;}
	.st180{fill:#FF321D;}
	.st181{fill:#FF311D;}
	.st182{fill:#FF301C;}
	.st183{fill:#FF2F1B;}
	.st184{fill:#FF2E1B;}
	.st185{fill:#FF2D1A;}
	.st186{fill:#FF2C1A;}
	.st187{fill:#FF2B19;}
	.st188{fill:#FF2A18;}
	.st189{fill:#FF2918;}
	.st190{fill:#FF2817;}
	.st191{fill:#FF2717;}
	.st192{fill:#FF2616;}
	.st193{fill:#FF2516;}
	.st194{fill:#FF2415;}
	.st195{fill:#FF2314;}
	.st196{fill:#FF2214;}
	.st197{fill:#FF2113;}
	.st198{fill:#FF2013;}
	.st199{fill:#FF1F12;}
	.st200{fill:#FF1E11;}
	.st201{fill:#FF1D11;}
	.st202{fill:#FF1C10;}
	.st203{fill:#FF1B10;}
	.st204{fill:#FF1A0F;}
	.st205{fill:#FF190F;}
	.st206{fill:#FF180E;}
	.st207{fill:#FF170D;}
	.st208{fill:#FF160D;}
	.st209{fill:#FF150C;}
	.st210{fill:#FF140C;}
	.st211{fill:#FF130B;}
	.st212{fill:#FF120A;}
	.st213{fill:#FF110A;}
	.st214{fill:#FF1009;}
	.st215{fill:#FF0F09;}
	.st216{fill:#FF0E08;}
	.st217{fill:#FF0D08;}
	.st218{fill:#FF0C07;}
	.st219{fill:#FF0B06;}
	.st220{fill:#FF0A06;}
	.st221{fill:#FF0905;}
	.st222{fill:#FF0805;}
	.st223{fill:#FF0704;}
	.st224{fill:#FF0603;}
	.st225{fill:#FF0503;}
	.st226{fill:#FF0402;}
	.st227{fill:#FF0302;}
	.st228{fill:#FF0201;}
	.st229{fill:#FF0101;}
	.st230{opacity:0.19;enable-background:new    ;}
	.st231{fill:#8C0000;}
	.st232{opacity:0.23;}
	.st233{fill:url(#SVGID_50_);}
	.st234{fill:url(#SVGID_51_);}
	.st235{opacity:0.16;fill:#FFFFFF;enable-background:new    ;}
	.st236{opacity:0.42;fill:#FFFFFF;enable-background:new    ;}
	.st237{opacity:0.71;fill:#FFFFFF;enable-background:new    ;}
	.st238{fill:#FFFFFF;}
</style>
<g>
	
		<linearGradient id="SVGID_1_" gradientUnits="userSpaceOnUse" x1="3102.0559" y1="2030.1104" x2="3119.3333" y2="1886.7604" gradientTransform="matrix(-0.9011 -0.4336 -0.4336 0.9011 3731.8152 -103.7322)">
		<stop  offset="1.648350e-02" style="stop-color:#FF4105"/>
		<stop  offset="0.2363" style="stop-color:#FF6D40"/>
		<stop  offset="0.4621" style="stop-color:#FF5B28"/>
		<stop  offset="0.7531" style="stop-color:#FF480E"/>
		<stop  offset="0.9286" style="stop-color:#FF4105"/>
	</linearGradient>
	<path class="st0" d="M132.8,160.7c0,0,43.7,128.5-32.7,257.6c-0.8,1.3-27.7-52.9-27.7-52.9s-69,24-65.1,17.4
		C93,237.6,74.1,140.9,74.1,140.9L132.8,160.7z"/>
	
		<linearGradient id="SVGID_2_" gradientUnits="userSpaceOnUse" x1="56.9715" y1="1388.215" x2="126.8981" y2="1205.4365" gradientTransform="matrix(1 0 0 1 0 -997.89)">
		<stop  offset="1.648350e-02" style="stop-color:#FFD40C"/>
		<stop  offset="0.2363" style="stop-color:#FFE984"/>
		<stop  offset="0.3565" style="stop-color:#FFC76A"/>
		<stop  offset="0.5758" style="stop-color:#FF8E3F"/>
		<stop  offset="0.764" style="stop-color:#FF641F"/>
		<stop  offset="0.9115" style="stop-color:#FF4A0C"/>
		<stop  offset="1" style="stop-color:#FF4105"/>
	</linearGradient>
	<path class="st1" d="M124.1,231l-33.7,6.3c0,0-5.5,73.5-49.5,138.3c15.8-5,31.3-10.3,31.3-10.3s4.2,8.2,9.2,18.2
		C95.4,358,121,302.1,124.1,231z"/>
	<path class="st2" d="M133.6,339.5c16.1-59,12.6-111.7,7.1-144.3l-5.5,2.1C135.2,197.3,117.3,259.7,133.6,339.5z"/>
	
		<linearGradient id="SVGID_3_" gradientUnits="userSpaceOnUse" x1="537.5174" y1="628.675" x2="554.7947" y2="485.324" gradientTransform="matrix(0.8558 -0.5173 0.5173 0.8558 -554.3705 118.2011)">
		<stop  offset="1.648350e-02" style="stop-color:#FF4105"/>
		<stop  offset="0.2363" style="stop-color:#FF6D40"/>
		<stop  offset="0.4621" style="stop-color:#FF5B28"/>
		<stop  offset="0.7531" style="stop-color:#FF480E"/>
		<stop  offset="0.9286" style="stop-color:#FF4105"/>
	</linearGradient>
	<path class="st3" d="M133.9,166.7c0,0-31.3,132,56.9,253.4c0.8,1.3,22.7-55.3,22.7-55.3s70.9,17.4,66.4,11.1
		c-99-136.2-89.3-234.4-89.3-234.4L133.9,166.7z"/>
	
		<linearGradient id="SVGID_4_" gradientUnits="userSpaceOnUse" x1="2975.3208" y1="1237.7646" x2="3045.2454" y2="1054.9912" gradientTransform="matrix(-0.9955 9.510000e-02 9.510000e-02 0.9955 3075.1948 -1127.1302)">
		<stop  offset="1.648350e-02" style="stop-color:#FFD40C"/>
		<stop  offset="0.2363" style="stop-color:#FFE984"/>
		<stop  offset="0.3565" style="stop-color:#FFC76A"/>
		<stop  offset="0.5758" style="stop-color:#FF8E3F"/>
		<stop  offset="0.764" style="stop-color:#FF641F"/>
		<stop  offset="0.9115" style="stop-color:#FF4A0C"/>
		<stop  offset="1" style="stop-color:#FF4105"/>
	</linearGradient>
	<path class="st4" d="M148.9,235.8l34.2,3.2c0,0,12.6,72.4,62.4,133c-16.3-3.4-32.1-7.4-32.1-7.4s-3.2,8.7-7.4,19
		C189.7,359.6,158.9,306.3,148.9,235.8z"/>
	<path class="st2" d="M201.3,220.2l-1.3,1.3l-11.3,8.4l-12.4,6.6l-13.2,4.7l-13.7,2.9l-14.2,1.1l-14-1.1l-14-2.9l-13.2-4.7L81.7,230
		l-10.8-7.6c-1.3,7.6-3.2,16.1-5.5,24.8c2.6,0.5,4.2,1.1,5.3,1.6l-1.1,2.1c0,0-2.4,4.5,6.1,4.7c5.5,0,8.7,0.5,10.3,1.1l-0.8,2.4
		c0,0-1.8,5,6.6,4c5.5-0.8,8.7-0.5,10.3-0.5l-0.5,2.4c0,0-1.1,5,7.1,2.9c5.3-1.3,8.4-1.8,10.3-1.8l-0.3,2.6c0,0-0.3,5.3,7.4,1.8
		c5-2.1,8.2-2.9,9.7-3.2l0.3,2.6c0,0,0.3,5.3,7.6,0.8c4.7-2.9,7.6-4.2,9.2-4.7l0.5,2.4c0,0,1.1,5,7.6-0.3c4.2-3.4,7.1-5,8.4-5.8
		l0.8,2.4c0,0,1.8,5,7.6-1.3c3.7-4,6.3-6.1,7.6-7.1l1.3,2.1c0,0,2.4,4.5,7.4-2.4c3.2-4.5,5.3-6.8,6.6-7.9l1.6,2.1
		c0,0,3.2,4.2,6.8-3.4c0.3-0.3,0.3-0.8,0.5-1.1C206,236.5,203.4,228.1,201.3,220.2z"/>
	<g>
		
			<linearGradient id="SVGID_5_" gradientUnits="userSpaceOnUse" x1="-519.0345" y1="-566.05" x2="-500.3144" y2="-566.05" gradientTransform="matrix(-0.1045 0.9945 -0.9945 -0.1045 -368.3246 591.5038)">
			<stop  offset="0" style="stop-color:#FF4105"/>
			<stop  offset="0.6813" style="stop-color:#FF6D40"/>
			<stop  offset="1" style="stop-color:#FF4105"/>
		</linearGradient>
		<path class="st5" d="M233.7,151.7l23.7,2.4c0,0,5.3,0.5,2.1-7.4c-3.2-7.9-3.2-11.1-3.2-11.3c-8.7-0.8-20.8-2.1-20.8-2.1
			L233.7,151.7z"/>
		
			<linearGradient id="SVGID_6_" gradientUnits="userSpaceOnUse" x1="-372.5322" y1="-501.7782" x2="-353.8126" y2="-501.7782" gradientTransform="matrix(3.490000e-02 0.9994 -0.9994 3.490000e-02 -240.2796 508.3024)">
			<stop  offset="0" style="stop-color:#FF4105"/>
			<stop  offset="0.6813" style="stop-color:#FF6D40"/>
			<stop  offset="1" style="stop-color:#FF4105"/>
		</linearGradient>
		<path class="st6" d="M235.5,137.8l24-1.1c0,0,5.3-0.3,1.1-7.6c-4.2-7.4-4.7-10.5-4.7-10.8c-8.7,0.3-21.1,1.1-21.1,1.1L235.5,137.8
			z"/>
		
			<linearGradient id="SVGID_7_" gradientUnits="userSpaceOnUse" x1="185.9444" y1="869.3551" x2="204.6654" y2="869.3551" gradientTransform="matrix(0.9903 0.1392 -0.1392 0.9903 78.8263 -866.0316)">
			<stop  offset="0" style="stop-color:#FF4105"/>
			<stop  offset="0.6813" style="stop-color:#FF6D40"/>
			<stop  offset="1" style="stop-color:#FF4105"/>
		</linearGradient>
		<path class="st7" d="M158.6,36.6l3.2-23.7c0,0,0.8-5.3-7.4-2.4c-7.9,2.9-11.3,2.6-11.6,2.6c-1.3,8.7-2.6,20.8-2.6,20.8L158.6,36.6
			z"/>
		
			<linearGradient id="SVGID_8_" gradientUnits="userSpaceOnUse" x1="125.9208" y1="1019.0184" x2="144.6412" y2="1019.0184" gradientTransform="matrix(1 0 0 1 0 -997.89)">
			<stop  offset="0" style="stop-color:#FF4105"/>
			<stop  offset="0.6813" style="stop-color:#FF6D40"/>
			<stop  offset="1" style="stop-color:#FF4105"/>
		</linearGradient>
		<path class="st8" d="M144.7,34.5l-0.3-24c0,0,0-5.3-7.6-1.3s-10.8,4.2-11.1,4.2c0,8.7,0.3,21.1,0.3,21.1H144.7z"/>
		
			<linearGradient id="SVGID_9_" gradientUnits="userSpaceOnUse" x1="45.0624" y1="1158.1552" x2="63.7825" y2="1158.1552" gradientTransform="matrix(0.9903 -0.1392 0.1392 0.9903 -95.7603 -1117.0184)">
			<stop  offset="0" style="stop-color:#FF4105"/>
			<stop  offset="0.6813" style="stop-color:#FF6D40"/>
			<stop  offset="1" style="stop-color:#FF4105"/>
		</linearGradient>
		<path class="st9" d="M130.4,34.2L127,10.5c0,0-0.8-5.3-7.6-0.3c-6.8,4.7-10,5.8-10.3,5.8c1.3,8.7,3.2,20.8,3.2,20.8L130.4,34.2z"
			/>
		
			<linearGradient id="SVGID_10_" gradientUnits="userSpaceOnUse" x1="-53.2018" y1="1284.5044" x2="-34.4811" y2="1284.5044" gradientTransform="matrix(0.9613 -0.2756 0.2756 0.9613 -208.0825 -1220.9563)">
			<stop  offset="0" style="stop-color:#FF4105"/>
			<stop  offset="0.6813" style="stop-color:#FF6D40"/>
			<stop  offset="1" style="stop-color:#FF4105"/>
		</linearGradient>
		<path class="st10" d="M116.5,36.1l-6.8-22.9c0,0-1.3-5-7.6,0.8c-6.1,5.8-9.2,7.1-9.5,7.1c2.4,8.4,6.1,20.3,6.1,20.3L116.5,36.1z"
			/>
		
			<linearGradient id="SVGID_11_" gradientUnits="userSpaceOnUse" x1="-168.3695" y1="1397.3595" x2="-149.6475" y2="1397.3595" gradientTransform="matrix(0.9135 -0.4067 0.4067 0.9135 -334.198 -1309.5739)">
			<stop  offset="0" style="stop-color:#FF4105"/>
			<stop  offset="0.6813" style="stop-color:#FF6D40"/>
			<stop  offset="1" style="stop-color:#FF4105"/>
		</linearGradient>
		<path class="st11" d="M102.8,40l-10-21.9c0,0-2.1-4.7-7.4,1.8s-8.2,8.2-8.4,8.4c3.4,7.9,8.7,19.2,8.7,19.2L102.8,40z"/>
		
			<linearGradient id="SVGID_12_" gradientUnits="userSpaceOnUse" x1="-298.7101" y1="1492.0854" x2="-279.9871" y2="1492.0854" gradientTransform="matrix(0.848 -0.5299 0.5299 0.848 -470.4752 -1379.428)">
			<stop  offset="0" style="stop-color:#FF4105"/>
			<stop  offset="0.6813" style="stop-color:#FF6D40"/>
			<stop  offset="1" style="stop-color:#FF4105"/>
		</linearGradient>
		<path class="st12" d="M89.9,45.6L77,25.3c0,0-2.6-4.5-7.1,2.9c-4.2,7.4-6.8,9.2-7.1,9.5c4.5,7.4,11.3,17.6,11.3,17.6L89.9,45.6z"
			/>
		
			<linearGradient id="SVGID_13_" gradientUnits="userSpaceOnUse" x1="-441.1654" y1="1567.7123" x2="-422.445" y2="1567.7123" gradientTransform="matrix(0.766 -0.6428 0.6428 0.766 -614.9572 -1429.7051)">
			<stop  offset="0" style="stop-color:#FF4105"/>
			<stop  offset="0.6813" style="stop-color:#FF6D40"/>
			<stop  offset="1" style="stop-color:#FF4105"/>
		</linearGradient>
		<path class="st13" d="M77.8,52.9L62.2,34.8c0,0-3.4-4-6.6,3.7c-3.2,7.9-5.5,10.3-5.8,10.3c5.5,6.6,13.7,16.1,13.7,16.1L77.8,52.9z
			"/>
		
			<linearGradient id="SVGID_14_" gradientUnits="userSpaceOnUse" x1="-591.6271" y1="1622.6501" x2="-572.9067" y2="1622.6501" gradientTransform="matrix(0.6691 -0.7431 0.7431 0.6691 -765.5692 -1458.4657)">
			<stop  offset="0" style="stop-color:#FF4105"/>
			<stop  offset="0.6813" style="stop-color:#FF6D40"/>
			<stop  offset="1" style="stop-color:#FF4105"/>
		</linearGradient>
		<path class="st14" d="M66.7,61.9L48.8,46.1c0,0-4-3.4-6.1,4.7c-2.1,8.2-4,10.8-4.2,11.1c6.3,5.8,15.8,14,15.8,14L66.7,61.9z"/>
		
			<linearGradient id="SVGID_15_" gradientUnits="userSpaceOnUse" x1="-748.982" y1="1655.9175" x2="-730.2602" y2="1655.9175" gradientTransform="matrix(0.5592 -0.829 0.829 0.5592 -918.105 -1466.427)">
			<stop  offset="0" style="stop-color:#FF4105"/>
			<stop  offset="0.6813" style="stop-color:#FF6D40"/>
			<stop  offset="1" style="stop-color:#FF4105"/>
		</linearGradient>
		<path class="st15" d="M57.2,72.4l-20-13.2c0,0-4.2-2.9-5.3,5.5c-1.1,8.4-2.6,11.3-2.6,11.6C36.4,81.1,46.9,88,46.9,88L57.2,72.4z"
			/>
		
			<linearGradient id="SVGID_16_" gradientUnits="userSpaceOnUse" x1="-909.827" y1="1666.7948" x2="-891.1072" y2="1666.7948" gradientTransform="matrix(0.4384 -0.8988 0.8988 0.4384 -1070.1624 -1453.4744)">
			<stop  offset="0" style="stop-color:#FF4105"/>
			<stop  offset="0.6813" style="stop-color:#FF6D40"/>
			<stop  offset="1" style="stop-color:#FF4105"/>
		</linearGradient>
		<path class="st16" d="M49.3,84L27.7,73.8c0,0-4.7-2.4-4.5,6.1c0.3,8.4-0.8,11.6-1.1,11.9c7.9,3.7,19,9,19,9L49.3,84z"/>
		
			<linearGradient id="SVGID_17_" gradientUnits="userSpaceOnUse" x1="-1070.908" y1="1655.9015" x2="-1052.1885" y2="1655.9015" gradientTransform="matrix(0.309 -0.9511 0.9511 0.309 -1219.5591 -1419.8699)">
			<stop  offset="0" style="stop-color:#FF4105"/>
			<stop  offset="0.6813" style="stop-color:#FF6D40"/>
			<stop  offset="1" style="stop-color:#FF4105"/>
		</linearGradient>
		<path class="st17" d="M43,96.7l-22.9-7.1c0,0-5-1.6-3.7,6.8c1.3,8.4,0.8,11.6,0.5,11.9c8.2,2.6,20,6.3,20,6.3L43,96.7z"/>
		
			<linearGradient id="SVGID_18_" gradientUnits="userSpaceOnUse" x1="-1227.9835" y1="1622.9736" x2="-1209.2784" y2="1622.9736" gradientTransform="matrix(0.1736 -0.9848 0.9848 0.1736 -1363.2671 -1364.9088)">
			<stop  offset="0" style="stop-color:#FF4105"/>
			<stop  offset="0.6813" style="stop-color:#FF6D40"/>
			<stop  offset="1" style="stop-color:#FF4105"/>
		</linearGradient>
		<path class="st18" d="M38.2,110.1l-23.7-4c0,0-5-0.8-2.6,7.1c2.4,8.2,2.4,11.3,2.4,11.6c8.4,1.6,20.8,3.4,20.8,3.4L38.2,110.1z"/>
		
			<linearGradient id="SVGID_19_" gradientUnits="userSpaceOnUse" x1="-1378.9243" y1="1567.6934" x2="-1360.2046" y2="1567.6934" gradientTransform="matrix(3.490000e-02 -0.9994 0.9994 3.490000e-02 -1496.7264 -1290.5905)">
			<stop  offset="0" style="stop-color:#FF4105"/>
			<stop  offset="0.6813" style="stop-color:#FF6D40"/>
			<stop  offset="1" style="stop-color:#FF4105"/>
		</linearGradient>
		<path class="st19" d="M35.9,124.1l-24-0.8c0,0-5.3-0.3-1.6,7.4s4,11.1,4,11.1c8.7,0.3,21.1,0.5,21.1,0.5L35.9,124.1z"/>
		
			<linearGradient id="SVGID_20_" gradientUnits="userSpaceOnUse" x1="-1520.4874" y1="1492.234" x2="-1501.766" y2="1492.234" gradientTransform="matrix(-0.1045 -0.9945 0.9945 -0.1045 -1619.1183 -1198.0603)">
			<stop  offset="0" style="stop-color:#FF4105"/>
			<stop  offset="0.6813" style="stop-color:#FF6D40"/>
			<stop  offset="1" style="stop-color:#FF4105"/>
		</linearGradient>
		<path class="st20" d="M35.1,138l-23.7,2.6c0,0-5.3,0.5-0.5,7.6c4.7,7.1,5.3,10.3,5.3,10.5c8.7-0.8,20.8-2.4,20.8-2.4L35.1,138z"/>
		
			<linearGradient id="SVGID_21_" gradientUnits="userSpaceOnUse" x1="-1650.8745" y1="1397.5167" x2="-1632.1527" y2="1397.5167" gradientTransform="matrix(-0.2419 -0.9703 0.9703 -0.2419 -1727.3916 -1090.1703)">
			<stop  offset="0" style="stop-color:#FF4105"/>
			<stop  offset="0.6813" style="stop-color:#FF6D40"/>
			<stop  offset="1" style="stop-color:#FF4105"/>
		</linearGradient>
		<path class="st21" d="M36.4,152.3l-23.2,6.1c0,0-5,1.3,0.5,7.6c5.5,6.3,6.8,9.5,6.8,9.7c8.4-2.1,20.3-5.3,20.3-5.3L36.4,152.3z"/>
		
			<linearGradient id="SVGID_22_" gradientUnits="userSpaceOnUse" x1="-1766.823" y1="1286.0714" x2="-1748.1038" y2="1286.0714" gradientTransform="matrix(-0.3746 -0.9272 0.9272 -0.3746 -1819.7415 -968.1801)">
			<stop  offset="0" style="stop-color:#FF4105"/>
			<stop  offset="0.6813" style="stop-color:#FF6D40"/>
			<stop  offset="1" style="stop-color:#FF4105"/>
		</linearGradient>
		<path class="st22" d="M39.8,165.9l-22.1,9.2c0,0-4.7,1.8,1.6,7.4c6.3,5.5,7.9,8.4,8.2,8.7c8.2-3.2,19.5-8.2,19.5-8.2L39.8,165.9z"
			/>
		
			<linearGradient id="SVGID_23_" gradientUnits="userSpaceOnUse" x1="-1865.8833" y1="1159.8289" x2="-1847.1499" y2="1159.8289" gradientTransform="matrix(-0.5 -0.866 0.866 -0.5 -1894.5085 -833.9841)">
			<stop  offset="0" style="stop-color:#FF4105"/>
			<stop  offset="0.6813" style="stop-color:#FF6D40"/>
			<stop  offset="1" style="stop-color:#FF4105"/>
		</linearGradient>
		<path class="st23" d="M44.8,179.1l-20.5,12.1c0,0-4.5,2.6,2.6,7.1c7.1,4.5,9,7.1,9.2,7.4c7.6-4.2,18.2-10.8,18.2-10.8L44.8,179.1z
			"/>
		
			<linearGradient id="SVGID_24_" gradientUnits="userSpaceOnUse" x1="-1946.8527" y1="1020.296" x2="-1928.134" y2="1020.296" gradientTransform="matrix(-0.6157 -0.788 0.788 -0.6157 -1949.7871 -691.4871)">
			<stop  offset="0" style="stop-color:#FF4105"/>
			<stop  offset="0.6813" style="stop-color:#FF6D40"/>
			<stop  offset="1" style="stop-color:#FF4105"/>
		</linearGradient>
		<path class="st24" d="M51.9,191.5l-18.7,15c0,0-4.2,3.2,3.7,6.8c7.6,3.4,10,5.8,10,6.1c6.8-5.3,16.3-13.2,16.3-13.2L51.9,191.5z"
			/>
		
			<linearGradient id="SVGID_25_" gradientUnits="userSpaceOnUse" x1="-2006.2789" y1="870.4286" x2="-1987.5559" y2="870.4286" gradientTransform="matrix(-0.7193 -0.6947 0.6947 -0.7193 -1983.2927 -542.1818)">
			<stop  offset="0" style="stop-color:#FF4105"/>
			<stop  offset="0.6813" style="stop-color:#FF6D40"/>
			<stop  offset="1" style="stop-color:#FF4105"/>
		</linearGradient>
		<path class="st25" d="M60.4,202.8l-16.6,17.4c0,0-3.7,3.7,4.5,6.3c8.2,2.4,10.8,4.5,10.8,4.5c6.1-6.3,14.5-15.3,14.5-15.3
			L60.4,202.8z"/>
		
			<linearGradient id="SVGID_26_" gradientUnits="userSpaceOnUse" x1="-2045.5514" y1="714.98" x2="-2026.83" y2="714.98" gradientTransform="matrix(-0.809 -0.5878 0.5878 -0.809 -1997.2142 -389.5574)">
			<stop  offset="0" style="stop-color:#FF4105"/>
			<stop  offset="0.6813" style="stop-color:#FF6D40"/>
			<stop  offset="1" style="stop-color:#FF4105"/>
		</linearGradient>
		<path class="st26" d="M70.6,212.6l-14,19.5c0,0-3.2,4.2,5.3,5.5c8.4,1.3,11.3,2.9,11.3,3.2c5-7.1,12.1-17.1,12.1-17.1L70.6,212.6z
			"/>
		
			<linearGradient id="SVGID_27_" gradientUnits="userSpaceOnUse" x1="-2062.0742" y1="555.0466" x2="-2043.3516" y2="555.0466" gradientTransform="matrix(-0.8829 -0.4695 0.4695 -0.8829 -1988.9838 -236.5008)">
			<stop  offset="0" style="stop-color:#FF4105"/>
			<stop  offset="0.6813" style="stop-color:#FF6D40"/>
			<stop  offset="1" style="stop-color:#FF4105"/>
		</linearGradient>
		<path class="st27" d="M82,221l-11.1,21.3c0,0-2.4,4.5,6.1,4.7c8.4,0,11.6,1.3,11.6,1.3c4-7.6,9.7-18.7,9.7-18.7L82,221z"/>
		
			<linearGradient id="SVGID_28_" gradientUnits="userSpaceOnUse" x1="-2057.3069" y1="394.4042" x2="-2038.5854" y2="394.4042" gradientTransform="matrix(-0.9397 -0.342 0.342 -0.9397 -1960.7897 -86.1053)">
			<stop  offset="0" style="stop-color:#FF4105"/>
			<stop  offset="0.6813" style="stop-color:#FF6D40"/>
			<stop  offset="1" style="stop-color:#FF4105"/>
		</linearGradient>
		<path class="st28" d="M94.4,227.9l-7.9,22.7c0,0-1.8,5,6.6,4s11.6-0.3,11.9-0.3c2.9-8.2,7.1-19.8,7.1-19.8L94.4,227.9z"/>
		
			<linearGradient id="SVGID_29_" gradientUnits="userSpaceOnUse" x1="-2028.9607" y1="236.2924" x2="-2010.2393" y2="236.2924" gradientTransform="matrix(-0.9781 -0.2079 0.2079 -0.9781 -1910.5212 59.0934)">
			<stop  offset="0" style="stop-color:#FF4105"/>
			<stop  offset="0.6813" style="stop-color:#FF6D40"/>
			<stop  offset="1" style="stop-color:#FF4105"/>
		</linearGradient>
		<path class="st29" d="M107.5,232.9l-4.7,23.4c0,0-1.1,5,7.1,2.9s11.3-1.8,11.6-1.8c1.8-8.4,4.2-20.5,4.2-20.5L107.5,232.9z"/>
		
			<linearGradient id="SVGID_30_" gradientUnits="userSpaceOnUse" x1="-1979.6449" y1="82.1787" x2="-1960.9264" y2="82.1787" gradientTransform="matrix(-0.9976 -6.980000e-02 6.980000e-02 -0.9976 -1841.4824 194.4947)">
			<stop  offset="0" style="stop-color:#FF4105"/>
			<stop  offset="0.6813" style="stop-color:#FF6D40"/>
			<stop  offset="1" style="stop-color:#FF4105"/>
		</linearGradient>
		<path class="st30" d="M121.5,236l-1.6,24c0,0-0.3,5.3,7.4,1.8c7.9-3.4,11.1-3.4,11.3-3.4c0.5-8.7,1.3-21.1,1.3-21.1L121.5,236z"/>
		
			<linearGradient id="SVGID_31_" gradientUnits="userSpaceOnUse" x1="-1909.8372" y1="-61.7571" x2="-1891.1193" y2="-61.7571" gradientTransform="matrix(-0.9976 6.980000e-02 -6.980000e-02 -0.9976 -1754.4302 320.8349)">
			<stop  offset="0" style="stop-color:#FF4105"/>
			<stop  offset="0.6813" style="stop-color:#FF6D40"/>
			<stop  offset="1" style="stop-color:#FF4105"/>
		</linearGradient>
		<path class="st31" d="M135.4,237.1l1.8,24c0,0,0.3,5.3,7.6,0.8c7.1-4.5,10.5-5,10.8-5c-0.5-8.7-1.6-21.1-1.6-21.1L135.4,237.1z"/>
		
			<linearGradient id="SVGID_32_" gradientUnits="userSpaceOnUse" x1="-1819.0198" y1="-194.8296" x2="-1800.2992" y2="-194.8296" gradientTransform="matrix(-0.9781 0.2079 -0.2079 -0.9781 -1648.927 433.0836)">
			<stop  offset="0" style="stop-color:#FF4105"/>
			<stop  offset="0.6813" style="stop-color:#FF6D40"/>
			<stop  offset="1" style="stop-color:#FF4105"/>
		</linearGradient>
		<path class="st32" d="M149.7,236.3l5.3,23.4c0,0,1.1,5,7.6-0.3c6.6-5.3,9.7-6.3,10-6.3c-1.8-8.4-4.5-20.5-4.5-20.5L149.7,236.3z"
			/>
		
			<linearGradient id="SVGID_33_" gradientUnits="userSpaceOnUse" x1="-1711.6777" y1="-314.867" x2="-1692.9579" y2="-314.867" gradientTransform="matrix(-0.9397 0.342 -0.342 -0.9397 -1530.4462 529.1021)">
			<stop  offset="0" style="stop-color:#FF4105"/>
			<stop  offset="0.6813" style="stop-color:#FF6D40"/>
			<stop  offset="1" style="stop-color:#FF4105"/>
		</linearGradient>
		<path class="st33" d="M163.6,233.4l8.4,22.4c0,0,1.8,5,7.6-1.3s8.7-7.6,9-7.6c-2.9-8.2-7.4-19.8-7.4-19.8L163.6,233.4z"/>
		
			<linearGradient id="SVGID_34_" gradientUnits="userSpaceOnUse" x1="-1588.8042" y1="-417.438" x2="-1570.1016" y2="-417.438" gradientTransform="matrix(-0.8829 0.4695 -0.4695 -0.8829 -1399.1217 608.9792)">
			<stop  offset="0" style="stop-color:#FF4105"/>
			<stop  offset="0.6813" style="stop-color:#FF6D40"/>
			<stop  offset="1" style="stop-color:#FF4105"/>
		</linearGradient>
		<path class="st34" d="M176.8,228.6l11.3,21.1c0,0,2.4,4.5,7.4-2.4c4.7-6.8,7.6-8.7,7.6-9c-4-7.6-10-18.4-10-18.4L176.8,228.6z"/>
		
			<linearGradient id="SVGID_35_" gradientUnits="userSpaceOnUse" x1="-1452.4468" y1="-502.9726" x2="-1433.7291" y2="-502.9726" gradientTransform="matrix(-0.809 0.5878 -0.5878 -0.809 -1258.3851 668.6172)">
			<stop  offset="0" style="stop-color:#FF4105"/>
			<stop  offset="0.6813" style="stop-color:#FF6D40"/>
			<stop  offset="1" style="stop-color:#FF4105"/>
		</linearGradient>
		<path class="st35" d="M189.4,222.1l14.2,19.2c0,0,3.2,4.2,6.8-3.4c4-7.6,6.3-9.7,6.3-10c-5-7.1-12.6-16.9-12.6-16.9L189.4,222.1z"
			/>
		
			<linearGradient id="SVGID_36_" gradientUnits="userSpaceOnUse" x1="-1305.8374" y1="-568.5098" x2="-1287.1213" y2="-568.5098" gradientTransform="matrix(-0.7193 0.6947 -0.6947 -0.7193 -1110.4908 708.8317)">
			<stop  offset="0" style="stop-color:#FF4105"/>
			<stop  offset="0.6813" style="stop-color:#FF6D40"/>
			<stop  offset="1" style="stop-color:#FF4105"/>
		</linearGradient>
		<path class="st36" d="M201,213.9l16.9,17.1c0,0,3.7,3.7,6.3-4.2c2.6-7.9,4.7-10.5,5-10.8c-6.1-6.3-14.8-15-14.8-15L201,213.9z"/>
		
			<linearGradient id="SVGID_37_" gradientUnits="userSpaceOnUse" x1="-1150.7188" y1="-613.7278" x2="-1131.9985" y2="-613.7278" gradientTransform="matrix(-0.6157 0.788 -0.788 -0.6157 -958.8184 726.5941)">
			<stop  offset="0" style="stop-color:#FF4105"/>
			<stop  offset="0.6813" style="stop-color:#FF6D40"/>
			<stop  offset="1" style="stop-color:#FF4105"/>
		</linearGradient>
		<path class="st37" d="M211.3,204.1l19,14.5c0,0,4.2,3.2,5.8-5c1.6-8.4,3.4-11.1,3.4-11.3c-6.8-5.3-16.6-12.9-16.6-12.9
			L211.3,204.1z"/>
		
			<linearGradient id="SVGID_38_" gradientUnits="userSpaceOnUse" x1="-991.3264" y1="-635.6685" x2="-972.6066" y2="-635.6685" gradientTransform="matrix(-0.5 0.866 -0.866 -0.5 -805.2262 724.2442)">
			<stop  offset="0" style="stop-color:#FF4105"/>
			<stop  offset="0.6813" style="stop-color:#FF6D40"/>
			<stop  offset="1" style="stop-color:#FF4105"/>
		</linearGradient>
		<path class="st38" d="M220,193.1l20.8,11.9c0,0,4.5,2.6,5-5.8c0.5-8.4,1.8-11.6,1.8-11.6c-7.6-4.2-18.4-10.3-18.4-10.3L220,193.1z
			"/>
		
			<linearGradient id="SVGID_39_" gradientUnits="userSpaceOnUse" x1="-830.9415" y1="-635.9523" x2="-812.2234" y2="-635.9523" gradientTransform="matrix(-0.3746 0.9272 -0.9272 -0.3746 -654.189 700.8767)">
			<stop  offset="0" style="stop-color:#FF4105"/>
			<stop  offset="0.6813" style="stop-color:#FF6D40"/>
			<stop  offset="1" style="stop-color:#FF4105"/>
		</linearGradient>
		<path class="st39" d="M227.4,181l22.4,8.7c0,0,4.7,1.8,4-6.6c-0.8-8.4,0-11.6,0.3-11.9c-8.2-3.2-19.5-7.6-19.5-7.6L227.4,181z"/>
		
			<linearGradient id="SVGID_40_" gradientUnits="userSpaceOnUse" x1="-672.3991" y1="-613.1094" x2="-652.8958" y2="-613.1094" gradientTransform="matrix(-0.2419 0.9703 -0.9703 -0.2419 -507.4529 656.2661)">
			<stop  offset="0" style="stop-color:#FF4105"/>
			<stop  offset="0.6813" style="stop-color:#FF6D40"/>
			<stop  offset="1" style="stop-color:#FF4105"/>
		</linearGradient>
		<path class="st40" d="M232.6,167.8l23.2,5.5c0,0,5,1.3,3.2-6.8s-1.6-12.4-1.6-12.6c-9.2-0.8-21.1-2.1-21.1-2.1L232.6,167.8z"/>
		
			<linearGradient id="SVGID_41_" gradientUnits="userSpaceOnUse" x1="-232.9554" y1="-419.0554" x2="-214.2345" y2="-419.0554" gradientTransform="matrix(0.1736 0.9848 -0.9848 0.1736 -124.901 407.4307)">
			<stop  offset="0" style="stop-color:#FF4105"/>
			<stop  offset="0.6813" style="stop-color:#FF6D40"/>
			<stop  offset="1" style="stop-color:#FF4105"/>
		</linearGradient>
		<path class="st41" d="M237.7,125.9l23.4-4.2c0,0,5-0.8,0-7.6c-5-6.8-6.1-10-6.1-10c-8.4,1.6-20.8,4-20.8,4L237.7,125.9z"/>
		
			<linearGradient id="SVGID_42_" gradientUnits="userSpaceOnUse" x1="-110.2702" y1="-316.1489" x2="-91.5496" y2="-316.1489" gradientTransform="matrix(0.309 0.9511 -0.9511 0.309 -24.4022 292.6559)">
			<stop  offset="0" style="stop-color:#FF4105"/>
			<stop  offset="0.6813" style="stop-color:#FF6D40"/>
			<stop  offset="1" style="stop-color:#FF4105"/>
		</linearGradient>
		<path class="st42" d="M235.3,111.9l22.7-7.6c0,0,5-1.6-1.1-7.6c-6.1-6.1-7.4-9-7.4-9.2c-8.2,2.6-20,6.6-20,6.6L235.3,111.9z"/>
		
			<linearGradient id="SVGID_43_" gradientUnits="userSpaceOnUse" x1="-2.8092" y1="-195.9385" x2="15.9112" y2="-195.9385" gradientTransform="matrix(0.4384 0.8988 -0.8988 0.4384 59.8488 164.3081)">
			<stop  offset="0" style="stop-color:#FF4105"/>
			<stop  offset="0.6813" style="stop-color:#FF6D40"/>
			<stop  offset="1" style="stop-color:#FF4105"/>
		</linearGradient>
		<path class="st43" d="M231.1,98.5L252.4,88c0,0,4.7-2.4-2.1-7.4c-6.8-5-8.4-7.9-8.7-7.9c-7.9,3.7-18.7,9.5-18.7,9.5L231.1,98.5z"
			/>
		
			<linearGradient id="SVGID_44_" gradientUnits="userSpaceOnUse" x1="87.5696" y1="-62.2897" x2="106.2894" y2="-62.2897" gradientTransform="matrix(0.5592 0.829 -0.829 0.5592 124.8547 25.0168)">
			<stop  offset="0" style="stop-color:#FF4105"/>
			<stop  offset="0.6813" style="stop-color:#FF6D40"/>
			<stop  offset="1" style="stop-color:#FF4105"/>
		</linearGradient>
		<path class="st44" d="M225,85.9l19.8-13.4c0,0,4.2-2.9-3.2-7.1c-7.4-4-9.5-6.6-9.7-6.8c-7.1,4.7-17.4,11.9-17.4,11.9L225,85.9z"/>
		
			<linearGradient id="SVGID_45_" gradientUnits="userSpaceOnUse" x1="158.5685" y1="82.2909" x2="177.2908" y2="82.2909" gradientTransform="matrix(0.6691 0.7431 -0.7431 0.6691 169.5027 -121.7439)">
			<stop  offset="0" style="stop-color:#FF4105"/>
			<stop  offset="0.6813" style="stop-color:#FF6D40"/>
			<stop  offset="1" style="stop-color:#FF4105"/>
		</linearGradient>
		<path class="st45" d="M217.1,74L234.8,58c0,0,4-3.4-4-6.6c-7.9-2.9-10.3-5.3-10.5-5.3c-6.6,5.8-15.5,14.2-15.5,14.2L217.1,74z"/>
		
			<linearGradient id="SVGID_46_" gradientUnits="userSpaceOnUse" x1="208.4523" y1="234.4942" x2="227.1727" y2="234.4942" gradientTransform="matrix(0.766 0.6428 -0.6428 0.766 193.0678 -272.5678)">
			<stop  offset="0" style="stop-color:#FF4105"/>
			<stop  offset="0.6813" style="stop-color:#FF6D40"/>
			<stop  offset="1" style="stop-color:#FF4105"/>
		</linearGradient>
		<path class="st46" d="M207.9,63.2l15.3-18.4c0,0,3.4-4-5-5.8c-8.2-1.8-11.1-3.7-11.1-3.7c-5.5,6.6-13.4,16.3-13.4,16.3L207.9,63.2
			z"/>
		
			<linearGradient id="SVGID_47_" gradientUnits="userSpaceOnUse" x1="236.4783" y1="393.4381" x2="255.199" y2="393.4381" gradientTransform="matrix(0.848 0.5299 -0.5299 0.848 196.1124 -426.0079)">
			<stop  offset="0" style="stop-color:#FF4105"/>
			<stop  offset="0.6813" style="stop-color:#FF6D40"/>
			<stop  offset="1" style="stop-color:#FF4105"/>
		</linearGradient>
		<path class="st47" d="M197.1,54l12.6-20.3c0,0,2.6-4.5-5.8-5c-8.4-0.8-11.3-2.1-11.6-2.1c-4.5,7.4-11.1,17.9-11.1,17.9L197.1,54z"
			/>
		
			<linearGradient id="SVGID_48_" gradientUnits="userSpaceOnUse" x1="242.0372" y1="554.7186" x2="260.7587" y2="554.7186" gradientTransform="matrix(0.9135 0.4067 -0.4067 0.9135 177.7679 -578.1757)">
			<stop  offset="0" style="stop-color:#FF4105"/>
			<stop  offset="0.6813" style="stop-color:#FF6D40"/>
			<stop  offset="1" style="stop-color:#FF4105"/>
		</linearGradient>
		<path class="st48" d="M185,46.6l9.5-21.9c0,0,2.1-4.7-6.3-4.2c-8.4,0.5-11.6-0.5-11.9-0.5c-3.4,7.9-8.4,19.2-8.4,19.2L185,46.6z"
			/>
		
			<linearGradient id="SVGID_49_" gradientUnits="userSpaceOnUse" x1="225.6796" y1="713.8346" x2="242.9812" y2="713.8346" gradientTransform="matrix(0.9613 0.2756 -0.2756 0.9613 139.0565 -725.5261)">
			<stop  offset="0" style="stop-color:#FF4105"/>
			<stop  offset="0.6813" style="stop-color:#FF6D40"/>
			<stop  offset="1" style="stop-color:#FF4105"/>
		</linearGradient>
		<path class="st49" d="M172.3,40.6l6.3-23.2c0,0,1.3-5-6.8-3.4c-8.4,1.6-10,1.3-10.3,1.1c-2.4,8.4-5.3,20.8-5.3,20.8L172.3,40.6z"
			/>
	</g>
	<g>
		<circle class="st50" cx="136.2" cy="135.1" r="101.4"/>
		<g>
			<path class="st51" d="M238.2,114.8c1.3,6.6,1.8,13.4,2.1,20.3h-5c-0.3-6.6-0.8-12.9-1.8-19.2L238.2,114.8z"/>
			<path class="st52" d="M234,120.1l5.8,4.2l0.3,3.2c-1.8-1.6-3.4-3.2-5.5-4.5L234,120.1z M234.8,126.7l5.3,4.7l0.3,3.2l-5.3-4.7
				L234.8,126.7z M235,133l2.4,2.4H235V133z M233.4,115.9l2.1-0.5l3.2,2.4l0.5,3.2l-5.8-4.2V115.9z"/>
		</g>
		<g>
			<path class="st51" d="M232.4,95.4c2.6,6.3,4.5,12.9,5.8,19.5l-5,1.1c-1.3-6.3-3.2-12.6-5.5-18.4L232.4,95.4z"/>
			<path class="st52" d="M229.2,101.4c2.1,1.1,4.2,1.8,6.3,3.2l0.8,3.2c-2.1-1.3-4-2.4-6.3-3.4L229.2,101.4z M231.3,107.5l6.1,3.4
				l0.8,3.2l-6.1-3.7L231.3,107.5z M232.9,113.8c1.1,0.5,1.8,1.1,2.9,1.8l-2.4,0.5C233.2,115.1,232.9,114.6,232.9,113.8z
				 M227.6,97.5l2.1-0.8l3.7,1.6l1.1,2.9l-6.3-2.9L227.6,97.5z"/>
		</g>
		<g>
			<path class="st51" d="M222.6,77.4c3.7,5.8,6.8,11.6,9.5,17.9l-4.7,1.8c-2.6-6.1-5.5-11.6-9.2-17.1L222.6,77.4z"/>
			<path class="st52" d="M220.8,84l6.8,1.8l1.3,2.9c-2.4-0.8-4.5-1.6-6.8-2.1L220.8,84z M224,89.6l6.6,2.4l1.3,2.9l-6.8-2.4
				L224,89.6z M226.9,95.4l3.2,1.1l-2.1,0.8L226.9,95.4z M218.4,80.3l1.8-1.3l4,0.8l1.6,2.6l-6.8-1.3L218.4,80.3z"/>
		</g>
		<g>
			<path class="st51" d="M209.7,61.6c4.7,5,9,10,12.9,15.8l-4.2,2.9c-3.7-5.3-7.9-10.3-12.4-15L209.7,61.6z"/>
			<path class="st52" d="M209.2,68.5l7.1,0.3l1.8,2.6c-2.4-0.3-4.7-0.5-7.1-0.8L209.2,68.5z M213.4,73.2l6.8,1.1l1.8,2.6l-7.1-1.1
				L213.4,73.2z M217.4,78.5l3.2,0.5l-1.8,1.3L217.4,78.5z M206.3,65.3l1.6-1.6h4l2.1,2.4l-7.1-0.3L206.3,65.3z"/>
		</g>
		<g>
			<path class="st51" d="M193.9,48.7c5.5,4,10.8,8.2,15.8,12.9l-3.4,3.4c-4.7-4.5-9.7-8.7-15-12.4L193.9,48.7z"/>
			<path class="st52" d="M194.7,55.6l7.1-1.1c0.8,0.5,1.6,1.3,2.4,2.1c-2.4,0-4.7,0.3-7.1,0.8L194.7,55.6z M199.7,59.5l7.1-0.5
				l2.4,2.1l-7.1,0.3L199.7,59.5z M204.5,63.7h3.4l-1.6,1.6L204.5,63.7z M191.3,52.9l1.3-1.8l4-0.8l2.6,1.8l-6.8,1.1L191.3,52.9z"/>
		</g>
		<g>
			<path class="st51" d="M176,39.2c6.3,2.6,12.4,5.8,17.9,9.5l-2.9,4.2c-5.5-3.4-11.1-6.6-17.1-9.2L176,39.2z"/>
			<path class="st52" d="M178.1,45.6l6.8-2.4c1.1,0.5,1.8,1.1,2.9,1.6c-2.4,0.5-4.5,1.3-6.8,2.1L178.1,45.6z M183.9,48.5l6.8-1.8
				l2.6,1.6l-6.8,1.6L183.9,48.5z M189.4,51.9l3.2-0.8l-1.3,1.8L189.4,51.9z M174.2,43.7l0.8-2.1c1.3-0.5,2.4-1.1,3.7-1.3l2.9,1.3
				L175,44L174.2,43.7z"/>
		</g>
		<g>
			<path class="st51" d="M156.5,33.2c6.6,1.3,13.2,3.4,19.5,5.8l-1.8,4.7c-6.1-2.4-12.1-4.2-18.4-5.5L156.5,33.2z"/>
			<path class="st52" d="M159.7,39.2l6.1-3.7c1.1,0.3,2.1,0.5,2.9,1.1c-2.1,1.1-4.2,2.1-6.3,3.4L159.7,39.2z M166,40.8l6.3-3.2
				l2.9,1.1l-6.3,2.9L166,40.8z M172.1,42.9l2.9-1.3l-0.8,2.1L172.1,42.9z M155.5,38.2l0.5-2.1c1.1-0.8,2.1-1.3,3.4-2.1l3.2,0.8
				l-6.1,3.7L155.5,38.2z"/>
		</g>
		<g>
			<path class="st51" d="M136.2,31.3c6.8,0.3,13.7,0.8,20.3,2.1l-1.1,5c-6.3-1.3-12.9-1.8-19.2-1.8
				C136.2,36.6,136.2,31.3,136.2,31.3z"/>
			<path class="st52" d="M140.7,36.6l5.3-4.7c1.1,0,2.1,0.3,3.2,0.3c-1.8,1.3-3.7,2.9-5.5,4.5L140.7,36.6z M147,36.9l5.5-4.2
				l3.2,0.5l-5.8,4.2L147,36.9z M153.4,37.9l2.6-1.8l-0.5,2.4L153.4,37.9z M136.2,36.4v-2.1l2.9-2.6l3.2,0.3l-5,4.5H136.2z"/>
		</g>
		<g>
			<path class="st51" d="M116,33.2c6.6-1.3,13.4-1.8,20.3-2.1v5.3c-6.6,0.3-12.9,0.8-19.2,1.8L116,33.2z"/>
			<path class="st52" d="M121.2,37.4l4.2-5.8l3.2-0.3c-1.6,1.8-3.2,3.4-4.5,5.5L121.2,37.4z M127.5,36.6l4.7-5.3l3.2-0.3l-4.7,5.3
				L127.5,36.6z M134.1,36.4l2.4-2.4v2.4H134.1z M117,38.2l-0.5-2.1l2.4-3.2l3.2-0.5l-4.2,5.8H117z"/>
		</g>
		<g>
			<path class="st51" d="M96.5,39.2c6.3-2.6,12.9-4.5,19.5-5.8l1.1,5c-6.3,1.3-12.6,3.2-18.4,5.5L96.5,39.2z"/>
			<path class="st52" d="M102.5,42.4c1.1-2.1,1.8-4.2,3.2-6.3l3.2-0.8c-1.3,2.1-2.4,4-3.4,6.3L102.5,42.4z M108.6,40.3l3.4-6.1
				l3.2-0.8l-3.7,6.1L108.6,40.3z M114.6,38.7c0.5-1.1,1.1-1.8,1.8-2.9l0.5,2.4C116.2,38.2,115.4,38.5,114.6,38.7z M98.3,43.7
				l-0.8-2.1l1.6-3.7l2.9-1.1l-2.9,6.3L98.3,43.7z"/>
		</g>
		<g>
			<path class="st51" d="M78.5,48.7c5.8-3.7,11.6-6.8,17.9-9.5l1.8,4.7c-6.1,2.6-11.6,5.5-17.1,9.2L78.5,48.7z"/>
			<path class="st52" d="M84.9,50.6l1.8-6.8l2.9-1.3c-0.8,2.1-1.6,4.5-2.1,6.8L84.9,50.6z M90.7,47.4l2.4-6.6l2.9-1.3l-2.4,6.8
				L90.7,47.4z M96.5,44.8l1.1-3.2l0.8,2.1L96.5,44.8z M81.2,52.9l-1.3-1.8l0.8-4l2.6-1.6L82,52.4L81.2,52.9z"/>
		</g>
		<g>
			<path class="st51" d="M62.7,61.6c5-4.7,10-9,15.8-12.9l2.9,4.2c-5.3,3.7-10.3,7.9-15,12.4L62.7,61.6z"/>
			<path class="st52" d="M69.6,62.4l0.3-7.1l2.6-1.8c-0.3,2.4-0.5,4.7-0.8,7.1L69.6,62.4z M74.3,58.2l1.1-6.8l2.6-1.8l-1.3,6.8
				L74.3,58.2z M79.3,54.3l0.5-3.2l1.3,1.8L79.3,54.3z M66.2,65.3l-1.6-1.6v-4l2.4-2.1l-0.3,7.1L66.2,65.3z"/>
		</g>
		<g>
			<path class="st51" d="M49.8,77.4c4-5.5,8.2-10.8,12.9-15.8l3.4,3.7c-4.5,4.7-8.7,9.7-12.4,15L49.8,77.4z"/>
			<path class="st52" d="M56.4,76.7l-0.8-6.8c0.5-0.8,1.3-1.6,2.1-2.4c0,2.4,0.3,4.7,0.8,7.1L56.4,76.7z M60.4,71.6l-0.5-7.1
				l2.1-2.4l0.3,7.1L60.4,71.6z M64.9,66.9v-3.4l1.3,1.8L64.9,66.9z M54.1,80.3L52.2,79l-0.8-4l1.8-2.6l1.1,6.8L54.1,80.3z"/>
		</g>
		<g>
			<path class="st51" d="M40.1,95.4c2.6-6.3,5.8-12.4,9.5-17.9l4.2,2.9c-3.4,5.5-6.6,11.1-9.2,17.1L40.1,95.4z"/>
			<path class="st52" d="M46.7,93.5l-2.4-6.8c0.5-1.1,1.1-1.8,1.6-2.9c0.5,2.4,1.3,4.5,2.1,6.8L46.7,93.5z M49.6,87.7l-1.8-6.8
				l1.6-2.6l1.6,6.8L49.6,87.7z M52.7,82.2L51.9,79l1.8,1.3L52.7,82.2z M44.8,97.5l-2.1-0.8c-0.5-1.3-1.1-2.4-1.3-3.7l1.3-2.9
				l2.4,6.6L44.8,97.5z"/>
		</g>
		<g>
			<path class="st51" d="M34.3,114.8c1.3-6.6,3.4-13.2,5.8-19.5l4.7,1.8c-2.4,6.1-4.2,12.1-5.5,18.4L34.3,114.8z"/>
			<path class="st52" d="M40.4,111.7l-3.7-6.1c0.3-1.1,0.5-2.1,1.1-2.9c1.1,2.1,2.1,4.2,3.4,6.3L40.4,111.7z M41.9,105.6l-3.2-6.3
				l1.1-2.9l2.9,6.3L41.9,105.6z M44,99.6l-1.3-2.9l2.1,0.8L44,99.6z M39.3,115.9l-2.1-0.5c-0.8-1.1-1.3-2.1-2.1-3.4l0.8-3.2
				l3.7,6.1L39.3,115.9z"/>
		</g>
		<g>
			<path class="st51" d="M32.2,135.1c0.3-6.8,0.8-13.7,2.1-20.3l5,1.1c-1.3,6.3-1.8,12.9-1.8,19.2H32.2z"/>
			<path class="st52" d="M37.5,130.9l-4.7-5.3c0-1.1,0.3-2.1,0.3-3.2c1.3,1.8,2.9,3.7,4.5,5.5V130.9z M38,124.6l-4.2-5.5l0.5-3.2
				l4.2,5.8L38,124.6z M38.8,118.3l-1.8-2.6l2.4,0.5L38.8,118.3z M37.2,135.1h-2.1l-2.6-2.9l0.3-3.2l4.7,5.3L37.2,135.1z"/>
		</g>
		<g>
			<path class="st51" d="M34.3,155.4c-1.3-6.6-1.8-13.4-2.1-20.3h5c0.3,6.6,0.8,12.9,1.8,19.2L34.3,155.4z"/>
			<path class="st52" d="M38.5,150.1l-5.8-4.2l-0.3-3.2c1.8,1.6,3.4,3.2,5.5,4.5L38.5,150.1z M37.7,143.8l-5.3-4.7l-0.3-3.2l5.3,4.7
				L37.7,143.8z M37.5,137.5l-2.4-2.4h2.1L37.5,137.5z M39.3,154.6l-2.1,0.3l-3.2-2.4l-0.8-2.9l5.8,4.2L39.3,154.6z"/>
		</g>
		<g>
			<path class="st51" d="M40.1,174.9c-2.6-6.3-4.5-12.9-5.8-19.5l5-1.1c1.3,6.3,3.2,12.6,5.5,18.4L40.1,174.9z"/>
			<path class="st52" d="M43.3,169.1c-2.1-1.1-4.2-1.8-6.3-3.2l-0.8-3.2c2.1,1.3,4,2.4,6.3,3.4L43.3,169.1z M41.4,163.1l-6.1-3.4
				l-0.8-3.2l6.1,3.7L41.4,163.1z M39.8,156.7c-1.1-0.5-1.8-1.1-2.9-1.8l2.4-0.5C39.3,155.4,39.6,155.9,39.8,156.7z M44.8,173.1
				l-2.1,0.8l-3.7-1.6l-1.1-2.9l6.3,2.9L44.8,173.1z"/>
		</g>
		<g>
			<path class="st51" d="M49.8,193.1c-3.7-5.8-6.8-11.6-9.5-17.9l4.7-1.8c2.6,6.1,5.5,11.6,9.2,17.1L49.8,193.1z"/>
			<path class="st52" d="M51.7,186.5l-6.8-1.8l-1.3-2.9c2.1,0.8,4.5,1.6,6.8,2.1L51.7,186.5z M48.5,181l-6.6-2.4l-1.3-2.9l6.8,2.4
				L48.5,181z M45.6,175.2l-3.2-1.1l2.1-0.8L45.6,175.2z M54.1,190.2l-1.8,1.3l-4-0.8l-1.6-2.6l6.8,1.6L54.1,190.2z"/>
		</g>
		<g>
			<path class="st51" d="M62.7,208.9c-4.7-5-9-10-12.9-15.8l4.2-2.9c3.7,5.3,7.9,10.3,12.4,15L62.7,208.9z"/>
			<path class="st52" d="M63.3,202l-7.1-0.3l-1.8-2.6c2.4,0.3,4.7,0.5,7.1,0.8L63.3,202z M59.1,197.3l-6.8-1.1l-1.8-2.6l7.1,1.1
				L59.1,197.3z M55.4,192l-3.2-0.5l1.8-1.3L55.4,192z M66.2,205.2l-1.6,1.6h-4l-2.1-2.4l7.1,0.3L66.2,205.2z"/>
		</g>
		<g>
			<path class="st51" d="M78.5,221.8c-5.5-4-10.8-8.2-15.8-12.9l3.4-3.4c4.7,4.5,9.7,8.7,15,12.4L78.5,221.8z"/>
			<path class="st52" d="M77.8,214.9l-7.1,1.1c-0.8-0.5-1.6-1.3-2.4-2.1c2.4,0,4.7-0.3,7.1-0.8L77.8,214.9z M72.8,211l-7.1,0.5
				l-2.4-2.1l7.1-0.3L72.8,211z M68,206.8l-3.4,0.3l1.6-1.6L68,206.8z M81.2,217.6l-1.3,1.8l-4,0.8l-2.6-1.8l6.8-1.1L81.2,217.6z"/>
		</g>
		<g>
			<path class="st51" d="M96.5,231.3c-6.3-2.6-12.4-5.8-17.9-9.5l2.9-4.2c5.5,3.4,11.1,6.6,17.1,9.2L96.5,231.3z"/>
			<path class="st52" d="M94.4,225l-6.8,2.4c-1.1-0.5-1.8-1.1-2.9-1.6c2.4-0.5,4.5-1.3,6.8-2.1L94.4,225z M88.8,222.1l-6.8,1.8
				l-2.6-1.6l6.8-1.6L88.8,222.1z M83.3,218.6l-3.2,0.8l1.3-1.8L83.3,218.6z M98.3,226.8l-0.8,2.1c-1.3,0.5-2.4,1.1-3.7,1.3
				l-2.9-1.3l6.6-2.4L98.3,226.8z"/>
		</g>
		<g>
			<path class="st51" d="M116,237.3c-6.6-1.3-13.2-3.4-19.5-5.8l1.8-4.7c6.1,2.4,12.1,4.2,18.4,5.5L116,237.3z"/>
			<path class="st52" d="M112.8,231.3l-6.1,3.7c-1.1-0.3-2.1-0.5-2.9-1.1c2.1-1.1,4.2-2.1,6.3-3.4L112.8,231.3z M106.5,229.7
				l-6.3,3.2l-2.9-1.1l6.3-2.9L106.5,229.7z M100.4,227.3l-2.9,1.3l0.8-2.1L100.4,227.3z M117,232.3l-0.5,2.1
				c-1.1,0.8-2.1,1.3-3.4,2.1l-3.2-0.8l6.1-3.7L117,232.3z"/>
		</g>
		<g>
			<path class="st51" d="M136.2,239.2c-6.8-0.3-13.7-0.8-20.3-2.1l1.1-5c6.3,1.3,12.9,1.8,19.2,1.8
				C136.2,233.9,136.2,239.2,136.2,239.2z"/>
			<path class="st52" d="M132,233.9l-5.3,4.7c-1.1,0-2.1-0.3-3.2-0.3c1.8-1.3,3.7-2.9,5.5-4.5L132,233.9z M125.4,233.6l-5.5,4.2
				l-3.2-0.5l5.8-4.2L125.4,233.6z M119.1,232.6l-2.6,1.8l0.5-2.4L119.1,232.6z M136.2,234.2v2.1l-2.9,2.6l-3.2-0.3l5.3-4.7
				L136.2,234.2z"/>
		</g>
		<g>
			<path class="st51" d="M156.5,237.3c-6.6,1.3-13.4,1.8-20.3,2.1v-5c6.6-0.3,12.9-0.8,19.2-1.8L156.5,237.3z"/>
			<path class="st52" d="M151.3,232.9l-4.2,5.8l-3.2,0.3c1.6-1.8,3.2-3.4,4.5-5.5L151.3,232.9z M144.9,233.6l-4.7,5.3l-3.2,0.3
				l4.7-5.3L144.9,233.6z M138.6,234.2l-2.4,2.4v-2.4H138.6z M155.5,232.3l0.5,2.1l-2.4,3.2l-3.2,0.5l4.2-5.8H155.5z"/>
		</g>
		<g>
			<path class="st51" d="M176,231.3c-6.3,2.6-12.9,4.5-19.5,5.8l-1.1-5c6.3-1.3,12.6-3.2,18.4-5.5L176,231.3z"/>
			<path class="st52" d="M170,228.1c-1.1,2.1-1.8,4.2-3.2,6.3l-3.2,0.8c1.3-2.1,2.4-4,3.4-6.3L170,228.1z M163.9,230.2l-3.4,6.1
				l-3.2,0.8l3.7-6.1L163.9,230.2z M157.8,231.8c-0.5,1.1-1.1,1.8-1.8,2.9l-0.5-2.4C156.3,232.3,157,232.1,157.8,231.8z
				 M174.2,226.8l0.8,2.1l-1.6,3.7l-2.9,1.1l2.9-6.3L174.2,226.8z"/>
		</g>
		<g>
			<path class="st51" d="M193.9,221.8c-5.8,3.7-11.6,6.8-17.9,9.5l-1.8-4.7c6.1-2.6,11.6-5.5,17.1-9.2L193.9,221.8z"/>
			<path class="st52" d="M187.6,219.7l-1.8,6.8l-2.9,1.3c0.8-2.1,1.6-4.5,2.1-6.8L187.6,219.7z M182.1,222.8l-2.4,6.6l-2.9,1.3
				l2.4-6.8L182.1,222.8z M176.3,225.7l-1.1,3.2l-0.8-2.1L176.3,225.7z M191.3,217.6l1.3,1.8l-0.8,4l-2.6,1.6l1.6-6.8L191.3,217.6z"
				/>
		</g>
		<g>
			<path class="st51" d="M209.7,208.9c-5,4.7-10,9-15.8,12.9l-2.9-4.2c5.3-3.7,10.3-7.9,15-12.4L209.7,208.9z"/>
			<path class="st52" d="M203.1,208.1l-0.3,7.1l-2.6,1.8c0.3-2.4,0.5-4.7,0.8-7.1L203.1,208.1z M198.1,212.3l-1.1,6.8l-2.6,1.8
				l1.1-7.1L198.1,212.3z M193.1,216.3l-0.5,3.2l-1.3-1.8L193.1,216.3z M206.3,205.2l1.6,1.6v4l-2.4,2.1l0.3-7.1L206.3,205.2z"/>
		</g>
		<g>
			<path class="st51" d="M222.6,193.1c-4,5.5-8.2,10.8-12.9,15.8l-3.4-3.4c4.5-4.7,8.7-9.7,12.4-15L222.6,193.1z"/>
			<path class="st52" d="M216.1,193.6l1.1,7.1c-0.5,0.8-1.3,1.6-2.1,2.4c0-2.4-0.3-4.7-0.8-7.1L216.1,193.6z M212.1,198.9l0.5,7.1
				l-2.1,2.4l-0.3-7.1L212.1,198.9z M207.9,203.6v3.4l-1.6-1.6L207.9,203.6z M218.4,190.2l1.8,1.3l0.8,4l-1.8,2.6l-1.1-6.8
				L218.4,190.2z"/>
		</g>
		<g>
			<path class="st51" d="M232.4,174.9c-2.6,6.3-5.8,12.4-9.5,17.9l-4.2-2.9c3.4-5.5,6.6-11.1,9.2-17.1L232.4,174.9z"/>
			<path class="st52" d="M225.8,177l2.4,6.8c-0.5,1.1-1.1,1.8-1.6,2.9c-0.5-2.4-1.3-4.5-2.1-6.8L225.8,177z M223.2,182.8l1.8,6.8
				l-1.6,2.6l-1.6-6.8L223.2,182.8z M219.7,188.3l0.8,3.2l-1.8-1.3L219.7,188.3z M227.6,173.1l2.1,0.8c0.5,1.3,1.1,2.4,1.3,3.7
				l-1.3,2.9l-2.4-6.6L227.6,173.1z"/>
		</g>
		<g>
			<path class="st51" d="M238.2,155.4c-1.3,6.6-3.4,13.2-5.8,19.5l-4.7-1.8c2.4-6.1,4.2-12.1,5.5-18.4L238.2,155.4z"/>
			<path class="st52" d="M232.4,158.8l3.7,6.1c-0.3,1.1-0.5,2.1-1.1,2.9c-1.1-2.1-2.1-4.2-3.4-6.3L232.4,158.8z M230.8,164.9
				l3.2,6.3l-1.1,2.9l-2.9-6.3L230.8,164.9z M228.4,171l1.3,2.9l-2.1-0.8L228.4,171z M233.4,154.6l2.1,0.5c0.8,1.1,1.3,2.1,2.1,3.4
				l-0.8,3.2l-3.7-6.1L233.4,154.6z"/>
		</g>
		<g>
			<path class="st51" d="M240.3,135.1c-0.3,6.8-0.8,13.7-2.1,20.3l-5-1.1c1.3-6.3,1.8-12.9,1.8-19.2
				C235,135.1,240.3,135.1,240.3,135.1z"/>
			<path class="st52" d="M235,139.6l4.7,5.3c0,1.1-0.3,2.1-0.3,3.2c-1.3-1.8-2.9-3.7-4.5-5.5V139.6z M234.8,145.9l4.2,5.5l-0.5,3.2
				l-4.2-5.8L234.8,145.9z M233.7,152.3l1.8,2.6l-2.4-0.5L233.7,152.3z M235.3,135.1h2.1l2.6,2.9l-0.3,3.2l-4.7-5.3L235.3,135.1z"/>
		</g>
	</g>
	<g>
		<path class="st53" d="M75.1,207.3c40,33.7,99.6,28.7,133.3-11.3s28.7-99.6-11.3-133.3S97.5,34,63.8,74S35.1,173.6,75.1,207.3z"/>
		<path class="st54" d="M75.9,204.9c39.2,33.2,98.3,28.2,131.4-11.1s28.2-98.3-11.1-131.4S98,34.2,64.9,73.5
			C31.7,113,36.7,171.7,75.9,204.9z"/>
		<path class="st55" d="M76.7,202.8c38.7,32.7,96.7,27.9,129.6-11.1C239,153,234.2,95.1,195.2,62.2C156.5,29.5,98.6,34.5,65.9,73.2
			C33,111.9,38,169.9,76.7,202.8z"/>
		<path class="st56" d="M77.5,200.5c38.2,32.1,95.4,27.4,127.5-10.8s27.4-95.4-10.8-127.5S98.8,34.8,66.7,73S39.3,168.1,77.5,200.5z
			"/>
		<path class="st57" d="M78.3,198.1C116,230,172.1,225,203.9,187.5c31.9-37.7,26.9-93.8-10.5-125.6C155.7,30,99.6,35,67.8,72.4
			C36.1,110.1,40.9,166.2,78.3,198.1z"/>
		<path class="st58" d="M79.3,195.7c37.1,31.3,92.5,26.6,123.5-10.5c31.3-37.1,26.6-92.5-10.5-123.5C155.2,30.3,99.9,35,68.8,72.2
			C37.5,109.1,42.2,164.4,79.3,195.7z"/>
		<path class="st59" d="M80.1,193.3c36.4,30.8,90.9,26.1,121.7-10.3s26.1-90.9-10.3-121.7S100.7,35.3,69.9,71.6
			C39,108.3,43.5,162.5,80.1,193.3z"/>
		<path class="st60" d="M80.9,191c35.8,30.3,89.6,25.8,119.9-10s25.8-89.6-10-119.9s-89.6-25.8-119.9,10
			C40.6,107.2,45.1,160.7,80.9,191z"/>
		<path class="st61" d="M81.7,188.9c35.3,29.8,88,25.3,117.7-10s25.3-88-10-117.7s-88-25.3-117.7,10
			C41.9,106.2,46.4,159.1,81.7,188.9z"/>
		<path class="st62" d="M82.5,186.5c34.8,29.2,86.7,25,115.9-9.7c29.2-34.8,25-86.7-9.7-115.9s-86.7-25-115.9,9.7
			S48,157.3,82.5,186.5z"/>
		<path class="st63" d="M83.3,184.1c34,28.7,85.1,24.5,113.8-9.7c28.7-34,24.5-85.1-9.7-113.8c-34-28.7-85.1-24.5-113.8,9.7
			C45.1,104.3,49.3,155.4,83.3,184.1z"/>
		<path class="st64" d="M84.3,181.8c33.5,28.2,83.8,24,111.9-9.5s24-83.8-9.5-111.9c-33.7-28.2-83.8-24-111.9,9.5
			C46.4,103.3,50.6,153.6,84.3,181.8z"/>
		<path class="st65" d="M85.1,179.4c32.9,27.9,82.2,23.7,110.1-9.2S218.9,88,186,60.1s-82.2-23.7-110.1,9.2
			C48,102.5,52.2,151.7,85.1,179.4z"/>
		<path class="st66" d="M85.9,177c32.4,27.4,80.6,23.2,108-9.2c27.4-32.4,23.2-80.6-9.2-108s-80.6-23.2-108,9.2
			C49.6,101.4,53.5,149.9,85.9,177z"/>
		<path class="st67" d="M86.7,174.9c31.9,26.9,79.3,22.9,106.2-9s22.9-79.3-9-106.2s-79.3-22.9-106.2,9
			C50.9,100.4,54.8,148,86.7,174.9z"/>
		<path class="st68" d="M87.5,172.5c31.1,26.3,77.7,22.4,104-8.7s22.4-77.7-8.7-104s-77.7-22.4-104,8.7S56.4,146.2,87.5,172.5z"/>
		<path class="st69" d="M88.3,170.2c30.6,25.8,76.4,21.9,102.2-8.7s21.9-76.4-8.7-102.2S105.4,37.4,79.6,68
			C53.8,98.5,57.7,144.3,88.3,170.2z"/>
		<path class="st70" d="M89.3,167.8c30,25.3,74.8,21.6,100.4-8.4c25.3-30,21.6-74.8-8.4-100.4c-30-25.3-74.8-21.6-100.4,8.4
			S59.3,142.5,89.3,167.8z"/>
		<path class="st71" d="M90.1,165.4c29.5,24.8,73.5,21.1,98.3-8.4s21.1-73.5-8.4-98.3s-73.5-21.1-98.3,8.4S60.6,140.7,90.1,165.4z"
			/>
		<path class="st72" d="M90.9,163.1c29,24.2,71.9,20.8,96.4-8.2c24.2-29,20.8-71.9-8.2-96.4c-29-24.2-71.9-20.8-96.4,8.2
			S62,138.8,90.9,163.1z"/>
		<path class="st73" d="M91.7,160.7c28.2,24,70.6,20.3,94.3-7.9c24-28.2,20.3-70.6-7.9-94.3c-28.2-24-70.6-20.3-94.3,7.9
			C59.8,94.6,63.5,137,91.7,160.7z"/>
		<path class="st74" d="M92.5,158.6c27.7,23.4,69,19.8,92.5-7.9s19.8-69-7.9-92.5s-69-19.8-92.5,7.9
			C61.4,93.8,64.9,135.1,92.5,158.6z"/>
		<path class="st75" d="M93.3,156.2c27.1,22.9,67.7,19.5,90.6-7.6s19.5-67.7-7.6-90.6s-67.7-19.5-90.6,7.6S66.2,133.3,93.3,156.2z"
			/>
		<path class="st76" d="M94.1,153.8c26.6,22.4,66.1,19,88.5-7.4c22.4-26.6,19-66.1-7.4-88.5c-26.6-22.4-66.1-19-88.5,7.4
			S67.8,131.4,94.1,153.8z"/>
		<path class="st77" d="M95.1,151.5c25.8,21.9,64.8,18.7,86.7-7.4c21.9-25.8,18.7-64.8-7.4-86.7c-25.8-21.9-64.8-18.7-86.7,7.4
			S69.1,129.6,95.1,151.5z"/>
		<path class="st78" d="M95.9,149.1c25.3,21.3,63.2,18.2,84.6-7.1s18.2-63.2-7.1-84.6s-63.2-18.2-84.6,7.1
			C67.2,89.8,70.6,127.8,95.9,149.1z"/>
		<path class="st79" d="M96.7,146.7c24.8,20.8,61.9,17.9,82.7-7.1c20.8-24.8,17.6-61.9-7.1-82.7S110.4,39.2,89.6,64
			S72,125.9,96.7,146.7z"/>
		<path class="st80" d="M97.5,144.6c24.2,20.5,60.3,17.4,80.9-6.8s17.4-60.3-6.8-80.9s-60.3-17.4-80.9,6.8
			C70.4,88,73.3,124.1,97.5,144.6z"/>
		<path class="st81" d="M98.3,142.2c23.7,20,59,16.9,78.8-6.6c20-23.7,16.9-59-6.6-78.8c-23.7-20-59-16.9-78.8,6.6
			C71.7,86.9,74.9,122.2,98.3,142.2z"/>
		<path class="st82" d="M99.1,139.9c22.9,19.5,57.4,16.6,76.9-6.6c19.5-22.9,16.6-57.4-6.6-76.9C146.5,36.9,112,39.8,92.5,63
			C73.3,85.9,76.2,120.4,99.1,139.9z"/>
		<path class="st83" d="M100.1,137.5c22.4,19,56.1,16.1,74.8-6.3c19-22.4,16.1-56.1-6.3-74.8c-22.4-19-55.8-16.1-74.8,6.3
			S77.5,118.5,100.1,137.5z"/>
		<path class="st84" d="M100.9,135.1c21.9,18.4,54.5,15.8,73-6.1s15.8-54.5-6.1-73s-54.5-15.8-73,6.1
			C76.2,84,79.1,116.7,100.9,135.1z"/>
		<path class="st85" d="M101.7,132.8c21.3,17.9,52.9,15.3,71.1-6.1c17.9-21.3,15.3-52.9-6.1-71.1c-21.3-17.9-52.9-15.3-71.1,6.1
			C77.8,83.2,80.4,114.8,101.7,132.8z"/>
		<path class="st85" d="M102.5,130.7c20.8,17.4,51.6,14.8,69-5.8c17.4-20.8,14.8-51.6-5.8-69c-20.8-17.4-51.6-14.8-69,5.8
			C79.3,82.2,82,113,102.5,130.7z"/>
		<path class="st86" d="M103.3,128.3c20,16.9,50,14.5,67.2-5.8c16.9-20,14.5-50-5.8-67.2c-20-16.9-50-14.5-67.2,5.8
			C80.7,81.1,83.3,111.2,103.3,128.3z"/>
		<path class="st87" d="M104.1,125.9c19.5,16.6,48.7,14,65.1-5.5c16.6-19.5,14-48.7-5.5-65.1c-19.5-16.6-48.7-14-65.1,5.5
			S84.6,109.3,104.1,125.9z"/>
		<path class="st88" d="M105.2,123.5c19,16.1,47.2,13.7,63.2-5.3s13.7-47.2-5.3-63.2S116,41.4,99.9,60.3
			C83.8,79.3,86.2,107.5,105.2,123.5z"/>
		<path class="st89" d="M105.9,121.2c18.4,15.5,45.8,13.2,61.4-5.3s13.2-45.8-5.3-61.4s-45.8-13.2-61.4,5.3
			C85.1,78.2,87.5,105.6,105.9,121.2z"/>
		<path class="st90" d="M106.7,118.8c17.6,15,44.3,12.6,59.3-5c15-17.6,12.6-44.3-5-59.3c-17.6-15-44.3-12.6-59.3,5
			C86.7,77.4,88.8,103.8,106.7,118.8z"/>
		<path class="st91" d="M107.5,116.4c17.1,14.5,42.9,12.4,57.4-4.7s12.4-42.9-4.7-57.4s-42.9-12.4-57.4,4.7
			C88.3,76.4,90.4,101.9,107.5,116.4z"/>
		<path class="st92" d="M108.3,114.3c16.6,14,41.4,11.9,55.3-4.7c14-16.6,11.9-41.4-4.7-55.3s-41.4-11.9-55.3,4.7
			C89.6,75.3,91.7,100.1,108.3,114.3z"/>
		<path class="st93" d="M109.1,111.9c16.1,13.4,40,11.6,53.5-4.5c13.4-16.1,11.6-40-4.5-53.5s-40-11.6-53.5,4.5
			S93.3,98.3,109.1,111.9z"/>
		<path class="st94" d="M110.2,109.6c15.5,12.9,38.5,11.1,51.6-4.5c12.9-15.5,11.1-38.5-4.5-51.6c-15.5-12.9-38.5-11.1-51.6,4.5
			C92.8,73.5,94.6,96.4,110.2,109.6z"/>
		<path class="st95" d="M110.9,107.2c14.8,12.6,37.1,10.5,49.5-4.2c12.6-14.8,10.5-37.1-4.2-49.5c-14.8-12.6-37.1-10.5-49.5,4.2
			C94.1,72.4,95.9,94.8,110.9,107.2z"/>
		<path class="st96" d="M111.7,104.8c14.2,12.1,35.6,10.3,47.7-4s10.3-35.6-4-47.7s-35.6-10.3-47.7,4C95.7,71.6,97.5,93,111.7,104.8
			z"/>
		<path class="st97" d="M112.5,102.5c13.7,11.6,34.2,9.7,45.6-4c11.6-13.7,9.7-34.2-4-45.6c-13.7-11.6-34.2-9.7-45.6,4
			C97.3,70.6,98.8,91.1,112.5,102.5z"/>
		<path class="st98" d="M113.3,100.4c13.2,11.1,32.7,9.5,43.7-3.7s9.5-32.7-3.7-43.7s-32.7-9.5-43.7,3.7
			C98.6,69.5,100.1,89.3,113.3,100.4z"/>
		<path class="st99" d="M114.1,98c12.6,10.5,31.3,9,41.9-3.4c10.5-12.6,9-31.3-3.4-41.9c-12.6-10.5-31.3-9-41.9,3.4
			C100.1,68.8,101.7,87.5,114.1,98z"/>
		<path class="st100" d="M115.2,95.6c11.9,10,29.8,8.7,39.8-3.4c10-11.9,8.7-29.8-3.4-39.8c-11.9-10-29.8-8.7-39.8,3.4
			C101.7,67.7,103,85.6,115.2,95.6z"/>
		<path class="st101" d="M116,93.2c11.3,9.5,28.2,8.2,37.9-3.2c9.5-11.3,8.2-28.2-3.2-37.9c-11.3-9.5-28.2-8.2-37.9,3.2
			S104.6,83.8,116,93.2z"/>
		<path class="st102" d="M116.7,90.9c10.8,9,26.9,7.6,35.8-3.2c9-10.8,7.6-26.9-3.2-35.8c-10.5-9-26.6-7.6-35.8,3.2
			C104.6,65.9,105.9,81.9,116.7,90.9z"/>
		<path class="st103" d="M117.5,88.5c10.3,8.7,25.3,7.4,34-2.9c8.7-10.3,7.4-25.3-2.9-34c-10.3-8.7-25.3-7.4-34,2.9
			C106.2,64.8,107.3,80.1,117.5,88.5z"/>
		<path class="st104" d="M118.3,86.4c9.5,8.2,24,6.8,32.1-2.6s6.8-24-2.6-32.1s-24-6.8-32.1,2.6C107.5,63.7,108.8,78.2,118.3,86.4z"
			/>
		<path class="st105" d="M119.1,84c9,7.6,22.4,6.6,30-2.6c7.6-9,6.6-22.4-2.6-30c-9-7.6-22.4-6.6-30,2.6
			C109.1,63,110.2,76.4,119.1,84z"/>
		<path class="st106" d="M120.2,81.7c8.4,7.1,21.1,6.1,28.2-2.4s6.1-21.1-2.4-28.2c-8.4-7.1-21.1-6.1-28.2,2.4
			C110.4,61.9,111.7,74.5,120.2,81.7z"/>
		<path class="st107" d="M121,79.3c7.9,6.6,19.5,5.5,26.1-2.1c6.6-7.9,5.5-19.5-2.1-26.1c-7.9-6.6-19.5-5.5-26.1,2.1
			C112,60.8,113.1,72.7,121,79.3z"/>
		<path class="st108" d="M121.7,76.9c7.4,6.1,18.2,5.3,24.2-2.1c6.1-7.4,5.3-18.2-2.1-24.2s-18.2-5.3-24.2,2.1
			S114.4,70.9,121.7,76.9z"/>
		<path class="st109" d="M122.5,74.5c6.6,5.5,16.6,4.7,22.4-1.8c5.5-6.6,4.7-16.6-1.8-22.4c-6.6-5.5-16.6-4.7-22.4,1.8
			C114.9,59,116,69,122.5,74.5z"/>
		<path class="st110" d="M123.3,72.4c6.1,5.3,15.3,4.5,20.3-1.8c5.3-6.1,4.5-15.3-1.8-20.3c-6.1-5.3-15.3-4.5-20.3,1.8
			C116.5,58,117.3,67.2,123.3,72.4z"/>
		<path class="st111" d="M124.1,70.1c5.5,4.7,13.7,4,18.4-1.6c4.7-5.5,4-13.7-1.6-18.4c-5.5-4.7-13.7-4-18.4,1.6
			C118.1,57.2,118.6,65.3,124.1,70.1z"/>
		<path class="st112" d="M124.9,67.7c5,4.2,12.4,3.4,16.3-1.3c4.2-5,3.4-12.4-1.3-16.3c-5-4.2-12.4-3.4-16.3,1.3
			C119.4,56.1,120.2,63.5,124.9,67.7z"/>
		<path class="st113" d="M126,65.3c4.5,3.7,10.8,3.2,14.5-1.3c3.7-4.5,3.2-10.8-1.3-14.5c-4.2-3.7-10.8-3.2-14.5,1.3
			C121,55.1,121.5,61.6,126,65.3z"/>
		<path class="st114" d="M126.8,63c3.7,3.2,9.5,2.6,12.6-1.1c3.2-3.7,2.6-9.5-1.1-12.6c-3.7-3.2-9.5-2.6-12.6,1.1
			C122.5,54.3,123.1,59.8,126.8,63z"/>
		<path class="st115" d="M127.5,60.6c3.2,2.6,7.9,2.4,10.5-0.8c2.6-3.2,2.4-7.9-0.8-10.5c-3.2-2.6-7.9-2.4-10.5,0.8
			C123.9,53.2,124.4,58,127.5,60.6z"/>
		<path class="st116" d="M128.3,58.2c2.6,2.1,6.6,1.8,8.7-0.8c2.1-2.6,1.8-6.6-0.8-8.7c-2.6-2.1-6.6-1.8-8.7,0.8
			C125.4,52.2,125.7,56.1,128.3,58.2z"/>
		<path class="st117" d="M129.1,56.1c2.1,1.6,5,1.3,6.8-0.5c1.6-2.1,1.3-5-0.5-6.8c-2.1-1.6-5-1.3-6.8,0.5
			C127,51.4,127.3,54.3,129.1,56.1z"/>
		
			<ellipse transform="matrix(0.6448 -0.7643 0.7643 0.6448 7.9017 119.263)" class="st118" cx="132.3" cy="51.1" rx="3.4" ry="3.4"/>
	</g>
	<path class="st119" d="M136.2,55.6c44,0,80.1,34.5,82.7,78c0-1.6,0.3-3.4,0.3-5c0-45.8-37.1-83-83-83s-83,37.1-83,83
		c0,1.6,0,3.4,0.3,5C55.9,90.1,92,55.6,136.2,55.6z"/>
	<g>
		<path class="st120" d="M83.3,197.8c34.5,29.2,86.4,24.8,115.6-9.7c29.2-34.8,24.8-86.4-9.7-115.6c-34.8-29.2-86.4-24.8-115.6,9.7
			C44,116.7,48.5,168.6,83.3,197.8z"/>
		<path class="st121" d="M83.6,196.5c34.2,29,85.6,24.8,114.6-9.7c29-34.2,24.8-85.6-9.7-114.6c-34.2-29-85.6-24.8-114.6,9.7
			C44.8,116.2,49.3,167.5,83.6,196.5z"/>
		<path class="st122" d="M84.1,195.5c34,28.7,84.8,24.5,113.5-9.5s24.5-84.8-9.5-113.5s-84.8-24.5-113.5,9.5
			C45.6,115.6,50.1,166.7,84.1,195.5z"/>
		<path class="st123" d="M84.3,194.1c33.7,28.4,84,24.2,112.7-9.5c28.4-33.7,24.2-84-9.5-112.7c-33.7-28.4-84-24.2-112.7,9.5
			C46.4,115.4,50.6,165.7,84.3,194.1z"/>
		<path class="st124" d="M84.9,192.8c33.5,28.2,83.5,24,111.7-9.5s24-83.5-9.5-111.7s-83.5-24-111.7,9.5
			C47.2,114.8,51.4,164.6,84.9,192.8z"/>
		<path class="st125" d="M85.4,191.8c33.2,27.9,82.7,23.7,110.6-9.2c27.9-33.2,23.7-82.7-9.2-110.6C153.6,44,104.1,48.2,76.2,81.1
			C48,114.3,52.2,163.8,85.4,191.8z"/>
		<path class="st126" d="M85.7,190.4c32.9,27.7,81.9,23.7,109.6-9.2s23.4-81.9-9.2-109.6C153.1,44,104.1,48.2,76.4,80.9
			C48.8,113.8,53,162.8,85.7,190.4z"/>
		<path class="st127" d="M86.2,189.4c32.4,27.4,81.1,23.4,108.5-9.2c27.4-32.4,23.4-81.1-9.2-108.5C153.1,44.3,104.4,48.2,77,80.9
			C49.6,113.3,53.8,161.7,86.2,189.4z"/>
		<path class="st128" d="M86.7,188.1c32.1,27.1,80.3,23.2,107.5-9s23.2-80.3-9.2-107.5c-32.1-27.1-80.3-23.2-107.5,9.2
			C50.4,112.7,54.3,160.9,86.7,188.1z"/>
		<path class="st129" d="M87,186.8c31.9,26.9,79.6,22.9,106.4-9s22.9-79.6-9-106.4s-79.6-22.9-106.4,9S55.1,159.9,87,186.8z"/>
		<path class="st130" d="M87.5,185.7c31.6,26.6,78.8,22.7,105.6-9c26.6-31.6,22.7-78.8-9-105.6c-31.6-26.6-78.8-22.7-105.6,9
			C51.9,111.7,55.9,159.1,87.5,185.7z"/>
		<path class="st131" d="M88,184.4c31.3,26.3,78,22.4,104.6-9c26.3-31.3,22.4-78-9-104.6c-31.3-26.3-78-22.4-104.6,9
			C52.7,111.2,56.7,158,88,184.4z"/>
		<path class="st132" d="M88.3,183.3c31.1,26.1,77.4,22.1,103.5-8.7c26.1-31.1,22.1-77.4-8.7-103.5C152,45,105.7,49,79.6,79.8
			S57.5,157,88.3,183.3z"/>
		<path class="st133" d="M88.8,182c30.8,25.8,76.7,22.1,102.5-8.7s22.1-76.7-8.7-102.5s-76.7-22.1-102.5,8.7S58,156.2,88.8,182z"/>
		<path class="st134" d="M89.3,180.7c30.3,25.6,75.9,21.9,101.4-8.7c25.6-30.3,21.9-75.9-8.7-101.4C151.8,45,106.2,48.7,80.7,79.3
			S58.8,155.1,89.3,180.7z"/>
		<path class="st135" d="M89.6,179.6c30,25.3,75.1,21.6,100.4-8.4c25.3-30,21.6-75.1-8.4-100.4s-75.1-21.6-100.4,8.4
			S59.6,154.1,89.6,179.6z"/>
		<path class="st136" d="M90.1,178.3c29.8,25,74.3,21.3,99.6-8.4c25-29.8,21.3-74.3-8.4-99.6c-29.8-25-74.3-21.3-99.6,8.4
			C56.7,108.8,60.4,153.3,90.1,178.3z"/>
		<path class="st137" d="M90.7,177.3c29.5,24.8,73.5,21.1,98.5-8.4c24.8-29.5,21.1-73.5-8.4-98.5c-29.5-24.8-73.5-21.1-98.5,8.4
			S61.2,152.3,90.7,177.3z"/>
		<path class="st138" d="M90.9,176c29.2,24.5,72.7,21.1,97.5-8.2c24.5-29.2,20.8-72.7-8.2-97.5c-29.2-24.5-72.7-20.8-97.5,8.2
			C58,107.7,61.7,151.5,90.9,176z"/>
		<path class="st139" d="M91.5,174.6c29,24.5,71.9,20.8,96.4-8.2s20.8-71.9-8.2-96.4s-71.9-20.8-96.4,8.2S62.5,150.4,91.5,174.6z"/>
		<path class="st140" d="M91.7,173.6c28.4,24.2,71.4,20.5,95.4-8.2c24.2-28.4,20.5-71.4-8.2-95.4c-28.4-24.2-71.4-20.5-95.4,8.2
			C59.6,106.7,63.3,149.4,91.7,173.6z"/>
		<path class="st141" d="M92.2,172.3c28.2,24,70.6,20.3,94.3-7.9c24-28.2,20.3-70.6-7.9-94.3c-28.2-24-70.6-20.3-94.3,7.9
			C60.4,106.2,64.1,148.6,92.2,172.3z"/>
		<path class="st142" d="M92.8,171.2c27.9,23.7,69.8,20,93.2-7.9c23.7-27.9,20-69.8-7.9-93.2c-27.9-23.7-69.8-20-93.2,7.9
			C61.2,105.6,64.9,147.5,92.8,171.2z"/>
		<path class="st143" d="M93,169.9c27.7,23.4,69,19.8,92.5-7.9s19.8-69-7.9-92.5s-69-19.8-92.5,7.9C62,105.1,65.4,146.5,93,169.9z"
			/>
		<path class="st144" d="M93.6,168.6c27.4,23.2,68.2,19.8,91.4-7.6s19.8-68.2-7.6-91.4s-68.2-19.8-91.4,7.6
			C62.7,104.8,66.2,145.7,93.6,168.6z"/>
		<path class="st145" d="M94.1,167.5c27.1,22.9,67.4,19.5,90.4-7.6s19.5-67.4-7.6-90.4S109.4,50,86.5,77.2S67,144.6,94.1,167.5z"/>
		<path class="st146" d="M94.4,166.2c26.9,22.7,66.6,19.2,89.3-7.6s19.2-66.6-7.6-89.3S109.4,50,86.7,76.9
			C64.3,103.8,67.8,143.8,94.4,166.2z"/>
		<path class="st147" d="M94.9,165.2c26.3,22.4,65.9,19,88.2-7.4s19-65.9-7.4-88.2s-65.9-19-88.2,7.4S68.5,142.8,94.9,165.2z"/>
		<path class="st148" d="M95.4,163.8c26.1,22.1,65.3,18.7,87.2-7.4c22.1-26.1,18.7-65.3-7.4-87.2c-26.1-22.1-65.3-18.7-87.2,7.4
			C65.9,102.7,69.1,141.7,95.4,163.8z"/>
		<path class="st149" d="M95.7,162.5c25.8,21.9,64.5,18.4,86.1-7.4c21.9-25.8,18.4-64.5-7.4-86.1c-25.8-21.9-64.5-18.4-86.1,7.4
			S69.9,140.9,95.7,162.5z"/>
		<path class="st150" d="M96.2,161.5c25.6,21.6,63.7,18.4,85.3-7.1S200,90.6,174.4,69s-63.7-18.4-85.3,7.1S70.6,139.9,96.2,161.5z"
			/>
		<path class="st151" d="M96.7,160.2c25.3,21.3,63,18.2,84.3-7.1s18.2-63-7.1-84.3s-63-18.2-84.3,7.1S71.4,138.8,96.7,160.2z"/>
		<path class="st152" d="M97,159.1c25,21.1,62.2,17.9,83.2-7.1s17.9-62.2-7.1-83.2s-62.2-17.9-83.2,7.1
			C69.1,100.6,72.2,138,97,159.1z"/>
		<path class="st153" d="M97.5,157.8c24.5,20.8,61.4,17.6,82.2-6.8s17.6-61.4-6.8-82.2s-61.4-17.6-82.2,6.8S72.8,137,97.5,157.8z"/>
		<path class="st154" d="M97.8,156.5c24.2,20.5,60.6,17.4,81.1-6.8s17.4-60.6-6.8-81.1s-60.6-17.4-81.1,6.8
			C70.6,99.8,73.5,136.2,97.8,156.5z"/>
		<path class="st155" d="M98.3,155.4c24,20.3,59.8,17.1,80.1-6.8s17.1-59.8-6.8-80.1s-59.8-17.1-80.1,6.8S74.3,135.1,98.3,155.4z"/>
		<path class="st156" d="M98.8,154.1c23.7,20,59.3,17.1,79.3-6.6s17.1-59.3-6.6-79.3s-59.3-17.1-79.3,6.6
			C72,98.8,75.1,134.1,98.8,154.1z"/>
		<path class="st157" d="M99.1,153c23.4,19.8,58.5,16.9,78.2-6.6s16.9-58.5-6.6-78.2s-58.5-16.9-78.2,6.6S75.9,133.3,99.1,153z"/>
		<path class="st158" d="M99.6,151.7c23.2,19.5,57.7,16.6,77.2-6.6s16.6-57.7-6.6-77.2S112.5,51.4,93,74.5
			C73.5,97.7,76.4,132.2,99.6,151.7z"/>
		<path class="st159" d="M100.1,150.4c22.9,19.2,56.9,16.3,76.1-6.3c19.2-22.9,16.3-56.9-6.3-76.1c-22.9-19.2-56.9-16.3-76.1,6.3
			C74.3,97.2,77.2,131.2,100.1,150.4z"/>
		<path class="st160" d="M100.4,149.4c22.4,19,56.1,16.1,75.1-6.3s16.1-56.1-6.3-75.1s-56.1-16.1-75.1,6.3
			C75.1,96.7,78,130.4,100.4,149.4z"/>
		<path class="st161" d="M100.9,148c22.1,18.7,55.3,15.8,74-6.3s15.8-55.3-6.3-74s-55.3-15.8-74,6.3S78.8,129.3,100.9,148z"/>
		<path class="st162" d="M101.5,147c21.9,18.4,54.5,15.8,73-6.1s15.8-54.5-6.1-73s-54.5-15.8-73,6.1C76.7,95.6,79.6,128.3,101.5,147
			z"/>
		<path class="st163" d="M101.7,145.7c21.6,18.2,53.7,15.5,72.2-6.1c18.2-21.6,15.5-53.7-6.1-72.2c-21.6-18.2-53.7-15.5-72.2,6.1
			C77.5,95.1,80.1,127.5,101.7,145.7z"/>
		<path class="st164" d="M102.3,144.3c21.3,17.9,53.2,15.3,71.1-6.1s15.3-53.2-6.1-71.1s-53.2-15.3-71.1,6.1
			C78.3,94.6,80.9,126.4,102.3,144.3z"/>
		<path class="st165" d="M102.8,143.3c21.1,17.6,52.4,15,70.1-5.8c17.6-21.1,15-52.4-5.8-70.1c-21.1-17.6-52.4-15-70.1,5.8
			C79.1,94.3,81.7,125.6,102.8,143.3z"/>
		<path class="st166" d="M103,142c20.5,17.4,51.6,14.8,69-5.8c17.4-20.5,14.8-51.6-5.8-69s-51.6-14.8-69,5.8
			C79.9,93.8,82.5,124.6,103,142z"/>
		<path class="st167" d="M103.6,140.9c20.3,17.1,50.8,14.8,68-5.8c17.1-20.3,14.5-50.8-5.8-68s-50.8-14.8-68,5.8
			C80.7,93.2,83.3,123.5,103.6,140.9z"/>
		<path class="st168" d="M104.1,139.6c20,16.9,50,14.5,66.9-5.5s14.5-50-5.8-66.9c-20-16.9-50-14.5-66.9,5.5S83.8,122.7,104.1,139.6
			z"/>
		<path class="st169" d="M104.4,138.3c19.8,16.6,49.3,14.2,66.1-5.5c16.6-19.8,14.2-49.3-5.5-66.1c-19.8-16.6-49.3-14.2-65.9,5.5
			C82.2,92.2,84.6,121.7,104.4,138.3z"/>
		<path class="st170" d="M104.9,137.2c19.5,16.3,48.5,14,65.1-5.5c16.3-19.5,14-48.5-5.5-65.1c-19.5-16.3-48.5-14-65.1,5.5
			C83,91.7,85.4,120.6,104.9,137.2z"/>
		<path class="st171" d="M105.2,135.9c19.2,16.1,47.7,13.7,64-5.5c16.1-19.2,13.7-47.7-5.5-64c-19.2-16.1-47.7-13.7-64,5.5
			C83.8,91.1,86.2,119.9,105.2,135.9z"/>
		<path class="st172" d="M105.7,134.9c19,15.8,47.2,13.4,63-5.3c15.8-19,13.4-47.2-5.3-63c-19-15.8-47.2-13.4-63,5.3
			C84.3,90.6,87,118.8,105.7,134.9z"/>
		<path class="st173" d="M106.2,133.5c18.4,15.5,46.4,13.4,61.9-5.3c15.5-18.4,13.4-46.4-5.3-61.9c-18.4-15.5-46.4-13.4-61.9,5.3
			C85.1,90.1,87.5,118,106.2,133.5z"/>
		<path class="st174" d="M106.5,132.2c18.2,15.3,45.6,13.2,60.8-5.3c15.3-18.2,13.2-45.6-5.3-60.8c-18.2-15.3-45.6-13.2-60.8,5.3
			C85.9,89.6,88.3,117,106.5,132.2z"/>
		<path class="st175" d="M107,131.2c17.9,15,44.8,12.9,59.8-5c15-17.9,12.9-44.8-5-59.8s-44.8-12.9-59.8,5
			C86.7,89.3,89.1,115.9,107,131.2z"/>
		<path class="st176" d="M107.5,129.9c17.6,15,44,12.6,59-5c15-17.6,12.6-44-5-59s-44-12.6-59,5C87.5,88.8,89.9,115.1,107.5,129.9z"
			/>
		<path class="st177" d="M107.8,128.8c17.4,14.8,43.2,12.4,58-5s12.4-43.2-5-58s-43.2-12.4-58,5C88.3,88.2,90.7,114.1,107.8,128.8z"
			/>
		<path class="st178" d="M108.3,127.5c17.1,14.5,42.4,12.1,56.9-4.7c14.5-17.1,12.1-42.4-4.7-56.9c-17.1-14.5-42.4-12.1-56.9,4.7
			C89.1,87.7,91.2,113,108.3,127.5z"/>
		<path class="st179" d="M108.8,126.2c16.6,14.2,41.6,12.1,55.8-4.7c14.2-16.6,12.1-41.6-4.7-55.8c-16.6-14.2-41.6-12.1-55.8,4.7
			S92,112.2,108.8,126.2z"/>
		<path class="st180" d="M109.1,125.1c16.3,14,41.1,11.9,54.8-4.7c14-16.3,11.9-41.1-4.7-54.8c-16.3-14-41.1-11.9-54.8,4.7
			C90.7,86.7,92.8,111.2,109.1,125.1z"/>
		<path class="st181" d="M109.6,123.8c16.1,13.7,40.3,11.6,53.7-4.5c13.7-16.1,11.6-40.3-4.5-53.7c-16.1-13.7-40.3-11.6-53.7,4.5
			C91.5,86.1,93.6,110.4,109.6,123.8z"/>
		<path class="st182" d="M110.2,122.7c15.8,13.4,39.5,11.3,52.7-4.5c13.4-15.8,11.3-39.5-4.5-52.7c-15.8-13.4-39.5-11.3-52.7,4.5
			C92.2,85.6,94.4,109.3,110.2,122.7z"/>
		<path class="st183" d="M110.4,121.4c15.5,13.2,38.7,11.1,51.9-4.5s11.1-38.7-4.5-51.9c-15.5-13.2-38.7-11.1-51.9,4.5
			C93,85.1,94.9,108.3,110.4,121.4z"/>
		<path class="st184" d="M110.9,120.1c15.3,12.9,37.9,10.8,50.8-4.2c12.9-15.3,10.8-37.9-4.2-50.8c-15.3-12.9-37.9-10.8-50.8,4.2
			C93.8,84.6,95.7,107.5,110.9,120.1z"/>
		<path class="st185" d="M111.2,119.1c15,12.6,37.1,10.8,49.8-4.2c12.6-15,10.8-37.1-4.2-49.8c-15-12.6-37.1-10.8-49.8,4.2
			C94.6,84,96.5,106.4,111.2,119.1z"/>
		<path class="st186" d="M111.7,117.7c14.5,12.4,36.4,10.5,48.7-4.2c12.4-14.5,10.5-36.4-4.2-48.7c-14.5-12.4-36.4-10.5-48.7,4.2
			C95.4,83.8,97.3,105.4,111.7,117.7z"/>
		<path class="st187" d="M112.3,116.7c14.2,12.1,35.6,10.3,47.7-4c12.1-14.2,10.3-35.6-4-47.7c-14.2-12.1-35.6-10.3-47.7,4
			S98,104.6,112.3,116.7z"/>
		<path class="st188" d="M112.5,115.4c14,11.9,35,10,46.6-4c11.9-14,10-35-4-46.6c-14-11.9-35-10-46.6,4
			C97,82.7,98.6,103.5,112.5,115.4z"/>
		<path class="st189" d="M113.1,114.1c13.7,11.6,34.2,9.7,45.8-4s9.7-34.2-4-45.8c-13.7-11.6-34.2-9.7-45.8,4
			C97.8,82.2,99.4,102.7,113.1,114.1z"/>
		<path class="st190" d="M113.6,113c13.4,11.3,33.5,9.5,44.8-3.7c11.3-13.4,9.5-33.5-3.7-44.8c-13.4-11.3-33.5-9.5-44.8,3.7
			C98.3,81.7,100.1,101.7,113.6,113z"/>
		<path class="st191" d="M113.8,111.7c13.2,11.1,32.7,9.5,43.7-3.7c11.1-13.2,9.5-32.7-3.7-43.7s-32.7-9.5-43.7,3.7
			S100.9,100.6,113.8,111.7z"/>
		<path class="st192" d="M114.4,110.6c12.9,10.8,31.9,9.2,42.7-3.7c10.8-12.9,9.2-31.9-3.7-42.7c-12.9-10.8-31.9-9.2-42.7,3.7
			C99.9,80.6,101.5,99.8,114.4,110.6z"/>
		<path class="st193" d="M114.9,109.3c12.4,10.5,31.1,9,41.6-3.4s9-31.1-3.4-41.6c-12.4-10.5-31.1-9-41.6,3.4
			C100.7,80.1,102.3,98.8,114.9,109.3z"/>
		<path class="st194" d="M115.2,108c12.1,10.3,30.3,8.7,40.6-3.4c10.3-12.1,8.7-30.3-3.4-40.6c-12.1-10.3-30.3-8.7-40.6,3.4
			C101.5,79.6,103,97.7,115.2,108z"/>
		<path class="st195" d="M115.7,106.9c11.9,10,29.5,8.4,39.5-3.4c10-11.9,8.4-29.5-3.4-39.5c-11.9-10-29.5-8.4-39.5,3.4
			C102.3,79,103.8,96.9,115.7,106.9z"/>
		<path class="st196" d="M116.2,105.6c11.6,9.7,29,8.4,38.7-3.2c9.7-11.6,8.4-29-3.2-38.7s-29-8.4-38.7,3.2
			C103,78.8,104.6,95.9,116.2,105.6z"/>
		<path class="st197" d="M116.5,104.6c11.3,9.5,28.2,8.2,37.7-3.2c9.5-11.3,8.2-28.2-3.2-37.7c-11.3-9.5-28.2-8.2-37.7,3.2
			C103.8,78.2,105.2,95.1,116.5,104.6z"/>
		<path class="st198" d="M117,103.3c11.1,9.2,27.4,7.9,36.6-3.2s7.9-27.4-3.2-36.6s-27.4-7.9-36.6,3.2
			C104.6,77.7,105.9,94,117,103.3z"/>
		<path class="st199" d="M117.5,101.9c10.5,9,26.6,7.6,35.6-2.9s7.6-26.6-2.9-35.6s-26.6-7.6-35.6,2.9
			C105.4,77.2,106.7,93,117.5,101.9z"/>
		<path class="st200" d="M117.8,100.9c10.3,8.7,25.8,7.4,34.5-2.9s7.4-25.8-2.9-34.5s-25.8-7.4-34.5,2.9
			C106.2,76.7,107.5,92.2,117.8,100.9z"/>
		<path class="st201" d="M118.3,99.6c10,8.4,25,7.1,33.5-2.9c8.4-10,7.1-25-2.9-33.5c-10-8.4-25-7.1-33.5,2.9
			C107,76.1,108.3,91.1,118.3,99.6z"/>
		<path class="st202" d="M118.6,98.5c9.7,8.2,24.2,7.1,32.4-2.6c8.2-9.7,7.1-24.2-2.6-32.4c-9.7-8.2-24.2-7.1-32.4,2.6
			C107.8,75.6,108.8,90.1,118.6,98.5z"/>
		<path class="st203" d="M119.1,97.2c9.5,7.9,23.4,6.8,31.6-2.6c7.9-9.5,6.8-23.4-2.6-31.6c-9.5-7.9-23.4-6.8-31.6,2.6
			C108.6,75.1,109.6,89.3,119.1,97.2z"/>
		<path class="st204" d="M119.6,95.9c9.2,7.6,22.9,6.6,30.6-2.6s6.6-22.9-2.6-30.6c-9.2-7.6-22.9-6.6-30.6,2.6
			S110.4,88.2,119.6,95.9z"/>
		<path class="st205" d="M119.9,94.8c9,7.4,22.1,6.3,29.5-2.4c7.4-9,6.3-22.1-2.4-29.5c-9-7.4-22.1-6.3-29.5,2.4
			C110.2,74,111.2,87.2,119.9,94.8z"/>
		<path class="st206" d="M120.4,93.5c8.4,7.1,21.3,6.1,28.4-2.4c7.1-8.4,6.1-21.3-2.4-28.4c-8.4-7.1-21.3-6.1-28.4,2.4
			C110.9,73.5,112,86.4,120.4,93.5z"/>
		<path class="st207" d="M121,92.5c8.2,6.8,20.5,5.8,27.4-2.4c6.8-8.2,5.8-20.5-2.4-27.4s-20.5-5.8-27.4,2.4
			C111.7,73.2,112.5,85.3,121,92.5z"/>
		<path class="st208" d="M121.2,91.1c7.9,6.6,19.8,5.8,26.3-2.1c6.6-7.9,5.8-19.8-2.1-26.3c-7.9-6.6-19.8-5.8-26.3,2.1
			C112.3,72.7,113.3,84.6,121.2,91.1z"/>
		<path class="st209" d="M121.7,89.8c7.6,6.3,19,5.5,25.6-2.1c6.3-7.6,5.5-19-2.1-25.6c-7.6-6.3-19-5.5-25.6,2.1
			C113.1,72.2,114.1,83.5,121.7,89.8z"/>
		<path class="st210" d="M122.3,88.8c7.4,6.1,18.2,5.3,24.5-2.1c6.1-7.4,5.3-18.2-2.1-24.5c-7.4-6.1-18.2-5.3-24.5,2.1
			C113.8,71.6,114.9,82.4,122.3,88.8z"/>
		<path class="st211" d="M122.5,87.5c7.1,5.8,17.4,5,23.4-2.1c5.8-7.1,5-17.4-2.1-23.4c-7.1-5.8-17.4-5-23.4,2.1
			C114.6,71.1,115.7,81.7,122.5,87.5z"/>
		<path class="st212" d="M123.1,86.4c6.6,5.5,16.9,4.7,22.4-1.8c5.5-6.6,4.7-16.6-1.8-22.4c-6.6-5.5-16.6-4.7-22.4,1.8
			C115.4,70.6,116.2,80.6,123.1,86.4z"/>
		<path class="st213" d="M123.6,85.1c6.3,5.5,16.1,4.5,21.3-1.8c5.5-6.3,4.5-16.1-1.8-21.3c-6.3-5.5-16.1-4.5-21.3,1.8
			C116.2,70.1,117,79.6,123.6,85.1z"/>
		<path class="st214" d="M123.9,83.8c6.1,5.3,15.3,4.5,20.3-1.8c5.3-6.1,4.5-15.3-1.8-20.3c-6.1-5.3-15.3-4.5-20.3,1.8
			C117,69.5,117.8,78.8,123.9,83.8z"/>
		<path class="st215" d="M124.4,82.7c5.8,5,14.5,4.2,19.2-1.6c5-5.8,4.2-14.5-1.6-19.2c-5.8-5-14.5-4.2-19.2,1.6
			C117.8,69,118.6,77.7,124.4,82.7z"/>
		<path class="st216" d="M124.6,81.4c5.5,4.7,13.7,4,18.4-1.6c4.7-5.5,4-13.7-1.6-18.4c-5.5-4.7-13.7-4-18.4,1.6
			C118.6,68.5,119.4,76.9,124.6,81.4z"/>
		<path class="st217" d="M125.2,80.3c5.3,4.5,12.9,3.7,17.4-1.6c4.5-5.3,3.7-12.9-1.6-17.4c-5.3-4.5-12.9-3.7-17.4,1.6
			C119.4,68.2,119.9,75.9,125.2,80.3z"/>
		<path class="st218" d="M125.7,79c5,4.2,12.1,3.4,16.3-1.3c4.2-5,3.4-12.1-1.3-16.3c-5-4.2-12.1-3.4-16.3,1.3
			C120.2,67.7,120.7,74.8,125.7,79z"/>
		<path class="st219" d="M126,77.7c4.5,4,11.3,3.2,15.3-1.3c4-4.5,3.2-11.3-1.3-15.3c-4.5-4-11.3-3.2-15.3,1.3
			C121,67.2,121.5,74,126,77.7z"/>
		<path class="st220" d="M126.5,76.7c4.2,3.7,10.5,3.2,14.2-1.3c3.7-4.2,3.2-10.5-1.3-14.2c-4.2-3.7-10.5-3.2-14.2,1.3
			C121.7,66.6,122.3,73,126.5,76.7z"/>
		<path class="st221" d="M127,75.3c4,3.4,10,2.9,13.2-1.1c3.4-4,2.9-10-1.1-13.2c-4-3.4-10-2.9-13.2,1.1
			C122.5,66.1,123.1,71.9,127,75.3z"/>
		<path class="st222" d="M127.3,74.3c3.7,3.2,9.2,2.6,12.4-1.1s2.6-9.2-1.1-12.1c-3.7-3.2-9.2-2.6-12.1,1.1
			C123.3,65.6,123.6,71.1,127.3,74.3z"/>
		<path class="st223" d="M127.8,73c3.4,2.9,8.4,2.4,11.3-1.1c2.9-3.4,2.4-8.4-1.1-11.3c-3.4-2.9-8.4-2.4-11.3,1.1
			C124.1,65.1,124.4,70.1,127.8,73z"/>
		<path class="st224" d="M128.3,71.6c3.2,2.6,7.6,2.1,10.3-0.8c2.6-3.2,2.1-7.6-0.8-10.3c-3.2-2.6-7.6-2.1-10.3,0.8
			C124.9,64.5,125.2,69.3,128.3,71.6z"/>
		<path class="st225" d="M128.6,70.6c2.6,2.4,6.8,2.1,9.2-0.8c2.4-2.6,2.1-6.8-0.8-9.2c-2.6-2.4-6.8-2.1-9.2,0.8
			C125.7,64,126,68.2,128.6,70.6z"/>
		<path class="st226" d="M129.1,69.3c2.4,2.1,6.1,1.8,8.2-0.8c2.1-2.4,1.8-6.1-0.8-8.2c-2.4-2.1-6.1-1.8-8.2,0.8
			C126.2,63.5,126.8,67.2,129.1,69.3z"/>
		<path class="st227" d="M129.7,68.2c2.1,1.8,5.3,1.6,7.1-0.5c1.8-2.1,1.6-5.3-0.5-7.1c-2.1-1.8-5.3-1.6-7.1,0.5
			C127,63.2,127.3,66.4,129.7,68.2z"/>
		<path class="st228" d="M129.9,66.9c1.8,1.6,4.5,1.3,6.1-0.5c1.6-1.8,1.3-4.5-0.5-6.1c-1.8-1.6-4.5-1.3-6.1,0.5
			C127.8,62.7,128.1,65.3,129.9,66.9z"/>
		<path class="st229" d="M130.4,65.6c1.6,1.3,4,1.1,5.3-0.5c1.3-1.6,1.1-4-0.5-5.3c-1.6-1.3-4-1.1-5.3,0.5
			C128.6,62.2,128.9,64.3,130.4,65.6z"/>
		
			<ellipse transform="matrix(0.6447 -0.7644 0.7644 0.6447 -0.3429 123.6491)" class="st118" cx="132.8" cy="62.2" rx="2.9" ry="2.9"/>
	</g>
	<g>
		<path class="st53" d="M106.2,170.4c19.5,16.6,48.7,14,65.3-5.5s14-48.7-5.5-65.3s-48.7-14-65.3,5.5
			C84.3,124.9,86.7,153.8,106.2,170.4z"/>
	</g>
	<path class="st230" d="M136.2,215.7c-46.4,0-84.3-34.5-86.9-78c0,1.6-0.3,3.4-0.3,5c0,45.8,39,83,87.2,83s87.2-37.1,87.2-83
		c0-1.6,0-3.4-0.3-5C220.3,181.2,182.6,215.7,136.2,215.7z"/>
	<path class="st231" d="M136.2,35.3c-55.1,0-99.8,44.8-99.8,99.8S81.2,235,136.2,235s99.8-44.8,99.8-99.8
		C236.1,79.8,191.3,35.3,136.2,35.3z M136.2,221c-47.4,0-86.1-38.5-86.1-86.1c0-47.4,38.5-86.1,86.1-86.1
		c47.4,0,86.1,38.5,86.1,86.1S183.7,221,136.2,221z"/>
	<g>
		<circle class="st50" cx="135.7" cy="135.1" r="88.2"/>
		<g>
			<path class="st51" d="M224.5,117.5c1.1,5.8,1.6,11.6,1.8,17.6h-4.5c0-5.5-0.5-11.3-1.6-16.9L224.5,117.5z"/>
			<path class="st52" d="M220.8,122l5,3.7l0.3,2.6c-1.6-1.3-2.9-2.6-4.7-4L220.8,122z M221.3,127.5l4.5,4l0.3,2.6l-4.5-4.2
				L221.3,127.5z M221.8,133l2.1,1.8h-2.1V133z M220.3,118.3l1.8-0.3l2.9,2.1l0.5,2.6l-5-3.7L220.3,118.3z"/>
		</g>
		<g>
			<path class="st51" d="M219.2,100.4c2.1,5.5,4,11.1,5.3,16.9l-4.2,0.8c-1.1-5.5-2.9-10.8-5-16.1L219.2,100.4z"/>
			<path class="st52" d="M216.6,105.6c1.8,0.8,3.7,1.6,5.5,2.6l0.8,2.6c-1.8-1.1-3.4-2.1-5.3-2.9L216.6,105.6z M218.4,110.9l5.3,3.2
				l0.8,2.6l-5.3-3.2L218.4,110.9z M219.7,116.4c0.8,0.5,1.6,1.1,2.4,1.6l-2.1,0.3C220,117.5,219.7,117,219.7,116.4z M215.3,102.2
				l1.8-0.8l3.2,1.3l1.1,2.6l-5.5-2.6L215.3,102.2z"/>
		</g>
		<g>
			<path class="st51" d="M211,84.8c3.2,5,6.1,10.3,8.4,15.5l-4,1.6c-2.1-5.3-5-10-7.9-14.8L211,84.8z"/>
			<path class="st52" d="M209.2,90.4l6.1,1.6l1.3,2.4c-1.8-0.8-3.7-1.3-5.8-1.8L209.2,90.4z M212.1,95.4l5.8,2.1l1.3,2.4l-5.8-2.1
				L212.1,95.4z M214.5,100.4l2.6,1.1l-1.8,0.8L214.5,100.4z M207.4,87.2l1.6-1.1l3.4,0.8l1.3,2.4l-6.1-1.3L207.4,87.2z"/>
		</g>
		<g>
			<path class="st51" d="M199.7,71.1c4.2,4.2,7.9,8.7,11.3,13.7l-3.7,2.4c-3.2-4.7-6.8-9-10.8-13.2L199.7,71.1z"/>
			<path class="st52" d="M199.2,76.9l6.3,0.3l1.6,2.1c-2.1-0.3-4-0.5-6.1-0.5L199.2,76.9z M202.9,81.1l6.1,0.8l1.6,2.1l-6.1-1.1
				L202.9,81.1z M206.3,85.6l2.9,0.5l-1.6,1.1L206.3,85.6z M196.6,74.3l1.3-1.3h3.4l1.8,2.1l-6.1-0.3L196.6,74.3z"/>
		</g>
		<g>
			<path class="st51" d="M186,59.8c5,3.4,9.5,7.1,13.7,11.3l-3.2,3.2c-4-4-8.4-7.4-13.2-10.8L186,59.8z"/>
			<path class="st52" d="M186.5,65.9l6.1-0.8c0.8,0.5,1.3,1.3,2.1,1.8c-2.1,0-4,0.3-6.1,0.5L186.5,65.9z M191,69l6.1-0.3l2.1,1.8
				l-6.1,0.3L191,69z M195.2,73h2.9l-1.3,1.3L195.2,73z M183.7,63.5l1.1-1.6l3.4-0.5l2.1,1.6l-6.1,1.1L183.7,63.5z"/>
		</g>
		<g>
			<path class="st51" d="M170.5,51.6c5.5,2.4,10.5,5,15.5,8.4l-2.4,3.7c-4.7-3.2-9.7-5.8-14.8-7.9L170.5,51.6z"/>
			<path class="st52" d="M172.1,57.2l5.8-2.1c0.8,0.3,1.6,0.8,2.4,1.3c-1.8,0.5-4,1.1-5.8,1.8L172.1,57.2z M177.1,59.5l5.8-1.6
				l2.4,1.3l-6.1,1.6L177.1,59.5z M181.8,62.4l2.9-0.8l-1.1,1.6L181.8,62.4z M168.6,55.6l0.8-1.8c1.1-0.5,2.1-0.8,3.2-1.3l2.4,1.3
				l-5.8,2.1L168.6,55.6z"/>
		</g>
		<g>
			<path class="st51" d="M153.4,46.4c5.8,1.3,11.6,2.9,16.9,5.3l-1.6,4c-5.3-2.1-10.5-3.7-16.1-5L153.4,46.4z"/>
			<path class="st52" d="M156.3,51.6l5.3-3.2c0.8,0.3,1.8,0.5,2.6,0.8c-1.8,0.8-3.7,1.8-5.5,2.9L156.3,51.6z M161.5,52.9l5.5-2.6
				l2.6,1.1l-5.5,2.6L161.5,52.9z M166.8,54.8l2.6-1.3l-0.8,1.8L166.8,54.8z M152.6,50.6l0.3-1.8c1.1-0.8,1.8-1.3,2.9-1.8l2.6,0.8
				l-5.3,3.2L152.6,50.6z"/>
		</g>
		<g>
			<path class="st51" d="M135.7,44.5c5.8,0,11.9,0.5,17.6,1.8l-0.8,4.2c-5.5-1.1-11.1-1.6-16.9-1.6C135.7,49,135.7,44.5,135.7,44.5z
				"/>
			<path class="st52" d="M139.7,49.3l4.7-4.2c1.1,0,1.8,0.3,2.6,0.3c-1.6,1.1-3.2,2.6-4.7,4H139.7z M145.2,49.5l4.7-3.7l2.6,0.5
				l-5,3.7L145.2,49.5z M150.7,50.3l2.4-1.6l-0.3,2.1L150.7,50.3z M135.7,49v-1.8l2.6-2.4L141,45l-4.5,4.2L135.7,49z"/>
		</g>
		<g>
			<path class="st51" d="M118.1,46.4c5.8-1.1,11.6-1.6,17.6-1.8V49c-5.5,0-11.3,0.5-16.9,1.6L118.1,46.4z"/>
			<path class="st52" d="M122.8,50l3.7-5l2.6-0.3c-1.3,1.6-2.6,2.9-4,4.7L122.8,50z M128.3,49.3l4-4.5l2.6-0.3l-4.2,4.5L128.3,49.3z
				 M133.9,49l1.8-2.1V49H133.9z M119.1,50.6l-0.3-1.8l2.1-2.9l2.6-0.5l-3.7,5L119.1,50.6z"/>
		</g>
		<g>
			<path class="st51" d="M101.2,51.6c5.5-2.1,11.1-4,16.9-5.3l0.8,4.2c-5.5,1.1-10.8,2.9-16.1,5L101.2,51.6z"/>
			<path class="st52" d="M106.5,54.3c0.8-1.8,1.6-3.7,2.6-5.5l2.6-0.8c-1.1,1.8-2.1,3.4-2.9,5.3L106.5,54.3z M111.7,52.4l3.2-5.3
				l2.6-0.8l-3.2,5.3L111.7,52.4z M117,51.1c0.5-0.8,1.1-1.6,1.6-2.4l0.3,2.1C118.3,50.8,117.8,50.8,117,51.1z M102.8,55.6l-0.8-1.8
				l1.3-3.2l2.6-1.1l-2.6,5.5L102.8,55.6z"/>
		</g>
		<g>
			<path class="st51" d="M85.7,59.8c5-3.2,10.3-6.1,15.5-8.4l1.6,4c-5.3,2.1-10,5-14.8,7.9L85.7,59.8z"/>
			<path class="st52" d="M91.2,61.6l1.6-6.1l2.4-1.3c-0.8,1.8-1.3,3.7-1.8,5.8L91.2,61.6z M96.2,58.7l2.1-5.8l2.4-1.3l-2.1,5.8
				L96.2,58.7z M101.2,56.4l1.1-2.6l0.8,1.8L101.2,56.4z M88,63.5L87,61.9l0.8-3.4l2.4-1.3l-1.3,6.1L88,63.5z"/>
		</g>
		<g>
			<path class="st51" d="M72,71.1c4.2-4.2,8.7-7.9,13.7-11.3l2.4,3.7c-4.7,3.2-9,6.8-13.2,10.8L72,71.1z"/>
			<path class="st52" d="M77.8,71.6l0.3-6.3l2.1-1.6c-0.3,2.1-0.5,4-0.5,6.1L77.8,71.6z M82,68l0.8-6.1l2.1-1.6l-1.1,6.1L82,68z
				 M86.5,64.5l0.5-2.9l1.1,1.6L86.5,64.5z M74.9,74.3L73.5,73v-3.4l2.1-1.8l-0.3,6.1L74.9,74.3z"/>
		</g>
		<g>
			<path class="st51" d="M60.6,84.8c3.4-5,7.1-9.5,11.3-13.7l3.2,3.2c-4,4-7.4,8.4-10.8,13.2L60.6,84.8z"/>
			<path class="st52" d="M66.4,84.3l-0.8-6.1c0.5-0.8,1.3-1.3,1.8-2.1c0,2.1,0.3,4,0.5,6.1L66.4,84.3z M69.9,79.8l-0.3-6.1l1.8-2.1
				l0.3,6.1L69.9,79.8z M73.5,75.6v-2.9l1.3,1.3L73.5,75.6z M64.3,87.2l-1.6-1.1l-0.5-3.4l1.6-2.1l1.1,6.1L64.3,87.2z"/>
		</g>
		<g>
			<path class="st51" d="M52.2,100.4c2.4-5.5,5-10.5,8.4-15.5l3.7,2.4c-3.2,4.7-5.8,9.7-7.9,14.8L52.2,100.4z"/>
			<path class="st52" d="M58,98.8L55.9,93c0.3-0.8,0.8-1.6,1.3-2.4c0.5,1.8,1.1,4,1.8,5.8L58,98.8z M60.4,93.8L58.8,88l1.3-2.4
				l1.6,6.1L60.4,93.8z M63.3,88.8l-0.8-2.9l1.6,1.1L63.3,88.8z M56.4,102.2l-1.8-0.8c-0.5-1.1-0.8-2.1-1.3-3.2l1.3-2.4l2.1,5.8
				L56.4,102.2z"/>
		</g>
		<g>
			<path class="st51" d="M47.2,117.5c1.3-5.8,2.9-11.6,5.3-16.9l4,1.6c-2.1,5.3-3.7,10.5-5,16.1L47.2,117.5z"/>
			<path class="st52" d="M52.2,114.6l-3.2-5.3c0.3-0.8,0.5-1.8,0.8-2.6c0.8,1.8,1.8,3.7,2.9,5.5L52.2,114.6z M53.8,109.1l-2.6-5.5
				l1.1-2.6l2.6,5.5L53.8,109.1z M55.6,104l-1.3-2.6l1.8,0.8L55.6,104z M51.4,118.3l-1.8-0.3c-0.8-1.1-1.3-1.8-1.8-2.9l0.8-2.6
				l3.2,5.3L51.4,118.3z"/>
		</g>
		<g>
			<path class="st51" d="M45.4,135.1c0-5.8,0.5-11.9,1.8-17.6l4.2,0.8c-1.1,5.5-1.6,11.1-1.6,16.9H45.4z"/>
			<path class="st52" d="M50.1,131.2l-4.2-4.7c0-1.1,0.3-1.8,0.3-2.6c1.1,1.6,2.6,3.2,4,4.7V131.2z M50.4,125.6l-3.7-4.7l0.5-2.6
				l3.7,5L50.4,125.6z M51.2,120.1l-1.6-2.4l2.1,0.3L51.2,120.1z M49.8,135.1H48l-2.4-2.6l0.3-2.6l4.2,4.5L49.8,135.1z"/>
		</g>
		<g>
			<path class="st51" d="M47.2,152.5c-1.1-5.8-1.6-11.6-1.8-17.6h4.5c0,5.5,0.5,11.3,1.6,16.9L47.2,152.5z"/>
			<path class="st52" d="M50.9,148l-5-3.7l-0.3-2.6c1.6,1.3,2.9,2.6,4.7,4L50.9,148z M50.1,142.5l-4.5-4l-0.3-2.6l4.5,4.2
				L50.1,142.5z M49.8,137l-2.1-1.8h2.1V137z M51.4,151.7l-1.8,0.5l-2.9-2.1l-0.5-2.6l5,3.7L51.4,151.7z"/>
		</g>
		<g>
			<path class="st51" d="M52.2,169.6c-2.1-5.5-4-11.1-5.3-16.9l4.2-0.8c1.1,5.5,2.9,10.8,5,16.1L52.2,169.6z"/>
			<path class="st52" d="M55.1,164.4c-1.8-0.8-3.7-1.6-5.5-2.6l-0.8-2.6c1.8,1.1,3.4,2.1,5.3,2.9L55.1,164.4z M53.3,159.1l-5.3-3.2
				l-0.8-2.6l5.3,3.2L53.3,159.1z M51.9,153.6c-0.8-0.5-1.6-1.1-2.4-1.6l2.1-0.3C51.4,152.5,51.7,153,51.9,153.6z M56.4,167.8
				l-1.8,0.8l-3.2-1.3l-1.1-2.6l5.5,2.6L56.4,167.8z"/>
		</g>
		<g>
			<path class="st51" d="M60.6,185.2c-3.2-5-6.1-10.3-8.4-15.5l4-1.6c2.1,5.3,5,10,7.9,14.8L60.6,185.2z"/>
			<path class="st52" d="M62.2,179.6l-6.1-1.6l-1.3-2.4c1.8,0.8,3.7,1.3,5.8,1.8L62.2,179.6z M59.6,174.6l-5.8-2.1l-1.3-2.4l5.8,2.1
				L59.6,174.6z M57.2,169.6l-2.6-1.1l1.8-0.8L57.2,169.6z M64.3,182.8l-1.6,1.1l-3.4-0.8l-1.3-2.4l6.1,1.3L64.3,182.8z"/>
		</g>
		<g>
			<path class="st51" d="M72,198.9c-4.2-4.2-7.9-8.7-11.3-13.7l3.7-2.4c3.2,4.7,6.8,9,10.8,13.2L72,198.9z"/>
			<path class="st52" d="M72.5,193.1l-6.3-0.3l-1.6-2.1c2.1,0.3,4,0.5,6.1,0.5L72.5,193.1z M68.8,188.9l-6.1-0.8l-1.6-2.1l6.1,1.1
				L68.8,188.9z M65.4,184.4l-2.6-0.5l1.6-1.1L65.4,184.4z M74.9,195.7l-1.3,1.3h-3.4l-1.8-2.1l6.1,0.3L74.9,195.7z"/>
		</g>
		<g>
			<path class="st51" d="M85.7,210.2c-5-3.4-9.5-7.1-13.7-11.3l3.2-3.2c4,4,8.4,7.4,13.2,10.8L85.7,210.2z"/>
			<path class="st52" d="M84.9,204.4l-6.1,0.8c-0.8-0.5-1.3-1.3-2.1-1.8c2.1,0,4-0.3,6.1-0.5L84.9,204.4z M80.7,201l-6.1,0.3
				l-2.1-1.8l6.1-0.3L80.7,201z M76.4,197h-2.9l1.3-1.3L76.4,197z M88,206.5l-1.1,1.6l-3.4,0.5l-2.1-1.6l6.1-1.1L88,206.5z"/>
		</g>
		<g>
			<path class="st51" d="M101.2,218.4c-5.5-2.4-10.5-5-15.5-8.4l2.4-3.7c4.7,3.2,9.7,5.8,14.8,7.9L101.2,218.4z"/>
			<path class="st52" d="M99.4,212.8l-5.8,2.1c-0.8-0.3-1.6-0.8-2.4-1.3c1.8-0.5,4-1.1,5.8-1.8L99.4,212.8z M94.4,210.5l-5.8,1.6
				l-2.4-1.3l6.1-1.6L94.4,210.5z M89.6,207.6l-2.9,0.8l1.1-1.6L89.6,207.6z M102.8,214.4l-0.8,1.8c-1.1,0.5-2.1,0.8-3.2,1.3
				l-2.4-1.3l5.8-2.1L102.8,214.4z"/>
		</g>
		<g>
			<path class="st51" d="M118.1,223.6c-5.8-1.3-11.6-2.9-16.9-5.3l1.6-4c5.3,2.1,10.5,3.7,16.1,5L118.1,223.6z"/>
			<path class="st52" d="M115.4,218.4l-5.3,3.2c-0.8-0.3-1.8-0.5-2.6-0.8c1.8-0.8,3.7-1.8,5.5-2.9L115.4,218.4z M109.9,217.1
				l-5.5,2.6l-2.6-1.1l5.5-2.6L109.9,217.1z M104.6,215.2l-2.6,1.3l0.8-1.8L104.6,215.2z M119.1,219.4l-0.3,1.8
				c-1.1,0.8-1.8,1.3-2.9,1.8l-2.6-0.8l5.3-3.2L119.1,219.4z"/>
		</g>
		<g>
			<path class="st51" d="M135.7,225.5c-5.8,0-11.9-0.5-17.6-1.8l0.8-4.2c5.5,1.1,11.1,1.6,16.9,1.6
				C135.7,221,135.7,225.5,135.7,225.5z"/>
			<path class="st52" d="M132,220.7l-4.7,4.2c-1.1,0-1.8-0.3-2.6-0.3c1.6-1.1,3.2-2.6,4.7-4H132z M126.5,220.5l-4.7,3.7l-2.6-0.5
				l5-3.7L126.5,220.5z M121,219.7l-2.4,1.6l0.3-2.1L121,219.7z M135.7,221v1.8l-2.6,2.4l-2.6-0.3l4.5-4.2L135.7,221z"/>
		</g>
		<g>
			<path class="st51" d="M153.4,223.6c-5.8,1.1-11.6,1.6-17.6,1.8V221c5.5,0,11.3-0.5,16.9-1.6L153.4,223.6z"/>
			<path class="st52" d="M148.9,219.9l-3.7,5l-2.6,0.3c1.3-1.6,2.6-2.9,4-4.7L148.9,219.9z M143.3,220.7l-4,4.5l-2.6,0.3l4.2-4.5
				L143.3,220.7z M137.8,221l-1.8,2.1V221H137.8z M152.6,219.4l0.3,1.8l-2.1,2.9l-2.6,0.5l3.7-5L152.6,219.4z"/>
		</g>
		<g>
			<path class="st51" d="M170.5,218.4c-5.5,2.1-11.1,4-16.9,5.3l-0.8-4.2c5.5-1.1,10.8-2.9,16.1-5L170.5,218.4z"/>
			<path class="st52" d="M165.2,215.7c-0.8,1.8-1.6,3.7-2.6,5.5l-2.6,0.8c1.1-1.8,2.1-3.4,2.9-5.3L165.2,215.7z M159.9,217.6
				l-3.2,5.3l-2.6,0.8l3.2-5.3L159.9,217.6z M154.4,218.9c-0.5,0.8-1.1,1.6-1.6,2.4l-0.3-2.1C153.4,219.2,153.9,219.2,154.4,218.9z
				 M168.6,214.4l0.8,1.8l-1.3,3.2l-2.6,1.1l2.6-5.5L168.6,214.4z"/>
		</g>
		<g>
			<path class="st51" d="M186,210.2c-5,3.2-10.3,6.1-15.5,8.4l-1.6-4c5.3-2.1,10-5,14.8-7.9L186,210.2z"/>
			<path class="st52" d="M180.5,208.4l-1.6,6.1l-2.4,1.3c0.8-1.8,1.3-3.7,1.8-5.8L180.5,208.4z M175.5,211.3l-2.1,5.8l-2.4,1.3
				l2.1-5.8L175.5,211.3z M170.5,213.6l-1.1,2.6l-0.8-1.8L170.5,213.6z M183.7,206.5l1.1,1.6l-0.8,3.4l-2.4,1.3l1.3-6.1L183.7,206.5
				z"/>
		</g>
		<g>
			<path class="st51" d="M199.7,198.9c-4.2,4.2-8.7,7.9-13.7,11.3l-2.4-3.7c4.7-3.2,9-6.8,13.2-10.8L199.7,198.9z"/>
			<path class="st52" d="M193.9,198.3l-0.3,6.3l-2.1,1.6c0.3-2.1,0.5-4,0.5-6.1L193.9,198.3z M189.7,202l-0.8,6.1l-2.1,1.6l1.1-6.1
				L189.7,202z M185.2,205.5l-0.5,2.9l-1.1-1.6L185.2,205.5z M196.6,195.7l1.3,1.3v3.4l-2.1,1.8l0.3-6.1L196.6,195.7z"/>
		</g>
		<g>
			<path class="st51" d="M211,185.2c-3.4,5-7.1,9.5-11.3,13.7l-3.2-3.2c4-4,7.4-8.4,10.8-13.2L211,185.2z"/>
			<path class="st52" d="M205,185.7l0.8,6.1c-0.5,0.8-1.3,1.3-1.8,2.1c0-2.1-0.3-4-0.5-6.1L205,185.7z M201.6,190.2l0.3,6.1
				l-1.8,2.1l-0.3-6.1L201.6,190.2z M197.9,194.4v2.9l-1.3-1.3L197.9,194.4z M207.4,182.8l1.6,1.1l0.5,3.4l-1.6,2.1l-1.1-6.1
				L207.4,182.8z"/>
		</g>
		<g>
			<path class="st51" d="M219.2,169.6c-2.4,5.5-5,10.5-8.4,15.5l-3.7-2.4c3.2-4.7,5.8-9.7,7.9-14.8L219.2,169.6z"/>
			<path class="st52" d="M213.7,171.2l2.1,5.8c-0.3,0.8-0.8,1.6-1.3,2.4c-0.5-1.8-1.1-4-1.8-5.8L213.7,171.2z M211.3,176.2l1.6,5.8
				l-1.3,2.4l-1.6-6.1L211.3,176.2z M208.4,181.2l0.8,2.9l-1.6-1.1L208.4,181.2z M215.3,167.8l1.8,0.8c0.5,1.1,0.8,2.1,1.3,3.2
				l-1.3,2.4l-2.1-5.8L215.3,167.8z"/>
		</g>
		<g>
			<path class="st51" d="M224.5,152.5c-1.3,5.8-2.9,11.6-5.3,16.9l-4-1.6c2.1-5.3,3.7-10.5,5-16.1L224.5,152.5z"/>
			<path class="st52" d="M219.2,155.4l3.2,5.3c-0.3,0.8-0.5,1.8-0.8,2.6c-0.8-1.8-1.8-3.7-2.9-5.5L219.2,155.4z M217.9,160.9
				l2.6,5.5l-1.1,2.6l-2.6-5.5L217.9,160.9z M216.1,166.2l1.3,2.6l-1.8-0.8L216.1,166.2z M220.3,151.7l1.8,0.3
				c0.8,1.1,1.3,1.8,1.8,2.9l-0.8,2.6l-3.2-5.3L220.3,151.7z"/>
		</g>
		<g>
			<path class="st51" d="M226.1,135.1c0,5.8-0.5,11.9-1.8,17.6L220,152c1.1-5.5,1.6-11.1,1.6-16.9
				C221.6,135.1,226.1,135.1,226.1,135.1z"/>
			<path class="st52" d="M221.6,138.8l4.2,4.7c0,1.1-0.3,1.8-0.3,2.6c-1.1-1.6-2.6-3.2-4-4.7V138.8z M221.3,144.3l3.7,4.7l-0.5,2.6
				l-3.7-5L221.3,144.3z M220.5,149.9l1.6,2.4L220,152L220.5,149.9z M221.8,135.1h1.8l2.4,2.6l-0.3,2.6l-4.2-4.5L221.8,135.1z"/>
		</g>
	</g>
	<g class="st232">
		<g>
			<path d="M226.1,135.1c0-2.1-0.3-4.5-0.3-6.6l0,0l-0.3-2.6l0,0c-0.3-2.6-0.5-5.5-1.1-8.2l-2.4,0.5l0,0l2.4-0.5
				c0-0.3,0-0.5-0.3-0.8l0,0l-0.5-1.8c-0.3-1.3-0.5-2.4-1.1-3.7l0,0l-0.8-2.6l0,0c-0.8-2.6-1.8-5.3-2.9-7.9l-2.4,1.1l0,0l2.4-1.1
				c0-0.3-0.3-0.5-0.3-0.8l0,0l-0.8-1.8c-0.5-1.1-1.1-2.4-1.6-3.4l0,0l-1.3-2.4l0,0c-1.3-2.4-2.6-4.7-4.2-7.1l-2.1,1.3l0,0l2.1-1.3
				c-0.3-0.3-0.3-0.5-0.5-0.5l0,0l-0.8-1.1c-0.8-1.3-1.8-2.4-2.6-3.7l0,0l-1.6-2.1l0,0c-1.8-2.1-3.7-4.2-5.5-6.3
				c-1.6-1.6-3.2-2.9-5-4.5l0,0c-0.8-0.5-1.3-1.3-2.1-1.8l0,0c-2.1-1.8-4.5-3.4-6.6-5c-1.8-1.3-3.7-2.4-5.8-3.4l0,0
				c-0.8-0.5-1.6-1.1-2.4-1.3l0,0c-1.6-0.8-3.4-1.8-5-2.6l0,0l0,0c-0.8-0.3-1.6-0.8-2.4-1.1c-2.1-0.8-4.2-1.6-6.3-2.4l0,0
				c-0.8-0.3-1.8-0.5-2.6-0.8l0,0c-1.8-0.5-3.7-1.1-5.5-1.3h-0.3l0,0c-0.8-0.3-1.6-0.5-2.4-0.5c-2.1-0.5-4.5-0.8-6.6-1.1l0,0
				c-0.8,0-1.8-0.3-2.6-0.3l0,0c-2.6-0.3-5.5-0.5-8.4-0.5c-2.1,0-4.5,0.3-6.6,0.3l0,0l-2.6,0.3l0,0c-2.6,0.3-5.5,0.5-8.2,1.1
				c-0.3,0-0.5,0-0.8,0.3l0,0h-2.1c-1.3,0.3-2.6,0.5-3.7,1.1l0,0l-2.6,0.8l0,0c-2.6,0.8-5.3,1.8-7.9,2.9c-0.3,0-0.5,0.3-0.8,0.3l0,0
				l-1.8,0.8c-1.3,0.5-2.4,1.1-3.4,1.6l0,0l-2.4,1.3l0,0c-2.4,1.3-4.7,2.6-7.1,4.2c-0.3,0.3-0.5,0.3-0.5,0.5l0,0l-1.1,0.8
				c-1.3,0.8-2.6,1.8-3.7,2.9l0,0L78,65.3l0,0c-2.1,1.8-4.2,3.7-6.3,5.5c-1.6,1.6-2.9,3.2-4.5,5l0,0c-0.5,0.8-1.3,1.3-1.8,2.1l0,0
				c-1.8,2.1-3.4,4.5-5,6.6l1.8,1.3l0,0l-1.8-1.3c-1.3,1.8-2.4,3.7-3.4,5.8l0,0c-0.5,0.8-1.1,1.6-1.3,2.4l0,0
				c-0.8,1.6-1.6,3.4-2.4,5V98l0,0c-0.3,0.8-0.8,1.6-1.1,2.4c-0.8,2.1-1.6,4.2-2.4,6.3l0,0c-0.3,0.8-0.5,1.8-0.8,2.6l0,0
				c-0.5,1.8-1.1,3.7-1.3,5.5v0.3l0,0c-0.3,0.8-0.5,1.6-0.5,2.4c-0.5,2.1-0.8,4.5-1.1,6.6l0,0c0,0.8-0.3,1.8-0.3,2.6l0,0
				c-0.3,2.9-0.5,5.5-0.5,8.4c0,2.1,0.3,4.5,0.3,6.6l0,0l0.3,2.6l0,0c0.3,2.6,0.5,5.5,1.1,8.2l2.4-0.5l0,0l-2.4,0.5
				c0,0.3,0,0.5,0.3,0.8l0,0l0.5,1.8c0.3,1.3,0.5,2.4,1.1,3.7l0,0l0.8,2.6l0,0c0.8,2.6,1.8,5.3,2.9,7.9c0,0.3,0.3,0.5,0.3,0.8l0,0
				l0.8,1.8c0.5,1.1,1.1,2.4,1.6,3.4l0,0l1.3,2.4l0,0c1.3,2.4,2.6,4.7,4.2,7.1l2.1-1.3l0,0l-2.1,1.3c0.3,0.3,0.3,0.5,0.5,0.5l0,0
				l0.8,1.1c0.8,1.3,1.8,2.4,2.6,3.7l0,0l1.6,2.1l0,0c1.8,2.1,3.7,4.2,5.5,6.3c1.6,1.6,3.2,2.9,5,4.5l0,0c0.8,0.5,1.3,1.3,2.1,1.8
				l0,0c2.1,1.8,4.5,3.4,6.6,5c1.8,1.3,3.7,2.4,5.8,3.4l0,0c0.8,0.5,1.6,1.1,2.4,1.3l0,0c1.6,0.8,3.4,1.8,5,2.6l0,0l0,0
				c0.8,0.3,1.6,0.8,2.4,1.1c2.1,0.8,4.2,1.6,6.3,2.4l0,0c0.8,0.3,1.8,0.5,2.6,0.8l0,0c1.8,0.5,3.7,1.1,5.5,1.6h0.3l0,0
				c0.8,0.3,1.6,0.5,2.4,0.5c2.1,0.5,4.5,0.8,6.6,1.1l0,0c0.8,0,1.8,0.3,2.6,0.3l0,0c2.9,0.3,5.5,0.5,8.4,0.5c2.1,0,4.5-0.3,6.6-0.3
				l0,0l2.6-0.3l0,0c2.6-0.3,5.5-0.5,8.2-1.1l-0.5-2.4l0,0l0.5,2.4c0.3,0,0.5,0,0.8-0.3l0,0l1.8-0.5c1.3-0.3,2.6-0.5,4-1.1l0,0
				l2.6-0.8l0,0c2.6-0.8,5.3-1.8,7.9-2.9l-0.8-2.1l0,0l0.8,2.1c0.3,0,0.5-0.3,0.8-0.3l0,0l1.8-0.8c1.3-0.5,2.4-1.1,3.4-1.6l0,0
				l2.4-1.3l0,0c2.4-1.3,4.7-2.6,7.1-4.2l-1.3-2.1l0,0l1.3,2.1c0.3-0.3,0.5-0.3,0.5-0.5l0,0l1.1-0.8c1.3-0.8,2.4-1.8,3.7-2.9l0,0
				l2.1-1.6l0,0c2.1-1.8,4.2-3.7,6.3-5.5c1.6-1.6,2.9-3.2,4.5-5l0,0c0.5-0.8,1.3-1.3,1.8-2.1l0,0c1.8-2.1,3.4-4.5,5-6.6l-1.8-1.3
				l0,0l1.8,1.3c1.3-1.8,2.4-3.7,3.4-5.8l0,0c0.5-0.8,1.1-1.6,1.3-2.4l0,0c0.8-1.6,1.6-3.4,2.4-5v-0.3l0,0c0.3-0.8,0.8-1.6,1.1-2.4
				l-2.1-0.8l0,0l2.1,0.8c0.8-2.1,1.6-4.2,2.4-6.3l0,0c0.3-0.8,0.5-1.8,0.8-2.6l0,0c0.5-1.8,1.1-3.7,1.3-5.5v-0.3l0,0
				c0.3-0.8,0.5-1.6,0.5-2.4c0.5-2.1,0.8-4.5,1.1-6.6l0,0c0-0.8,0.3-1.8,0.3-2.6l0,0C226.1,140.7,226.1,137.8,226.1,135.1z
				 M219.2,155.4L219.2,155.4l-0.5,2.1c-0.5,1.8-1.1,3.4-1.6,5.3l-0.3,0.3l0,0c-0.3,1.1-0.8,1.8-1.1,2.9l0,0l-0.8,1.8
				c-0.5,1.1-1.1,2.4-1.6,3.4l0,0l-1.1,2.1c-0.8,1.6-1.6,3.2-2.6,4.7l-0.3,0.5l0,0c-0.5,0.8-1.1,1.6-1.6,2.6l0,0l-1.1,1.6
				c-0.8,1.1-1.6,2.1-2.1,3.2l0,0l-1.3,1.8c-1.1,1.3-2.1,2.6-3.2,4l-0.5,0.8l0,0c-0.5,0.8-1.3,1.6-2.1,2.1l0,0l-1.3,1.3l-0.5,0.5
				l0,0c-0.8,0.8-1.6,1.3-2.1,2.1l0,0l-1.6,1.3c-1.3,1.1-2.6,2.1-4,3.2l-1.1,0.8l0,0c-0.8,0.5-1.6,1.1-2.4,1.8l0,0l-1.6,1.1
				l-0.8,0.5l0,0c-0.8,0.5-1.6,1.1-2.6,1.6l0,0l-1.3,0.8c-1.6,0.8-3.2,1.8-4.7,2.6l-1.1,0.5l0,0c-1.6,0.8-2.9,1.3-4.5,2.1l-0.8,0.3
				l0,0c-1.1,0.3-1.8,0.8-2.9,1.1l0,0l-1.3,0.5c-1.8,0.5-3.4,1.1-5.3,1.6l-1.1,0.3l0,0c-1.6,0.5-3.2,0.8-4.7,1.1h-0.8l0,0
				c-1.1,0.3-1.8,0.3-2.9,0.5l0,0l-1.8,0.3c-1.6,0.3-3.4,0.3-5.3,0.5h-1.3l0,0c-1.1,0-1.8,0-2.9,0.3l0,0h-1.8h-0.8l0,0
				c-1.1,0-2.1,0-2.9,0l0,0h-2.4c-1.8,0-3.4-0.3-5.3-0.5h-0.8l0,0c-1.1,0-1.8-0.3-2.9-0.5l0,0l-1.8-0.3c-1.3-0.3-2.4-0.5-3.7-0.8
				l0,0l-2.1-0.5c-1.8-0.5-3.4-1.1-5.3-1.6l-0.3-0.3l0,0c-1.1-0.3-1.8-0.8-2.9-1.1l0,0l-1.8-0.8c-1.1-0.5-2.4-1.1-3.4-1.6l0,0
				l-2.1-1.1c-1.6-0.8-3.2-1.6-4.7-2.6l-0.5-0.3l0,0c-0.8-0.5-1.6-1.1-2.6-1.6l0,0l-1.6-1.1c-1.1-0.8-2.1-1.6-3.2-2.1l0,0l-1.8-1.3
				c-1.3-1.1-2.6-2.1-4-3.2l-0.5-0.5l0,0c-0.8-0.5-1.6-1.3-2.1-2.1l0,0l-1.3-1.3l-0.5-0.5l0,0c-0.8-0.8-1.3-1.3-2.1-2.1l0,0
				l-1.3-1.6c-1.1-1.3-2.1-2.6-3.2-4l-0.8-0.8l0,0c-0.5-0.8-1.1-1.6-1.8-2.4l0,0l-1.1-1.6l-0.5-0.8l0,0c-0.5-0.8-1.1-1.6-1.6-2.6
				l0,0l-0.8-1.3c-0.8-1.6-1.8-3.2-2.6-4.7l-0.5-1.1l0,0c-0.8-1.6-1.3-2.9-2.1-4.5l-0.3-0.8l0,0c-0.3-1.1-0.8-1.8-1.1-2.9l0,0
				l-0.5-1.3c-0.5-1.8-1.1-3.4-1.6-5.3l-0.3-1.1l0,0c-0.5-1.6-0.8-3.2-1.1-4.7v-0.8l0,0c-0.3-1.1-0.3-1.8-0.5-2.9l0,0l-0.3-1.8
				c-0.3-1.8-0.3-3.4-0.5-5.3v-1.1l0,0c0-1.1,0-1.8-0.3-2.9l0,0v-1.8v-0.8l0,0c0-1.1,0-2.1,0-2.9l0,0v-2.4c0-1.8,0.3-3.4,0.5-5.3
				v-0.5l0,0c0-1.1,0.3-1.8,0.5-2.9l0,0l0.3-1.8c0.3-1.3,0.5-2.4,0.8-3.7l0,0l0.5-2.1c0.5-1.8,1.1-3.7,1.6-5.3v-0.3l0,0
				c0.3-1.1,0.8-1.8,1.1-2.9l0,0l0.8-1.8c0.5-1.1,1.1-2.4,1.6-3.4l0,0l1.1-2.1c0.8-1.6,1.6-3.2,2.6-4.7l0.3-0.5l0,0
				c0.5-0.8,1.1-1.6,1.6-2.6l0,0l1.1-1.6c0.8-1.1,1.6-2.1,2.1-3.2l0,0l1.3-1.8c1.1-1.3,2.1-2.6,3.2-4l0.5-0.8l0,0
				c0.5-0.8,1.3-1.6,2.1-2.1l0,0l1.3-1.3l0.5-0.5l0,0c0.8-0.8,1.3-1.3,2.1-2.1l0,0l1.6-1.3c1.3-1.1,2.6-2.1,4-3.2l1.1-0.8l0,0
				c0.8-0.5,1.6-1.1,2.4-1.8l0,0L87,64l0.8-0.5l0,0c0.8-0.5,1.6-1.1,2.6-1.6l0,0l1.3-0.8c1.6-0.8,3.2-1.8,4.7-2.6l1.1-0.5l0,0
				c1.6-0.8,2.9-1.3,4.5-2.1l0.8-0.3l0,0c1.1-0.3,1.8-0.8,2.9-1.1l0,0L107,54c1.8-0.5,3.4-1.1,5.3-1.6l1.1-0.3l0,0
				c1.6-0.5,3.2-0.8,4.7-1.1h0.8l0,0c1.1-0.3,1.8-0.3,2.9-0.5l0,0l1.8-0.3c1.8-0.3,3.4-0.3,5.3-0.5h1.1l0,0c1.1,0,1.8,0,2.9-0.3l0,0
				h1.8h0.8l0,0c1.1,0,2.1,0,2.9,0l0,0h2.4c1.8,0,3.4,0.3,5.3,0.5h0.8l0,0c1.1,0,1.8,0.3,2.9,0.5l0,0l1.8,0.3
				c1.3,0.3,2.4,0.5,3.7,0.8l0,0l3.2,0.5c1.8,0.5,3.4,1.1,5.3,1.6l0.3,0.3l0,0c1.1,0.3,1.8,0.8,2.9,1.1l0,0l1.8,0.8
				c1.1,0.5,2.4,1.1,3.4,1.6l0,0l2.1,1.1c1.6,0.8,3.2,1.6,4.7,2.6l0.5,0.3l0,0c0.8,0.5,1.6,1.1,2.6,1.6l0,0l1.6,1.1
				c1.1,0.8,2.1,1.6,3.2,2.1l0,0l1.8,1.3c1.3,1.1,2.6,2.1,4,3.2l0.8,0.5l0,0c0.8,0.5,1.6,1.3,2.1,2.1l0,0l1.3,1.3l0.5,0.5l0,0
				c0.8,0.8,1.3,1.3,2.1,2.1l0,0l1.1,1.3c1.1,1.3,2.1,2.6,3.2,4l0.8,0.8l0,0c0.5,0.8,1.1,1.6,1.8,2.4l0,0l1.1,1.6l0.5,0.8l0,0
				c0.5,0.8,1.1,1.6,1.6,2.6l0,0l0.8,1.6c0.8,1.6,1.8,3.2,2.6,4.7l0.5,1.1l0,0c0.8,1.6,1.3,2.9,2.1,4.5l0.3,0.8l0,0
				c0.3,1.1,0.8,1.8,1.1,2.9l0,0l0.5,1.3c0.5,1.8,1.1,3.4,1.6,5.3l0.3,1.1l0,0c0.5,1.6,0.8,3.2,1.1,4.7v0.8l0,0
				c0.3,1.1,0.3,1.8,0.5,2.9l0,0l0.3,1.8c0.3,1.8,0.3,3.4,0.5,5.3v1.1l0,0c0,1.1,0,1.8,0.3,2.9l0,0v1.8v0.8l0,0c0,1.1,0,2.1,0,2.9
				l0,0v2.4c0,1.8-0.3,3.4-0.5,5.3v0.8l0,0c0,1.1-0.3,1.8-0.5,2.9l0,0l-0.3,1.8C220,153,219.5,154.4,219.2,155.4z"/>
		</g>
	</g>
	
		<linearGradient id="SVGID_50_" gradientUnits="userSpaceOnUse" x1="245.6849" y1="1095.7421" x2="48.1364" y2="1169.5922" gradientTransform="matrix(0.9993 3.770000e-02 -3.770000e-02 0.9993 29.5883 -1001.6153)">
		<stop  offset="0" style="stop-color:#FF7F07"/>
		<stop  offset="1.193483e-02" style="stop-color:#FF8E07"/>
		<stop  offset="3.454242e-02" style="stop-color:#FFA408"/>
		<stop  offset="6.123038e-02" style="stop-color:#FFB508"/>
		<stop  offset="9.425879e-02" style="stop-color:#FFC009"/>
		<stop  offset="0.1406" style="stop-color:#FFC709"/>
		<stop  offset="0.2692" style="stop-color:#FFC909"/>
		<stop  offset="0.3571" style="stop-color:#FEA805"/>
		<stop  offset="0.4396" style="stop-color:#FD6900"/>
		<stop  offset="0.5055" style="stop-color:#FE9E03"/>
		<stop  offset="0.978" style="stop-color:#FFAD08"/>
	</linearGradient>
	<path class="st233" d="M139.9,32.9C83.6,30.8,36.1,74.8,34,131.2S75.9,235,132.3,237.1c56.4,2.1,103.8-41.9,105.9-98.3
		S196.3,35,139.9,32.9z M132.8,223.1c-48.5-1.8-86.4-42.7-84.6-91.4c1.8-48.5,42.7-86.4,91.1-84.6s86.4,42.7,84.6,91.4
		C222.4,187,181.3,225,132.8,223.1z"/>
	
		<linearGradient id="SVGID_51_" gradientUnits="userSpaceOnUse" x1="59.0519" y1="1187.9268" x2="214.1376" y2="1077.1511" gradientTransform="matrix(1 0 0 1 0 -997.89)">
		<stop  offset="1.648350e-02" style="stop-color:#FFD40C"/>
		<stop  offset="1.723681e-02" style="stop-color:#FFD40F"/>
		<stop  offset="2.752537e-02" style="stop-color:#FFDA2E"/>
		<stop  offset="3.893680e-02" style="stop-color:#FFDF49"/>
		<stop  offset="5.206103e-02" style="stop-color:#FFE25F"/>
		<stop  offset="6.739787e-02" style="stop-color:#FFE570"/>
		<stop  offset="8.636095e-02" style="stop-color:#FFE77B"/>
		<stop  offset="0.113" style="stop-color:#FFE982"/>
		<stop  offset="0.1868" style="stop-color:#FFE984"/>
		<stop  offset="0.2103" style="stop-color:#FFE87F"/>
		<stop  offset="0.2388" style="stop-color:#FFE670"/>
		<stop  offset="0.2699" style="stop-color:#FFE157"/>
		<stop  offset="0.3025" style="stop-color:#FFDB36"/>
		<stop  offset="0.3352" style="stop-color:#FFD40C"/>
		<stop  offset="0.3522" style="stop-color:#FFCD0F"/>
		<stop  offset="0.3763" style="stop-color:#FFBB19"/>
		<stop  offset="0.4048" style="stop-color:#FF9C28"/>
		<stop  offset="0.4363" style="stop-color:#FF723E"/>
		<stop  offset="0.4396" style="stop-color:#FF6D40"/>
		<stop  offset="0.4565" style="stop-color:#FF8634"/>
		<stop  offset="0.4843" style="stop-color:#FFA822"/>
		<stop  offset="0.5107" style="stop-color:#FFC016"/>
		<stop  offset="0.535" style="stop-color:#FFCF0F"/>
		<stop  offset="0.5549" style="stop-color:#FFD40C"/>
		<stop  offset="0.7143" style="stop-color:#FFE984"/>
		<stop  offset="0.7692" style="stop-color:#FFFFFF"/>
		<stop  offset="0.8132" style="stop-color:#FFE984"/>
		<stop  offset="0.8791" style="stop-color:#FFAD08"/>
	</linearGradient>
	<path class="st234" d="M202.4,210.2c41.6-36.6,45.6-99.8,9-141.5s-99.8-45.6-141.5-9s-45.6,100.1-9,141.5
		C97.5,242.9,160.7,246.8,202.4,210.2z M76.4,67.4c37.4-32.9,94.3-29.2,127.2,8.2s29.2,94.3-8.2,127.2s-94.3,29.2-127.2-8.2
		C35.6,157.3,39.3,100.4,76.4,67.4z"/>
	<path class="st235" d="M186.3,207.3c-40,27.9-94.8,18.2-122.7-21.9c-11.1-16.1-16.3-34.5-15.8-52.7c-1.6,19.5,3.4,39.8,15.5,57.2
		c27.7,39.8,82.4,49.5,122.2,21.9c20-14,32.4-34.8,36.4-56.9C217.1,175.2,205,194.1,186.3,207.3z"/>
	<path class="st119" d="M136.2,89c-35.3,0-63.7,10.8-63.7-1.1s28.7-34.8,63.7-34.5c35.3,0,63.7,23.2,63.7,35
		C199.7,100.1,171.3,89,136.2,89z"/>
	<g>
		<polygon class="st236" points="229.7,174.9 253.7,173.1 229.7,172.5 238.4,162.5 229,171.7 227.1,147.8 226.6,171.7 216.6,163.1 
			225.5,172.8 201.8,174.4 225.5,174.9 217.1,185.2 226.6,176 228.4,199.7 229,176 239,184.4 		"/>
		<polygon class="st237" points="229,174.4 243.7,173.3 229,173.1 234.2,166.7 228.4,172.5 227.4,157.8 226.9,172.5 220.8,167.3 
			226.3,173.1 211.6,174.1 226.3,174.6 221.1,180.7 227.1,175.2 228.2,189.9 228.4,175.2 234.8,180.4 		"/>
		<polygon class="st238" points="228.2,174.1 234,173.6 228.2,173.6 230.3,171.2 227.9,173.3 227.6,167.5 227.4,173.3 225,171.2 
			227.1,173.6 221.6,173.9 227.1,174.1 225.3,176.5 227.4,174.4 227.9,179.9 227.9,174.4 230.3,176.2 		"/>
	</g>
	<g>
		<polygon class="st236" points="133.6,37.7 167.1,35.3 133.6,34.5 145.7,20.3 132.3,33.2 129.9,0 129.1,33.2 114.9,21.1 
			127.8,34.5 94.4,37.1 127.8,37.9 115.7,51.9 129.1,39.2 131.8,72.4 132.5,39 146.5,51.1 		"/>
		<polygon class="st237" points="132.5,37.1 153.1,35.6 132.5,35 139.9,26.3 131.8,34.2 130.2,13.7 129.7,34.5 121,26.9 128.9,35.3 
			108.3,36.9 128.9,37.1 121.5,45.8 129.7,37.9 131.2,58.7 131.8,37.9 140.5,45.6 		"/>
		<polygon class="st238" points="131.5,36.6 139.4,36.1 131.5,35.8 134.4,32.4 131,35.6 130.4,27.7 130.2,35.6 127,32.7 129.9,35.8 
			122,36.4 129.9,36.6 127.3,40 130.4,36.9 131,44.8 131.2,36.9 134.4,39.8 		"/>
	</g>
</g>
</svg>
