<?xml version="1.0" encoding="utf-8"?>
<!-- Generator: Adobe Illustrator 20.0.0, SVG Export Plug-In . SVG Version: 6.00 Build 0)  -->
<svg version="1.1" id="Capa_1" xmlns="http://www.w3.org/2000/svg" xmlns:xlink="http://www.w3.org/1999/xlink" x="0px" y="0px"
	 viewBox="0 0 60 60" style="enable-background:new 0 0 60 60;" xml:space="preserve">
<style type="text/css">
	.st0{fill:#FBF9F6;}
</style>
<g>
	<g id="shopping-cart">
		<path class="st0" d="M18.7,48.2c-3.2,0-5.9,2.7-5.9,5.9s2.7,5.9,5.9,5.9s5.9-2.7,5.9-5.9S21.9,48.2,18.7,48.2z M1,1v5.9h5.9
			l10.6,22.4l-4.1,7.1c-0.3,0.9-0.6,2.1-0.6,2.9c0,3.2,2.7,5.9,5.9,5.9h35.4v-5.9H19.9c-0.3,0-0.6-0.3-0.6-0.6v-0.3l2.7-5h21.8
			c2.4,0,4.1-1.2,5-2.9l10.6-19.2C60,10.7,60,10.4,60,9.9c0-1.8-1.2-3-3-3H13.4L10.7,1H1z M48.2,48.2c-3.2,0-5.9,2.7-5.9,5.9
			S45,60,48.2,60s5.9-2.7,5.9-5.9S51.4,48.2,48.2,48.2z"/>
	</g>
</g>
</svg>
