<?xml version="1.0" encoding="utf-8"?>
<!-- Generator: Adobe Illustrator 20.0.0, SVG Export Plug-In . SVG Version: 6.00 Build 0)  -->
<svg version="1.1" id="Layer_1" xmlns="http://www.w3.org/2000/svg" xmlns:xlink="http://www.w3.org/1999/xlink" x="0px" y="0px"
	 viewBox="0 0 482.6 557.4" style="enable-background:new 0 0 482.6 557.4;" xml:space="preserve">
<style type="text/css">
	.st0{fill:#FFD40C;}
	.st1{fill:#FFFFFF;}
	.st2{display:none;fill:url(#SVGID_1_);}
</style>
<g>
	<g>
		<g>
			<g>
				<path class="st0" d="M402.4,246.2c0.4,3.2,2.8,5.1,6.2,6.2c0,0,4.2-2.6,3-8.1c-0.6-2.7-3-6-6.7-10.3
					C405,233.9,401.8,240.9,402.4,246.2z"/>
			</g>
			<path class="st0" d="M405.6,237.2c0,0,2.5,8.2,2.9,14.2C408.5,251.4,406.7,247.3,405.6,237.2z"/>
		</g>
		<g>
			<path class="st0" d="M408.7,251.8c0,0,0.2,3.7,1.2,6.1L409,258c0,0-0.2-5.1-0.7-6.3L408.7,251.8z"/>
		</g>
	</g>
	<g>
		<g>
			<g>
				<path class="st0" d="M375.7,226c-2.4-2.1-5.5-1.9-8.7-0.4c0,0-1.3,4.7,3.3,8c2.2,1.6,6.3,2.4,11.8,3.1
					C382.1,236.7,379.7,229.4,375.7,226z"/>
			</g>
			<path class="st0" d="M379.4,234.7c0,0-7.4-4.3-11.7-8.5C367.7,226.1,371.8,228,379.4,234.7z"/>
		</g>
	</g>
	<g>
		<g>
			<g>
				<path class="st0" d="M348.4,220.6c-1.9-2.6-4.9-3.2-8.4-2.4c0,0-2.4,4.3,1.3,8.6c1.8,2.1,5.6,3.8,10.8,5.7
					C352.1,232.5,351.5,224.9,348.4,220.6z"/>
			</g>
			<path class="st0" d="M349.9,229.9c0,0-6.2-5.9-9.4-11C340.6,218.9,344.1,221.7,349.9,229.9z"/>
		</g>
		<g>
			<path class="st0" d="M340.2,218.7c0,0-2-3.1-4-4.7l0.7-0.6c0,0,2.7,4.3,3.7,5.2L340.2,218.7z"/>
		</g>
	</g>
	<g>
		<g>
			<g>
				<path class="st0" d="M417,209.8c-1.9-2.6-4.9-3.2-8.4-2.4c0,0-2.4,4.3,1.3,8.6c1.8,2.1,5.6,3.8,10.8,5.7
					C420.7,221.8,420.1,214.1,417,209.8z"/>
			</g>
			<path class="st0" d="M418.6,219.2c0,0-6.2-5.9-9.4-11C409.2,208.2,412.7,210.9,418.6,219.2z"/>
		</g>
		<g>
			<path class="st0" d="M408.8,208c0,0-2-3.1-4-4.7l0.7-0.6c0,0,2.7,4.3,3.7,5.2L408.8,208z"/>
		</g>
	</g>
	<g>
		<g>
			<g>
				<path class="st0" d="M385.6,158.9c-2.8,1.4-3.9,4.3-3.7,7.9c0,0,3.9,3,8.7,0.1c2.4-1.4,4.7-4.9,7.4-9.7
					C397.9,157.2,390.3,156.6,385.6,158.9z"/>
			</g>
			<path class="st0" d="M395,158.9c0,0-6.9,5.1-12.4,7.5C382.6,166.4,385.9,163.3,395,158.9z"/>
		</g>
		<g>
			<path class="st0" d="M382.4,166.7c0,0-3.4,1.4-5.3,3.2l-0.5-0.8c0,0,4.7-1.9,5.7-2.8L382.4,166.7z"/>
		</g>
	</g>
	<g>
		<g>
			<g>
				<path class="st0" d="M401.8,156.1c0,4.3,2.9,7.4,7.4,9.3c0,0,6-2.9,5.3-10.5c-0.3-3.7-3.2-8.6-7.4-14.9
					C407.1,140,401.8,148.9,401.8,156.1z"/>
			</g>
			<path class="st0" d="M407.5,144.5c0,0,2.2,11.4,1.7,19.6C409.1,164.1,407.4,158.2,407.5,144.5z"/>
		</g>
		<g>
			<path class="st0" d="M409.4,164.6c0,0-0.3,5,0.7,8.4l-1.3,0.1c0,0,0.5-6.9,0-8.7L409.4,164.6z"/>
		</g>
	</g>
	<g>
		<g>
			<g>
				<path class="st0" d="M385,246.4c-1.1,3.5,0.4,6.8,3.6,9.5c0,0,5.7-0.8,7.1-7.2c0.7-3.1-0.3-7.8-2.1-14
					C393.6,234.7,386.9,240.6,385,246.4z"/>
			</g>
			<path class="st0" d="M392.7,238.5c0,0-1.3,9.9-3.8,16.4C388.9,254.9,389,249.6,392.7,238.5z"/>
		</g>
		<g>
			<path class="st0" d="M389,255.4c0,0-1.5,4-1.6,7l-1-0.3c0,0,2.2-5.5,2.3-7.1L389,255.4z"/>
		</g>
	</g>
	<g>
		<g>
			<g>
				<path class="st0" d="M229.4,48.2c-1.1,3.5,0.4,6.8,3.6,9.5c0,0,5.7-0.8,7.1-7.2c0.7-3.1-0.3-7.8-2.1-14
					C237.9,36.5,231.3,42.3,229.4,48.2z"/>
			</g>
			<path class="st0" d="M237,40.3c0,0-1.3,9.9-3.8,16.4C233.2,56.6,233.4,51.4,237,40.3z"/>
		</g>
		<g>
			<path class="st0" d="M233.3,57.1c0,0-1.5,4-1.6,7l-1-0.3c0,0,2.2-5.5,2.3-7.1L233.3,57.1z"/>
		</g>
	</g>
	<g>
		<g>
			<g>
				<path class="st0" d="M399.4,332.9c-0.5-3.6-3.4-5.9-7.4-7c0,0-4.7,3.2-3.2,9.6c0.7,3.1,3.7,6.9,8.1,11.7
					C396.9,347.2,400.3,339,399.4,332.9z"/>
			</g>
			<path class="st0" d="M396.1,343.4c0,0-3.2-9.4-3.8-16.4C392.3,327,394.5,331.8,396.1,343.4z"/>
		</g>
		<g>
			<path class="st0" d="M392,326.6c0,0-0.4-4.2-1.6-7l1.1-0.2c0,0,0.4,5.9,1.1,7.3L392,326.6z"/>
		</g>
	</g>
	<g>
		<g>
			<g>
				<path class="st0" d="M383.8,275.7c-0.2-2.4-2-4-4.6-4.8c0,0-3.2,1.9-2.5,6.1c0.4,2.1,2.2,4.7,4.8,8
					C381.6,284.9,384.2,279.7,383.8,275.7z"/>
			</g>
			<path class="st0" d="M381.2,282.4c0,0-1.7-6.3-1.8-10.9C379.4,271.5,380.6,274.7,381.2,282.4z"/>
		</g>
		<g>
			<path class="st0" d="M379.2,271.3c0,0-0.1-2.8-0.8-4.6l0.7-0.1c0,0,0,3.9,0.4,4.8L379.2,271.3z"/>
		</g>
	</g>
	<g>
		<g>
			<g>
				<path class="st0" d="M433.6,325.3c-3.8-0.8-7.1,1.1-9.7,4.7c0,0,1.4,5.9,8.3,6.8c3.4,0.4,8.3-1.1,14.7-3.7
					C446.9,333.2,440.1,326.7,433.6,325.3z"/>
			</g>
			<path class="st0" d="M442.8,332.6c0,0-10.6-0.4-17.8-2.4C425,330.2,430.6,329.8,442.8,332.6z"/>
		</g>
	</g>
	<g>
		<g>
			<g>
				<path class="st0" d="M439.3,246.9c0,0,10.8,1.7,12.6-18.1C451.8,228.8,434.1,236.9,439.3,246.9z"/>
			</g>
			<path class="st0" d="M449.5,232c0,0-4.9,8.8-9.7,14C439.9,246,442,241.1,449.5,232z"/>
		</g>
	</g>
	<g>
		<g>
			<g>
				<path class="st0" d="M440.5,250.5c0,0,0.1,5.5,10.2,4.6C450.6,255.1,445,247.1,440.5,250.5z"/>
			</g>
			<path class="st0" d="M448.8,254.3c0,0-4.8-1.6-7.9-3.5C441,250.8,443.6,251.4,448.8,254.3z"/>
		</g>
	</g>
	<g>
		<g>
			<g>
				<path class="st0" d="M420.7,262.3c0,0,0.1,5.5,10.2,4.6C430.9,266.9,425.2,258.9,420.7,262.3z"/>
			</g>
			<path class="st0" d="M429.1,266.1c0,0-4.8-1.6-7.9-3.5C421.2,262.6,423.8,263.2,429.1,266.1z"/>
		</g>
	</g>
	<g>
		<g>
			<g>
				<path class="st0" d="M404.8,258.4c0,0,1.9-5.2-7.7-8.1C397.1,250.3,399.3,260,404.8,258.4z"/>
			</g>
			<path class="st0" d="M398.5,251.8c0,0,3.9,3.3,6,6.2C404.4,258,402.2,256.5,398.5,251.8z"/>
		</g>
	</g>
	<g>
		<g>
			<g>
				<path class="st0" d="M46.8,251.5c0,0,1.9-5.2-7.7-8.1C39,243.5,41.3,253.1,46.8,251.5z"/>
			</g>
			<path class="st0" d="M40.4,244.9c0,0,3.9,3.3,6,6.2C46.4,251.1,44.2,249.6,40.4,244.9z"/>
		</g>
	</g>
	<g>
		<g>
			<g>
				<path class="st0" d="M44.9,258.8c0,0-5-2.4-8.8,6.9C36.1,265.7,45.9,264.4,44.9,258.8z"/>
			</g>
			<path class="st0" d="M37.7,264.5c0,0,3.7-3.5,6.8-5.3C44.4,259.2,42.7,261.2,37.7,264.5z"/>
		</g>
	</g>
	<g>
		<g>
			<path class="st0" d="M77.5,257.6"/>
		</g>
	</g>
	<g>
		<g>
			<g>
				<path class="st0" d="M76.9,188.4c0,0,0-5.5-10.1-4.9C66.9,183.5,72.4,191.8,76.9,188.4z"/>
			</g>
			<path class="st0" d="M68.7,184.4c0,0,4.8,1.7,7.8,3.7C76.5,188.2,73.9,187.5,68.7,184.4z"/>
		</g>
	</g>
	<g>
		<g>
			<g>
				<path class="st0" d="M119,205.9c0,0,0-5.5-10.1-4.9C108.9,201,114.4,209.2,119,205.9z"/>
			</g>
			<path class="st0" d="M110.7,201.9c0,0,4.8,1.7,7.8,3.7C118.5,205.6,115.9,205,110.7,201.9z"/>
		</g>
	</g>
	<g>
		<g>
			<g>
				<path class="st0" d="M129.9,209.4c0,0,3.4-4.4-5-10C124.9,199.5,124.3,209.3,129.9,209.4z"/>
			</g>
			<path class="st0" d="M125.8,201.3c0,0,2.7,4.3,3.9,7.7C129.7,209,128,206.8,125.8,201.3z"/>
		</g>
	</g>
	<g>
		<g>
			<path class="st0" d="M151.1,156.1"/>
		</g>
	</g>
	<g>
		<g>
			<g>
				<path class="st0" d="M131.6,145.7c0,0-2.9-4.7-11.1,1.1C120.5,146.8,129.4,151,131.6,145.7z"/>
			</g>
			<path class="st0" d="M122.5,146.6c0,0,5-1,8.6-0.9C131.1,145.8,128.5,146.6,122.5,146.6z"/>
		</g>
	</g>
	<g>
		<g>
			<g>
				<path class="st0" d="M204.2,165c0,0-2.9-4.7-11.1,1.1C193.1,166.1,202.1,170.3,204.2,165z"/>
			</g>
			<path class="st0" d="M195.1,165.9c0,0,5-1,8.6-0.9C203.7,165.1,201.1,165.9,195.1,165.9z"/>
		</g>
	</g>
	<g>
		<g>
			<g>
				<path class="st0" d="M206.2,203.7c0,0,3.4-4.4-5-10C201.2,193.7,200.6,203.6,206.2,203.7z"/>
			</g>
			<path class="st0" d="M202.1,195.5c0,0,2.7,4.3,3.9,7.7C206,203.2,204.3,201.1,202.1,195.5z"/>
		</g>
	</g>
	<g>
		<g>
			<g>
				<path class="st0" d="M27.9,253.8c0,0-3.4-4.4-10.9,2.4C17,256.1,26.4,259.2,27.9,253.8z"/>
			</g>
			<path class="st0" d="M18.9,255.7c0,0,4.8-1.6,8.4-1.9C27.4,253.9,24.9,255,18.9,255.7z"/>
		</g>
	</g>
	<g>
		<g>
			<g>
				<path class="st0" d="M105.6,250.8c0,0-5,2.4,0.1,11.2C105.7,262,110.6,253.4,105.6,250.8z"/>
			</g>
			<path class="st0" d="M105.7,259.9c0,0-0.6-5.1-0.1-8.6C105.6,251.3,106.1,254,105.7,259.9z"/>
		</g>
	</g>
	<g>
		<g>
			<g>
				<path class="st0" d="M130.2,279.7c0,0-1.9-5.2-11.1-1.2C119.1,278.5,127,284.4,130.2,279.7z"/>
			</g>
			<path class="st0" d="M121.1,278.7c0,0,5.1,0,8.6,0.9C129.6,279.6,127,279.9,121.1,278.7z"/>
		</g>
	</g>
	<g>
		<g>
			<g>
				<path class="st0" d="M132.4,285.9c0,0-3.4,4.3,4.8,10.1C137.2,296,138.1,286.2,132.4,285.9z"/>
			</g>
			<path class="st0" d="M136.4,294.2c0,0-2.7-4.3-3.8-7.8C132.6,286.4,134.2,288.6,136.4,294.2z"/>
		</g>
	</g>
	<g>
		<g>
			<g>
				<path class="st0" d="M121.5,297.4c0,0-5.4,1.3-2.3,10.9C119.1,308.3,125.8,301,121.5,297.4z"/>
			</g>
			<path class="st0" d="M119.6,306.3c0,0,0.5-5.1,1.8-8.4C121.4,297.9,121.3,300.6,119.6,306.3z"/>
		</g>
	</g>
	<g>
		<g>
			<g>
				<path class="st0" d="M95.1,223.2c0,0-5.4,1.3-2.3,10.9C92.7,234.1,99.4,226.8,95.1,223.2z"/>
			</g>
			<path class="st0" d="M93.2,232.1c0,0,0.5-5.1,1.8-8.4C94.9,223.7,94.9,226.4,93.2,232.1z"/>
		</g>
	</g>
	<g>
		<g>
			<g>
				<path class="st0" d="M54.5,258.6"/>
			</g>
			<path class="st0" d="M54.8,259"/>
		</g>
	</g>
	<g>
		<g>
			<g>
				<path class="st0" d="M79.7,190.9c0,0,5.5-0.7,3.6-10.6C83.3,180.4,75.8,186.8,79.7,190.9z"/>
			</g>
			<path class="st0" d="M82.6,182.3c0,0-1.1,5-2.8,8.2C79.9,190.4,80.2,187.8,82.6,182.3z"/>
		</g>
	</g>
	<g>
		<g>
			<g>
				<path class="st0" d="M98,259.5c0,0-3.5,4.3,4.7,10.1C102.7,269.6,103.7,259.8,98,259.5z"/>
			</g>
			<path class="st0" d="M101.9,267.8c0,0-2.6-4.4-3.7-7.8C98.2,260,99.8,262.1,101.9,267.8z"/>
		</g>
	</g>
	<g>
		<g>
			<g>
				<path class="st0" d="M116.8,227.3c0,0,2.8-4.8-6.3-9.2C110.5,218,111.2,227.9,116.8,227.3z"/>
			</g>
			<path class="st0" d="M111.6,219.7c0,0,3.3,3.9,4.9,7.1C116.5,226.8,114.6,224.9,111.6,219.7z"/>
		</g>
	</g>
	<g>
		<g>
			<g>
				<path class="st0" d="M196.7,200.9c0,0,4.6-3.1-1.7-11C195.1,189.9,191.4,199,196.7,200.9z"/>
			</g>
			<path class="st0" d="M195.4,191.9c0,0,1.3,4.9,1.3,8.5C196.7,200.4,195.7,197.9,195.4,191.9z"/>
		</g>
	</g>
	<g>
		<g>
			<g>
				<path class="st0" d="M130.7,110.9c0,0,5.5-0.7,3.5-10.6C134.2,100.3,126.8,106.8,130.7,110.9z"/>
			</g>
			<path class="st0" d="M133.5,102.2c0,0-1.1,5-2.7,8.2C130.9,110.4,131.2,107.7,133.5,102.2z"/>
		</g>
	</g>
	<g>
		<g>
			<g>
				<path class="st0" d="M99,218.5c0,0,5.5-0.7,3.5-10.6C102.5,207.8,95,214.4,99,218.5z"/>
			</g>
			<path class="st0" d="M101.8,209.8c0,0-1.1,5-2.7,8.2C99.2,217.9,99.5,215.3,101.8,209.8z"/>
		</g>
	</g>
	<g>
		<g>
			<g>
				<path class="st0" d="M220,164.5c0,0,3.3-4.4-5.1-9.9C214.9,154.6,214.3,164.5,220,164.5z"/>
			</g>
			<path class="st0" d="M215.8,156.4c0,0,2.8,4.3,4,7.7C219.8,164,218.1,162,215.8,156.4z"/>
		</g>
	</g>
	<g>
		<g>
			<g>
				<path class="st0" d="M356.5,180.6c0,0,3.3-4.4-5.1-9.9C351.4,170.7,350.8,180.5,356.5,180.6z"/>
			</g>
			<path class="st0" d="M352.3,172.5c0,0,2.8,4.3,4,7.7C356.3,180.1,354.6,178,352.3,172.5z"/>
		</g>
	</g>
	<g>
		<g>
			<g>
				<path class="st0" d="M207.1,99c0,0-2.5-5-11.2,0.2C196,99.1,204.5,104,207.1,99z"/>
			</g>
			<path class="st0" d="M198,99.1c0,0,5.1-0.6,8.6-0.1C206.6,99,204,99.6,198,99.1z"/>
		</g>
	</g>
	<g>
		<g>
			<g>
				<path class="st0" d="M282,33c0,0,4.6-5.8-6.5-13.5C275.5,19.6,274.4,32.7,282,33z"/>
			</g>
			<path class="st0" d="M276.6,22c0,0,3.6,5.8,5,10.4C281.7,32.4,279.5,29.5,276.6,22z"/>
		</g>
	</g>
	<g>
		<g>
			<g>
				<path class="st0" d="M263.6,28.2c0,0,4.6-5.8-6.5-13.5C257.1,14.7,256,27.9,263.6,28.2z"/>
			</g>
			<path class="st0" d="M258.2,17.2c0,0,3.6,5.8,5,10.4C263.3,27.5,261.1,24.7,258.2,17.2z"/>
		</g>
	</g>
	<g>
		<g>
			<g>
				<path class="st0" d="M225,48.5c0,0,6.1-4.2-2.4-14.8C222.6,33.8,217.8,46.1,225,48.5z"/>
			</g>
			<path class="st0" d="M223,36.4c0,0,1.8,6.6,1.9,11.4C224.9,47.8,223.6,44.4,223,36.4z"/>
		</g>
	</g>
	<g>
		<g>
			<g>
				<path class="st0" d="M178.6,61.6c0,0,6.1-4.2-2.4-14.8C176.2,46.9,171.4,59.2,178.6,61.6z"/>
			</g>
			<path class="st0" d="M176.6,49.5c0,0,1.8,6.6,1.9,11.4C178.5,60.9,177.2,57.5,176.6,49.5z"/>
		</g>
	</g>
	<g>
		<g>
			<g>
				<path class="st0" d="M187.4,73.7c0,0-2.5-5-11.2,0.2C176.2,73.9,184.8,78.8,187.4,73.7z"/>
			</g>
			<path class="st0" d="M178.2,73.9c0,0,5.1-0.6,8.6-0.1C186.8,73.7,184.2,74.3,178.2,73.9z"/>
		</g>
	</g>
	<g>
		<g>
			<g>
				<path class="st0" d="M194.3,129.3c0,0-2.5-5-11.2,0.2C183.1,129.5,191.7,134.4,194.3,129.3z"/>
			</g>
			<path class="st0" d="M185.1,129.5c0,0,5.1-0.6,8.6-0.1C193.7,129.3,191.1,129.9,185.1,129.5z"/>
		</g>
	</g>
	<g>
		<g>
			<g>
				<path class="st0" d="M375.1,164.4c0,0,4.9-2.5-0.3-11.2C374.8,153.3,370,161.9,375.1,164.4z"/>
			</g>
			<path class="st0" d="M374.8,155.3c0,0,0.7,5.1,0.3,8.6C375.1,163.9,374.5,161.3,374.8,155.3z"/>
		</g>
	</g>
	<g>
		<g>
			<g>
				<path class="st0" d="M205.6,148.7c0,0,5.3-1.8,1.4-11.1C207,137.6,200.9,145.5,205.6,148.7z"/>
			</g>
			<path class="st0" d="M206.7,139.6c0,0-0.1,5.1-1.1,8.6C205.6,148.2,205.4,145.5,206.7,139.6z"/>
		</g>
	</g>
	<g>
		<g>
			<g>
				<path class="st0" d="M148.1,146c0,0,5.3-1.8,1.4-11.1C149.5,134.9,143.5,142.7,148.1,146z"/>
			</g>
			<path class="st0" d="M149.3,136.9c0,0-0.1,5.1-1.1,8.6C148.2,145.4,148,142.8,149.3,136.9z"/>
		</g>
	</g>
	<g>
		<g>
			<g>
				<path class="st0" d="M79.8,177.5c0,0,5.5,0,4.9-10C84.7,167.5,76.4,172.9,79.8,177.5z"/>
			</g>
			<path class="st0" d="M83.8,169.3c0,0-1.8,4.8-3.8,7.8C80,177.1,80.7,174.5,83.8,169.3z"/>
		</g>
	</g>
	<g>
		<g>
			<g>
				<path class="st0" d="M77.5,150c0,0,5.5,0,4.9-10C82.4,139.9,74.1,145.4,77.5,150z"/>
			</g>
			<path class="st0" d="M81.5,141.7c0,0-1.8,4.8-3.8,7.8C77.7,149.5,78.4,146.9,81.5,141.7z"/>
		</g>
	</g>
	<g>
		<g>
			<g>
				<path class="st0" d="M318.1,134.1c0,0,4.9-2.5-0.3-11.2C317.8,122.9,313,131.6,318.1,134.1z"/>
			</g>
			<path class="st0" d="M317.8,124.9c0,0,0.7,5.1,0.3,8.6C318.1,133.6,317.5,130.9,317.8,124.9z"/>
		</g>
	</g>
	<g>
		<g>
			<g>
				<path class="st0" d="M329.3,116.2c0,0,5.5-0.4,4.1-10.4C333.3,105.8,325.6,111.8,329.3,116.2z"/>
			</g>
			<path class="st0" d="M332.6,107.6c0,0-1.4,4.9-3.1,8C329.5,115.7,329.9,113,332.6,107.6z"/>
		</g>
	</g>
	<g>
		<g>
			<g>
				<path class="st0" d="M323.1,112.3c0,0,0-5.5-10.1-4.9C313,107.5,318.5,115.7,323.1,112.3z"/>
			</g>
			<path class="st0" d="M314.8,108.4c0,0,4.8,1.7,7.8,3.7C322.6,112.1,320,111.4,314.8,108.4z"/>
		</g>
	</g>
	<g>
		<g>
			<g>
				<path class="st0" d="M296.8,80.4c0,0,0-5.5-10.1-4.9C286.8,75.6,292.3,83.8,296.8,80.4z"/>
			</g>
			<path class="st0" d="M288.6,76.4c0,0,4.8,1.7,7.8,3.7C296.4,80.2,293.8,79.5,288.6,76.4z"/>
		</g>
	</g>
	<g>
		<g>
			<g>
				<path class="st0" d="M272.2,49.6c0,0,5.4-1.3,2.3-10.9C274.5,38.7,267.8,45.9,272.2,49.6z"/>
			</g>
			<path class="st0" d="M274.1,40.6c0,0-0.6,5.1-1.8,8.4C272.3,49.1,272.3,46.4,274.1,40.6z"/>
		</g>
	</g>
	<g>
		<g>
			<g>
				<path class="st0" d="M323.9,71.7c0,0,5.3-1.5,1.9-11C325.8,60.7,319.4,68.3,323.9,71.7z"/>
			</g>
			<path class="st0" d="M325.4,62.7c0,0-0.3,5.1-1.4,8.5C324,71.2,323.9,68.5,325.4,62.7z"/>
		</g>
	</g>
	<g>
		<g>
			<g>
				<path class="st0" d="M328.1,149.7c0,0,6.3-1.1,1.7-11.2C329.8,138.5,322.5,145.7,328.1,149.7z"/>
			</g>
			<path class="st0" d="M329.4,140.5c0,0-0.1,5.2-1.2,8.6C328.2,149.1,327.9,146.4,329.4,140.5z"/>
		</g>
	</g>
	<g>
		<g>
			<g>
				<path class="st0" d="M386.3,155.3c0,0,4.8,2.8,9.3-6.2C395.6,149.2,385.7,149.7,386.3,155.3z"/>
			</g>
			<path class="st0" d="M393.9,150.2c0,0-3.9,3.2-7.2,4.8C386.7,155,388.6,153.1,393.9,150.2z"/>
		</g>
	</g>
	<g>
		<g>
			<g>
				<path class="st0" d="M395.6,113.6c0,0,4.5-3.2-1.8-11C393.8,102.6,390.2,111.8,395.6,113.6z"/>
			</g>
			<path class="st0" d="M394.1,104.6c0,0,1.3,4.9,1.4,8.5C395.5,113.1,394.6,110.6,394.1,104.6z"/>
		</g>
	</g>
	<g>
		<g>
			<g>
				<path class="st0" d="M419,194.7c0,0,4.5-3.2-1.8-11C417.2,183.7,413.6,192.9,419,194.7z"/>
			</g>
			<path class="st0" d="M417.5,185.7c0,0,1.3,4.9,1.4,8.5C419,194.2,418,191.7,417.5,185.7z"/>
		</g>
	</g>
	<g>
		<g>
			<g>
				<path class="st0" d="M447.2,185.1c0,0,3.4,4.3,10.9-2.4C458.1,182.7,448.7,179.7,447.2,185.1z"/>
			</g>
			<path class="st0" d="M456.1,183.1c0,0-4.8,1.6-8.4,1.9C447.7,185,450.1,183.9,456.1,183.1z"/>
		</g>
	</g>
	<g>
		<g>
			<g>
				<path class="st0" d="M397.1,271.9c0,0,2.8,4.8,11.1-0.8C408.3,271.1,399.4,266.7,397.1,271.9z"/>
			</g>
			<path class="st0" d="M406.3,271.2c0,0-5,0.9-8.6,0.7C397.7,271.9,400.3,271.1,406.3,271.2z"/>
		</g>
	</g>
	<g>
		<g>
			<g>
				<path class="st0" d="M338.3,295.8c0,0-4.6-3.1-9.6,5.6C328.7,301.4,338.6,301.5,338.3,295.8z"/>
			</g>
			<path class="st0" d="M330.4,300.4c0,0,4.1-3,7.4-4.4C337.9,296.1,335.9,297.8,330.4,300.4z"/>
		</g>
	</g>
	<g>
		<g>
			<g>
				<path class="st0" d="M341.1,316.9c0,0-5.4,1.4-2.1,11C339,327.9,345.6,320.5,341.1,316.9z"/>
			</g>
			<path class="st0" d="M339.4,325.9c0,0,0.5-5.1,1.6-8.5C341,317.4,341.1,320.1,339.4,325.9z"/>
		</g>
	</g>
	<g>
		<g>
			<path class="st0" d="M398.7,286.7"/>
		</g>
	</g>
	<g>
		<g>
			<g>
				<path class="st0" d="M358.1,223c0,0-4.1,3.7,3.2,10.7C361.3,233.7,363.7,224.1,358.1,223z"/>
			</g>
			<path class="st0" d="M360.7,231.8c0,0-2-4.7-2.5-8.2C358.3,223.5,359.5,225.9,360.7,231.8z"/>
		</g>
	</g>
	<g>
		<g>
			<g>
				<path class="st0" d="M369.8,150.1c0,0,13.6-1.6,8.9-26.1C378.7,124,360.2,139.9,369.8,150.1z"/>
			</g>
			<path class="st0" d="M377,128.7c0,0-2.8,12.3-6.8,20.1C370.3,148.8,371.1,142.2,377,128.7z"/>
		</g>
		<g>
			<path class="st0" d="M370.2,149.5l-0.3-0.2c-1.1,5.4-6.9,6.9-6.9,6.9l0.6,1.1C369.8,154,370.2,149.5,370.2,149.5z"/>
		</g>
	</g>
	<g>
		<g>
			<g>
				<path class="st0" d="M327,106.5c0,0,9-4.9-1-20.6C326,86,317.5,102.1,327,106.5z"/>
			</g>
			<path class="st0" d="M326.2,89.7c0,0,1.4,9.3,0.8,15.9C327,105.5,325.7,100.7,326.2,89.7z"/>
		</g>
		<g>
			<path class="st0" d="M327.2,106H327c0.7,4-2.9,6.7-2.9,6.7l0.7,0.6C328.1,109.3,327.2,106,327.2,106z"/>
		</g>
	</g>
	<g>
		<g>
			<g>
				<path class="st0" d="M235.1,198.5c0,0,9-4.9-1-20.6C234.1,177.9,225.6,194,235.1,198.5z"/>
			</g>
			<path class="st0" d="M234.3,181.6c0,0,1.4,9.3,0.8,15.9C235.1,197.5,233.8,192.7,234.3,181.6z"/>
		</g>
		<g>
			<path class="st0" d="M235.2,197.9H235c0.7,4-2.9,6.7-2.9,6.7l0.7,0.6C236.2,201.2,235.2,197.9,235.2,197.9z"/>
		</g>
	</g>
	<g>
		<g>
			<g>
				<path class="st0" d="M58.9,249.3c0,0,1.1-10.1-17.5-10.8C41.4,238.5,49.8,254.6,58.9,249.3z"/>
			</g>
			<path class="st0" d="M44.5,240.4c0,0,8.5,4.1,13.5,8.3C58,248.8,53.4,247.1,44.5,240.4z"/>
		</g>
		<g>
			<path class="st0" d="M58.5,248.9l-0.2,0.2c3.7,1.7,3.9,6.2,3.9,6.2l0.9-0.3C61.7,249.9,58.5,248.9,58.5,248.9z"/>
		</g>
	</g>
	<g>
		<g>
			<g>
				<path class="st0" d="M140.4,127.2c0,0,9-4.9-1-20.6C139.4,106.7,130.9,122.8,140.4,127.2z"/>
			</g>
			<path class="st0" d="M139.6,110.4c0,0,1.4,9.3,0.8,15.9C140.4,126.2,139.2,121.4,139.6,110.4z"/>
		</g>
		<g>
			<path class="st0" d="M140.6,126.7h-0.2c0.7,4-2.9,6.7-2.9,6.7l0.7,0.6C141.5,129.9,140.6,126.7,140.6,126.7z"/>
		</g>
	</g>
	<g>
		<g>
			<g>
				<path class="st0" d="M294.8,47.3c0,0,9-4.9-1-20.6C293.9,26.7,285.4,42.8,294.8,47.3z"/>
			</g>
			<path class="st0" d="M294,30.4c0,0,1.4,9.3,0.8,15.9C294.8,46.3,293.6,41.5,294,30.4z"/>
		</g>
		<g>
			<path class="st0" d="M295,46.7h-0.2c0.7,4-2.9,6.7-2.9,6.7l0.7,0.6C295.9,50,295,46.7,295,46.7z"/>
		</g>
	</g>
	<g>
		<g>
			<g>
				<path class="st0" d="M325.4,79.4c0,0,1.8,10,19.8,5.5C345.2,84.9,332.6,71.8,325.4,79.4z"/>
			</g>
			<path class="st0" d="M341.6,83.9c0,0-9.3-1.6-15.3-4.2C326.3,79.7,331.3,80,341.6,83.9z"/>
		</g>
		<g>
			<path class="st0" d="M325.8,79.7l0.1-0.2c-4.1-0.6-5.5-4.9-5.5-4.9l-0.8,0.5C322.4,79.6,325.8,79.7,325.8,79.7z"/>
		</g>
	</g>
	<g>
		<g>
			<g>
				<path class="st0" d="M348.7,100.2c0,0,10,2.2,12.7-16.2C361.4,84,344.4,90.7,348.7,100.2z"/>
			</g>
			<path class="st0" d="M359.1,86.9c0,0-5,8-9.8,12.5C349.3,99.5,351.5,95,359.1,86.9z"/>
		</g>
		<g>
			<path class="st0" d="M349.1,99.9l-0.2-0.2c-2.1,3.5-6.6,3.2-6.6,3.2l0.2,0.9C347.7,103,349.1,99.9,349.1,99.9z"/>
		</g>
	</g>
	<g>
		<g>
			<g>
				<path class="st0" d="M220.4,97.4c0,0,9-4.9-1-20.6C219.4,76.8,210.9,92.9,220.4,97.4z"/>
			</g>
			<path class="st0" d="M219.5,80.5c0,0,1.4,9.3,0.8,15.9C220.4,96.4,219.1,91.6,219.5,80.5z"/>
		</g>
		<g>
			<path class="st0" d="M220.5,96.8h-0.2c0.7,4-2.9,6.7-2.9,6.7l0.7,0.6C221.5,100.1,220.5,96.8,220.5,96.8z"/>
		</g>
	</g>
	<g>
		<g>
			<g>
				<path class="st0" d="M200.2,127.7c0,0,9-4.9-1-20.6C199.2,107.1,190.7,123.2,200.2,127.7z"/>
			</g>
			<path class="st0" d="M199.3,110.8c0,0,1.4,9.3,0.8,15.9C200.1,126.7,198.9,121.9,199.3,110.8z"/>
		</g>
		<g>
			<path class="st0" d="M200.3,127.1h-0.2c0.7,4-2.9,6.7-2.9,6.7l0.7,0.6C201.3,130.4,200.3,127.1,200.3,127.1z"/>
		</g>
	</g>
	<g>
		<g>
			<g>
				<path class="st0" d="M134,204c0,0,9-4.9-1-20.6C133,183.4,124.5,199.5,134,204z"/>
			</g>
			<path class="st0" d="M133.1,187.1c0,0,1.4,9.3,0.8,15.9C133.9,203,132.7,198.2,133.1,187.1z"/>
		</g>
		<g>
			<path class="st0" d="M134.1,203.4h-0.2c0.7,4-2.9,6.7-2.9,6.7l0.7,0.6C135.1,206.7,134.1,203.4,134.1,203.4z"/>
		</g>
	</g>
	<g>
		<g>
			<g>
				<path class="st0" d="M178.5,206.7c0,0-8.7-5.4-17.4,11.1C161.1,217.8,179.3,217.2,178.5,206.7z"/>
			</g>
			<path class="st0" d="M164.3,215.8c0,0,7.4-5.8,13.4-8.6C177.6,207.2,174.1,210.7,164.3,215.8z"/>
		</g>
		<g>
			<path class="st0" d="M177.9,206.9l0.1,0.2c3.1-2.6,7.3-0.8,7.3-0.8l0.2-0.9C180.3,204.4,177.9,206.9,177.9,206.9z"/>
		</g>
	</g>
	<g>
		<g>
			<g>
				<path class="st0" d="M146.4,276c0,0-9.9,2.6-3.9,20.2C142.5,296.2,154.5,282.6,146.4,276z"/>
			</g>
			<path class="st0" d="M143.2,292.6c0,0,0.8-9.4,3-15.6C146.2,277,146.2,282,143.2,292.6z"/>
		</g>
		<g>
			<path class="st0" d="M146.1,276.5l0.2,0.1c0.2-4.1,4.4-5.9,4.4-5.9l-0.6-0.8C145.9,273.2,146.1,276.5,146.1,276.5z"/>
		</g>
	</g>
	<g>
		<g>
			<path class="st0" d="M177.7,189.2v0.2c4-0.7,6.7,2.9,6.7,2.9l0.6-0.7C181,188.2,177.7,189.2,177.7,189.2z"/>
		</g>
	</g>
	<g>
		<g>
			<g>
				<path class="st0" d="M198.9,158.2c0,0-5.2-8.8-20.5,1.9C178.4,160.1,194.9,167.9,198.9,158.2z"/>
			</g>
			<path class="st0" d="M182.1,159.8c0,0,9.2-1.8,15.8-1.5C197.9,158.3,193.2,159.7,182.1,159.8z"/>
		</g>
		<g>
			<path class="st0" d="M198.4,158.1v0.3c4-0.9,6.8,2.6,6.8,2.6l0.6-0.8C201.6,157,198.4,158.1,198.4,158.1z"/>
		</g>
	</g>
	<g>
		<g>
			<g>
				<path class="st0" d="M128.1,119.3c0,0-2-7.8-16-3.2C112.1,116.1,122.8,125.7,128.1,119.3z"/>
			</g>
			<path class="st0" d="M115,116.7c0,0,7.4,0.7,12.3,2.4C127.3,119.1,123.4,119.2,115,116.7z"/>
		</g>
		<g>
			<path class="st0" d="M127.7,119.1l-0.1,0.2c3.2,0.2,4.6,3.5,4.6,3.5l0.6-0.4C130.4,119,127.7,119.1,127.7,119.1z"/>
		</g>
	</g>
	<g>
		<g>
			<g>
				<path class="st0" d="M348.8,133.4c0,0,9-4.9-1-20.6C347.9,112.9,339.4,129,348.8,133.4z"/>
			</g>
			<path class="st0" d="M348,116.6c0,0,1.4,9.3,0.8,15.9C348.8,132.4,347.6,127.6,348,116.6z"/>
		</g>
		<g>
			<path class="st0" d="M349,132.9h-0.2c0.7,4-2.9,6.7-2.9,6.7l0.7,0.6C350,136.1,349,132.9,349,132.9z"/>
		</g>
	</g>
	<g>
		<g>
			<g>
				<path class="st0" d="M95.1,242c0,0-5.6-12.5-27.5-0.9C67.6,241.1,88.2,254.2,95.1,242z"/>
			</g>
			<path class="st0" d="M72.5,241.3c0,0,12.5-0.9,21.2,0.6C93.8,241.9,87.2,243.1,72.5,241.3z"/>
		</g>
		<g>
			<path class="st0" d="M94.4,241.7l-0.1,0.3c5.5-0.5,8.7,4.6,8.7,4.6l0.9-0.9C98.8,240.8,94.4,241.7,94.4,241.7z"/>
		</g>
	</g>
	<g>
		<g>
			<g>
				<path class="st0" d="M150.7,253.9c0,0-5.6-12.5-27.5-0.9C123.2,253.1,143.8,266.1,150.7,253.9z"/>
			</g>
			<path class="st0" d="M128.1,253.3c0,0,12.5-0.9,21.2,0.6C149.4,253.9,142.9,255,128.1,253.3z"/>
		</g>
		<g>
			<path class="st0" d="M150,253.7l-0.1,0.3c5.5-0.5,8.7,4.6,8.7,4.6l0.9-0.9C154.5,252.7,150,253.7,150,253.7z"/>
		</g>
	</g>
	<g>
		<g>
			<g>
				<path class="st0" d="M260.6,121.1c0,0,8.6-5.9-3.1-20.9C257.5,100.2,250.5,117.5,260.6,121.1z"/>
			</g>
			<path class="st0" d="M258,104c0,0,2.4,9.3,2.5,16.1C260.5,120.1,258.7,115.3,258,104z"/>
		</g>
		<g>
			<path class="st0" d="M260.7,120.5h-0.3c1.2,4-2.3,7.2-2.3,7.2l0.8,0.6C262,123.7,260.7,120.5,260.7,120.5z"/>
		</g>
	</g>
	<g>
		<g>
			<g>
				<path class="st0" d="M254.5,140c0,0-10.4-1.2-11.2,17.9C243.3,157.9,259.9,149.3,254.5,140z"/>
			</g>
			<path class="st0" d="M245.4,154.7c0,0,4.3-8.6,8.6-13.8C254,140.9,252.2,145.6,245.4,154.7z"/>
		</g>
		<g>
			<path class="st0" d="M254.1,140.4l0.2,0.2c1.8-3.8,6.4-4,6.4-4l-0.3-0.9C255.2,137.1,254.1,140.4,254.1,140.4z"/>
		</g>
	</g>
	<g>
		<g>
			<g>
				<path class="st0" d="M75.6,151c0,0,7.3-7.5-7.3-19.8C68.3,131.3,64.9,149.6,75.6,151z"/>
			</g>
			<path class="st0" d="M69.5,134.8c0,0,4.2,8.6,5.7,15.2C75.2,150.1,72.5,145.8,69.5,134.8z"/>
		</g>
	</g>
	<g>
		<g>
			<g>
				<path class="st0" d="M269,55.9c0,0,2.4-10.2-16.4-13.3C252.6,42.7,259.1,60.1,269,55.9z"/>
			</g>
			<path class="st0" d="M255.6,45.1c0,0,8.1,5.3,12.7,10.2C268.2,55.3,263.7,52.9,255.6,45.1z"/>
		</g>
		<g>
			<path class="st0" d="M268.7,55.5l-0.2,0.2c3.6,2.2,3.2,6.8,3.2,6.8l1-0.1C271.8,56.9,268.7,55.5,268.7,55.5z"/>
		</g>
	</g>
	<g>
		<g>
			<g>
				<path class="st0" d="M379.8,190.1c0,0,9.3-1.1,6.1-17.9C385.9,172.2,373.2,183.1,379.8,190.1z"/>
			</g>
			<path class="st0" d="M384.8,175.4c0,0-1.9,8.4-4.7,13.9C380.1,189.2,380.7,184.7,384.8,175.4z"/>
		</g>
		<g>
			<path class="st0" d="M380.1,189.7l-0.2-0.1c-0.7,3.7-4.8,4.8-4.8,4.8l0.4,0.8C379.8,192.8,380.1,189.7,380.1,189.7z"/>
		</g>
	</g>
	<g>
		<g>
			<g>
				<path class="st0" d="M421.1,204.2c0,0,1.9,11.5,22.6,6.6C443.7,210.8,429.5,195.6,421.1,204.2z"/>
			</g>
			<path class="st0" d="M439.6,209.5c0,0-10.6-1.9-17.4-5C422.2,204.5,427.9,205,439.6,209.5z"/>
		</g>
		<g>
			<path class="st0" d="M421.7,204.5l0.1-0.3c-4.6-0.7-6.2-5.6-6.2-5.6l-0.9,0.6C417.8,204.4,421.7,204.5,421.7,204.5z"/>
		</g>
	</g>
	<g>
		<g>
			<g>
				<path class="st0" d="M75.3,198.7c0,0-3.4-12-24.7-4.4C50.6,194.3,67.5,208.8,75.3,198.7z"/>
			</g>
			<path class="st0" d="M55,195.1c0,0,11.4,0.8,19.1,3.3C74.1,198.4,68.1,198.6,55,195.1z"/>
		</g>
		<g>
			<path class="st0" d="M74.7,198.4l-0.1,0.3c5,0.2,7.2,5.3,7.2,5.3l0.9-0.7C78.8,198.1,74.7,198.4,74.7,198.4z"/>
		</g>
	</g>
	<g>
		<g>
			<g>
				<path class="st0" d="M90.8,221.5c0,0-6.4-8.6-21.2,4C69.6,225.5,87.6,232,90.8,221.5z"/>
			</g>
			<path class="st0" d="M73.4,224.8c0,0,9.5-2.8,16.4-3.2C89.8,221.6,85,223.6,73.4,224.8z"/>
		</g>
		<g>
			<path class="st0" d="M90.3,221.4v0.3c4.1-1.4,7.4,2,7.4,2l0.5-0.9C93.5,219.9,90.3,221.4,90.3,221.4z"/>
		</g>
	</g>
	<g>
		<g>
			<g>
				<path class="st0" d="M116.1,197.8c0,0-10.5-2-5.5-20.9C110.5,176.9,124.2,190.3,116.1,197.8z"/>
			</g>
			<path class="st0" d="M111.6,180.6c0,0,1.5,9.8,4.2,16.1C115.8,196.8,115.5,191.6,111.6,180.6z"/>
		</g>
		<g>
			<path class="st0" d="M115.8,197.3l0.2-0.1c0.6,4.3,5.1,5.8,5.1,5.8l-0.5,0.9C115.8,200.9,115.8,197.3,115.8,197.3z"/>
		</g>
	</g>
	<g>
		<g>
			<g>
				<path class="st0" d="M19.3,242.8c0,0-10.5-2-5.5-20.9C13.8,221.9,27.4,235.4,19.3,242.8z"/>
			</g>
			<path class="st0" d="M14.8,225.7c0,0,1.5,9.8,4.2,16.1C19.1,241.8,18.8,236.6,14.8,225.7z"/>
		</g>
		<g>
			<path class="st0" d="M19,242.3l0.2-0.1c0.6,4.3,5.1,5.8,5.1,5.8l-0.5,0.9C19.1,245.9,19,242.3,19,242.3z"/>
		</g>
	</g>
	<g>
		<g>
			<g>
				<path class="st0" d="M74.4,176.8c0,0,0.7-8.4-14.6-8.6C59.8,168.2,67,181.4,74.4,176.8z"/>
			</g>
			<path class="st0" d="M62.4,169.8c0,0,7.1,3.2,11.3,6.6C73.7,176.4,69.8,175.1,62.4,169.8z"/>
		</g>
		<g>
			<path class="st0" d="M74.1,176.5l-0.1,0.2c3.1,1.3,3.3,5,3.3,5l0.8-0.2C76.8,177.3,74.1,176.5,74.1,176.5z"/>
		</g>
	</g>
	<g>
		<g>
			<g>
				<path class="st0" d="M424.9,193.3c0,0,9.7-1.2,6.4-18.6C431.3,174.6,418.1,186,424.9,193.3z"/>
			</g>
			<path class="st0" d="M430.1,178c0,0-2,8.8-4.9,14.4C425.3,192.4,425.8,187.7,430.1,178z"/>
		</g>
		<g>
			<path class="st0" d="M425.2,192.8l-0.2-0.1c-0.8,3.8-5,5-5,5l0.4,0.8C425,196,425.2,192.8,425.2,192.8z"/>
		</g>
	</g>
	<g>
		<g>
			<g>
				<path class="st0" d="M390.7,126.4c0,0,6.1-7.6-8.5-17.8C382.3,108.6,380.7,125.9,390.7,126.4z"/>
			</g>
			<path class="st0" d="M383.7,111.8c0,0,4.7,7.7,6.6,13.7C390.3,125.5,387.5,121.7,383.7,111.8z"/>
		</g>
		<g>
			<path class="st0" d="M390.6,125.8l-0.2,0.1c2.1,3.3-0.1,7-0.1,7l0.9,0.3C392.7,128.4,390.6,125.8,390.6,125.8z"/>
		</g>
	</g>
	<g>
		<g>
			<g>
				<path class="st0" d="M333,287.2c0,0-8.5-4.2-15.1,11.7C317.8,298.9,334.6,296.8,333,287.2z"/>
			</g>
			<path class="st0" d="M320.5,296.8c0,0,6.3-6,11.7-9.1C332.2,287.7,329.2,291.2,320.5,296.8z"/>
		</g>
		<g>
			<path class="st0" d="M332.5,287.4l0.1,0.2c2.7-2.7,6.7-1.4,6.7-1.4l0.1-0.9C334.4,284.9,332.5,287.4,332.5,287.4z"/>
		</g>
	</g>
	<g>
		<g>
			<path class="st0" d="M90,260.6"/>
		</g>
	</g>
	<g>
		<g>
			<g>
				<path class="st0" d="M137.6,265.9c0,0-5.1-8-19,2.2C118.6,268.1,134.1,275,137.6,265.9z"/>
			</g>
			<path class="st0" d="M122,267.8c0,0,8.5-1.9,14.7-1.8C136.7,266,132.3,267.4,122,267.8z"/>
		</g>
		<g>
			<path class="st0" d="M137.1,265.8v0.2c3.7-0.9,6.4,2.3,6.4,2.3l0.5-0.7C140.1,264.7,137.1,265.8,137.1,265.8z"/>
		</g>
	</g>
	<g>
		<g>
			<g>
				<path class="st0" d="M361.3,295.9c0,0,8.9,9.2,24.4-8.1C385.7,287.8,363.4,283,361.3,295.9z"/>
			</g>
			<path class="st0" d="M381.3,289.2c0,0-10.7,4.8-18.8,6.3C362.5,295.5,367.8,292.4,381.3,289.2z"/>
		</g>
		<g>
			<path class="st0" d="M362,295.9v-0.3c-4.6,2.2-9.1-1.2-9.1-1.2l-0.5,1.1C358.4,298.1,362,295.9,362,295.9z"/>
		</g>
	</g>
	<g>
		<g>
			<g>
				<path class="st0" d="M359.1,307.1c0,0,10.5,7.2-3.9,25.4C355.2,332.6,346.8,311.4,359.1,307.1z"/>
			</g>
			<path class="st0" d="M355.9,328c0,0,3-11.4,3.1-19.6C359,308.4,356.8,314.2,355.9,328z"/>
		</g>
		<g>
			<path class="st0" d="M359.2,307.8h-0.3c1.4-4.9-2.7-8.8-2.7-8.8l1-0.7C360.9,303.9,359.2,307.8,359.2,307.8z"/>
		</g>
	</g>
	<g>
		<g>
			<g>
				<path class="st0" d="M357.5,165.3c0,0,1.8-12.8-17.8-12.1C339.7,153.2,343.9,163.1,357.5,165.3z"/>
			</g>
			<path class="st0" d="M357.1,164.5c0,0-2.8-7.6-12.6-9.2C344.6,155.4,353.3,159,357.1,164.5z"/>
		</g>
		<g>
			<path class="st0" d="M357.2,164.8c0,0,3.8,1.6,5.3,5.6l-0.6,0.2c0,0-2-4.4-5-5.4L357.2,164.8z"/>
		</g>
	</g>
	<g>
		<g>
			<g>
				<path class="st0" d="M135,143.2c0,0,1.8-12.8-17.8-12.1C117.2,131.1,121.5,141,135,143.2z"/>
			</g>
			<path class="st0" d="M134.7,142.5c0,0-2.8-7.6-12.6-9.2C122.1,133.3,130.8,137,134.7,142.5z"/>
		</g>
		<g>
			<path class="st0" d="M134.8,142.7c0,0,3.8,1.6,5.3,5.6l-0.6,0.2c0,0-2-4.4-5-5.4L134.8,142.7z"/>
		</g>
	</g>
	<g>
		<g>
			<g>
				<path class="st0" d="M312.1,139.6c0,0,8.1-10.1-9-19.5C303,120,301.6,130.7,312.1,139.6z"/>
			</g>
			<path class="st0" d="M312.2,138.8c0,0,1.5-7.9-6.1-14.3C306.1,124.4,311.7,132,312.2,138.8z"/>
		</g>
		<g>
			<path class="st0" d="M312.1,139c0,0,2.4,3.3,1.7,7.5l-0.6-0.1c0,0,0.5-4.8-1.5-7.2L312.1,139z"/>
		</g>
	</g>
	<g>
		<g>
			<g>
				<path class="st0" d="M388.2,204.7c0,0-2.6,12.7,17,13.2C405.2,217.9,401.6,207.8,388.2,204.7z"/>
			</g>
			<path class="st0" d="M388.5,205.5c0,0,2.4,7.7,12,9.9C400.5,215.4,392,211.2,388.5,205.5z"/>
		</g>
		<g>
			<path class="st0" d="M388.4,205.2c0,0-3.7-1.8-5-5.9l0.6-0.2c0,0,1.7,4.5,4.6,5.7L388.4,205.2z"/>
		</g>
	</g>
	<g>
		<g>
			<g>
				<path class="st0" d="M353.4,213.9c0,0,11.7,11.2,25.2-9.2C378.7,204.7,365.6,201.8,353.4,213.9z"/>
			</g>
			<path class="st0" d="M354.5,214.1c0,0,9.7,2.7,18.5-6.1C372.9,208.1,362.9,214.3,354.5,214.1z"/>
		</g>
		<g>
			<path class="st0" d="M354.1,214c0,0-4.3,2.7-9.5,1.3l0.2-0.8c0,0,5.9,1.2,9.1-1.1L354.1,214z"/>
		</g>
	</g>
	<g>
		<g>
			<g>
				<path class="st0" d="M438.3,183.9c0,0,16.5-3.1,7.6-26.9C445.8,157,435.4,166.3,438.3,183.9z"/>
			</g>
			<path class="st0" d="M439.1,183.2c0,0,8.1-6.6,6.1-19.3C445.1,163.9,444.3,176.2,439.1,183.2z"/>
		</g>
		<g>
			<path class="st0" d="M438.8,183.4c0,0-0.3,5.3-4.7,8.9l-0.5-0.7c0,0,4.5-4.3,4.6-8.3L438.8,183.4z"/>
		</g>
	</g>
	<g>
		<g>
			<g>
				<path class="st0" d="M200.7,78.5c0,0,11-2.1,5-17.9C205.7,60.6,198.8,66.8,200.7,78.5z"/>
			</g>
			<path class="st0" d="M201.2,78.1c0,0,5.4-4.4,4-12.8C205.3,65.2,204.7,73.4,201.2,78.1z"/>
		</g>
		<g>
			<path class="st0" d="M201,78.2c0,0-0.2,3.5-3.1,5.9l-0.4-0.4c0,0,3-2.8,3-5.5H201z"/>
		</g>
	</g>
	<g>
		<g>
			<g>
				<path class="st0" d="M195.3,149.2c0,0,0.2-18.1-26.9-13.7C168.5,135.5,176.1,148.5,195.3,149.2z"/>
			</g>
			<path class="st0" d="M194.8,148.1c0,0-5.3-10-19.1-10.5C175.6,137.7,188.4,141.2,194.8,148.1z"/>
		</g>
		<g>
			<path class="st0" d="M194.9,148.5c0,0,5.5,1.5,8.4,6.8l-0.8,0.4c0,0-3.5-5.7-7.9-6.6L194.9,148.5z"/>
		</g>
	</g>
	<g>
		<g>
			<g>
				<path class="st0" d="M289,154c0,0,14.5,0.3,11.1-21.3C300.1,132.6,289.7,138.6,289,154z"/>
			</g>
			<path class="st0" d="M289.8,153.5c0,0,8-4.1,8.5-15.2C298.3,138.3,295.4,148.5,289.8,153.5z"/>
		</g>
		<g>
			<path class="st0" d="M289.5,153.6c0,0-1.2,4.4-5.5,6.6l-0.3-0.6c0,0,4.6-2.8,5.3-6.2L289.5,153.6z"/>
		</g>
	</g>
	<g>
		<g>
			<g>
				<path class="st0" d="M236.4,83.2c0,0,11,0.2,8.4-16.2C244.8,67,236.9,71.6,236.4,83.2z"/>
			</g>
			<path class="st0" d="M237,82.9c0,0,6.1-3.1,6.4-11.5C243.5,71.4,241.3,79.1,237,82.9z"/>
		</g>
		<g>
			<path class="st0" d="M236.8,83c0,0-0.9,3.3-4.2,5l-0.3-0.5c0,0,3.5-2.1,4-4.7L236.8,83z"/>
		</g>
	</g>
	<g>
		<g>
			<g>
				<path class="st0" d="M188.9,112.9c0,0,3-10.6-13.5-12.3C175.4,100.6,177.8,109.4,188.9,112.9z"/>
			</g>
			<path class="st0" d="M188.7,112.2c0,0-1.5-6.7-9.5-9.2C179.2,103,186.1,107.1,188.7,112.2z"/>
		</g>
		<g>
			<path class="st0" d="M188.8,112.4c0,0,3,1.7,3.8,5.3l-0.5,0.1c0,0-1.2-3.9-3.5-5.1L188.8,112.4z"/>
		</g>
	</g>
	<g>
		<g>
			<g>
				<path class="st0" d="M303.9,73c0,0,17.7-3.3,8.1-28.8C312,44.3,300.8,54.2,303.9,73z"/>
			</g>
			<path class="st0" d="M304.8,72.3c0,0,8.7-7.1,6.5-20.6C311.3,51.7,310.3,64.8,304.8,72.3z"/>
		</g>
		<g>
			<path class="st0" d="M304.5,72.5c0,0-0.4,5.7-5,9.5l-0.6-0.7c0,0,4.9-4.5,4.9-8.9L304.5,72.5z"/>
		</g>
	</g>
	<g>
		<g>
			<g>
				<path class="st0" d="M86.9,194.7c0,0,18.1-3.4,8.3-29.5C95.2,165.2,83.8,175.4,86.9,194.7z"/>
			</g>
			<path class="st0" d="M87.8,193.9c0,0,8.9-7.2,6.7-21.1C94.5,172.7,93.5,186.2,87.8,193.9z"/>
		</g>
		<g>
			<path class="st0" d="M87.5,194.1c0,0-0.4,5.8-5.1,9.7l-0.6-0.7c0,0,5-4.7,5-9.1L87.5,194.1z"/>
		</g>
	</g>
	<g>
		<g>
			<g>
				<path class="st0" d="M189,65.4c0,0,11.2-9.7-6.1-23.8C182.8,41.6,179,53.3,189,65.4z"/>
			</g>
			<path class="st0" d="M189.3,64.5c0,0,3.3-8.6-3.9-17.4C185.4,47.2,190.1,56.9,189.3,64.5z"/>
		</g>
		<g>
			<path class="st0" d="M189.2,64.8c0,0,2.1,4.2,0.4,8.8l-0.7-0.3c0,0,1.6-5.2-0.2-8.4L189.2,64.8z"/>
		</g>
	</g>
	<g>
		<g>
			<g>
				<path class="st0" d="M274.3,95.9c0,0-0.9-14.6-22.4-9.4C251.9,86.5,258.8,96.5,274.3,95.9z"/>
			</g>
			<path class="st0" d="M273.8,95.1c0,0-4.8-7.7-16-7.3C257.8,87.8,268.3,89.9,273.8,95.1z"/>
		</g>
		<g>
			<path class="st0" d="M274,95.4c0,0,4.5,0.9,7.2,5l-0.6,0.4c0,0-3.2-4.4-6.7-4.8L274,95.4z"/>
		</g>
	</g>
	<g>
		<g>
			<g>
				<path class="st0" d="M291.5,181.4c0,0,4.5-13.9,24.1-3.5C315.6,177.8,306.4,185.8,291.5,181.4z"/>
			</g>
			<path class="st0" d="M292.2,180.7c0,0,6.6-6.3,17.3-3.1C309.6,177.6,298.9,177,292.2,180.7z"/>
		</g>
		<g>
			<path class="st0" d="M292,181c0,0-4.6-0.3-8.2,3l0.5,0.5c0,0,4.2-3.5,7.7-3V181z"/>
		</g>
	</g>
	<g>
		<g>
			<g>
				<path class="st0" d="M229,166.2c0,0,4.5-13.9,24.1-3.5C253.1,162.7,243.9,170.6,229,166.2z"/>
			</g>
			<path class="st0" d="M229.7,165.6c0,0,6.6-6.3,17.3-3.1C247.1,162.5,236.4,161.9,229.7,165.6z"/>
		</g>
		<g>
			<path class="st0" d="M229.5,165.8c0,0-4.6-0.3-8.2,3l0.5,0.5c0,0,4.2-3.5,7.7-3V165.8z"/>
		</g>
	</g>
	<g>
		<g>
			<g>
				<path class="st0" d="M132.1,220.9c0,0,4.5-13.9,24.1-3.5C156.1,217.3,146.9,225.3,132.1,220.9z"/>
			</g>
			<path class="st0" d="M132.8,220.3c0,0,6.6-6.3,17.3-3.1C150.1,217.2,139.4,216.6,132.8,220.3z"/>
		</g>
		<g>
			<path class="st0" d="M132.5,220.5c0,0-4.6-0.3-8.2,3l0.5,0.5c0,0,4.2-3.5,7.7-3V220.5z"/>
		</g>
	</g>
	<g>
		<g>
			<g>
				<path class="st0" d="M176.2,258.9c0,0,1.1,14.6-21,12.3C155.3,271.2,160.8,260.4,176.2,258.9z"/>
			</g>
			<path class="st0" d="M175.8,259.7c0,0-3.8,8.3-14.9,9.4C160.9,269.1,171,265.6,175.8,259.7z"/>
		</g>
		<g>
			<path class="st0" d="M175.9,259.4c0,0,4.4-1.5,6.4-5.9l-0.7-0.3c0,0-2.6,4.8-6,5.7L175.9,259.4z"/>
		</g>
	</g>
	<g>
		<g>
			<g>
				<path class="st0" d="M36.3,248.5c0,0-14.6,1.3-12.7-20.8C23.6,227.7,34.5,233.1,36.3,248.5z"/>
			</g>
			<path class="st0" d="M35.4,248.1c0,0-8.4-3.6-9.6-14.7C25.8,233.3,29.4,243.4,35.4,248.1z"/>
		</g>
		<g>
			<path class="st0" d="M35.7,248.2c0,0,1.5,4.4,6,6.3l0.3-0.7c0,0-4.8-2.5-5.8-5.9L35.7,248.2z"/>
		</g>
	</g>
	<g>
		<g>
			<g>
				<path class="st0" d="M93.5,211.6c0,0-5.6-9.6,10.1-15.4C103.6,196.2,103.5,205.4,93.5,211.6z"/>
			</g>
			<path class="st0" d="M93.5,210.9c0,0-0.2-6.9,6.9-11.4C100.4,199.5,94.7,205.3,93.5,210.9z"/>
		</g>
		<g>
			<path class="st0" d="M93.5,211.1c0,0-2.5,2.5-2.4,6.2h0.6c0,0,0.1-4.1,2.2-5.9L93.5,211.1z"/>
		</g>
	</g>
	<g>
		<g>
			<g>
				<path class="st0" d="M246.3,124.8c0,0-4.5-13.9-24.1-3.5C222.3,121.3,231.4,129.2,246.3,124.8z"/>
			</g>
			<path class="st0" d="M245.6,124.2c0,0-6.6-6.3-17.3-3.1C228.3,121.1,239,120.5,245.6,124.2z"/>
		</g>
		<g>
			<path class="st0" d="M245.8,124.4c0,0,4.6-0.3,8.2,3l-0.5,0.5c0,0-4.2-3.5-7.7-3V124.4z"/>
		</g>
	</g>
	<g>
		<g>
			<g>
				<path class="st0" d="M398.1,133.1c0,0,15.5,6.9,21.7-17.9C419.7,115.2,405.8,116.9,398.1,133.1z"/>
			</g>
			<path class="st0" d="M399.1,133c0,0,10.5-0.8,16.1-12.5C415.2,120.5,407.5,130.2,399.1,133z"/>
		</g>
		<g>
			<path class="st0" d="M398.8,133c0,0-3.3,4.2-8.9,4.7l-0.1-0.8c0,0,6.2-0.9,8.6-4.3L398.8,133z"/>
		</g>
	</g>
	<g>
		<g>
			<g>
				<path class="st0" d="M408.1,322.1c0,0,10.6,11.3,24.6-7.5C432.7,314.6,420.4,311.2,408.1,322.1z"/>
			</g>
			<path class="st0" d="M409.1,322.4c0,0,9.2,3,17.9-4.8C427,317.5,417.1,322.9,409.1,322.4z"/>
		</g>
		<g>
			<path class="st0" d="M408.8,322.3c0,0-4.3,2.4-9.2,0.8l0.2-0.7c0,0,5.5,1.4,8.7-0.6L408.8,322.3z"/>
		</g>
	</g>
	<g>
		<g>
			<g>
				<path class="st0" d="M336.2,308.4c0,0-11.5-1.2-10.2,16.3C326,324.7,334.7,320.6,336.2,308.4z"/>
			</g>
			<path class="st0" d="M335.5,308.7c0,0-6.7,2.8-7.8,11.6C327.7,320.2,330.7,312.3,335.5,308.7z"/>
		</g>
		<g>
			<path class="st0" d="M335.8,308.6c0,0,1.3-3.4,4.8-5l0.2,0.5c0,0-3.8,1.9-4.7,4.6L335.8,308.6z"/>
		</g>
	</g>
	<g>
		<g>
			<g>
				<path class="st0" d="M344.3,298.1c0,0,8.8-0.9,7.8,12.4C352.1,310.5,345.5,307.4,344.3,298.1z"/>
			</g>
			<path class="st0" d="M344.8,298.4c0,0,5.1,2.1,5.9,8.8C350.7,307.1,348.5,301.1,344.8,298.4z"/>
		</g>
		<g>
			<path class="st0" d="M344.7,298.3c0,0-1-2.6-3.6-3.8l-0.2,0.4c0,0,2.9,1.5,3.5,3.5L344.7,298.3z"/>
		</g>
	</g>
	<g>
		<g>
			<path class="st0" d="M392.3,280.7"/>
		</g>
	</g>
	<g>
		<g>
			<g>
				<path class="st0" d="M128.7,293c0,0-6.9,4.7,1.9,13.7C130.6,306.8,133.5,300.5,128.7,293z"/>
			</g>
			<path class="st0" d="M128.4,293.5c0,0-2.4,4.6,1.1,10C129.5,303.5,127.5,297.8,128.4,293.5z"/>
		</g>
		<g>
			<path class="st0" d="M128.5,293.4c0,0-0.9-2.5,0.3-5l0.4,0.2c0,0-1.2,2.8-0.4,4.7L128.5,293.4z"/>
		</g>
	</g>
	<g>
		<g>
			<g>
				<path class="st0" d="M124.6,286c0,0-5.2-6.6-13.6,2.9C111,288.9,117.5,291.3,124.6,286z"/>
			</g>
			<path class="st0" d="M124.1,285.8c0,0-4.8-2.1-9.9,1.8C114.2,287.6,119.8,285.2,124.1,285.8z"/>
		</g>
		<g>
			<path class="st0" d="M124.2,285.9c0,0,2.4-1.1,5,0l-0.2,0.4c0,0-2.9-1-4.7-0.1L124.2,285.9z"/>
		</g>
	</g>
	<g>
		<g>
			<g>
				<path class="st0" d="M50.8,261.7c0,0-11.5,0.3-7.9,17.3C42.8,279,50.8,273.9,50.8,261.7z"/>
			</g>
			<path class="st0" d="M50.1,262.1c0,0-6.2,3.6-6.1,12.3C44,274.5,45.9,266.3,50.1,262.1z"/>
		</g>
		<g>
			<path class="st0" d="M50.4,262c0,0,0.8-3.5,4.1-5.5l0.3,0.5c0,0-3.5,2.4-4,5.1L50.4,262z"/>
		</g>
	</g>
	<g>
		<g>
			<g>
				<path class="st0" d="M37.7,257.7c0,0-9.5-6.5-16.6,9.3C21.1,267,30.6,267.5,37.7,257.7z"/>
			</g>
			<path class="st0" d="M37,257.6c0,0-7.1-0.8-12.2,6.3C24.8,264,31.1,258.5,37,257.6z"/>
		</g>
		<g>
			<path class="st0" d="M37.3,257.6c0,0,2.7-2.4,6.5-2l-0.1,0.6c0,0-4.2-0.1-6.2,1.8L37.3,257.6z"/>
		</g>
	</g>
	<g>
		<g>
			<g>
				<path class="st0" d="M200,210.3c0,0-9.5-6.5-16.6,9.3C183.4,219.6,192.9,220.2,200,210.3z"/>
			</g>
			<path class="st0" d="M199.2,210.3c0,0-7.1-0.8-12.2,6.3C187,216.6,193.4,211.2,199.2,210.3z"/>
		</g>
		<g>
			<path class="st0" d="M199.5,210.3c0,0,2.7-2.4,6.5-2l-0.1,0.6c0,0-4.2-0.1-6.2,1.8L199.5,210.3z"/>
		</g>
	</g>
	<g>
		<g>
			<path class="st0" d="M398.7,280.2"/>
		</g>
	</g>
	<g>
		<g>
			<g>
				<path class="st0" d="M415.1,265.4c0,0,8-2.5,9.6,10C424.7,275.4,418,273.8,415.1,265.4z"/>
			</g>
			<path class="st0" d="M415.6,265.5c0,0,5.1,1,7.2,7C422.8,272.5,419.5,267.4,415.6,265.5z"/>
		</g>
		<g>
			<path class="st0" d="M415.4,265.5c0,0-1.4-2.2-4.1-2.8l-0.1,0.4c0,0,3,0.8,4,2.6L415.4,265.5z"/>
		</g>
	</g>
	<g>
		<g>
			<g>
				<path class="st0" d="M430.4,249.8c0,0-6.2-5.6,3.7-13.4C434,236.4,436.1,243.1,430.4,249.8z"/>
			</g>
			<path class="st0" d="M430.2,249.3c0,0-1.8-4.9,2.4-9.8C432.6,239.5,429.8,245,430.2,249.3z"/>
		</g>
		<g>
			<path class="st0" d="M430.3,249.5c0,0-1.2,2.3-0.3,5l0.4-0.1c0,0-0.8-3,0.2-4.7L430.3,249.5z"/>
		</g>
	</g>
	<g>
		<g>
			<g>
				<path class="st0" d="M376.4,319.6l7.9,7.9c0,0-1,0.2-3.5-0.4c-1.5-0.4-2.8-1-4.6-2.1c-5.8-3.5-6.6-10.6-5.1-13.5L376.4,319.6z"
					/>
			</g>
			<g>
				<path class="st0" d="M371.1,311.6c0,0-4.3,3,1.9,9.3c1.5,1.5,6.2,5,11.3,6.6C384.2,327.5,376.4,318.7,371.1,311.6z"/>
			</g>
		</g>
		<polygon class="st0" points="371.2,312.1 367.4,307.3 367.7,306.8 371.6,312.4 		"/>
	</g>
	<g>
		<g>
			<g>
				<path class="st0" d="M72.3,214.2l-9.4,4.1c0,0,0.1-0.9,1.5-2.9c0.8-1.2,1.8-2.1,3.3-3.2c4.9-3.7,11.2-2.1,13.1,0.2L72.3,214.2z"
					/>
			</g>
			<g>
				<path class="st0" d="M80.9,212.3c0,0-1.1-4.7-8.6-1.5c-1.8,0.8-6.3,3.6-9.4,7.4C62.9,218.3,73.1,214.5,80.9,212.3z"/>
			</g>
		</g>
		<polygon class="st0" points="80.4,212.3 85.8,210.6 86.1,211.1 80.1,212.5 		"/>
	</g>
	<g>
		<g>
			<g>
				<path class="st0" d="M162.3,153.3l-6.7-7.7c0,0,0.9-0.2,3.2,0.5c1.4,0.4,2.5,1.1,4.1,2.2c5.1,3.6,5.4,10.1,3.8,12.6L162.3,153.3
					z"/>
			</g>
			<g>
				<path class="st0" d="M166.6,161c0,0,4.1-2.5-1.1-8.6c-1.3-1.5-5.3-4.9-9.9-6.7C155.6,145.6,162.2,154.2,166.6,161z"/>
			</g>
		</g>
		<polygon class="st0" points="166.5,160.5 169.7,165.1 169.4,165.6 166.2,160.2 		"/>
	</g>
	<g>
		<g>
			<path class="st0" d="M365.1,122.2l13.8-5.4c0,0-1-0.8-4.4-1.4c-2.1-0.4-4-0.3-6.8,0.1c-8.9,1.2-13.7,9.3-13.4,13.6L365.1,122.2z"
				/>
		</g>
		<g>
			<path class="st0" d="M354.4,129c0,0-3.6-6,7.3-10.3c2.7-1,10.2-2.7,17.3-1.9C378.9,116.8,364.7,123.3,354.4,129z"/>
		</g>
	</g>
	<g>
		<g>
			<g>
				<path class="st0" d="M410.3,105.8l10.5-4.1c0,0-0.8-0.6-3.4-1.1c-1.6-0.3-3.1-0.2-5.2,0c-6.8,0.9-10.5,7.1-10.2,10.4
					L410.3,105.8z"/>
			</g>
			<g>
				<path class="st0" d="M402.1,111c0,0-2.8-4.6,5.6-7.8c2-0.8,7.8-2.1,13.2-1.5C420.9,101.7,410,106.7,402.1,111z"/>
			</g>
		</g>
		<polygon class="st0" points="402.5,110.6 396.9,113.5 397,114.1 402.9,110.5 		"/>
	</g>
	<g>
		<g>
			<g>
				<path class="st0" d="M439.7,194.7l14.2-5.6c0,0-0.2,1.3-2.3,4.2c-1.3,1.7-2.8,3-5.1,4.7c-7.6,5.3-16.8,2.5-19.5-0.9L439.7,194.7
					z"/>
			</g>
			<g>
				<path class="st0" d="M426.8,197c0,0,1.5,7.1,12.7,2.7c2.7-1.1,9.6-5,14.4-10.6C453.9,189.1,438.6,194.1,426.8,197z"/>
			</g>
		</g>
		<polygon class="st0" points="427.5,197 419.5,199.3 419,198.6 428.1,196.7 		"/>
	</g>
	<g>
		<g>
			<g>
				<path class="st0" d="M420.3,250.7l6.2-2.4c0,0-0.5-0.4-2-0.7c-0.9-0.2-1.8-0.1-3,0c-4,0.5-6.2,4.2-6,6.1L420.3,250.7z"/>
			</g>
			<g>
				<path class="st0" d="M415.5,253.8c0,0-1.6-2.7,3.3-4.6c1.2-0.5,4.6-1.2,7.8-0.9C426.6,248.3,420.1,251.2,415.5,253.8z"/>
			</g>
		</g>
		<polygon class="st0" points="415.7,253.6 412.4,255.3 412.5,255.6 415.9,253.5 		"/>
	</g>
	<g>
		<g>
			<g>
				<path class="st0" d="M232.4,130.8L232.4,130.8L232.4,130.8z"/>
				<path class="st0" d="M130.6,116.7C130.6,116.7,130.7,116.7,130.6,116.7C130.7,116.7,130.6,116.7,130.6,116.7z"/>
				<path class="st0" d="M354.3,128.4L354.3,128.4L354.3,128.4z"/>
				<path class="st0" d="M125,88.4L125,88.4L125,88.4z"/>
				<path class="st0" d="M125,88.4L125,88.4L125,88.4z"/>
				<path class="st0" d="M10.8,237.5L10.8,237.5L10.8,237.5z"/>
				<path class="st0" d="M153.7,285.6C153.7,285.6,153.7,285.5,153.7,285.6C153.7,285.5,153.7,285.6,153.7,285.6z"/>
				<path class="st0" d="M421.2,278.9L421.2,278.9L421.2,278.9z"/>
				<path class="st0" d="M396.1,284.6C396.1,284.7,396.1,284.6,396.1,284.6S396.1,284.7,396.1,284.6z"/>
				<path class="st0" d="M346.5,164.9L346.5,164.9L346.5,164.9z"/>
				<path class="st0" d="M339.1,59.7L339.1,59.7L339.1,59.7z"/>
				<path class="st0" d="M339.1,59.7L339.1,59.7L339.1,59.7z"/>
				<g>
					<path class="st1" d="M437.7,188.9c-8.8,5.1-20.7,9.3-34,10.4c-3.2,0.2-6.3,0.1-9.4-0.4c-2.2-0.6-10.6-3.2-10.9-3.3
						c-0.2-0.1-0.4-0.2-0.6-0.2c15.3-7.9,25.5-18.3,31.1-26.4c6.4-9.1,8.3-14.9,8.5-14.8c-0.1-0.1-2.8,5.5-9.9,13.7
						c-7,8.2-19.4,18.4-37.4,24.9c-3.7,1.5-7.7,2.7-12,3.7c-3.4,0.7-6.8,1.5-10.3,2.2c-2.9,0.6-5.9,1.1-8.9,1.8
						c-0.6,0.1-5.7,1.2-7.7,1.6c0.6-0.5,7.8-4.3,10.2-5.6c8.7-4.9,16.2-10.4,22.3-16.4c1.4-1.3,2.6-2.7,3.8-4
						c10.3-11.7,13.2-26.2,17.3-37c6.8-25.7,13.4-40.7,12.9-40.9c0.5,0.2-6.8,15-14.3,40.4c-1.1,2.7-2.1,5.6-3.2,8.6
						c-3.4,8.4-7.2,21-18.5,30.8c-1.4,1.2-2.8,2.4-4.3,3.6c-0.2,0.2-0.5,0.3-0.7,0.5c1.3-2.3,2.1-4.7,2.1-7c0.2-3.9,0.2-7.1,0-9.6
						c0,0,0,0,0-0.1c0-16.6,0.7-26.8,1-26.7c-0.3-0.1-1.7,10.1-2.4,26.7c-0.2,4.1-0.3,8.7-1.7,13.1c-0.6,1.8-1.5,3.5-2.6,5.1
						c-0.8,0.9-1.8,1.7-2.8,2.6c-3.8,2.3-7.8,4.6-11.6,7.1c-0.2,0.1-0.3,0.2-0.5,0.3c-8.3,3.8-16.5,8-26.8,13.5c-1,0.5-6.3,3.2-8,4
						C296,216.9,286,227,276,237.4c-3,3.2-5.4,5.4-7.6,9.2c3.6-21.8,12.6-53,12.6-53c4.2-14.4,12.1-19.8,20.7-25.7
						c0,0,0.7-0.4,1-0.7c0.9-0.6,1.8-1.2,2.8-1.7c4.9-2.7,9.8-5,14.4-7.3c5.2-1.2,10.2-1.4,14.2-0.7c8.7,1.5,12,6.9,12.4,7.3
						c-0.4-0.4-3.1-6.3-12.1-8.6c-2.5-0.6-5.5-0.9-8.6-0.9c3.1-1.6,5.9-3.2,8.5-4.9c16-9.7,19.8-21.7,20-22.1
						c-0.3,0.3-5.3,11.6-21.5,19.7c-7.6,4.2-17.3,7.5-27.9,12.5c1.2-1.3,2.4-2.6,3.6-3.9c7.5-8,14.5-15.8,20.1-23.9
						c5.2-8.5,9.7-16.3,12.8-24.1c13.1-30.9,10.8-52.3,11.5-52c-0.7-0.3,0,21.1-14.1,50.9c-3.3,7.3-8,14.8-13.1,22.6
						c1.7-6.1,0.9-11.9-0.3-16.5c-3.5-10.7-9.8-14.5-9.4-14.7c-0.4,0.1,5.4,4.7,8.1,15.1c1,5.1,1.3,11.7-1.5,18
						c-1.3,3.1-3.6,6.1-6,9.2c-3.6,4-7.5,8-11.6,12.2c-6.9,7-14.2,14.4-20.8,23c0.1-0.4,0.1-0.7,0.2-1c2.7-12.5,3.4-24.8,3-35.8
						c1-10.8,3-21,6-30.5c1.1-4.1,2.3-8,3.3-11.9c1.4-3.4,2.9-6.6,4.7-9.3c5.8-6.7,14.7-9.2,20.7-12.6c12.6-6.6,16.4-15.3,16.9-15.5
						c-0.5,0.2-5,8.5-17.4,14.2c-6.3,3.2-15,4.9-22,12.4c-0.1,0.1-0.1,0.2-0.2,0.2c1.2-6.7,0.1-13.1-1.3-18.5
						c-3.5-11.4-8.5-19.5-11.2-25.4c-2.9-5.8-4.3-9.2-4.3-9.2s1,3.5,3.5,9.5c2.3,6.1,6.6,14.7,9.3,25.8c1.2,5.5,1.8,11.8,0.1,18.1
						c-1.8,6.4-4.2,13.4-6.6,20.8c-1.1,3.6-2.2,7.3-3.3,11.1c-1.4-11.2-3.3-20.9-5-29c-2.2-9.6-4.2-16.9-5.7-22
						c-1.4-6.1-2.7-11.7-3.9-16.5c-3.5-14.8-8.1-23.1-8-23.1c-0.1,0,3.8,8.6,6.6,23.4c2.6,13.1,5.7,30.3,9.7,50
						c0.8,7.4,1.5,15.8,1.7,25c0.2,5.1,0.3,10.4,0,15.9c-0.6-0.8-1.2-1.6-1.9-2.4c-1.6-2-3.5-3.7-5.4-5.2l0.1-0.1
						c-0.6-0.4-1.2-0.8-1.8-1.2c-0.1,0-0.1-0.1-0.2-0.1c0,0,0,0-0.1,0c-1.9-1.2-3.9-2.3-5.7-3.4c-3.4-2.1-6.5-4.3-9.3-6.6
						c-1.5-1.3-3-2.6-4.5-3.9c-3.5-3.3-6.4-6.7-8.8-10.2c-3.6-5.4-6.2-10.6-7.9-15.1c-3.1-9.4-4.2-18.6-3.8-25.8
						c0.2-14-7.5-20.1-7.3-19.8c-0.1-0.2,6.8,6.3,5.9,19.9c-1.1,11.3,0.9,27.2,9.5,42.2c-9.1-4.5-18-3.9-23.6-8.8
						c-1.7-1.1-3.2-2.2-4.6-3.4c-6.4-6.6-12.1-13.1-16.6-18.5c-8.9-12.5-16.8-18.1-16.8-18c0.1,0,7.4,6,15.7,18.9
						c3.6,4.7,7.7,9.8,12.5,15.4c0.9,1.1,1.9,2.2,3,3.4c0.6,0.6,1.2,1.3,1.8,1.9c3.6,3.7,8.4,6.8,13.9,8.4c0.8,0.2,1.6,0.5,2.3,0.7
						c4.9,1.6,9.9,3.2,13.8,6.5c4.3,3.3,8.5,7.4,13.1,11.6c2.2,2.1,4.8,3.8,7.3,5.4c-4.1,0-7.8,0.5-11,1c-11.3,1.9-17.7-3.8-18.3-4
						c0.6,0.3,6.1,7.3,18.5,6.8c6-0.2,13.6-0.4,20.1,2.7c5.4,2.2,8.1,8,9,14.6c-0.8,6-2,12.2-3.8,18.6c-4.2,17.2-11,35.5-18,55.6
						c-1.6,4.7-3.3,9.8-5,15c-2.2-10.2-5.9-19.8-10.6-28c-5.6-10.1-15.1-21.8-18-26.6s-1.2-21.3,0.8-29.6c2.7-12.2,0.1-20,0.2-19.8
						c0,0,1.1,7.7-2.9,19.2c-1.7,5.6-4.4,12.6-4.4,21c-11.5-18.5-16.8-36.1-21.1-48c-4.2-12.7-6.5-19.8-6.5-19.8s1.7,7.2,4.9,20.3
						c3.5,12.9,7.7,32.3,20,53.7c0.2,0.4,0.5,0.7,0.7,1.1c-3.7-2.4-7.7-4.5-11.6-6.4c-1.7-0.9-3.4-1.8-5.1-2.6
						c-17.4-8.2-33.1-14.3-43.6-24.1c-4-3.5-7.4-7-10.3-10.3c-2.5-3.1-4.8-6.3-6.6-9.5c-3.6-6.1-6.2-11.9-8.2-17.2
						c-0.1-0.3-0.2-0.6-0.2-0.6s0,0.1,0.1,0.3c-6-16.5-5.2-28-5.7-28.6c0.5,0.8-1.3,16.7,8.7,38.7c2.4,6.2,6.8,14.6,14.7,23.6
						c-3-1.8-6-3.1-9.2-2.9c-4-0.4-7,1.5-8.6,2.6c-1.7,1.2-2.7,1.9-2.7,1.9c0.1,0.7,3.9-4,11.1-3.1c3.6,0.4,7.6,2.4,11.2,5.6
						c15.2,13.3,34.6,21.8,47.1,28.1c8.3,4.3,17.3,9.4,24.1,16.6c3.9,4.1,6,7.4,6.1,7.6c-6-1.9-11.8-1.6-17-1.4
						c-4.3-0.2-8.3-0.9-11.6-3c-5.5-3.1-9.6-7.5-13.2-10.8c-7.2-7.1-13.4-9-13.3-9c-0.1,0.1,5.7,2.6,12.3,10
						c3.4,3.5,7.2,8.2,13.1,11.8c0.5,0.4,1.1,0.7,1.7,1c-2.1-0.1-4.1-0.4-6.1-0.7c-19.7-2.4-29.7-10.6-29.7-10.4
						c-0.1-0.2,8.8,9.6,28.8,13.6c13.3,2.8,23.1-0.3,34.2,3.7c3.3,1.1,5.8,3.1,7.8,5.7c6.6,12.9,11.6,27.2,11.2,43.9
						c0,2.6-1,11.1-1.5,12.7c-3.2-4.7-7.2-8.4-11-11.7c-12-9.9-26-14.8-39-17.7c-19.8-4.3-37.9-5.6-53.7-8.4
						c-3.8-1.4-7.3-3.2-10.2-5.4c-2.4-1.7-4.1-3.7-5.3-5.9c-0.3-3.4,1.1-7,3.2-9.4c3.5-3.7,8.3-6.7,10.5-10.5
						c4.3-7.6,5.5-12.6,5.8-12.5c-0.2-0.2-2.2,4.9-6.9,11.7c-2.4,3.5-6.8,5.6-11.1,9.8c-1.4,1.5-2.7,3.6-3.4,5.9
						c-0.8-2.8-1.2-5.8-1.3-8.4c-0.3-13.3,0-21.9-0.3-21.8c0.3,0.1-1.4,8.1-2.5,21.8c-0.3,6,0.4,15,6.7,21.4
						c-18.4-4.9-31.1-14.7-37.6-23.3c-2.4-3.1-4.2-5.8-5.5-8c-3.5-7.6-4.4-15.6-4.1-22.5c0.3-9.3,0.4-17.1-0.8-22.3
						c-1.1-5.2-2.6-7.8-2.5-7.8c-0.1,0,1.3,2.7,2.1,7.8c0.9,5.2,0.4,12.7-0.2,22.2c-0.8,9.3,0.7,21.5,8.3,31.9
						c4.4,6.4,10.6,12,17.8,16.7c5.9,4.2,13,8,21.3,10.8c1,0.4,2,0.7,2.9,1c-1,0.1-2,0.2-3,0.4c-10,0.9-19.1,5.4-26.8,8.3
						c-8,2.9-15.9,4.6-23.1,5.7c-0.6,0.1-1.1,0.2-1.7,0.3c-4.1,0.3-8.1,0.4-11.9,0.4c-10.8,0-20.6-0.6-28.4-2.9
						c-15.3-4.3-21.1-13.8-21.8-14.1c0.6,0.3,5.6,9.8,20.3,15.1c-2.3-0.6-3.5-1.1-3.4-1c-0.2-0.2,17.3,8.4,47.3,5.1
						c0.2,0,0.4-0.1,0.6-0.1c0.9-0.1,1.7-0.1,2.6-0.2c2.5-0.2,5.1-0.7,7.5-1.3c3-0.6,6-1.2,9.1-2.1c0.5-0.1,1.3-0.4,1.3-0.4
						c0.9-0.3,1.8-0.5,2.7-0.8c0.8-0.3,1.6-0.6,2.5-0.9c-0.8,0.8-1.5,1.7-2,2.6c-1.8,3.4-2.5,6.6-3.1,9.1c-1.1,5.1-1.8,7.9-1.8,7.9
						s0.9-2.8,2.3-7.8c0.8-3.7,2.6-9.3,7.5-12.9c6.7-2.5,13.2-4.9,20.9-5.4c5.8-0.7,13.5-1.3,18.8-0.5s22.3,4,34.7,6.6
						c-8.9,1-16.9,3.9-23.1,7.6c-1.4,0.9-2.7,1.7-3.9,2.6c-0.1,0.1-0.3,0.2-0.4,0.3c-0.3,0.2-0.6,0.5-1,0.7
						c-11.3,8.3-18.3,19.4-22.7,27.7c-2.7,5.3-7.3,7.9-10.4,8.6c-3.3,0.6-5.1-0.6-5.1-0.5c0-0.2,1.6,1.3,5.2,0.9
						c3.4-0.5,8.4-2.8,11.6-8.3c5.1-8.4,13.1-19.6,25.1-27.5c-1.7,2.7-2.7,5.7-3.4,8.2c-2.2,9.4,3.2,14,3.4,14.5
						c-0.2-0.6-4.8-5.6-2.1-14.2c1.5-4.2,4-9.6,9.1-12.5c0.1-0.1,0.2-0.1,0.3-0.2c12.4-5.1,29.4-5.2,46.4,0.5
						c6.7,2.9,13.1,6.6,18.8,11.5c4.9,4.3,9.5,9.2,11.3,14.6c1.1,3.1,1.5,10.3,0.9,14.7c-3.6,25.6-12.5,194.2-12.3,257.4h40.3
						c-8.2-58.9-8.6-217.1-3.5-262.3c1.1-9.3,11.3-16,14.5-18c11.4-6.5,23.8-9.4,36.2-10.3c0.2,0,0.3,0,0.5,0
						c2.7,0.3,5.3,0.7,7.8,1.4c5.4,1.9,9.7,6.9,13.6,11.1c0.5,0.6,1.1,1.3,1.7,1.9c4.7,9.8,1.4,20.8,2.7,28.9
						c0.6,5.5,3.7,8.9,5.5,11.1c1.9,2.2,3,3.3,3,3.3s-1-1.3-2.7-3.6c-1.6-2.3-4.3-5.9-4.4-10.9c-0.2-5.1,0.5-11.2,0.9-18.1
						c0-1.8,0-3.8-0.3-5.8c1.8,1.8,3.6,3.5,5.3,5.2c0.7,0.7,1.5,1.3,2.2,1.9c4.2,4.3,8.5,8.2,13.3,11.4
						c10.9,7.6,21.8,12.9,31.1,16.5c18.5,7.6,30.9,9.4,31,8.8c-0.1,0.6-12.2-2-30.4-10.1c-8.3-3.5-17.8-8.5-27.4-15.1
						c3.9,1.5,7.7,2.4,11,3c11.6,1.8,18.9,0.7,18.8,0.9c0-0.2-7.3,0.2-18.6-2.3c-5.6-1.4-12.2-3.4-18.2-8c-4-3.3-8.5-7-12.6-11.1
						c-1.2-1.3-7.6-8.6-8.8-10.2c-2.9-3.4-5.9-7.5-10.2-10.5c17.7-0.2,34.3,0.9,49,0.8c4.2,1.2,7.9,3.5,11.5,5.5
						c1.5,1,2.8,2.1,3.8,3.3c3.9,4.2,3.5,8.3,3.6,8.7c0-0.4,1.1-4.4-2.4-9.4c0.9,0.4,1.8,0.7,2.7,0.9c14.5,4.9,24.2,2.6,24.7,2.7
						c-0.5-0.1-10.3,1.4-24.2-4c-2.1-0.6-4.2-1.8-6.3-3.1c-1.8-1.7-4.1-3.2-6.6-4.7c18.3-0.5,33.3-4.4,42.4-9.8
						c9.5-5.7,12.9-10.9,13.1-10.7c-0.1-0.2-4.2,4.6-13.9,9.1c-4.5,2.1-10.2,3.7-17,4.8c1.5-1.5,2.6-3.1,3.6-4.6
						c3.7-5.8,3.7-10.3,3.8-10.2c-0.1-0.1-0.8,4.2-5,9.4c-1.7,1.9-3.8,4.4-6.6,5.9c-6.9,0.8-14.7,1-23.2,0.4
						c-19.2-1-42-4.6-68.3-4.2c-12.8,0.4-36.9,6-47.4,15.2c2.6-7.7,12.1-18.1,16.8-24.8c9.2-13.1,15.5-19.3,29.2-26.9
						c10.8-6,29.8-6.3,36.4-4.2c13.5,4,20.3,10.2,20.4,9.9c-0.1,0.3-6.4-6.4-20-11.3c-4.7-1.8-10.5-3-17-3.2
						c14.9-4.8,42.9-12.2,47.2-12.1c5.7,0.1,9.7,1.9,13,2.5c2.6,0.5,5,0.6,7.2,0.6c1.2,0.1,2.3,0.1,3.4,0.1c4.3,0.1,8,0.7,11,1.7
						c6.2,1.9,9.2,4.8,9.2,4.7c0,0.1-0.9-2.4-7.4-5.7c-1.9-1.1-5.6-2-6.1-2.1c8-1.4,14.8-4,20.5-6.6c3.9-1.9,7.1-3.8,9.8-5.6
						c0.4-0.3,0.8-0.5,1.2-0.8c0,0,0.1,0,0.1-0.1c16-11.4,20.7-23.2,21.1-22.7C461.2,165.5,455.3,178,437.7,188.9z"/>
				</g>
			</g>
		</g>
		
			<radialGradient id="SVGID_1_" cx="-335.7184" cy="439.7462" r="77.148" gradientTransform="matrix(1.9106 0 0 -0.1548 890.5236 514.4727)" gradientUnits="userSpaceOnUse">
			<stop  offset="0" style="stop-color:#6C5E06"/>
			<stop  offset="0.1854" style="stop-color:#897E37"/>
			<stop  offset="0.6048" style="stop-color:#D1CDB1"/>
			<stop  offset="0.8626" style="stop-color:#FFFFFF"/>
		</radialGradient>
		<ellipse class="st2" cx="249.1" cy="446.4" rx="147.5" ry="11.9"/>
	</g>
</g>
</svg>
