<?xml version="1.0" encoding="utf-8"?>
<!-- Generator: Adobe Illustrator 20.0.0, SVG Export Plug-In . SVG Version: 6.00 Build 0)  -->
<svg version="1.1" id="Capa_1" xmlns="http://www.w3.org/2000/svg" xmlns:xlink="http://www.w3.org/1999/xlink" x="0px" y="0px"
	 viewBox="0 0 1583 1583" style="enable-background:new 0 0 1583 1583;" xml:space="preserve">
<style type="text/css">
	.st0{fill:#FBF9F6;stroke:#000000;stroke-miterlimit:10;}
	.st1{fill:#FFD40C;}
</style>
<circle class="st0" cx="791.5" cy="791.5" r="791.5"/>
<g>
	<path class="st1" d="M1325.8,921.2v-124c0-47.1-37.9-84.9-84.9-84.9l-58.7-9.2l-100.5-151.4c-1.4-1.2-2.6-4.1-4.1-5.2
		c-15.6-20.8-40.5-35.3-69.3-35.3H817.7v-52.7c0-26.8-19.8-48.5-44.4-48.5H258.8c-24.6,0-44.4,21.7-44.4,48.5v331.4v179.8v11.5v49.7
		c0,27.4,22.3,48.2,48.2,48.2h69.3c15.6,54.9,65.3,93.9,125.4,93.9s109.7-40.5,125.4-93.9h158.1h268.9
		c15.6,54.9,65.3,93.9,125.4,93.9s109.7-40.5,125.4-93.9h60c27.4,0,48.2-22.3,48.2-48.2v-61.3
		C1368.9,944.6,1349.2,923.8,1325.8,921.2z M457.4,1107.8c-36.7,0-65.3-30-65.3-65.3c0-35.3,30-65.3,65.3-65.3
		c36.7,0,65.3,30,65.3,65.3C522.7,1077.8,494,1107.8,457.4,1107.8z M907.1,708c-3.3,0-6.1-2.6-6.1-6.1V581.9c0-3.3,2.6-6.1,6.1-6.1
		h103.6c2.2,0,4.1,1,5,2.6l80.7,119.9c2.6,4.1-0.3,9.5-5,9.5H907.1V708z M1135.1,1107.8c-36.7,0-65.3-30-65.3-65.3
		c0-35.3,30-65.3,65.3-65.3c36.7,0,65.3,30,65.3,65.3C1200.5,1077.8,1170.5,1107.8,1135.1,1107.8z"/>
</g>
</svg>
