<?xml version="1.0" encoding="utf-8"?>
<!-- Generator: Adobe Illustrator 20.0.0, SVG Export Plug-In . SVG Version: 6.00 Build 0)  -->
<svg version="1.1" id="Capa_1" xmlns="http://www.w3.org/2000/svg" xmlns:xlink="http://www.w3.org/1999/xlink" x="0px" y="0px"
	 viewBox="0 0 76 76" style="enable-background:new 0 0 76 76;" xml:space="preserve">
<style type="text/css">
	.st0{fill:#55ACEE;}
	.st1{fill:#F1F2F2;}
</style>
<g>
	<circle class="st0" cx="38" cy="38" r="38"/>
	<g>
		<path class="st1" d="M61.3,27.3c-1.6,0.7-3.4,1.2-5.2,1.4c1.9-1.1,3.3-2.9,4-5c-1.8,1-3.7,1.8-5.8,2.2c-1.7-1.8-4-2.9-6.6-2.9
			c-5,0-9.1,4.1-9.1,9.1c0,0.7,0.1,1.4,0.2,2.1c-7.5-0.4-14.2-4-18.7-9.5c-0.8,1.3-1.2,2.9-1.2,4.6c0,3.2,1.6,5.9,4,7.6
			c-1.5,0-2.9-0.5-4.1-1.1c0,0,0,0.1,0,0.1c0,4.4,3.1,8.1,7.3,8.9c-0.8,0.2-1.6,0.3-2.4,0.3c-0.6,0-1.2-0.1-1.7-0.2
			c1.2,3.6,4.5,6.2,8.5,6.3c-3.1,2.4-7,3.9-11.3,3.9c-0.7,0-1.5,0-2.2-0.1c4,2.6,8.8,4.1,13.9,4.1c16.7,0,25.8-13.8,25.8-25.8
			c0-0.4,0-0.8,0-1.2C58.5,30.7,60.1,29.1,61.3,27.3L61.3,27.3z"/>
	</g>
</g>
</svg>
