<?xml version="1.0" encoding="utf-8"?>
<!-- Generator: Adobe Illustrator 20.0.0, SVG Export Plug-In . SVG Version: 6.00 Build 0)  -->
<svg version="1.1" id="Capa_1" xmlns="http://www.w3.org/2000/svg" xmlns:xlink="http://www.w3.org/1999/xlink" x="0px" y="0px"
	 viewBox="0 0 76 77.3" style="enable-background:new 0 0 76 77.3;" xml:space="preserve">
<style type="text/css">
	.st0{fill:#4D76A1;}
	.st1{fill:#FFFFFF;}
</style>
<g>
	<g>
		<circle id="XMLID_11_" class="st0" cx="38" cy="38" r="38"/>
	</g>
	<path class="st1" d="M36.6,54.7h3c0,0,0.9-0.1,1.4-0.6c0.4-0.5,0.4-1.3,0.4-1.3s-0.1-4,1.8-4.6c1.8-0.6,4.2,3.9,6.7,5.6
		c1.9,1.3,3.3,1,3.3,1l6.7-0.1c0,0,3.5-0.2,1.8-3c-0.1-0.2-1-2-5-5.7c-4.2-3.9-3.6-3.3,1.4-10c3.1-4.1,4.3-6.6,3.9-7.6
		c-0.4-1-2.6-0.7-2.6-0.7l-7.5,0c0,0-0.6-0.1-1,0.2c-0.4,0.2-0.7,0.8-0.7,0.8s-1.2,3.2-2.8,5.8c-3.3,5.7-4.7,6-5.2,5.6
		c-1.3-0.8-1-3.3-1-5.1c0-5.5,0.8-7.8-1.6-8.4c-0.8-0.2-1.4-0.3-3.5-0.3c-2.7,0-4.9,0-6.2,0.6c-0.9,0.4-1.5,1.3-1.1,1.4
		c0.5,0.1,1.6,0.3,2.2,1.1c0.8,1,0.7,3.4,0.7,3.4s0.4,6.5-1,7.3c-1,0.6-2.4-0.6-5.4-5.7c-1.5-2.6-2.7-5.6-2.7-5.6s-0.2-0.5-0.6-0.8
		c-0.5-0.4-1.2-0.5-1.2-0.5l-7.1,0c0,0-1.1,0-1.5,0.5c-0.3,0.4,0,1.3,0,1.3S17.9,42.4,24.2,49C30,55.1,36.6,54.7,36.6,54.7
		L36.6,54.7z"/>
</g>
</svg>
