<?xml version="1.0" encoding="utf-8"?>
<!-- Generator: Adobe Illustrator 20.0.0, SVG Export Plug-In . SVG Version: 6.00 Build 0)  -->
<svg version="1.1" id="Capa_1" xmlns="http://www.w3.org/2000/svg" xmlns:xlink="http://www.w3.org/1999/xlink" x="0px" y="0px"
	 viewBox="0 0 237 162" style="enable-background:new 0 0 237 162;" xml:space="preserve">
<style type="text/css">
	.st0{fill:#FF6D40;}
</style>
<g>
	<g id="_x33_56._Play">
		<g>
			<path class="st0" d="M154.4,60.3C143,40.4,117.6,33.6,97.8,45.1c-19.8,11.5-26.6,36.8-15.2,56.7c11.5,19.8,36.8,26.6,56.7,15.2
				C159.1,105.5,165.9,80.1,154.4,60.3z M135.1,109.7c-15.9,9.2-36.2,3.7-45.3-12.1c-9.2-15.9-3.7-36.2,12.1-45.3
				c15.9-9.2,36.2-3.7,45.3,12.1C156.4,80.3,151,100.6,135.1,109.7z M133.4,79.3l-21.7-12.7c-2-1.2-3.6-0.2-3.6,2.1l0.1,25.2
				c0,2.3,1.6,3.2,3.6,2.1l21.6-12.4C135.4,82.3,135.4,80.5,133.4,79.3z"/>
		</g>
	</g>
</g>
</svg>
