<?xml version="1.0" encoding="utf-8"?>
<!-- Generator: Adobe Illustrator 20.0.0, SVG Export Plug-In . SVG Version: 6.00 Build 0)  -->
<svg version="1.1" id="Layer_1" xmlns="http://www.w3.org/2000/svg" xmlns:xlink="http://www.w3.org/1999/xlink" x="0px" y="0px"
	 viewBox="0 0 155.5 154.5" style="enable-background:new 0 0 155.5 154.5;" xml:space="preserve">
<style type="text/css">
	.st0{fill:#FF4105;}
	.st1{fill:url(#SVGID_1_);}
	.st2{fill:#1B1601;}
	.st3{fill:#FFD40C;}
	.st4{fill:url(#SVGID_2_);}
	.st5{fill:url(#SVGID_3_);}
	.st6{fill:url(#SVGID_4_);}
</style>
<g id="Layer_1_1_">
	<g>
		<path class="st0" d="M77.8,152.2c-3.1,0-5.9-1.2-8.1-3.3L6.1,85.3c-2.1-2.2-3.3-5.1-3.3-8.1s1.2-5.9,3.3-8.1L69.7,5.6
			c2.2-2.1,5-3.3,8.1-3.3s5.9,1.2,8.1,3.3l63.6,63.6c4.4,4.4,4.4,11.7,0,16.1l-63.6,63.6C83.7,151.1,80.8,152.2,77.8,152.2z"/>
		
			<linearGradient id="SVGID_1_" gradientUnits="userSpaceOnUse" x1="76.766" y1="404.836" x2="78.9359" y2="555.1014" gradientTransform="matrix(1 0 0 1 0 -403.5)">
			<stop  offset="0" style="stop-color:#FFE984"/>
			<stop  offset="1" style="stop-color:#FFD40C"/>
		</linearGradient>
		<path class="st1" d="M149.1,68.8c4.2,4.2,4.2,11,0,15.2l-63.6,64c-4.2,4.2-11.1,4.2-15.3,0L6.6,84c-4.2-4.2-4.2-11,0-15.2
			L70.1,5.9c4.2-4.2,11.1-4.2,15.3,0L149.1,68.8z"/>
		<path class="st2" d="M77.8,148.1c-1.9,0-3.8-0.7-5.1-2.1L9.1,82.3C7.7,80.9,7,79.2,7,77.2s0.7-3.8,2.1-5.1L72.7,8.6
			c1.4-1.4,3.2-2.1,5.1-2.1s3.8,0.7,5.1,2.1l63.6,63.6c2.8,2.8,2.8,7.4,0,10.2L82.9,146C81.6,147.4,79.7,148.1,77.8,148.1z"/>
		<path class="st3" d="M77.8,145.8c-1.3,0-2.5-0.5-3.5-1.4L10.6,80.7c-0.9-0.9-1.4-2.1-1.4-3.4s0.5-2.5,1.4-3.5l63.6-63.6
			c1-0.9,2.2-1.4,3.5-1.4s2.5,0.5,3.5,1.4l63.6,63.6c0.9,0.9,1.4,2.1,1.4,3.5c0,1.3-0.5,2.5-1.4,3.5l-63.6,63.6
			C80.2,145.2,79.1,145.8,77.8,145.8z"/>
		
			<linearGradient id="SVGID_2_" gradientUnits="userSpaceOnUse" x1="77.527" y1="412.9781" x2="78.0694" y2="547.5114" gradientTransform="matrix(1 0 0 1 0 -403.5)">
			<stop  offset="0" style="stop-color:#FFE984"/>
			<stop  offset="1" style="stop-color:#FFD40C"/>
		</linearGradient>
		<path class="st4" d="M77.8,144.4c-1.2,0-2.2-0.4-3-1.2l-62.9-63c-0.8-0.8-1.2-1.9-1.2-3c0-1.2,0.4-2.2,1.2-3l62.9-62.9
			c0.8-0.8,1.9-1.2,3-1.2c1.2,0,2.2,0.4,3,1.2l62.8,62.9c0.8,0.8,1.3,1.9,1.3,3s-0.4,2.2-1.3,3L80.8,143
			C79.9,143.9,78.8,144.4,77.8,144.4z"/>
		<g>
			<path class="st2" d="M40,86.4l17.3,20c0.5,0.5,1.2,0.7,1.8,0.5s1.1-0.8,1.1-1.5l0.6-9.5c1.3-8.2-0.7-6.8,1.2-17.2L62.8,68
				c0-0.7-0.3-1.3-0.9-1.6c-0.6-0.3-1.3-0.2-1.8,0.2L40.2,84.1C39.5,84.7,39.3,85.8,40,86.4z"/>
			<path class="st2" d="M60,94.8c0,0,41.9,6.3,59.2-39.7l-14.8-6.9c0,0-11.5,36-42,30.9l-12.8,7.8L60,94.8z"/>
		</g>
		<g>
			<circle class="st0" cx="77.8" cy="18.5" r="2.2"/>
			
				<linearGradient id="SVGID_3_" gradientUnits="userSpaceOnUse" x1="77.7281" y1="420.4889" x2="77.8854" y2="423.7938" gradientTransform="matrix(1 0 0 1 0 -403.5)">
				<stop  offset="0" style="stop-color:#FFFFFF"/>
				<stop  offset="1" style="stop-color:#B3B3B3"/>
			</linearGradient>
			<circle class="st5" cx="77.8" cy="18.5" r="1.7"/>
			<circle class="st2" cx="77.8" cy="18.5" r="0.7"/>
		</g>
		<g>
			<circle class="st0" cx="77.8" cy="136.1" r="2.2"/>
			
				<linearGradient id="SVGID_4_" gradientUnits="userSpaceOnUse" x1="77.7281" y1="538.0906" x2="77.8855" y2="541.3961" gradientTransform="matrix(1 0 0 1 0 -403.5)">
				<stop  offset="0" style="stop-color:#FFFFFF"/>
				<stop  offset="1" style="stop-color:#B3B3B3"/>
			</linearGradient>
			<circle class="st6" cx="77.8" cy="136.1" r="1.7"/>
			<circle class="st2" cx="77.8" cy="136.1" r="0.7"/>
		</g>
	</g>
</g>
</svg>
