<?xml version="1.0" encoding="utf-8"?>
<!-- Generator: Adobe Illustrator 20.0.0, SVG Export Plug-In . SVG Version: 6.00 Build 0)  -->
<svg version="1.1" id="Layer_1" xmlns="http://www.w3.org/2000/svg" xmlns:xlink="http://www.w3.org/1999/xlink" x="0px" y="0px"
	 viewBox="0 0 86 86" style="enable-background:new 0 0 86 86;" xml:space="preserve">
<style type="text/css">
	.st0{fill:#FBF9F6;}
	.st1{fill:#FFD40C;}
</style>
<circle class="st0" cx="43" cy="43.6" r="26.5"/>
<g>
	<g>
		<g>
			<path class="st1" d="M58.6,47.2c0.5,1.9-4.8,1.3-6.1,3.1s-4.4,0.6-5.2,0.2c-0.7-0.3-3.5,0.8-3.3-1.1c0.2-1.9,1.9-2.1,3.8-2.8
				c1.8-0.8,4.4-3.4,3.2-3.8c-6.1-1.6-8.1-7.3-8.1-7.3c-0.4-0.1-0.3-4-1.8-4.1c-1.6-0.1-2.4,0.5-4.7,0s-1.8-1.9-2.2-5.1
				s1-2.2,1.7-3.2c0.1-0.1,0.1-0.2,0.2-0.3C27.6,25.6,21.5,33.6,21.5,43l0,0c1.6,0.1,4.4,0.4,4.6,1.5c0.2,1.5,0,3.3,1.3,3.9
				c1.3,0.6,1.7-2.2,2.8-1.5c1.1,0.7,4.1,1.5,4.1,2.8s-0.6,3.4,0,3.7c0.6,0.4,2.8,3,2.8,3.3c0,0.4,0.8,2.3,0.6,3
				c-0.2,0.6-1.2,2.5-2.1,3.3c2.3,0.9,4.9,1.4,7.5,1.4c11.8,0,21.5-9.6,21.5-21.5c0-3.5-0.9-6.8-2.3-9.7c0.1,2.2,0,4.2,0.5,4.8
				C64.7,40.9,57.6,42.9,58.6,47.2z"/>
			<path class="st1" d="M43,0C19.3,0,0,19.3,0,43s19.3,43,43,43s43-19.3,43-43S66.7,0,43,0z M43,68.9c-14.3,0-25.9-11.6-25.9-25.9
				S28.7,17.1,43,17.1S68.9,28.7,68.9,43S57.3,68.9,43,68.9z"/>
		</g>
	</g>
</g>
</svg>
