<?xml version="1.0" encoding="utf-8"?>
<!-- Generator: Adobe Illustrator 20.0.0, SVG Export Plug-In . SVG Version: 6.00 Build 0)  -->
<svg version="1.1" id="Layer_1" xmlns="http://www.w3.org/2000/svg" xmlns:xlink="http://www.w3.org/1999/xlink" x="0px" y="0px"
	 viewBox="0 0 86 86" style="enable-background:new 0 0 86 86;" xml:space="preserve">
<style type="text/css">
	.st0{fill:#FFFFFF;}
	.st1{fill:#FFD40C;}
</style>
<circle class="st0" cx="43.1" cy="44.5" r="27.3"/>
<g>
	<g>
		<g>
			<circle class="st1" cx="43" cy="44.5" r="8.1"/>
			<path class="st1" d="M43-0.3C19.3-0.3,0,19,0,42.7s19.3,43,43,43s43-19.3,43-43S66.7-0.3,43-0.3z M65.6,49l-6.1,0.4
				c-0.3,1.2-0.8,2.3-1.4,3.3l4,4.6l-6.4,6.4l-4.6-4c-1,0.6-2.1,1-3.3,1.4l-0.4,6.1h-9L38.1,61c-1.2-0.3-2.3-0.8-3.3-1.4l-4.6,4
				l-6.4-6.4l4-4.6c-0.6-1-1-2.1-1.4-3.3l-6-0.3v-9l6.1-0.4c0.3-1.2,0.8-2.3,1.4-3.3l-4-4.6l6.4-6.4l4.6,4c1-0.6,2.1-1,3.3-1.4
				l0.4-6.1h9l0.4,6.1c1.2,0.3,2.3,0.8,3.3,1.4l4.6-4l6.4,6.4l-4,4.6c0.6,1,1,2.1,1.4,3.3l6.1,0.4L65.6,49z"/>
		</g>
	</g>
</g>
</svg>
