<?xml version="1.0" encoding="utf-8"?>
<!-- Generator: Adobe Illustrator 20.0.0, SVG Export Plug-In . SVG Version: 6.00 Build 0)  -->
<svg version="1.1" id="Layer_1" xmlns="http://www.w3.org/2000/svg" xmlns:xlink="http://www.w3.org/1999/xlink" x="0px" y="0px"
	 viewBox="0 0 86 86" style="enable-background:new 0 0 86 86;" xml:space="preserve">
<style type="text/css">
	.st0{fill:#FFFFFF;}
	.st1{fill:#FFD40C;}
</style>
<circle class="st0" cx="43" cy="43" r="28.5"/>
<g>
	<g>
		<path class="st1" d="M43,0C19.3,0,0,19.3,0,43s19.3,43,43,43s43-19.3,43-43S66.7,0,43,0z M38.2,43c0,0.9-0.2,1.8-0.4,2.6l12,5.8
			c1.4-1.5,3.4-2.5,5.6-2.5c4.2,0,7.6,3.4,7.6,7.6s-3.4,7.6-7.6,7.6s-7.6-3.4-7.6-7.6c0-0.4,0-0.8,0.1-1.2l-12.8-6.1
			c-1.2,0.9-2.8,1.5-4.4,1.5c-4.2,0-7.6-3.4-7.6-7.6s3.4-7.6,7.6-7.6c1.7,0,3.2,0.5,4.4,1.5l12.8-6.1c-0.1-0.4-0.1-0.8-0.1-1.2
			c0-4.2,3.4-7.6,7.6-7.6s7.6,3.4,7.6,7.6s-3.4,7.6-7.6,7.6c-2.2,0-4.2-1-5.6-2.5l-12,5.8C38.1,41.2,38.2,42.1,38.2,43z"/>
	</g>
</g>
</svg>
