<?xml version="1.0" encoding="utf-8"?>
<!-- Generator: Adobe Illustrator 20.0.0, SVG Export Plug-In . SVG Version: 6.00 Build 0)  -->
<svg version="1.1" id="Layer_1" xmlns="http://www.w3.org/2000/svg" xmlns:xlink="http://www.w3.org/1999/xlink" x="0px" y="0px"
	 viewBox="0 0 86 86" style="enable-background:new 0 0 86 86;" xml:space="preserve">
<style type="text/css">
	.st0{fill:#FFFFFF;}
	.st1{fill:#FFD40C;}
</style>
<circle class="st0" cx="42" cy="45.1" r="31.6"/>
<g>
	<g>
		<g>
			<path class="st1" d="M59.5,33.1H39.1l-5.4-4.9h-9.2c-0.7,0-1.3,0.6-1.3,1.3v31.2c0,0.7,0.6,1.3,1.3,1.3h1l5.1-26.1h30.2v-1.5
				C60.8,33.6,60.2,33.1,59.5,33.1z"/>
			<path class="st1" d="M43,0C19.3,0,0,19.3,0,43s19.3,43,43,43s43-19.3,43-43S66.7,0,43,0z M65.1,61c-0.2,3-2.6,5.3-5.5,5.4h-0.1
				h-2.6H24.6c-3.2,0-5.7-2.6-5.7-5.7V29.5c0-3.2,2.6-5.7,5.7-5.7h10.9l5.4,4.9h18.7c3.2,0,5.7,2.6,5.7,5.7v1.5h5.1L65.1,61z"/>
		</g>
	</g>
</g>
</svg>
