<?xml version="1.0" encoding="utf-8"?>
<!-- Generator: Adobe Illustrator 20.0.0, SVG Export Plug-In . SVG Version: 6.00 Build 0)  -->
<svg version="1.1" id="Layer_1" xmlns="http://www.w3.org/2000/svg" xmlns:xlink="http://www.w3.org/1999/xlink" x="0px" y="0px"
	 viewBox="0 0 86 86" style="enable-background:new 0 0 86 86;" xml:space="preserve">
<style type="text/css">
	.st0{fill:#FFFFFF;}
	.st1{fill:#FFD40C;}
</style>
<circle class="st0" cx="43" cy="44.5" r="32.1"/>
<g>
	<g>
		<g>
			<path class="st1" d="M43,0C19.3,0,0,19.3,0,43s19.3,43,43,43s43-19.3,43-43S66.7,0,43,0z M64.6,35.3L54.1,45.9
				c-1.1,1.1-2.7,1.8-4.3,1.8s-3.1-0.6-4.3-1.8l-0.4-0.4L44,46.6l0.4,0.4c2.4,2.4,2.4,6.2,0,8.5L33.9,66c-1.1,1.1-2.7,1.8-4.3,1.8
				c-1.6,0-3.1-0.6-4.3-1.8l-4-4c-2.4-2.4-2.4-6.2,0-8.5L31.9,43c1.1-1.1,2.7-1.8,4.3-1.8s3.1,0.6,4.3,1.8l0.4,0.4l1.1-1.1l-0.4-0.4
				c-2.4-2.4-2.4-6.2,0-8.5l10.5-10.5c1.1-1.1,2.7-1.8,4.3-1.8s3.1,0.6,4.3,1.8l4,4C67,29.2,67,33,64.6,35.3z"/>
			<path class="st1" d="M40.9,49.7l-2,2l-3.2-3.2l2-2l-0.4-0.4c-0.3-0.3-0.7-0.5-1.1-0.5c-0.4,0-0.8,0.2-1.1,0.5L24.5,56.7
				c-0.6,0.6-0.6,1.6,0,2.2l4,4c0.6,0.6,1.6,0.6,2.2,0l10.5-10.5c0.6-0.6,0.6-1.6,0-2.2L40.9,49.7z"/>
			<path class="st1" d="M57.5,26c-0.3-0.3-0.7-0.5-1.1-0.5s-0.8,0.2-1.1,0.5L44.7,36.5c-0.6,0.6-0.6,1.6,0,2.2l0.4,0.4l3.1-3.1
				l3.2,3.2l-3.1,3.1l0.4,0.4c0.6,0.6,1.6,0.6,2.2,0l10.5-10.5c0.6-0.6,0.6-1.6,0-2.2L57.5,26z"/>
		</g>
	</g>
</g>
</svg>
