<?xml version="1.0" encoding="utf-8"?>
<!-- Generator: Adobe Illustrator 20.0.0, SVG Export Plug-In . SVG Version: 6.00 Build 0)  -->
<svg version="1.1" id="Layer_1" xmlns="http://www.w3.org/2000/svg" xmlns:xlink="http://www.w3.org/1999/xlink" x="0px" y="0px"
	 viewBox="0 0 86 86" style="enable-background:new 0 0 86 86;" xml:space="preserve">
<style type="text/css">
	.st0{fill:#FFFFFF;}
	.st1{fill:#FFD40C;}
</style>
<circle class="st0" cx="43.1" cy="43.5" r="31.7"/>
<g>
	<g>
		<g>
			<polygon class="st1" points="34.9,41.2 31,44.6 40.3,55.1 40.4,55.1 40.4,55.1 57.2,38 54.2,34 40.5,45.3 			"/>
			<path class="st1" d="M43,0C19.3,0,0,19.3,0,43s19.3,43,43,43s43-19.3,43-43S66.7,0,43,0z M43,66.8c-22.1,0-23.7-37.4-23.7-37.4
				L43,19.2l0,0l23.7,10.1C66.7,29.3,65.1,66.8,43,66.8z"/>
		</g>
	</g>
</g>
</svg>
